<?xml version="1.0" standalone="no"?>
<!DOCTYPE svg PUBLIC "-//W3C//DTD SVG 20010904//EN"
 "http://www.w3.org/TR/2001/REC-SVG-20010904/DTD/svg10.dtd">
<svg version="1.0" xmlns="http://www.w3.org/2000/svg"
 width="1024.000000pt" height="1024.000000pt" viewBox="0 0 1024.000000 1024.000000"
 preserveAspectRatio="xMidYMid meet">

<g transform="translate(0.000000,1024.000000) scale(0.100000,-0.100000)"
fill="#000000" stroke="none">
<path d="M5019 10037 c-31 -16 -53 -38 -72 -73 -16 -27 -69 -121 -119 -209
-216 -384 -413 -635 -651 -834 -99 -82 -123 -115 -133 -179 -10 -66 10 -120
66 -174 54 -52 92 -67 193 -75 l67 -6 0 -413 0 -414 -34 -47 c-50 -70 -92
-161 -123 -260 -24 -80 -27 -103 -27 -258 -1 -136 3 -184 18 -240 26 -96 71
-198 122 -278 l44 -68 0 -389 0 -390 -50 0 c-130 0 -252 -53 -350 -150 -132
-131 -150 -196 -150 -530 l0 -247 -26 -24 c-57 -52 -235 -252 -326 -365 -381
-476 -657 -1018 -754 -1482 -35 -169 -44 -388 -20 -516 69 -364 329 -709 751
-995 111 -76 278 -171 343 -196 23 -10 42 -22 42 -27 0 -5 -79 -143 -176 -306
-98 -164 -195 -328 -217 -365 -48 -82 -58 -145 -33 -212 20 -52 71 -100 123
-115 27 -8 497 -10 1610 -8 l1571 3 44 30 c64 46 90 96 86 171 -4 58 -10 71
-208 405 -112 189 -212 357 -223 372 -10 16 -18 29 -16 30 2 1 49 25 104 52
123 62 312 179 425 264 113 85 342 316 412 417 256 364 294 721 131 1229 -164
510 -519 1087 -936 1521 l-117 122 0 250 c0 222 -2 257 -20 315 -63 205 -264
357 -472 357 l-58 0 0 391 0 391 48 73 c102 151 145 298 145 495 0 200 -39
337 -144 511 l-49 82 0 407 0 407 64 7 c168 17 257 94 257 222 0 78 -27 118
-152 224 -225 191 -445 478 -643 840 -46 85 -96 174 -111 197 -50 80 -166 107
-256 60z m178 -722 c75 -127 219 -328 310 -432 l54 -62 -28 -8 c-36 -10 -849
-10 -859 0 -4 4 11 26 33 50 99 102 308 395 379 531 16 30 32 52 35 48 3 -4
38 -61 76 -127z m253 -1106 c0 -108 3 -211 7 -229 6 -30 4 -33 -13 -25 -50 21
-158 46 -238 56 -129 16 -290 -6 -408 -56 -17 -7 -18 8 -18 221 l0 229 335 0
335 0 0 -196z m-250 -610 c84 -13 192 -67 262 -129 274 -244 223 -676 -99
-848 -261 -139 -578 -36 -712 231 -150 300 12 651 341 737 85 22 119 24 208 9z
m-285 -1419 c156 -34 335 -25 520 26 20 5 20 1 20 -235 l0 -241 -337 0 -338 0
0 241 0 241 23 -6 c12 -4 63 -16 112 -26z m1033 -870 c18 -11 37 -32 42 -46 6
-14 10 -81 10 -150 l0 -124 -885 0 -885 0 0 121 c0 89 4 130 16 154 32 67 -6
65 874 65 777 0 796 -1 828 -20z m250 -865 c308 -318 536 -644 733 -1050 127
-262 198 -482 220 -681 27 -250 -54 -455 -272 -689 -149 -160 -334 -292 -582
-416 l-158 -79 -1014 0 c-1157 0 -1015 -11 -1228 96 -219 110 -371 219 -523
376 -185 189 -272 346 -291 523 -17 156 13 354 88 571 167 486 466 948 893
1382 l111 112 941 0 942 0 140 -145z m-169 -3423 c30 -53 99 -171 153 -260 54
-90 98 -166 98 -168 0 -2 -526 -4 -1170 -4 l-1169 0 48 78 c26 42 96 161 156
265 l108 187 861 0 861 0 54 -98z"/>
<path d="M4380 4210 c-61 -11 -118 -51 -201 -145 -383 -428 -710 -1086 -709
-1427 1 -128 60 -230 221 -382 344 -323 791 -415 907 -186 37 75 24 161 -36
223 -40 42 -84 57 -201 66 -67 6 -126 17 -160 30 -84 34 -190 107 -268 186
l-72 73 15 62 c81 346 368 852 645 1135 101 104 121 168 77 255 -42 81 -129
125 -218 110z"/>
</g>
</svg>
