<svg width="952" height="1254" viewBox="0 0 952 1254" fill="none" xmlns="http://www.w3.org/2000/svg">
<path d="M73.6184 363.781C74.796 342.585 92.3275 326 113.557 326H837.878C859.107 326 876.639 342.585 877.816 363.781L923.372 1183.78C924.646 1206.71 906.397 1226 883.433 1226H68.0013C45.0379 1226 26.7891 1206.71 28.0629 1183.78L73.6184 363.781Z" fill="#EEBC85"/>
<path d="M73.1345 361.148C74.1664 341.459 90.4559 326.037 110.172 326.084L810.667 327.753L808.14 813.161C807.391 956.998 686.597 1071.03 542.955 1063.5L37.7133 1037.02L73.1345 361.148Z" fill="#FBDCB0"/>
<path d="M837.878 312C866.538 312 890.205 334.389 891.795 363.005L937.351 1183L937.386 1183.73C938.684 1214.36 914.192 1240 883.434 1240H68.001C37.0006 1240 12.3646 1213.96 14.084 1183L48.6621 560.584L59.1533 360.415L59.1904 359.78C60.9265 332.945 83.2412 312.02 110.205 312.084L110.529 312.085C111.532 312.029 112.541 312 113.557 312H837.878Z" stroke="#433028" stroke-width="28"/>
<path d="M837.878 312C866.538 312 890.205 334.389 891.795 363.005L937.351 1183L937.386 1183.73C938.684 1214.36 914.192 1240 883.434 1240H68.001C37.0006 1240 12.3646 1213.96 14.084 1183L48.6621 560.584L59.1533 360.415L59.1904 359.78C60.9265 332.945 83.2412 312.02 110.205 312.084L110.529 312.085C111.532 312.029 112.541 312 113.557 312H837.878Z" stroke="black" stroke-opacity="0.2" stroke-width="28"/>
<path d="M467 7C537.976 7.00001 604.765 54.0643 653.318 135.178C701.916 216.365 729 326.022 729 440V447H683.592V440C683.592 341.531 666.808 247.976 625.801 179.47C605.095 144.878 579.144 111.288 551.26 86.4395C523.218 61.4508 494.119 46.0908 467 46.0908C411.497 46.0908 366.15 83.9965 324.598 153.413C283.374 222.281 250.408 342.082 250.408 440V447H205V440C205 326.022 232.083 216.364 280.682 135.177C329.235 54.0636 396.024 7 467 7Z" fill="#C18C60" stroke="#4E392F" stroke-width="14"/>
<path d="M708.5 395C735.01 395 756.5 416.49 756.5 443C756.5 469.51 735.01 491 708.5 491C681.99 491 660.5 469.51 660.5 443C660.5 416.49 681.99 395 708.5 395Z" fill="#C18C60" stroke="#4E392F" stroke-width="14"/>
<circle cx="226" cy="443" r="48" fill="#C18C60" stroke="#4E392F" stroke-width="14"/>
</svg>
