<svg xmlns="http://www.w3.org/2000/svg" xmlns:xlink="http://www.w3.org/1999/xlink" version="1.1" x="0px" y="0px" viewBox="0 0 90 112.5" enable-background="new 0 0 90 90" xml:space="preserve"><path fill="#000000" d="M53.5,27.3v-2.2h3.2V4.5H36v20.5h3.2v2.2C25.3,30.5,15,43,15,57.8c0,13.8,8.9,26.1,21.6,29.8  c1,0.3,6.4,0.8,9.7,0.8c3.2,0,8.2-0.4,9.7-0.8c12.7-3.4,21.6-15.7,21.6-29.8C77.7,43,67.3,30.5,53.5,27.3z M32.5,31.9  c4.1-2.2,8.8-3.5,13.8-3.5s9.7,1.3,13.8,3.5c7.9,4.9,13.2,13.9,13.2,24.2c0,13.1-7.1,23.8-17.6,26.8c-1.2,0.3-6.5,0.7-9.4,0.7  c-3,0-8.8-0.5-9.4-0.7c-10.5-3.2-17.6-13.9-17.6-26.8C19.3,45.8,24.6,36.9,32.5,31.9z M53.3,7.3H39.8L39,6.5h15.1L53.3,7.3z   M38.8,7.7v14L38,22.5V6.9L38.8,7.7z M39.8,21.3v-13h13.2v13H39.8z M53.9,8.1l0.8-0.8v15l-0.8-0.8V8.1z M38.8,23.1l0.8-0.8h13.6  l0.8,0.8h-0.5v0H39.2v0H38.8z M41.2,26.5v-1.4h10.3v1.4H41.2z M55.5,85.7c-1.2,0.3-6,0.8-9.2,0.8c-3.3,0-8.5-0.6-9.2-0.8  C25.3,82.2,17,70.7,17,57.8c0-6.5,2.1-12.5,5.7-17.4c-2.8,4.5-4.4,9.9-4.4,15.7c0,13.3,7.4,24.4,18.3,27.7c0.9,0.3,6.9,0.8,9.7,0.8  c2.9,0,8.4-0.4,9.7-0.8c11-3.1,18.3-14.2,18.3-27.7c0-5.8-1.6-11.2-4.4-15.7c3.6,4.9,5.7,10.9,5.7,17.4C75.7,71,67.4,82.5,55.5,85.7  z"/><text x="0" y="105" fill="#000000" font-size="5px" font-weight="bold" font-family="'Helvetica Neue', Helvetica, Arial-Unicode, Arial, Sans-serif">Created by Hermine Blanquart</text><text x="0" y="110" fill="#000000" font-size="5px" font-weight="bold" font-family="'Helvetica Neue', Helvetica, Arial-Unicode, Arial, Sans-serif">from the Noun Project</text></svg>