<svg width="1024" height="1024" viewBox="0 0 1024 1024" fill="none" xmlns="http://www.w3.org/2000/svg">
<path d="M406.089 230.246C410.061 231.012 413.983 231.538 418 232C418 232.66 418 233.32 418 234C418.99 233.67 419.98 233.34 421 233C421 233.66 421 234.32 421 235C421.651 235.093 422.302 235.185 422.972 235.281C427.014 236.241 430.648 237.818 434.437 239.5C435.228 239.85 436.018 240.2 436.832 240.561C444.405 244.017 451.123 248.332 458 253C461.892 255.675 461.892 255.675 466.562 255.75C468.361 255.357 470.159 254.956 471.933 254.465C474.173 253.961 476.205 253.832 478.5 253.812C479.252 253.798 480.005 253.784 480.781 253.769C483.248 254.026 484.863 254.771 487 256C487 255.34 487 254.68 487 254C486.34 253.67 485.68 253.34 485 253C487.31 253 489.62 253 492 253C491.34 253.66 490.68 254.32 490 255C498.415 254.505 498.415 254.505 507 254C507 253.67 507 253.34 507 253C509.31 253 511.62 253 514 253C514 253.66 514 254.32 514 255C514.66 254.67 515.32 254.34 516 254C522.586 253.464 528.649 254.282 535 256C535 256.66 535 257.32 535 258C535.716 258.109 536.433 258.219 537.171 258.332C554.332 262.385 569.407 278.426 580.449 291.23C581.587 292.528 582.779 293.779 584 295C590.734 304.234 595.373 314.605 600 325C600.705 326.572 600.705 326.572 601.425 328.176C603.926 334.314 604.489 340.04 604.785 346.64C604.977 349.65 605.401 352.377 606.062 355.312C607.103 359.963 607.153 364.242 607 369C607.66 369 608.32 369 609 369C609.544 396.994 608.28 420.436 598.579 446.935C597.82 449.284 597.82 449.284 598 453C600.228 454.899 600.228 454.899 603.125 456.5C604.076 457.067 605.027 457.634 606.007 458.219C606.995 458.806 607.982 459.394 609 460C611.016 461.311 613.008 462.652 615 464C615.135 462.921 615.27 461.842 615.41 460.73C618.675 437.131 628.083 412.726 647.375 397.687C660.046 388.194 674.534 382.828 690.531 384.332C705.071 386.699 717.929 393.16 728 404C728.62 404.662 729.24 405.325 729.878 406.008C747.706 426.985 750.716 454.786 748.764 481.19C748.528 483.796 748.277 486.398 748 489C749.244 488.59 750.487 488.18 751.769 487.758C753.45 487.213 755.131 486.669 756.812 486.125C757.626 485.855 758.44 485.586 759.279 485.308C769.434 482.043 779.15 480.629 789.812 480.687C791.385 480.694 791.385 480.694 792.99 480.7C809.458 480.939 822.83 485.837 837 494C837.861 494.481 838.722 494.961 839.609 495.457C849.658 501.942 856.678 514.976 859.589 526.293C862.657 546.536 856.238 564.5 844.312 580.687C829.122 600.321 806.161 613.955 782 619C782 619.66 782 620.32 782 621C782.66 621.33 783.32 621.66 784 622C784 622.66 784 623.32 784 624C784.558 624.233 785.116 624.466 785.691 624.707C791.813 628.136 797.057 634.34 800.937 640.125C801.618 641.074 802.298 642.022 803 643C803.99 643 804.98 643 806 643C807.625 645.057 809.002 647.032 810.375 649.25C810.971 650.198 810.971 650.198 811.58 651.166C815.071 656.855 817.798 662.693 820 669C820.233 669.658 820.466 670.317 820.707 670.996C824.865 684.907 823.723 701.97 817.148 714.996C816.769 715.657 816.39 716.318 816 717C815.579 717.733 815.159 718.467 814.726 719.222C806.695 732.156 794.613 741.097 780.062 745.527C760.707 749.963 742.121 746.678 725.011 736.91C720.961 734.341 717.122 731.548 713.339 728.601C711.133 727.091 709.61 726.422 707 726C707 725.01 707 724.02 707 723C706.34 722.67 705.68 722.34 705 722C704.851 723.446 704.851 723.446 704.699 724.922C704.027 729.591 702.466 733.849 700.812 738.25C700.497 739.09 700.183 739.931 699.859 740.797C692.82 759.192 681.668 775.554 664 785C650.444 790.878 636.018 792.288 622 787C619.069 785.758 616.182 784.462 613.312 783.086C610.926 781.91 610.926 781.91 608 781C608.33 780.67 608.66 780.34 609 780C608.255 779.381 608.255 779.381 607.496 778.75C599.903 772.296 594.115 765.675 589.164 757.004C588.154 755.069 588.154 755.069 587 754C586.34 754 585.68 754 585 754C583.902 747.01 582.826 740.027 582 733C581.34 733.99 580.68 734.98 580 736C578.743 733.094 578 731.204 578 728C578.66 728 579.32 728 580 728C580 725.36 580 722.72 580 720C580.33 720 580.66 720 581 720C581.058 716.729 581.093 713.458 581.125 710.187C581.141 709.258 581.158 708.33 581.175 707.373C581.182 706.48 581.188 705.587 581.195 704.668C581.205 703.846 581.216 703.023 581.227 702.176C581.14 699.706 581.14 699.706 579 697C578.414 697.303 577.829 697.606 577.226 697.918C562.284 705.209 547.504 707.861 531 708C529.798 708.015 528.597 708.031 527.359 708.047C524.904 708.059 522.454 708.049 520 708C519.67 707.01 519.34 706.02 519 705C518.195 704.876 517.391 704.752 516.562 704.625C514.799 704.315 514.799 704.315 513 704C512.218 703.866 511.437 703.732 510.632 703.594C509.825 703.439 509.019 703.284 508.187 703.125C507.418 702.983 506.648 702.841 505.855 702.695C505.243 702.466 504.63 702.236 504 702C503.67 701.01 503.34 700.02 503 699C501.176 697.417 501.176 697.417 498.937 695.875C485.607 685.713 478.862 672.413 476 656C471.153 657.388 466.345 658.87 461.574 660.5C460.791 660.766 460.007 661.033 459.2 661.308C457.635 661.843 456.071 662.384 454.51 662.93C449.988 664.474 445.752 665.484 441 666C440.884 666.562 440.768 667.124 440.648 667.703C436.953 680.793 425.769 693.917 417.242 704.301C415.799 706.092 415.799 706.092 415 709C414.01 709.33 413.02 709.66 412 710C410.351 711.588 410.351 711.588 408.75 713.562C408.135 714.284 407.52 715.006 406.886 715.75C406.264 716.492 405.641 717.235 405 718C400.354 723.537 395.53 728.351 390 733C388.526 734.288 388.526 734.288 387.023 735.601C380.027 741.688 372.81 746.975 365 752C360.277 755.223 360.277 755.223 356 759C354.005 759.682 352.004 760.346 350 761C347.758 762.037 345.53 763.102 343.312 764.187C319.087 775.641 291.048 784.17 264 783C264 782.67 264 782.34 264 782C263.044 781.98 262.089 781.96 261.104 781.94C226.12 781.19 226.12 781.19 209 779C209 779.33 209 779.66 209 780C207.603 779.857 206.208 779.71 204.812 779.562C204.035 779.481 203.257 779.4 202.457 779.316C199.94 778.992 197.482 778.524 195 778C194.676 762.311 195.941 747.786 200.293 732.656C201.046 728.757 200.782 725.869 200 722C200.891 721.969 200.891 721.969 201.8 721.937C204.726 720.69 205.224 718.938 206.382 716.087C206.647 715.398 206.913 714.709 207.187 714C213.17 699.522 220.482 686.439 230 674C230.457 673.395 230.914 672.79 231.384 672.166C236.322 665.643 241.29 659.395 247.226 653.738C249.007 651.992 250.595 650.169 252.187 648.25C254.535 645.439 257.038 643.178 260 641C258.68 640.67 257.36 640.34 256 640C256.33 638.68 256.66 637.36 257 636C257.66 636 258.32 636 259 636C258.394 635.599 257.788 635.198 257.164 634.785C243.235 625.335 229.533 612.958 220 599C220 598.34 220 597.68 220 597C218.68 596.67 217.36 596.34 216 596C215.917 595.323 215.835 594.646 215.75 593.949C214.792 590.184 212.974 587.115 211 583.812C210.27 582.569 209.541 581.325 208.812 580.082C208.214 579.065 207.616 578.048 207 577C206.67 576.34 206.34 575.68 206 575C205.34 575.33 204.68 575.66 204 576C204 575.01 204 574.02 204 573C203.34 573 202.68 573 202 573C202 572.34 202 571.68 202 571C202.66 571 203.32 571 204 571C204 570.34 204 569.68 204 569C203.01 569.33 202.02 569.66 201 570C201 569.34 201 568.68 201 568C201.66 568 202.32 568 203 568C202.685 567.247 202.371 566.494 202.046 565.719C192.066 540.949 191.057 516.398 193 490C192.175 489.567 191.35 489.134 190.5 488.687C189.675 488.13 188.85 487.574 188 487C188 486.01 188 485.02 188 484C186.526 481.741 185.011 479.562 183.437 477.375C165.815 451.835 162.307 419.68 167.399 389.644C171.448 368.078 180.392 348.443 195 332C195.645 331.222 196.291 330.445 196.957 329.644C212.256 311.541 234.058 300.013 256.457 293.359C257.203 293.133 257.949 292.906 258.718 292.673C260.279 292.212 261.85 291.783 263.428 291.382C267.559 290.233 269.545 289.546 272.355 286.172C273.262 284.478 273.262 284.478 274.187 282.75C290.344 254.903 319.801 239.309 349.976 231.258C368.337 226.567 387.539 226.566 406.089 230.246ZM307 278C306.129 278.78 305.259 279.56 304.363 280.363C292.882 291.123 285.542 305.476 284.854 321.352C284.834 324.599 284.814 327.846 284.814 331.093C284.812 333.164 284.794 335.235 284.775 337.306C284.743 345.074 285.234 352.418 287 360C289.849 358.575 289.912 356.907 291 353.937C300.91 329.608 318.927 312.138 342.816 301.691C351.874 297.924 361.161 295.33 371 295C372.253 294.948 373.506 294.897 374.796 294.844C400.582 294.112 422.876 302.115 441.844 319.871C452.502 330.163 460.711 343.44 464 358C467.111 355.415 468.162 352.555 469.562 348.812C469.976 347.726 470.39 346.639 470.816 345.519C476.415 328.871 475.125 312.993 467.648 297.133C464.027 290.639 459.116 285.345 454 280C453.385 279.31 452.77 278.62 452.136 277.91C434.82 259.185 408.67 252.152 384.074 250.781C356.107 250.106 327.663 258.605 307 278ZM479 275C479.519 275.871 480.039 276.743 480.574 277.64C485.025 285.201 489.041 292.708 492 301C492.319 301.871 492.639 302.743 492.968 303.64C499.305 324.176 494.567 348.228 484.974 367.007C476.08 383.326 463.404 399.172 448.562 410.437C428.826 425.572 415.496 449.891 411.687 474.375C411.444 476.582 411.213 478.79 411 481C410.858 481.844 410.716 482.688 410.57 483.558C410.291 485.997 410.289 487.647 411 490C412.864 492.337 414.947 494.235 417.164 496.242C437.753 516.264 451.772 547.947 452.189 576.745C452.194 577.43 452.198 578.115 452.203 578.82C452.21 579.553 452.217 580.285 452.224 581.04C452.241 583.402 452.247 585.763 452.25 588.125C452.251 588.931 452.252 589.737 452.254 590.567C452.249 603.278 451.488 615.509 449 628C448.71 629.531 448.421 631.062 448.132 632.594C447.464 636.072 446.749 639.538 446 643C453.124 641.638 459.501 639.41 466.187 636.625C467.146 636.238 468.104 635.851 469.091 635.453C478.669 631.508 483.355 628.502 487.375 618.875C490.738 611.307 494.382 605.149 500 599C500.465 598.395 500.93 597.791 501.41 597.168C511.074 584.686 526.48 577.143 541 572C541 571.34 541 570.68 541 570C539.567 569.29 539.567 569.29 538.105 568.566C516.255 557.498 501.221 541.105 492.964 518.004C488.311 503.514 488.153 487.6 494.546 473.617C502.14 458.868 513.206 448.758 529 443C530.504 442.451 530.504 442.451 532.039 441.89C537.429 440.408 543.015 440.662 548.562 440.687C550.292 440.689 550.292 440.689 552.058 440.691C560.386 440.785 567.998 441.556 576 444C582.352 426.509 587.366 408.715 588 390C588.051 389.014 588.103 388.027 588.156 387.011C588.66 369.461 585.994 351.499 580 335C579.569 333.804 579.139 332.607 578.695 331.375C569.526 308.167 551.996 288.806 529.052 278.845C513.597 272.478 495.341 272 479 275ZM323.175 340.023C315.45 349.026 310.57 359.128 306 370C305.675 370.757 305.351 371.515 305.017 372.296C304.11 374.438 303.235 376.589 302.375 378.75C302.114 379.381 301.854 380.011 301.586 380.661C299.888 385.16 299.804 388.362 301 393C302.234 395.417 303.434 397.522 304.937 399.75C305.332 400.35 305.726 400.949 306.133 401.567C310.98 408.738 316.86 414.92 323 421C323.086 419.874 323.172 418.749 323.261 417.59C325.009 397.524 331.42 378.557 346 364C361.781 350.994 377.064 347.627 397 349C401.58 349.677 405.758 351.163 410 353C410.863 353.35 411.727 353.701 412.617 354.062C425.93 360.034 435.924 371.139 444 383C446.65 380.35 446.36 379.019 446.437 375.312C446.16 358.583 437.616 344.503 426 333C412.603 320.451 395.223 314.6 377.046 314.851C356.054 315.874 337.383 324.377 323.175 340.023ZM223 335C222.23 335.603 221.46 336.206 220.668 336.828C205.902 349.137 196.396 366.786 191 385C190.52 386.614 190.52 386.614 190.031 388.261C185.553 406.444 186.269 427.187 192 445C192.209 445.653 192.418 446.307 192.633 446.98C202.954 477.967 228.601 497.757 256.687 512.125C284.704 525.888 314.833 532.764 345.157 539.324C362.784 543.176 379.714 548.156 396 556C397.13 556.544 398.261 557.088 399.425 557.648C411.101 563.605 421.042 571.446 430 581C430.996 582.003 431.995 583.004 433 584C431.614 566.502 428.117 550.696 420 535C419.527 534.046 419.053 533.092 418.566 532.109C406.977 509.622 386.045 495.425 366.022 481.093C359.09 476.114 352.319 470.937 345.551 465.74C340.625 461.966 335.653 458.297 330.562 454.75C313.636 442.854 298.132 428.517 287 411C286.613 410.393 286.227 409.787 285.829 409.162C267.583 379.95 263.467 348.746 264 315C249.628 315 233.649 326.584 223 335ZM355.222 385.16C347.297 396.271 343.617 408.984 343.75 422.5C343.742 423.29 343.734 424.08 343.726 424.894C343.721 435.123 343.721 435.123 348.519 443.722C349.599 444.526 350.698 445.305 351.812 446.062C353.073 446.985 354.333 447.908 355.593 448.832C356.289 449.329 356.986 449.826 357.703 450.338C361.203 452.87 364.622 455.507 368.051 458.134C371.532 460.801 375.027 463.451 378.522 466.099C381.783 468.6 384.993 471.164 388.194 473.741C389.906 475.19 389.906 475.19 392 475C392.135 473.993 392.27 472.986 392.41 471.949C396.087 447.043 407.029 425.78 423 406.597C423.556 405.905 424.113 405.213 424.687 404.5C425.165 403.933 425.644 403.365 426.136 402.781C427.405 400.164 426.872 398.736 426 396C420.16 384.53 411.994 375.806 400 371C398.927 370.567 397.855 370.134 396.75 369.687C379.438 366.513 366.351 371.634 355.222 385.16ZM654.839 420.472C638.773 441.492 634.915 465.679 637.32 491.429C639.098 500.069 643.604 508.126 647.543 515.953C649.032 518.927 650.363 521.833 651.425 524.984C652.639 528.29 653.499 530.514 656 533C660.038 533.929 663.684 534.015 667.804 533.941C675.597 533.843 682.885 537.099 690 540C710.371 520.431 726.697 499.904 727.343 470.28C727.533 449.739 724.431 431.371 709.949 415.75C701.235 407.927 692.015 405.476 680.496 405.695C669.937 406.615 661.685 412.636 654.839 420.472ZM530 464C529.203 464.424 528.406 464.848 527.586 465.285C519.55 470.109 514.053 477.18 511 486C507.652 500.132 510.768 514.429 518.125 526.75C532.042 546.726 552.069 559.535 576 564C580.982 564.847 585.978 565.448 591 566C593.315 566.261 595.63 566.523 597.945 566.785C604.628 567.537 611.313 568.273 618 569C618.322 568.196 618.645 567.392 618.977 566.564C619.411 565.498 619.845 564.433 620.293 563.336C620.931 561.759 620.931 561.759 621.582 560.15C625.309 551.866 630.364 545.878 638 541C637.406 537.258 636.341 534.378 634.558 531.043C634.061 530.102 633.563 529.162 633.05 528.193C632.518 527.201 631.986 526.209 631.437 525.187C630.341 523.12 629.246 521.052 628.152 518.984C627.614 517.969 627.077 516.954 626.523 515.908C624.126 511.331 621.835 506.701 619.587 502.049C609.908 482.308 590.022 470.635 570.339 462.484C557.672 458.277 542.007 457.597 530 464ZM750 512C749.078 512.441 748.156 512.881 747.207 513.336C733.922 520.119 723.454 530.717 713.839 541.937C710.4 545.793 706.689 549.385 703 553C703.997 555.506 705.003 558.008 706.035 560.5C706.374 561.325 706.713 562.15 707.062 563C707.404 563.825 707.745 564.65 708.097 565.5C709.944 570.617 710.129 575.413 710.062 580.812C710.058 581.505 710.053 582.198 710.048 582.912C710.037 584.608 710.019 586.304 710 588C755.354 601.751 755.354 601.751 800.088 590.048C816.832 580.868 830.609 567.163 837 548.937C839.383 539.465 839.035 530.441 834 522C833.661 521.386 833.322 520.773 832.972 520.14C827.49 511.321 817.709 506.671 808 504C788.545 499.731 767.697 503.439 750 512ZM215 510C214.035 545.18 226.066 574.131 249.907 599.763C281.889 633.438 328.519 651.894 374.566 653.238C391.404 653.497 407.438 652.013 424 649C427.727 635.199 430.19 619.07 423 606C406.147 578.254 377.094 566.173 346.702 558.627C341.243 557.36 335.743 556.289 330.25 555.187C293.328 547.753 257.01 537.105 225.304 516.156C221.932 513.956 218.511 511.966 215 510ZM641.765 561.742C636.739 568.169 635.306 574.985 635.617 583.043C636.783 592.049 640.983 598.768 647.824 604.539C654.849 609.329 662.885 608.996 671 608C679.231 605.669 684.664 600.384 689.093 593.234C692.359 586.28 692.323 576.785 690.308 569.5C689.366 567.481 688.318 565.792 687 564C686.587 563.387 686.175 562.775 685.75 562.144C681.887 556.998 677.165 553.826 671 552C658.411 550.484 650.382 552.548 641.765 561.742ZM512.902 613.285C508.206 618.972 504.999 625.291 502 632C501.657 632.704 501.314 633.407 500.961 634.133C497.178 643.146 497.574 655.78 500.437 665C504.351 673.926 510.941 680.179 519.738 684.16C535.559 690.035 553.762 685.103 568.437 678.437C594.316 666.052 611.275 646.423 625.004 621.733C625.883 620.202 626.855 618.726 627.839 617.261C629.184 615.117 629.184 615.117 628.863 612.945C627.864 610.693 626.638 608.866 625.187 606.875C621.177 601.043 618.669 594.857 617 588C578.655 580.96 540.61 583.1 512.902 613.285ZM700.433 606.879C699.445 608.207 699.445 608.207 698.437 609.562C692.867 616.479 687.317 620.881 679 624C679.628 628.868 681.707 632.733 683.875 637.062C687.902 645.294 691.289 653.693 694.562 662.25C700.1 676.603 705.811 689.282 716 701C716.455 701.598 716.91 702.196 717.378 702.812C725.927 713.836 740.203 722.961 753.851 725.754C765.713 727.112 776.011 725.845 785.832 718.789C793.898 712.132 798.319 705.002 800.75 694.875C800.832 693.926 800.915 692.977 801 692C801.103 690.845 801.206 689.69 801.312 688.5C800.894 670.139 789.272 655.435 777 643C775.977 641.851 775.977 641.851 774.933 640.679C761.205 625.688 741.298 616.542 722.562 609.562C721.65 609.22 720.739 608.877 719.799 608.524C709.926 604.529 709.926 604.529 700.433 606.879ZM646 624C645.714 624.538 645.427 625.075 645.133 625.629C637.212 640.452 628.725 654.007 618 667C617.307 667.878 617.307 667.878 616.601 668.773C614.554 671.342 612.671 673.238 609.996 675.176C606.333 678.191 605.58 681.345 604.687 685.875C604.454 686.898 604.454 686.898 604.216 687.941C599.401 709.641 601.436 733.221 612.558 752.734C617.782 760.889 624.516 765.827 633.82 768.531C641.586 770.201 649.308 768.713 656.168 764.746C664.081 759.128 669.625 751.755 674 743.187C674.422 742.371 674.844 741.555 675.279 740.714C681.647 728.094 690.458 710.43 689 696C687.847 693.053 686.346 690.298 684.875 687.5C678.835 675.503 674.409 662.963 669.911 650.328C666.097 638.069 666.097 638.069 660 627C656.52 625.187 656.52 625.187 652.687 624.875C651.433 624.687 650.179 624.498 648.886 624.304C647.934 624.204 646.981 624.103 646 624ZM278.558 651.894C277.897 652.514 277.236 653.134 276.555 653.772C275.507 654.782 275.507 654.782 274.437 655.812C273.715 656.502 272.994 657.191 272.25 657.901C248.026 681.219 217.645 720.699 216.933 756.324C216.955 757.207 216.977 758.09 217 759C263.327 767.032 316.462 759.421 355.51 732.285C358.378 730.239 361.197 728.134 364 726C364.883 725.331 365.766 724.662 366.675 723.972C376.23 716.52 385.322 708.392 393 699C394.033 697.766 395.067 696.533 396.101 695.301C405.175 684.884 405.175 684.884 412 673C411.67 672.34 411.34 671.68 411 671C409.59 671.199 409.59 671.199 408.152 671.402C406.747 671.583 405.342 671.761 403.937 671.937C403.163 672.037 402.389 672.137 401.591 672.24C396.136 672.865 390.815 673.024 385.324 672.933C369.672 671.861 369.672 671.861 356.126 677.901C353.901 680.485 351.971 683.216 350 686C347.296 688.48 347.296 688.48 344.5 690.687C343.599 691.403 342.697 692.118 341.769 692.855C340.855 693.563 339.941 694.271 339 695C338.055 695.738 337.11 696.477 336.136 697.238C323.78 706.714 311.02 714.28 297 721C296.273 721.398 295.546 721.796 294.796 722.207C291.513 723.656 288.547 723.229 285 723C283 721 283 721 282.562 718.687C283.465 713.138 288.803 710.338 293.062 707.187C296.92 704.423 300.838 701.78 304.812 699.187C314.598 692.701 323.673 685.371 332.375 677.5C332.94 676.995 333.506 676.491 334.089 675.971C335.454 674.711 336.735 673.361 338 672C338 671.01 338 670.02 338 669C337.398 668.84 336.797 668.68 336.177 668.516C301.435 659.161 301.435 659.161 287.381 650.36C283.351 648.058 281.693 648.932 278.558 651.894Z" fill="#865F58"/>
<path d="M546.203 288.274C548.897 290.43 551.464 292.661 554 295C554.619 295.539 555.238 296.078 555.875 296.633C577.217 316.296 586.699 347.781 588 376C588.919 399.149 584.616 422.515 576 444C575.291 443.784 574.582 443.567 573.852 443.344C565.495 441.159 557.487 440.641 548.875 440.563C547.792 440.541 546.708 440.519 545.592 440.496C531.18 440.531 517.29 446.438 506.648 456.223C494.744 469.058 489.188 483.407 489.695 500.754C490.807 520.833 501.505 540.457 515.887 554.168C523.492 560.761 532.106 565.414 541 570C541 570.66 541 571.32 541 572C539.871 572.368 539.871 572.368 538.719 572.743C519.415 579.536 500.202 592.651 490.816 611.361C489.274 614.704 487.756 618.044 486.394 621.465C482.889 629.73 477.4 632.064 469.398 635.422C467.394 636.207 465.386 636.983 463.375 637.75C462.364 638.149 461.354 638.547 460.313 638.957C455.513 640.815 451.116 642.268 446 643C446.146 642.265 446.292 641.53 446.443 640.772C447.113 637.391 447.775 634.008 448.438 630.625C448.668 629.469 448.898 628.313 449.135 627.121C453.858 602.892 455.013 574.875 448 551C447.818 550.339 447.636 549.678 447.449 548.997C441.477 527.56 429.325 507.592 413.164 492.321C411 490 411 490 410.5 486.25C412.303 456.918 425.069 430.525 447 411C448.446 409.859 449.904 408.734 451.375 407.625C472.491 391.614 491.087 364.817 494.785 338.184C496.364 314.789 492.64 294.517 479 275C502.601 270.669 526.511 274.297 546.203 288.274Z" fill="#F2C4C0"/>
<path d="M406.089 230.246C410.061 231.012 413.983 231.538 418 232C418 232.66 418 233.32 418 234C418.99 233.67 419.98 233.34 421 233C421 233.66 421 234.32 421 235C421.651 235.093 422.302 235.185 422.972 235.281C427.014 236.241 430.648 237.818 434.437 239.5C435.228 239.85 436.018 240.2 436.832 240.561C444.405 244.017 451.123 248.332 458 253C461.892 255.675 461.892 255.675 466.562 255.75C468.361 255.357 470.159 254.956 471.933 254.465C474.173 253.961 476.205 253.832 478.5 253.812C479.252 253.798 480.005 253.784 480.781 253.769C483.248 254.026 484.863 254.771 487 256C487 255.34 487 254.68 487 254C486.34 253.67 485.68 253.34 485 253C487.31 253 489.62 253 492 253C491.34 253.66 490.68 254.32 490 255C498.415 254.505 498.415 254.505 507 254C507 253.67 507 253.34 507 253C509.31 253 511.62 253 514 253C514 253.66 514 254.32 514 255C514.66 254.67 515.32 254.34 516 254C522.586 253.464 528.649 254.282 535 256C535 256.66 535 257.32 535 258C535.716 258.109 536.433 258.219 537.171 258.332C554.332 262.385 569.407 278.426 580.449 291.23C581.587 292.528 582.779 293.779 584 295C590.734 304.234 595.373 314.605 600 325C600.705 326.572 600.705 326.572 601.425 328.176C603.926 334.314 604.489 340.04 604.785 346.64C604.977 349.65 605.401 352.377 606.062 355.312C607.103 359.963 607.153 364.242 607 369C607.66 369 608.32 369 609 369C609.544 396.994 608.28 420.436 598.579 446.935C597.82 449.284 597.82 449.284 598 453C600.228 454.899 600.228 454.899 603.125 456.5C604.076 457.067 605.027 457.634 606.007 458.219C606.995 458.806 607.982 459.394 609 460C611.016 461.311 613.008 462.652 615 464C615.135 462.921 615.27 461.842 615.41 460.73C618.675 437.131 628.083 412.726 647.375 397.687C660.046 388.194 674.534 382.828 690.531 384.332C705.071 386.699 717.929 393.16 728 404C728.62 404.662 729.24 405.325 729.878 406.008C747.706 426.985 750.716 454.786 748.764 481.19C748.528 483.796 748.277 486.398 748 489C749.244 488.59 750.487 488.18 751.769 487.758C753.45 487.213 755.131 486.669 756.812 486.125C757.626 485.855 758.44 485.586 759.279 485.308C769.434 482.043 779.15 480.629 789.812 480.687C791.385 480.694 791.385 480.694 792.99 480.7C809.458 480.939 822.83 485.837 837 494C837.861 494.481 838.722 494.961 839.609 495.457C849.658 501.942 856.678 514.976 859.589 526.293C862.657 546.536 856.238 564.5 844.312 580.687C829.122 600.321 806.161 613.955 782 619C782 619.66 782 620.32 782 621C782.66 621.33 783.32 621.66 784 622C784 622.66 784 623.32 784 624C784.558 624.233 785.116 624.466 785.691 624.707C791.813 628.136 797.057 634.34 800.937 640.125C801.618 641.074 802.298 642.022 803 643C803.99 643 804.98 643 806 643C807.625 645.057 809.002 647.032 810.375 649.25C810.971 650.198 810.971 650.198 811.58 651.166C815.071 656.855 817.798 662.693 820 669C820.233 669.658 820.466 670.317 820.707 670.996C824.865 684.907 823.723 701.97 817.148 714.996C816.769 715.657 816.39 716.318 816 717C815.579 717.733 815.159 718.467 814.726 719.222C806.695 732.156 794.613 741.097 780.062 745.527C760.707 749.963 742.121 746.678 725.011 736.91C720.961 734.341 717.122 731.548 713.339 728.601C711.133 727.091 709.61 726.422 707 726C707 725.01 707 724.02 707 723C706.34 722.67 705.68 722.34 705 722C704.851 723.446 704.851 723.446 704.699 724.922C704.027 729.591 702.466 733.849 700.812 738.25C700.497 739.09 700.183 739.931 699.859 740.797C692.82 759.192 681.668 775.554 664 785C650.444 790.878 636.018 792.288 622 787C619.069 785.758 616.182 784.462 613.312 783.086C610.926 781.91 610.926 781.91 608 781C608.33 780.67 608.66 780.34 609 780C608.255 779.381 608.255 779.381 607.496 778.75C599.903 772.296 594.115 765.675 589.164 757.004C588.154 755.069 588.154 755.069 587 754C586.34 754 585.68 754 585 754C583.902 747.01 582.826 740.027 582 733C581.34 733.99 580.68 734.98 580 736C578.743 733.094 578 731.204 578 728C578.66 728 579.32 728 580 728C580 725.36 580 722.72 580 720C580.33 720 580.66 720 581 720C581.058 716.729 581.093 713.458 581.125 710.187C581.141 709.258 581.158 708.33 581.175 707.373C581.182 706.48 581.188 705.587 581.195 704.668C581.205 703.846 581.216 703.023 581.227 702.176C581.14 699.706 581.14 699.706 579 697C578.414 697.303 577.829 697.606 577.226 697.918C562.284 705.209 547.504 707.861 531 708C529.798 708.015 528.597 708.031 527.359 708.047C524.904 708.059 522.454 708.049 520 708C519.67 707.01 519.34 706.02 519 705C518.195 704.876 517.391 704.752 516.562 704.625C514.799 704.315 514.799 704.315 513 704C512.218 703.866 511.437 703.732 510.632 703.594C509.825 703.439 509.019 703.284 508.187 703.125C507.418 702.983 506.648 702.841 505.855 702.695C505.243 702.466 504.63 702.236 504 702C503.67 701.01 503.34 700.02 503 699C501.176 697.417 501.176 697.417 498.937 695.875C485.607 685.713 478.862 672.413 476 656C471.153 657.388 466.345 658.87 461.574 660.5C460.791 660.766 460.007 661.033 459.2 661.308C457.635 661.843 456.071 662.384 454.51 662.93C449.988 664.474 445.752 665.484 441 666C440.884 666.562 440.768 667.124 440.648 667.703C436.953 680.793 425.769 693.917 417.242 704.301C415.799 706.092 415.799 706.092 415 709C414.01 709.33 413.02 709.66 412 710C410.351 711.588 410.351 711.588 408.75 713.562C408.135 714.284 407.52 715.006 406.886 715.75C406.264 716.492 405.641 717.235 405 718C400.354 723.537 395.53 728.351 390 733C388.526 734.288 388.526 734.288 387.023 735.601C380.027 741.688 372.81 746.975 365 752C360.277 755.223 360.277 755.223 356 759C354.005 759.682 352.004 760.346 350 761C347.758 762.037 345.53 763.102 343.312 764.187C319.087 775.641 291.048 784.17 264 783C264 782.67 264 782.34 264 782C263.044 781.98 262.089 781.96 261.104 781.94C226.12 781.19 226.12 781.19 209 779C209 779.33 209 779.66 209 780C207.603 779.857 206.208 779.71 204.812 779.562C204.035 779.481 203.257 779.4 202.457 779.316C199.94 778.992 197.482 778.524 195 778C194.676 762.311 195.941 747.786 200.293 732.656C201.046 728.757 200.782 725.869 200 722C200.891 721.969 200.891 721.969 201.8 721.937C204.726 720.69 205.224 718.938 206.382 716.087C206.647 715.398 206.913 714.709 207.187 714C213.17 699.522 220.482 686.439 230 674C230.457 673.395 230.914 672.79 231.384 672.166C236.322 665.643 241.29 659.395 247.226 653.738C249.007 651.992 250.595 650.169 252.187 648.25C254.535 645.439 257.038 643.178 260 641C258.68 640.67 257.36 640.34 256 640C256.33 638.68 256.66 637.36 257 636C257.66 636 258.32 636 259 636C258.394 635.599 257.788 635.198 257.164 634.785C243.235 625.335 229.533 612.958 220 599C220 598.34 220 597.68 220 597C218.68 596.67 217.36 596.34 216 596C215.917 595.323 215.835 594.646 215.75 593.949C214.792 590.184 212.974 587.115 211 583.812C210.27 582.569 209.541 581.325 208.812 580.082C208.214 579.065 207.616 578.048 207 577C206.67 576.34 206.34 575.68 206 575C205.34 575.33 204.68 575.66 204 576C204 575.01 204 574.02 204 573C203.34 573 202.68 573 202 573C202 572.34 202 571.68 202 571C202.66 571 203.32 571 204 571C204 570.34 204 569.68 204 569C203.01 569.33 202.02 569.66 201 570C201 569.34 201 568.68 201 568C201.66 568 202.32 568 203 568C202.685 567.247 202.371 566.494 202.046 565.719C192.066 540.949 191.057 516.398 193 490C192.175 489.567 191.35 489.134 190.5 488.687C189.675 488.13 188.85 487.574 188 487C188 486.01 188 485.02 188 484C186.526 481.741 185.011 479.562 183.437 477.375C165.815 451.835 162.307 419.68 167.399 389.644C171.448 368.078 180.392 348.443 195 332C195.645 331.222 196.291 330.445 196.957 329.644C212.256 311.541 234.058 300.013 256.457 293.359C257.203 293.133 257.949 292.906 258.718 292.673C260.279 292.212 261.85 291.783 263.428 291.382C267.559 290.233 269.545 289.546 272.355 286.172C273.262 284.478 273.262 284.478 274.187 282.75C290.344 254.903 319.801 239.309 349.976 231.258C368.337 226.567 387.539 226.566 406.089 230.246ZM307 278C306.129 278.78 305.259 279.56 304.363 280.363C292.882 291.123 285.542 305.476 284.854 321.352C284.834 324.599 284.814 327.846 284.814 331.093C284.812 333.164 284.794 335.235 284.775 337.306C284.743 345.074 285.234 352.418 287 360C289.849 358.575 289.912 356.907 291 353.937C300.91 329.608 318.927 312.138 342.816 301.691C351.874 297.924 361.161 295.33 371 295C372.253 294.948 373.506 294.897 374.796 294.844C400.582 294.112 422.876 302.115 441.844 319.871C452.502 330.163 460.711 343.44 464 358C467.111 355.415 468.162 352.555 469.562 348.812C469.976 347.726 470.39 346.639 470.816 345.519C476.415 328.871 475.125 312.993 467.648 297.133C464.027 290.639 459.116 285.345 454 280C453.385 279.31 452.77 278.62 452.136 277.91C434.82 259.185 408.67 252.152 384.074 250.781C356.107 250.106 327.663 258.605 307 278ZM479 275C479.519 275.871 480.039 276.743 480.574 277.64C485.025 285.201 489.041 292.708 492 301C492.319 301.871 492.639 302.743 492.968 303.64C499.305 324.176 494.567 348.228 484.974 367.007C476.08 383.326 463.404 399.172 448.562 410.437C428.826 425.572 415.496 449.891 411.687 474.375C411.444 476.582 411.213 478.79 411 481C410.858 481.844 410.716 482.688 410.57 483.558C410.291 485.997 410.289 487.647 411 490C412.864 492.337 414.947 494.235 417.164 496.242C437.753 516.264 451.772 547.947 452.189 576.745C452.194 577.43 452.198 578.115 452.203 578.82C452.21 579.553 452.217 580.285 452.224 581.04C452.241 583.402 452.247 585.763 452.25 588.125C452.251 588.931 452.252 589.737 452.254 590.567C452.249 603.278 451.488 615.509 449 628C448.71 629.531 448.421 631.062 448.132 632.594C447.464 636.072 446.749 639.538 446 643C453.124 641.638 459.501 639.41 466.187 636.625C467.146 636.238 468.104 635.851 469.091 635.453C478.669 631.508 483.355 628.502 487.375 618.875C490.738 611.307 494.382 605.149 500 599C500.465 598.395 500.93 597.791 501.41 597.168C511.074 584.686 526.48 577.143 541 572C541 571.34 541 570.68 541 570C539.567 569.29 539.567 569.29 538.105 568.566C516.255 557.498 501.221 541.105 492.964 518.004C488.311 503.514 488.153 487.6 494.546 473.617C502.14 458.868 513.206 448.758 529 443C530.504 442.451 530.504 442.451 532.039 441.89C537.429 440.408 543.015 440.662 548.562 440.687C550.292 440.689 550.292 440.689 552.058 440.691C560.386 440.785 567.998 441.556 576 444C582.352 426.509 587.366 408.715 588 390C588.051 389.014 588.103 388.027 588.156 387.011C588.66 369.461 585.994 351.499 580 335C579.569 333.804 579.139 332.607 578.695 331.375C569.526 308.167 551.996 288.806 529.052 278.845C513.597 272.478 495.341 272 479 275ZM323.175 340.023C315.45 349.026 310.57 359.128 306 370C305.675 370.757 305.351 371.515 305.017 372.296C304.11 374.438 303.235 376.589 302.375 378.75C302.114 379.381 301.854 380.011 301.586 380.661C299.888 385.16 299.804 388.362 301 393C302.234 395.417 303.434 397.522 304.937 399.75C305.332 400.35 305.726 400.949 306.133 401.567C310.98 408.738 316.86 414.92 323 421C323.086 419.874 323.172 418.749 323.261 417.59C325.009 397.524 331.42 378.557 346 364C361.781 350.994 377.064 347.627 397 349C401.58 349.677 405.758 351.163 410 353C410.863 353.35 411.727 353.701 412.617 354.062C425.93 360.034 435.924 371.139 444 383C446.65 380.35 446.36 379.019 446.437 375.312C446.16 358.583 437.616 344.503 426 333C412.603 320.451 395.223 314.6 377.046 314.851C356.054 315.874 337.383 324.377 323.175 340.023ZM223 335C222.23 335.603 221.46 336.206 220.668 336.828C205.902 349.137 196.396 366.786 191 385C190.52 386.614 190.52 386.614 190.031 388.261C185.553 406.444 186.269 427.187 192 445C192.209 445.653 192.418 446.307 192.633 446.98C202.954 477.967 228.601 497.757 256.687 512.125C284.704 525.888 314.833 532.764 345.157 539.324C362.784 543.176 379.714 548.156 396 556C397.13 556.544 398.261 557.088 399.425 557.648C411.101 563.605 421.042 571.446 430 581C430.996 582.003 431.995 583.004 433 584C431.614 566.502 428.117 550.696 420 535C419.527 534.046 419.053 533.092 418.566 532.109C406.977 509.622 386.045 495.425 366.022 481.093C359.09 476.114 352.319 470.937 345.551 465.74C340.625 461.966 335.653 458.297 330.562 454.75C313.636 442.854 298.132 428.517 287 411C286.613 410.393 286.227 409.787 285.829 409.162C267.583 379.95 263.467 348.746 264 315C249.628 315 233.649 326.584 223 335ZM355.222 385.16C347.297 396.271 343.617 408.984 343.75 422.5C343.742 423.29 343.734 424.08 343.726 424.894C343.721 435.123 343.721 435.123 348.519 443.722C349.599 444.526 350.698 445.305 351.812 446.062C353.073 446.985 354.333 447.908 355.593 448.832C356.289 449.329 356.986 449.826 357.703 450.338C361.203 452.87 364.622 455.507 368.051 458.134C371.532 460.801 375.027 463.451 378.522 466.099C381.783 468.6 384.993 471.164 388.194 473.741C389.906 475.19 389.906 475.19 392 475C392.135 473.993 392.27 472.986 392.41 471.949C396.087 447.043 407.029 425.78 423 406.597C423.556 405.905 424.113 405.213 424.687 404.5C425.165 403.933 425.644 403.365 426.136 402.781C427.405 400.164 426.872 398.736 426 396C420.16 384.53 411.994 375.806 400 371C398.927 370.567 397.855 370.134 396.75 369.687C379.438 366.513 366.351 371.634 355.222 385.16ZM654.839 420.472C638.773 441.492 634.915 465.679 637.32 491.429C639.098 500.069 643.604 508.126 647.543 515.953C649.032 518.927 650.363 521.833 651.425 524.984C652.639 528.29 653.499 530.514 656 533C660.038 533.929 663.684 534.015 667.804 533.941C675.597 533.843 682.885 537.099 690 540C710.371 520.431 726.697 499.904 727.343 470.28C727.533 449.739 724.431 431.371 709.949 415.75C701.235 407.927 692.015 405.476 680.496 405.695C669.937 406.615 661.685 412.636 654.839 420.472ZM530 464C529.203 464.424 528.406 464.848 527.586 465.285C519.55 470.109 514.053 477.18 511 486C507.652 500.132 510.768 514.429 518.125 526.75C532.042 546.726 552.069 559.535 576 564C580.982 564.847 585.978 565.448 591 566C593.315 566.261 595.63 566.523 597.945 566.785C604.628 567.537 611.313 568.273 618 569C618.322 568.196 618.645 567.392 618.977 566.564C619.411 565.498 619.845 564.433 620.293 563.336C620.931 561.759 620.931 561.759 621.582 560.15C625.309 551.866 630.364 545.878 638 541C637.406 537.258 636.341 534.378 634.558 531.043C634.061 530.102 633.563 529.162 633.05 528.193C632.518 527.201 631.986 526.209 631.437 525.187C630.341 523.12 629.246 521.052 628.152 518.984C627.614 517.969 627.077 516.954 626.523 515.908C624.126 511.331 621.835 506.701 619.587 502.049C609.908 482.308 590.022 470.635 570.339 462.484C557.672 458.277 542.007 457.597 530 464ZM750 512C749.078 512.441 748.156 512.881 747.207 513.336C733.922 520.119 723.454 530.717 713.839 541.937C710.4 545.793 706.689 549.385 703 553C703.997 555.506 705.003 558.008 706.035 560.5C706.374 561.325 706.713 562.15 707.062 563C707.404 563.825 707.745 564.65 708.097 565.5C709.944 570.617 710.129 575.413 710.062 580.812C710.058 581.505 710.053 582.198 710.048 582.912C710.037 584.608 710.019 586.304 710 588C755.354 601.751 755.354 601.751 800.088 590.048C816.832 580.868 830.609 567.163 837 548.937C839.383 539.465 839.035 530.441 834 522C833.661 521.386 833.322 520.773 832.972 520.14C827.49 511.321 817.709 506.671 808 504C788.545 499.731 767.697 503.439 750 512ZM215 510C214.035 545.18 226.066 574.131 249.907 599.763C281.889 633.438 328.519 651.894 374.566 653.238C391.404 653.497 407.438 652.013 424 649C427.727 635.199 430.19 619.07 423 606C406.147 578.254 377.094 566.173 346.702 558.627C341.243 557.36 335.743 556.289 330.25 555.187C293.328 547.753 257.01 537.105 225.304 516.156C221.932 513.956 218.511 511.966 215 510ZM641.765 561.742C636.739 568.169 635.306 574.985 635.617 583.043C636.783 592.049 640.983 598.768 647.824 604.539C654.849 609.329 662.885 608.996 671 608C679.231 605.669 684.664 600.384 689.093 593.234C692.359 586.28 692.323 576.785 690.308 569.5C689.366 567.481 688.318 565.792 687 564C686.587 563.387 686.175 562.775 685.75 562.144C681.887 556.998 677.165 553.826 671 552C658.411 550.484 650.382 552.548 641.765 561.742ZM512.902 613.285C508.206 618.972 504.999 625.291 502 632C501.657 632.704 501.314 633.407 500.961 634.133C497.178 643.146 497.574 655.78 500.437 665C504.351 673.926 510.941 680.179 519.738 684.16C535.559 690.035 553.762 685.103 568.437 678.437C594.316 666.052 611.275 646.423 625.004 621.733C625.883 620.202 626.855 618.726 627.839 617.261C629.184 615.117 629.184 615.117 628.863 612.945C627.864 610.693 626.638 608.866 625.187 606.875C621.177 601.043 618.669 594.857 617 588C578.655 580.96 540.61 583.1 512.902 613.285ZM700.433 606.879C699.445 608.207 699.445 608.207 698.437 609.562C692.867 616.479 687.317 620.881 679 624C679.628 628.868 681.707 632.733 683.875 637.062C687.902 645.294 691.289 653.693 694.562 662.25C700.1 676.603 705.811 689.282 716 701C716.455 701.598 716.91 702.196 717.378 702.812C725.927 713.836 740.203 722.961 753.851 725.754C765.713 727.112 776.011 725.845 785.832 718.789C793.898 712.132 798.319 705.002 800.75 694.875C800.832 693.926 800.915 692.977 801 692C801.103 690.845 801.206 689.69 801.312 688.5C800.894 670.139 789.272 655.435 777 643C775.977 641.851 775.977 641.851 774.933 640.679C761.205 625.688 741.298 616.542 722.562 609.562C721.65 609.22 720.739 608.877 719.799 608.524C709.926 604.529 709.926 604.529 700.433 606.879ZM646 624C645.714 624.538 645.427 625.075 645.133 625.629C637.212 640.452 628.725 654.007 618 667C617.307 667.878 617.307 667.878 616.601 668.773C614.554 671.342 612.671 673.238 609.996 675.176C606.333 678.191 605.58 681.345 604.687 685.875C604.454 686.898 604.454 686.898 604.216 687.941C599.401 709.641 601.436 733.221 612.558 752.734C617.782 760.889 624.516 765.827 633.82 768.531C641.586 770.201 649.308 768.713 656.168 764.746C664.081 759.128 669.625 751.755 674 743.187C674.422 742.371 674.844 741.555 675.279 740.714C681.647 728.094 690.458 710.43 689 696C687.847 693.053 686.346 690.298 684.875 687.5C678.835 675.503 674.409 662.963 669.911 650.328C666.097 638.069 666.097 638.069 660 627C656.52 625.187 656.52 625.187 652.687 624.875C651.433 624.687 650.179 624.498 648.886 624.304C647.934 624.204 646.981 624.103 646 624ZM278.558 651.894C277.897 652.514 277.236 653.134 276.555 653.772C275.507 654.782 275.507 654.782 274.437 655.812C273.715 656.502 272.994 657.191 272.25 657.901C248.026 681.219 217.645 720.699 216.933 756.324C216.955 757.207 216.977 758.09 217 759C263.327 767.032 316.462 759.421 355.51 732.285C358.378 730.239 361.197 728.134 364 726C364.883 725.331 365.766 724.662 366.675 723.972C376.23 716.52 385.322 708.392 393 699C394.033 697.766 395.067 696.533 396.101 695.301C405.175 684.884 405.175 684.884 412 673C411.67 672.34 411.34 671.68 411 671C409.59 671.199 409.59 671.199 408.152 671.402C406.747 671.583 405.342 671.761 403.937 671.937C403.163 672.037 402.389 672.137 401.591 672.24C396.136 672.865 390.815 673.024 385.324 672.933C369.672 671.861 369.672 671.861 356.126 677.901C353.901 680.485 351.971 683.216 350 686C347.296 688.48 347.296 688.48 344.5 690.687C343.599 691.403 342.697 692.118 341.769 692.855C340.855 693.563 339.941 694.271 339 695C338.055 695.738 337.11 696.477 336.136 697.238C323.78 706.714 311.02 714.28 297 721C296.273 721.398 295.546 721.796 294.796 722.207C291.513 723.656 288.547 723.229 285 723C283 721 283 721 282.562 718.687C283.465 713.138 288.803 710.338 293.062 707.187C296.92 704.423 300.838 701.78 304.812 699.187C314.598 692.701 323.673 685.371 332.375 677.5C332.94 676.995 333.506 676.491 334.089 675.971C335.454 674.711 336.735 673.361 338 672C338 671.01 338 670.02 338 669C337.398 668.84 336.797 668.68 336.177 668.516C301.435 659.161 301.435 659.161 287.381 650.36C283.351 648.058 281.693 648.932 278.558 651.894Z" fill="#865F58"/>
<path d="M546.203 288.274C548.897 290.43 551.464 292.661 554 295C554.619 295.539 555.238 296.078 555.875 296.633C577.217 316.296 586.699 347.781 588 376C588.919 399.149 584.616 422.515 576 444C575.291 443.784 574.582 443.567 573.852 443.344C565.495 441.159 557.487 440.641 548.875 440.563C547.792 440.541 546.708 440.519 545.592 440.496C531.18 440.531 517.29 446.438 506.648 456.223C494.744 469.058 489.188 483.407 489.695 500.754C490.807 520.833 501.505 540.457 515.887 554.168C523.492 560.761 532.106 565.414 541 570C541 570.66 541 571.32 541 572C539.871 572.368 539.871 572.368 538.719 572.743C519.415 579.536 500.202 592.651 490.816 611.361C489.274 614.704 487.756 618.044 486.394 621.465C482.889 629.73 477.4 632.064 469.398 635.422C467.394 636.207 465.386 636.983 463.375 637.75C462.364 638.149 461.354 638.547 460.313 638.957C455.513 640.815 451.116 642.268 446 643C446.146 642.265 446.292 641.53 446.443 640.772C447.113 637.391 447.775 634.008 448.438 630.625C448.668 629.469 448.898 628.313 449.135 627.121C453.858 602.892 455.013 574.875 448 551C447.818 550.339 447.636 549.678 447.449 548.997C441.477 527.56 429.325 507.592 413.164 492.321C411 490 411 490 410.5 486.25C412.303 456.918 425.069 430.525 447 411C448.446 409.859 449.904 408.734 451.375 407.625C472.491 391.614 491.087 364.817 494.785 338.184C496.364 314.789 492.64 294.517 479 275C502.601 270.669 526.511 274.297 546.203 288.274Z" fill="#F2C4C0"/>
<path d="M261.997 317C262.012 317.784 262.027 318.569 262.042 319.377C262.33 333.314 262.633 346.995 265.376 360.692C265.997 364 265.997 364 265.997 368C266.657 368 267.317 368 267.997 368C268.168 368.522 268.338 369.044 268.513 369.582C272.468 381.593 276.939 392.896 282.997 404C283.489 404.909 283.98 405.818 284.486 406.754C295.14 425.451 310.834 440.331 327.997 453C329.088 453.81 329.088 453.81 330.202 454.636C334.209 457.608 338.226 460.565 342.251 463.512C346.631 466.723 350.975 469.979 355.31 473.25C360.194 476.934 365.125 480.535 370.122 484.063C380.956 491.736 391.313 499.909 400.997 509C402.024 509.913 402.024 509.913 403.072 510.844C422.705 529.05 431.454 558.08 432.997 584C432.337 583.34 431.677 582.68 430.997 582C430.53 581.539 430.062 581.077 429.579 580.602C428.509 579.518 427.465 578.407 426.447 577.274C402.503 551.472 365.396 543.719 332.523 536.442C290.585 527.152 249.257 514.567 216.997 485C216.313 484.398 215.628 483.796 214.923 483.176C199.155 468.584 189.134 445.452 187.82 424.126C187.214 394.575 192.325 369.112 211.997 346C212.811 344.968 212.811 344.968 213.642 343.914C221.922 333.72 247.789 312.768 261.997 317Z" fill="#F3C4C0"/>
<path d="M215 510C225.875 516.27 225.875 516.27 229.813 518.824C262.377 539.929 300.784 549.622 338.438 557.188C368.68 563.265 402.058 574.178 420.047 601.059C424.936 609.15 427.378 616.122 427.313 625.562C427.311 626.729 427.311 626.729 427.309 627.919C427.19 635.208 425.903 641.956 424 649C370.805 658.678 318.955 650.696 273.717 620.198C269.237 617.071 265.092 613.613 261 610C259.556 608.755 259.556 608.755 258.082 607.484C235.947 588.088 217.518 560.032 215 530C214.799 523.333 214.883 516.668 215 510Z" fill="#F3C4C0"/>
<path d="M283.942 649.248C285.999 650 287.949 650.832 289.922 651.785C302.123 657.548 314.474 662.07 327.33 666.148C331.233 667.394 335.117 668.693 339 670C327.033 684.802 310.924 695.705 295.027 705.904C290.854 708.614 287.377 711.34 284 715C283.67 715.33 283.34 715.66 283 716C282.75 718.458 282.75 718.458 283 721C284.963 723.388 284.963 723.388 288.648 723.344C293.284 723.219 296.609 721.695 300.625 719.5C301.657 718.958 301.657 718.958 302.71 718.404C304.817 717.288 306.909 716.146 309 715C309.628 714.664 310.256 714.328 310.903 713.981C319.509 709.37 327.358 704.079 335 698C335.914 697.28 336.828 696.559 337.77 695.817C349.441 686.554 349.441 686.554 359.758 675.879C362.762 673.362 364.617 673.489 368.504 673.461C369.794 673.439 371.084 673.417 372.414 673.395C373.092 673.391 373.771 673.388 374.469 673.385C377.973 673.369 381.474 673.29 384.977 673.215C385.667 673.202 386.358 673.188 387.07 673.174C395.442 672.988 403.705 672.089 412 671C410.69 675.644 408.883 678.88 405.938 682.688C405.339 683.464 405.339 683.464 404.728 684.256C403.495 685.846 402.249 687.424 401 689C400.283 689.913 399.567 690.826 398.828 691.766C390.763 701.833 382.164 711.987 372 720C371.454 720.432 370.908 720.863 370.345 721.307C328.651 754.005 278.04 765.902 225.584 760.278C222.711 759.917 219.853 759.495 217 759C217.377 750.957 218.936 743.908 221.562 736.313C221.918 735.268 222.274 734.223 222.64 733.146C225.722 724.334 229.469 716.149 234 708C234.54 706.996 235.08 705.992 235.637 704.957C242.906 691.914 251.758 679.844 262 669C263.088 667.712 264.171 666.421 265.25 665.125C268.542 661.368 272.077 657.885 275.688 654.438C276.247 653.888 276.806 653.339 277.382 652.772C281.482 648.934 281.482 648.934 283.942 649.248Z" fill="#B5B598"/>
<path d="M827.249 513.25C834.062 520.063 838.275 527.457 838.311 537.25C837.991 553.875 829.261 565.738 817.878 577.121C801.907 592.154 779.814 600.885 757.885 600.344C743.665 599.086 729.833 593.953 716.294 589.693C714.207 589.063 712.119 588.508 709.999 588C710.068 586.602 710.068 586.602 710.139 585.176C710.416 575.406 709.89 565.781 704.237 557.383C702.999 555 702.999 555 703.425 553.078C705.744 550.017 708.425 547.412 711.186 544.75C714.804 541.208 718.372 537.7 721.624 533.812C746.212 505.256 794.247 490.403 827.249 513.25Z" fill="#F7F1E6"/>
<path d="M591.161 472.857C595.455 475.522 599.241 478.64 603.001 481.999C603.875 482.732 604.749 483.464 605.65 484.218C613.812 491.208 617.878 498.534 622.548 508.073C624.688 512.434 626.916 516.734 629.22 521.011C629.772 522.043 630.325 523.075 630.894 524.138C631.995 526.191 633.107 528.239 634.228 530.281C634.732 531.224 635.236 532.168 635.755 533.14C636.212 533.981 636.669 534.822 637.14 535.688C638.122 538.323 638.071 539.43 637.001 541.999C635.4 543.316 635.4 543.316 633.376 544.562C625.065 550.475 621.533 559.782 618.001 568.999C610.096 568.14 602.193 567.265 594.291 566.371C592.364 566.153 590.436 565.937 588.508 565.725C562.392 562.834 540.602 553.947 523.15 533.699C513.396 521.444 508.234 506.712 510.001 490.999C511.167 484.853 513.148 479.986 517.001 474.999C517.703 474.009 518.404 473.019 519.126 471.999C538.012 449.927 570.351 460.602 591.161 472.857Z" fill="#F7F1E6"/>
<path d="M617 588.001C617.188 588.667 617.376 589.333 617.57 590.019C619.471 596.629 619.471 596.629 622.437 602.813C622.861 603.547 623.285 604.28 623.722 605.036C625.074 607.213 625.074 607.213 627.375 609.751C629 612.001 629 612.001 628.882 614.137C627.649 618.137 625.647 621.487 623.5 625.063C623.052 625.815 622.604 626.568 622.143 627.343C618.17 633.912 613.774 639.985 609 646.001C608.332 646.884 607.664 647.767 606.976 648.676C592.796 667.144 568.352 682.803 545 686.001C534.917 686.943 524.988 687.241 516 682.001C514.422 681.134 514.422 681.134 512.812 680.251C505.023 674.019 500.035 667.089 498.744 657.006C497.239 640.311 502.48 626.425 513.027 613.52C539.596 582.655 579.251 581.07 617 588.001Z" fill="#F7F1E6"/>
<path d="M704.468 411.543C716.954 420.637 724.154 435.429 726.686 450.462C728.538 465.455 728.002 480.7 722.999 495C722.649 496.048 722.298 497.096 721.937 498.176C715.644 515.023 702.504 527.589 689.999 540C689.294 539.713 688.589 539.425 687.863 539.129C678.162 535.16 678.162 535.16 667.874 534.082C663.573 534.287 660.171 534.247 655.999 533C652.51 528.811 650.757 524.387 648.893 519.307C647.705 516.238 646.241 513.344 644.761 510.408C634.956 490.712 633.952 468.094 640.618 447.048C643.575 438.346 647.6 430.463 652.999 423C653.47 422.345 653.941 421.69 654.425 421.016C666.819 405.235 687.199 400.75 704.468 411.543Z" fill="#F7F1E6"/>
<path d="M704.88 604.782C711.053 605.29 716.803 607.398 722.562 609.562C723.525 609.92 724.487 610.278 725.479 610.646C743.989 617.676 760.73 627.137 775 640.999C776.228 642.117 776.228 642.117 777.48 643.257C789.779 654.812 800.041 670.336 801.25 687.562C801.045 698.437 797.342 707.356 789.926 715.191C780.916 723.728 771.783 726.401 759.539 726.277C742.991 724.98 728.519 715.167 717.488 703.296C704.379 687.716 697.313 670.01 690.072 651.234C687.143 643.703 684.005 636.467 680.145 629.37C679 626.999 679 626.999 679 623.999C679.606 623.743 680.212 623.486 680.836 623.222C688.662 619.646 696.181 614.642 700.727 607.156C703 604.999 703 604.999 704.88 604.782Z" fill="#F7F1E6"/>
<path d="M445.281 271.687C460.479 284.614 472.685 299.875 474.477 320.421C475.148 333.881 471.982 346.497 465 357.999C463.386 354.903 462.091 351.747 460.813 348.499C456.224 337.504 450.432 328.432 442 319.999C441.301 319.301 440.603 318.602 439.883 317.882C422.694 301.701 400.443 294.4 377.169 294.716C350.778 295.525 326.899 306.212 308.688 325.312C300.715 334.486 295.225 345.099 290 355.999C289.336 357.334 288.67 358.668 288 359.999C283.793 352.987 284.782 343.828 284.76 335.941C284.75 333.9 284.719 331.86 284.688 329.82C284.542 312.037 289.017 296.295 301.629 283.3C302.411 282.541 303.194 281.782 304 280.999C304.772 280.23 305.544 279.46 306.34 278.667C342.765 244.013 405.555 241.054 445.281 271.687Z" fill="#F3C4C0"/>
<path d="M645.997 624C648.233 624.236 650.461 624.541 652.685 624.875C653.926 625.037 655.168 625.2 656.446 625.367C661.784 627.822 662.902 631.718 664.997 637C665.34 637.829 665.682 638.658 666.035 639.512C667.042 642.015 667.995 644.533 668.935 647.062C669.28 647.975 669.625 648.888 669.98 649.828C671.547 654 673.077 658.177 674.493 662.402C674.953 663.768 675.412 665.134 675.872 666.5C676.097 667.17 676.321 667.84 676.552 668.53C677.984 672.629 679.68 676.488 681.626 680.371C682.088 681.295 682.551 682.22 683.027 683.172C683.94 684.966 684.875 686.75 685.835 688.52C689.736 696.142 689.176 701.854 687.017 709.949C672.182 755.895 672.182 755.895 653.962 766.105C646.141 769.666 638.553 770.052 630.435 767.312C619.217 762.841 613.367 755.56 608.31 744.625C599.966 723.102 599.701 699.836 606.997 678C609.685 675.562 609.685 675.562 611.31 674.34C626.62 662.184 637.019 640.935 645.997 624Z" fill="#F7F1E6"/>
<path d="M405.002 373C407.94 374.748 410.462 376.719 413.002 379C413.891 379.752 413.891 379.752 414.799 380.519C420.092 385.333 424.265 391.392 427.002 398C426.944 402.688 424.546 405.051 421.502 408.437C405.3 427.155 394.826 450.381 392.002 475C388.884 473.561 386.298 471.821 383.58 469.726C382.727 469.072 381.873 468.417 380.994 467.743C380.089 467.044 379.184 466.345 378.252 465.625C376.362 464.174 374.471 462.723 372.58 461.273C371.641 460.552 370.702 459.831 369.734 459.089C365.205 455.626 360.638 452.214 356.065 448.807C354.894 447.933 353.728 447.051 352.568 446.162C351.158 445.116 349.677 444.168 348.189 443.234C342.665 437.591 343.609 427.816 343.636 420.387C343.971 404.533 349.69 390.769 360.568 379.23C373.232 367.624 389.516 365.719 405.002 373Z" fill="#F3C5C1"/>
<path d="M425.188 332.313C436.049 342.512 445.157 356.212 446.246 371.442C446.306 374.672 446.359 377.789 446 381C445.34 381.66 444.68 382.32 444 383C443.406 382.178 442.811 381.355 442.199 380.508C430.645 364.822 416.729 352.507 397 349C378.802 347.516 365.01 350.118 350 361C349.367 361.437 348.734 361.874 348.082 362.324C335.786 371.695 326.827 390.214 324.688 405.183C324.021 410.446 323.489 415.718 323 421C303.855 401.956 303.855 401.956 300 389.864C300 383.981 302.229 379.239 304.5 373.875C304.965 372.756 305.43 371.637 305.909 370.483C315.379 347.981 328.126 329.608 351.418 319.957C376.799 310.55 404.447 314.352 425.188 332.313Z" fill="#F4C6C2"/>
<path d="M678.918 555.453C682.248 557.927 684.687 560.566 687 564C687.619 564.841 687.619 564.841 688.25 565.699C692.286 572.159 691.767 579.662 691 587C689.157 594.501 684.296 600.849 678.109 605.386C671.045 609.228 662.767 609.014 655 608C646.886 605.146 642.017 599.482 637.972 592.132C634.68 584.819 634.891 576.322 637.437 568.812C640.566 561.933 645.896 557.048 652.125 552.937C661.286 550.721 670.645 550.569 678.918 555.453Z" fill="#F2C683"/>
<path d="M204 778C205.917 778.145 207.833 778.291 209.75 778.437C211.459 778.568 213.167 778.697 214.876 778.826C216.374 778.949 217.871 779.088 219.366 779.239C229.805 780.239 240.272 780.346 250.75 780.562C252.719 780.606 254.688 780.649 256.656 780.693C261.437 780.799 266.219 780.901 271 781C271 781.33 271 781.66 271 782C255.047 786.295 237.303 783.768 221 783C221 783.33 221 783.66 221 784C219.35 784 217.7 784 216 784C215.67 783.34 215.34 782.68 215 782C211.971 781.342 211.971 781.342 209 781C209 780.34 209 779.68 209 779C207.35 779 205.7 779 204 779C204 778.67 204 778.34 204 778Z" fill="#84534C"/>
<path d="M522 252.999C518.797 255.607 517.175 256.347 513 255.999C513.33 255.009 513.66 254.019 514 252.999C513.34 253.659 512.68 254.319 512 254.999C509.57 255.318 509.57 255.318 506.555 255.413C505.478 255.452 504.402 255.491 503.293 255.531C501.601 255.577 501.601 255.577 499.875 255.624C498.739 255.663 497.604 255.702 496.434 255.742C493.623 255.836 490.812 255.922 488 255.999C488.33 255.339 488.66 254.679 489 253.999C488.34 253.999 487.68 253.999 487 253.999C487 254.659 487 255.319 487 255.999C482.825 256.347 481.203 255.607 478 252.999C493.141 250.99 506.874 250.685 522 252.999Z" fill="#926F67"/>
<path d="M604.003 340C606.317 343.472 606.782 346.1 607.565 350.188C607.814 351.46 608.063 352.732 608.319 354.043C609.543 360.884 610.15 367.499 610.1 374.438C610.099 375.203 610.097 375.969 610.096 376.757C610.09 379.172 610.078 381.586 610.065 384C610.06 385.65 610.055 387.299 610.051 388.949C610.04 392.966 610.023 396.983 610.003 401C609.673 401 609.343 401 609.003 401C609.003 390.44 609.003 379.88 609.003 369C608.343 369 607.683 369 607.003 369C603.558 349.032 603.558 349.032 604.003 340Z" fill="#8E6860"/>
<path d="M581 696C581.33 696 581.66 696 582 696C582 705.24 582 714.48 582 724C579.952 719.904 579.293 716.598 578.562 712.145C578.377 711.437 578.191 710.729 578 710C577.34 709.67 576.68 709.34 576 709C576.186 708.278 576.371 707.556 576.562 706.812C577.02 703.872 576.735 701.859 576 699C578.475 699.495 578.475 699.495 581 700C581 698.68 581 697.36 581 696Z" fill="#7D5550"/>
<path d="M264 315C263.99 315.663 263.979 316.326 263.968 317.009C263.779 330.859 264.149 344.277 266 358C266.218 360.041 266.428 362.082 266.625 364.125C266.749 365.404 266.873 366.683 267 368C258.73 353.869 261.689 332.527 262 317C261.34 316.67 260.68 316.34 260 316C262 315 262 315 264 315Z" fill="#FAEAE7"/>
<path d="M780 619C787.956 620.199 794.347 629.178 799.688 634.812C800.537 635.706 801.386 636.599 802.262 637.52C804 640 804 640 803.77 642.324C803.516 642.877 803.262 643.43 803 644C802.443 643.299 801.886 642.598 801.312 641.875C793.782 631.696 793.782 631.696 784 624C784 623.34 784 622.68 784 622C782.68 621.34 781.36 620.68 780 620C780 619.67 780 619.34 780 619Z" fill="#825750"/>
<path d="M261.997 317C262.012 317.784 262.027 318.569 262.042 319.377C262.33 333.314 262.633 346.995 265.376 360.692C265.997 364 265.997 364 265.997 368C266.657 368 267.317 368 267.997 368C268.168 368.522 268.338 369.044 268.513 369.582C272.468 381.593 276.939 392.896 282.997 404C283.489 404.909 283.98 405.818 284.486 406.754C295.14 425.451 310.834 440.331 327.997 453C329.088 453.81 329.088 453.81 330.202 454.636C334.209 457.608 338.226 460.565 342.251 463.512C346.631 466.723 350.975 469.979 355.31 473.25C360.194 476.934 365.125 480.535 370.122 484.063C380.956 491.736 391.313 499.909 400.997 509C402.024 509.913 402.024 509.913 403.072 510.844C422.705 529.05 431.454 558.08 432.997 584C432.337 583.34 431.677 582.68 430.997 582C430.53 581.539 430.062 581.077 429.579 580.602C428.509 579.518 427.465 578.407 426.447 577.274C402.503 551.472 365.396 543.719 332.523 536.442C290.585 527.152 249.257 514.567 216.997 485C216.313 484.398 215.628 483.796 214.923 483.176C199.155 468.584 189.134 445.452 187.82 424.126C187.214 394.575 192.325 369.112 211.997 346C212.811 344.968 212.811 344.968 213.642 343.914C221.922 333.72 247.789 312.768 261.997 317Z" fill="#F3C4C0"/>
<path d="M215 510C225.875 516.27 225.875 516.27 229.813 518.824C262.377 539.929 300.784 549.622 338.438 557.188C368.68 563.265 402.058 574.178 420.047 601.059C424.936 609.15 427.378 616.122 427.313 625.562C427.311 626.729 427.311 626.729 427.309 627.919C427.19 635.208 425.903 641.956 424 649C370.805 658.678 318.955 650.696 273.717 620.198C269.237 617.071 265.092 613.613 261 610C259.556 608.755 259.556 608.755 258.082 607.484C235.947 588.088 217.518 560.032 215 530C214.799 523.333 214.883 516.668 215 510Z" fill="#F3C4C0"/>
<path d="M283.942 649.248C285.999 650 287.949 650.832 289.922 651.785C302.123 657.548 314.474 662.07 327.33 666.148C331.233 667.394 335.117 668.693 339 670C327.033 684.802 310.924 695.705 295.027 705.904C290.854 708.614 287.377 711.34 284 715C283.67 715.33 283.34 715.66 283 716C282.75 718.458 282.75 718.458 283 721C284.963 723.388 284.963 723.388 288.648 723.344C293.284 723.219 296.609 721.695 300.625 719.5C301.657 718.958 301.657 718.958 302.71 718.404C304.817 717.288 306.909 716.146 309 715C309.628 714.664 310.256 714.328 310.903 713.981C319.509 709.37 327.358 704.079 335 698C335.914 697.28 336.828 696.559 337.77 695.817C349.441 686.554 349.441 686.554 359.758 675.879C362.762 673.362 364.617 673.489 368.504 673.461C369.794 673.439 371.084 673.417 372.414 673.395C373.092 673.391 373.771 673.388 374.469 673.385C377.973 673.369 381.474 673.29 384.977 673.215C385.667 673.202 386.358 673.188 387.07 673.174C395.442 672.988 403.705 672.089 412 671C410.69 675.644 408.883 678.88 405.938 682.688C405.339 683.464 405.339 683.464 404.728 684.256C403.495 685.846 402.249 687.424 401 689C400.283 689.913 399.567 690.826 398.828 691.766C390.763 701.833 382.164 711.987 372 720C371.454 720.432 370.908 720.863 370.345 721.307C328.651 754.005 278.04 765.902 225.584 760.278C222.711 759.917 219.853 759.495 217 759C217.377 750.957 218.936 743.908 221.562 736.313C221.918 735.268 222.274 734.223 222.64 733.146C225.722 724.334 229.469 716.149 234 708C234.54 706.996 235.08 705.992 235.637 704.957C242.906 691.914 251.758 679.844 262 669C263.088 667.712 264.171 666.421 265.25 665.125C268.542 661.368 272.077 657.885 275.688 654.438C276.247 653.888 276.806 653.339 277.382 652.772C281.482 648.934 281.482 648.934 283.942 649.248Z" fill="#B5B598"/>
<path d="M827.249 513.25C834.062 520.063 838.275 527.457 838.311 537.25C837.991 553.875 829.261 565.738 817.878 577.121C801.907 592.154 779.814 600.885 757.885 600.344C743.665 599.086 729.833 593.953 716.294 589.693C714.207 589.063 712.119 588.508 709.999 588C710.068 586.602 710.068 586.602 710.139 585.176C710.416 575.406 709.89 565.781 704.237 557.383C702.999 555 702.999 555 703.425 553.078C705.744 550.017 708.425 547.412 711.186 544.75C714.804 541.208 718.372 537.7 721.624 533.812C746.212 505.256 794.247 490.403 827.249 513.25Z" fill="#F7F1E6"/>
<path d="M591.161 472.857C595.455 475.522 599.241 478.64 603.001 481.999C603.875 482.732 604.749 483.464 605.65 484.218C613.812 491.208 617.878 498.534 622.548 508.073C624.688 512.434 626.916 516.734 629.22 521.011C629.772 522.043 630.325 523.075 630.894 524.138C631.995 526.191 633.107 528.239 634.228 530.281C634.732 531.224 635.236 532.168 635.755 533.14C636.212 533.981 636.669 534.822 637.14 535.688C638.122 538.323 638.071 539.43 637.001 541.999C635.4 543.316 635.4 543.316 633.376 544.562C625.065 550.475 621.533 559.782 618.001 568.999C610.096 568.14 602.193 567.265 594.291 566.371C592.364 566.153 590.436 565.937 588.508 565.725C562.392 562.834 540.602 553.947 523.15 533.699C513.396 521.444 508.234 506.712 510.001 490.999C511.167 484.853 513.148 479.986 517.001 474.999C517.703 474.009 518.404 473.019 519.126 471.999C538.012 449.927 570.351 460.602 591.161 472.857Z" fill="#F7F1E6"/>
<path d="M617 588.001C617.188 588.667 617.376 589.333 617.57 590.019C619.471 596.629 619.471 596.629 622.437 602.813C622.861 603.547 623.285 604.28 623.722 605.036C625.074 607.213 625.074 607.213 627.375 609.751C629 612.001 629 612.001 628.882 614.137C627.649 618.137 625.647 621.487 623.5 625.063C623.052 625.815 622.604 626.568 622.143 627.343C618.17 633.912 613.774 639.985 609 646.001C608.332 646.884 607.664 647.767 606.976 648.676C592.796 667.144 568.352 682.803 545 686.001C534.917 686.943 524.988 687.241 516 682.001C514.422 681.134 514.422 681.134 512.812 680.251C505.023 674.019 500.035 667.089 498.744 657.006C497.239 640.311 502.48 626.425 513.027 613.52C539.596 582.655 579.251 581.07 617 588.001Z" fill="#F7F1E6"/>
<path d="M704.468 411.543C716.954 420.637 724.154 435.429 726.686 450.462C728.538 465.455 728.002 480.7 722.999 495C722.649 496.048 722.298 497.096 721.937 498.176C715.644 515.023 702.504 527.589 689.999 540C689.294 539.713 688.589 539.425 687.863 539.129C678.162 535.16 678.162 535.16 667.874 534.082C663.573 534.287 660.171 534.247 655.999 533C652.51 528.811 650.757 524.387 648.893 519.307C647.705 516.238 646.241 513.344 644.761 510.408C634.956 490.712 633.952 468.094 640.618 447.048C643.575 438.346 647.6 430.463 652.999 423C653.47 422.345 653.941 421.69 654.425 421.016C666.819 405.235 687.199 400.75 704.468 411.543Z" fill="#F7F1E6"/>
<path d="M704.88 604.782C711.053 605.29 716.803 607.398 722.562 609.562C723.525 609.92 724.487 610.278 725.479 610.646C743.989 617.676 760.73 627.137 775 640.999C776.228 642.117 776.228 642.117 777.48 643.257C789.779 654.812 800.041 670.336 801.25 687.562C801.045 698.437 797.342 707.356 789.926 715.191C780.916 723.728 771.783 726.401 759.539 726.277C742.991 724.98 728.519 715.167 717.488 703.296C704.379 687.716 697.313 670.01 690.072 651.234C687.143 643.703 684.005 636.467 680.145 629.37C679 626.999 679 626.999 679 623.999C679.606 623.743 680.212 623.486 680.836 623.222C688.662 619.646 696.181 614.642 700.727 607.156C703 604.999 703 604.999 704.88 604.782Z" fill="#F7F1E6"/>
<path d="M445.281 271.687C460.479 284.614 472.685 299.875 474.477 320.421C475.148 333.881 471.982 346.497 465 357.999C463.386 354.903 462.091 351.747 460.813 348.499C456.224 337.504 450.432 328.432 442 319.999C441.301 319.301 440.603 318.602 439.883 317.882C422.694 301.701 400.443 294.4 377.169 294.716C350.778 295.525 326.899 306.212 308.688 325.312C300.715 334.486 295.225 345.099 290 355.999C289.336 357.334 288.67 358.668 288 359.999C283.793 352.987 284.782 343.828 284.76 335.941C284.75 333.9 284.719 331.86 284.688 329.82C284.542 312.037 289.017 296.295 301.629 283.3C302.411 282.541 303.194 281.782 304 280.999C304.772 280.23 305.544 279.46 306.34 278.667C342.765 244.013 405.555 241.054 445.281 271.687Z" fill="#F3C4C0"/>
<path d="M645.997 624C648.233 624.236 650.461 624.541 652.685 624.875C653.926 625.037 655.168 625.2 656.446 625.367C661.784 627.822 662.902 631.718 664.997 637C665.34 637.829 665.682 638.658 666.035 639.512C667.042 642.015 667.995 644.533 668.935 647.062C669.28 647.975 669.625 648.888 669.98 649.828C671.547 654 673.077 658.177 674.493 662.402C674.953 663.768 675.412 665.134 675.872 666.5C676.097 667.17 676.321 667.84 676.552 668.53C677.984 672.629 679.68 676.488 681.626 680.371C682.088 681.295 682.551 682.22 683.027 683.172C683.94 684.966 684.875 686.75 685.835 688.52C689.736 696.142 689.176 701.854 687.017 709.949C672.182 755.895 672.182 755.895 653.962 766.105C646.141 769.666 638.553 770.052 630.435 767.312C619.217 762.841 613.367 755.56 608.31 744.625C599.966 723.102 599.701 699.836 606.997 678C609.685 675.562 609.685 675.562 611.31 674.34C626.62 662.184 637.019 640.935 645.997 624Z" fill="#F7F1E6"/>
<path d="M405.002 373C407.94 374.748 410.462 376.719 413.002 379C413.891 379.752 413.891 379.752 414.799 380.519C420.092 385.333 424.265 391.392 427.002 398C426.944 402.688 424.546 405.051 421.502 408.437C405.3 427.155 394.826 450.381 392.002 475C388.884 473.561 386.298 471.821 383.58 469.726C382.727 469.072 381.873 468.417 380.994 467.743C380.089 467.044 379.184 466.345 378.252 465.625C376.362 464.174 374.471 462.723 372.58 461.273C371.641 460.552 370.702 459.831 369.734 459.089C365.205 455.626 360.638 452.214 356.065 448.807C354.894 447.933 353.728 447.051 352.568 446.162C351.158 445.116 349.677 444.168 348.189 443.234C342.665 437.591 343.609 427.816 343.636 420.387C343.971 404.533 349.69 390.769 360.568 379.23C373.232 367.624 389.516 365.719 405.002 373Z" fill="#F3C5C1"/>
<path d="M425.188 332.313C436.049 342.512 445.157 356.212 446.246 371.442C446.306 374.672 446.359 377.789 446 381C445.34 381.66 444.68 382.32 444 383C443.406 382.178 442.811 381.355 442.199 380.508C430.645 364.822 416.729 352.507 397 349C378.802 347.516 365.01 350.118 350 361C349.367 361.437 348.734 361.874 348.082 362.324C335.786 371.695 326.827 390.214 324.688 405.183C324.021 410.446 323.489 415.718 323 421C303.855 401.956 303.855 401.956 300 389.864C300 383.981 302.229 379.239 304.5 373.875C304.965 372.756 305.43 371.637 305.909 370.483C315.379 347.981 328.126 329.608 351.418 319.957C376.799 310.55 404.447 314.352 425.188 332.313Z" fill="#F4C6C2"/>
<path d="M678.918 555.453C682.248 557.927 684.687 560.566 687 564C687.619 564.841 687.619 564.841 688.25 565.699C692.286 572.159 691.767 579.662 691 587C689.157 594.501 684.296 600.849 678.109 605.386C671.045 609.228 662.767 609.014 655 608C646.886 605.146 642.017 599.482 637.972 592.132C634.68 584.819 634.891 576.322 637.437 568.812C640.566 561.933 645.896 557.048 652.125 552.937C661.286 550.721 670.645 550.569 678.918 555.453Z" fill="#F2C683"/>
<path d="M204 778C205.917 778.145 207.833 778.291 209.75 778.437C211.459 778.568 213.167 778.697 214.876 778.826C216.374 778.949 217.871 779.088 219.366 779.239C229.805 780.239 240.272 780.346 250.75 780.562C252.719 780.606 254.688 780.649 256.656 780.693C261.437 780.799 266.219 780.901 271 781C271 781.33 271 781.66 271 782C255.047 786.295 237.303 783.768 221 783C221 783.33 221 783.66 221 784C219.35 784 217.7 784 216 784C215.67 783.34 215.34 782.68 215 782C211.971 781.342 211.971 781.342 209 781C209 780.34 209 779.68 209 779C207.35 779 205.7 779 204 779C204 778.67 204 778.34 204 778Z" fill="#84534C"/>
<path d="M522 252.999C518.797 255.607 517.175 256.347 513 255.999C513.33 255.009 513.66 254.019 514 252.999C513.34 253.659 512.68 254.319 512 254.999C509.57 255.318 509.57 255.318 506.555 255.413C505.478 255.452 504.402 255.491 503.293 255.531C501.601 255.577 501.601 255.577 499.875 255.624C498.739 255.663 497.604 255.702 496.434 255.742C493.623 255.836 490.812 255.922 488 255.999C488.33 255.339 488.66 254.679 489 253.999C488.34 253.999 487.68 253.999 487 253.999C487 254.659 487 255.319 487 255.999C482.825 256.347 481.203 255.607 478 252.999C493.141 250.99 506.874 250.685 522 252.999Z" fill="#926F67"/>
<path d="M604.003 340C606.317 343.472 606.782 346.1 607.565 350.188C607.814 351.46 608.063 352.732 608.319 354.043C609.543 360.884 610.15 367.499 610.1 374.438C610.099 375.203 610.097 375.969 610.096 376.757C610.09 379.172 610.078 381.586 610.065 384C610.06 385.65 610.055 387.299 610.051 388.949C610.04 392.966 610.023 396.983 610.003 401C609.673 401 609.343 401 609.003 401C609.003 390.44 609.003 379.88 609.003 369C608.343 369 607.683 369 607.003 369C603.558 349.032 603.558 349.032 604.003 340Z" fill="#8E6860"/>
<path d="M581 696C581.33 696 581.66 696 582 696C582 705.24 582 714.48 582 724C579.952 719.904 579.293 716.598 578.562 712.145C578.377 711.437 578.191 710.729 578 710C577.34 709.67 576.68 709.34 576 709C576.186 708.278 576.371 707.556 576.562 706.812C577.02 703.872 576.735 701.859 576 699C578.475 699.495 578.475 699.495 581 700C581 698.68 581 697.36 581 696Z" fill="#7D5550"/>
<path d="M264 315C263.99 315.663 263.979 316.326 263.968 317.009C263.779 330.859 264.149 344.277 266 358C266.218 360.041 266.428 362.082 266.625 364.125C266.749 365.404 266.873 366.683 267 368C258.73 353.869 261.689 332.527 262 317C261.34 316.67 260.68 316.34 260 316C262 315 262 315 264 315Z" fill="#FAEAE7"/>
<path d="M780 619C787.956 620.199 794.347 629.178 799.688 634.812C800.537 635.706 801.386 636.599 802.262 637.52C804 640 804 640 803.77 642.324C803.516 642.877 803.262 643.43 803 644C802.443 643.299 801.886 642.598 801.312 641.875C793.782 631.696 793.782 631.696 784 624C784 623.34 784 622.68 784 622C782.68 621.34 781.36 620.68 780 620C780 619.67 780 619.34 780 619Z" fill="#825750"/>
</svg>
