<svg width="1024" height="1024" viewBox="0 0 1024 1024" fill="none" xmlns="http://www.w3.org/2000/svg">
<path d="M279.75 237.875C286.81 239.445 286.81 239.445 294 240C294 240.99 294 241.98 294 243C294.981 243.522 295.962 244.044 296.973 244.582C313.037 253.28 328.047 264.047 341 277C341.155 276.103 341.155 276.103 341.313 275.187C342.125 272.602 342.99 271.795 345 270C346.114 268.701 346.114 268.701 347.25 267.375C350.978 264.155 354.2 264 359 264C359.33 264.99 359.66 265.98 360 267C360.743 267.289 361.485 267.577 362.25 267.875C365.707 269.289 367.394 271.329 370 274C371.869 275.694 373.744 277.382 375.625 279.062C390.31 292.428 401.023 307.313 410 325C413.987 325.449 413.987 325.449 416.125 323.062C416.744 322.382 417.363 321.701 418 321C421.149 319.425 423.52 319.652 427 320C434.662 324.565 439.171 333.523 443.313 341.187C444.753 344.279 444.753 344.279 448 345C447.67 345.66 447.34 346.32 447 347C447.549 348.854 447.549 348.854 448.512 350.894C448.856 351.679 449.2 352.464 449.555 353.273C449.929 354.111 450.303 354.949 450.688 355.812C459 374.974 459 374.974 459 383C459.66 383.33 460.32 383.66 461 384C461.352 386.331 461.684 388.664 462 391C462.956 393.336 462.956 393.336 464 395C464.774 394.783 464.774 394.783 465.563 394.562C473.733 392.677 473.733 392.677 478.188 393.812C485.976 399.87 486.286 411.861 487.465 421.035C489.495 438.669 486.586 455.742 482.506 472.856C481.242 478.216 480.047 483.593 479 489C478.34 489 477.68 489 477 489C476.633 490.021 476.633 490.021 476.258 491.062C473.75 497.566 470.746 503.407 467.063 509.312C466.656 509.969 466.25 510.626 465.831 511.303C463.273 515.319 460.487 518.87 457.232 522.348C455.841 524.213 455.537 525.763 455 528C453.685 528.701 452.349 529.365 451 530C448.577 532.634 448.577 532.634 448 536C446.887 536.093 446.887 536.093 445.75 536.187C442.156 537.249 441.176 539.026 439 542C436.426 543.716 434.865 544.454 432 545.312C428.358 546.469 425.004 547.903 421.563 549.562C411.008 554.347 411.008 554.347 406 554C400.488 551.376 397.017 547.914 394.771 542.211C393.049 537.271 391.561 532.261 390.063 527.25C387.838 519.824 385.546 512.521 382.635 505.331C381.919 502.701 382.012 501.514 383 499C384.621 496.695 386.275 494.473 388 492.25C401.823 473.838 427.08 435.612 424 412C422.564 409.48 422.564 409.48 420 408C416.458 407.333 416.458 407.333 413 408C409.375 411.443 408.634 416.275 407.375 420.937C401.13 442.744 391.298 465.228 377 483C373.778 480.379 372.908 477.466 371.617 473.586C371.402 472.947 371.186 472.308 370.963 471.65C370.259 469.561 369.567 467.468 368.875 465.375C367.903 462.469 366.924 459.564 365.946 456.66C365.578 455.566 365.578 455.566 365.203 454.449C363.623 449.768 361.966 445.126 360.242 440.496C359.821 439.362 359.4 438.228 358.966 437.059C358.172 434.938 357.368 432.82 356.554 430.706C356.201 429.758 355.848 428.809 355.485 427.832C355.172 427.014 354.86 426.197 354.538 425.355C353.31 419.979 356.013 415.845 358.5 411.25C366.819 395.206 381.545 365.746 377 347C372.932 344.288 370.836 344.693 366 345C363.647 347.353 363.558 348.383 362.992 351.601C362.814 352.556 362.636 353.51 362.453 354.493C362.167 356.043 362.167 356.043 361.875 357.625C360.106 366.675 357.823 375.386 354.875 384.125C354.539 385.125 354.202 386.125 353.855 387.155C352.192 391.959 350.424 396.528 348 401C347.34 401 346.68 401 346 401C342.08 392.131 338.947 383.12 335.952 373.909C329.303 353.499 322.13 333.45 313 314C312.664 313.269 312.329 312.537 311.983 311.784C311.643 311.067 311.303 310.351 310.953 309.613C310.651 308.968 310.348 308.322 310.036 307.657C308.953 305.671 308.953 305.671 306 304C302.924 304.082 302.924 304.082 300 305C297.513 308.731 297.861 310.181 298.452 314.449C299.436 319.031 301.267 323.214 303.125 327.5C303.531 328.463 303.936 329.427 304.353 330.419C305.559 333.284 306.778 336.142 308 339C324.537 377.992 324.537 377.992 324 389C308.065 384.254 294.426 373.148 282.563 361.875C278.816 358.432 278.816 358.432 274.125 356.75C271.046 356.837 271.046 356.837 268.563 358C266.741 360.019 266.741 360.019 266.375 363.25C267.915 372.488 277.83 378.33 284.998 383.574C288.293 385.921 291.638 388.16 295.063 390.312C295.786 390.77 296.51 391.228 297.255 391.7C302.072 394.609 306.957 396.83 312.211 398.82C332.923 406.873 332.923 406.873 337.953 416.031C340.502 421.863 342.289 427.863 343.914 434.009C345.051 438.301 346.432 442.499 347.844 446.707C350.319 454.111 352.691 461.541 355 469C347.73 466.765 341.025 463.821 334.188 460.5C333.093 459.969 331.997 459.438 330.869 458.89C316.119 451.674 301.944 444.339 288.997 434.151C284.722 430.868 281.604 429.014 276 429C275.01 429.66 274.02 430.32 273 431C272.311 436.552 272.311 436.552 274.578 441.469C277.505 444.527 280.572 446.529 284.188 448.687C284.89 449.115 285.592 449.543 286.315 449.984C288.537 451.333 290.768 452.667 293 454C293.705 454.425 294.409 454.85 295.135 455.288C300.054 458.256 305.009 461.154 310 464C310.618 464.353 311.236 464.707 311.872 465.071C319.494 469.387 327.315 473.178 335.305 476.758C336.045 477.09 336.786 477.423 337.549 477.765C341.313 479.452 345.084 481.123 348.866 482.772C350.273 483.396 351.679 484.02 353.086 484.644C353.739 484.923 354.391 485.202 355.063 485.49C359.616 487.527 361.881 489.448 363.872 493.988C364.105 494.684 364.338 495.38 364.578 496.098C364.849 496.89 365.119 497.683 365.398 498.499C365.679 499.345 365.961 500.191 366.25 501.062C366.861 502.859 367.473 504.654 368.086 506.449C368.556 507.825 368.556 507.825 369.034 509.228C370.848 514.432 372.805 519.585 374.779 524.731C376.316 528.818 377.46 532.636 378 537C373.673 535.621 369.549 533.973 365.375 532.187C359.227 529.651 353.014 527.793 346.563 526.187C345.735 525.981 344.907 525.774 344.054 525.561C334.652 523.309 325.677 522.788 316.019 522.76C314.004 522.75 311.991 522.719 309.977 522.687C298.933 522.51 298.933 522.51 289.321 527.401C287.693 529.077 287.693 529.077 287.625 532.25C288.052 536.514 289.217 539.137 291 543C291 543.99 291 544.98 291 546C285.267 548.842 280.098 550.913 273.645 549.937C267.972 547.926 263.532 543.851 259 540C258.236 539.363 257.471 538.726 256.684 538.07C255.104 536.736 253.548 535.372 252 534C251.34 534.33 250.68 534.66 250 535C248 533 248 533 248 530C245.688 527.927 243.971 526.99 241 526C241.33 525.34 241.66 524.68 242 524C241.242 522.825 240.468 521.66 239.688 520.5C239.259 519.85 238.829 519.201 238.387 518.531C237.929 518.026 237.472 517.521 237 517C236.01 517 235.02 517 234 517C233.895 516.272 233.789 515.543 233.68 514.793C232.944 511.769 231.872 509.872 230.125 507.312C229.612 506.545 229.099 505.778 228.571 504.988C226.979 502.763 226.979 502.763 224 501C224.66 500.67 225.32 500.34 226 500C226 499.34 226 498.68 226 498C225.34 498 224.68 498 224 498C225.75 489.25 225.75 489.25 230 486C233.097 484.065 234.14 484 238 484C233.854 476.279 233.854 476.279 229 469C228.34 469 227.68 469 227 469C226.911 468.176 226.822 467.352 226.731 466.504C225.847 462.266 224.179 458.818 222.313 454.937C216.551 442.425 206.454 420.103 210.566 406.069C211.761 403.111 212.781 401.183 215.25 399.125C218.53 397.783 221.473 397.266 225 397C225.66 397.33 226.32 397.66 227 398C227 398.66 227 399.32 227 400C227.66 400 228.32 400 229 400C228.34 399.01 227.68 398.02 227 397C225.813 395 225.813 395 225 393C225.33 392.01 225.66 391.02 226 390C225.774 387.938 225.774 387.938 225.223 385.726C225.039 384.901 224.856 384.076 224.666 383.226C224.467 382.368 224.268 381.509 224.063 380.625C221.705 370.352 221.705 370.352 222 366C222.33 366 222.66 366 223 366C223.33 355.11 223.66 344.22 224 333C223.67 333 223.34 333 223 333C222.582 326.448 224.063 320.874 227 315C227.66 315 228.32 315 229 315C229 314.34 229 313.68 229 313C230.541 312.802 232.083 312.617 233.625 312.437C234.913 312.281 234.913 312.281 236.227 312.121C239.289 311.987 242.001 312.406 245 313C245.065 312.312 245.13 311.624 245.196 310.915C250.546 255.728 250.546 255.728 270.051 239.269C273.616 236.947 275.746 236.967 279.75 237.875Z" fill="#96BA7F"/>
<path d="M305.062 302.875C311.204 305.227 313.226 311.243 315.754 316.902C316.432 318.466 316.432 318.466 317.125 320.062C317.607 321.167 318.088 322.272 318.584 323.411C323.721 335.394 328.068 347.623 332.296 359.951C333.056 362.164 333.821 364.375 334.587 366.587C336.25 371.39 337.908 376.194 339.562 381C339.829 381.773 340.095 382.545 340.369 383.341C341.124 385.539 341.877 387.738 342.629 389.938C342.967 390.922 342.967 390.922 343.312 391.925C344.335 394.927 345.301 397.905 346 401C346.66 401 347.32 401 348 401C348.177 400.461 348.355 399.923 348.538 399.367C349.867 395.353 351.223 391.352 352.648 387.371C356.442 376.611 359.297 365.971 361.314 354.732C361.494 353.766 361.674 352.8 361.859 351.805C362.009 350.949 362.158 350.092 362.312 349.21C363.108 346.654 363.843 345.575 366 344C372.864 343.346 372.864 343.346 376.102 345.21C378 347 378 347 378.479 349.337C378.301 355.985 377.369 361.936 375.5 368.312C375.233 369.251 374.966 370.19 374.691 371.157C370.492 385.56 365.642 399.749 358.526 412.992C355.783 418.119 354.434 420.949 356.012 426.668C356.558 428.179 357.118 429.685 357.688 431.188C358.332 432.953 358.975 434.718 359.617 436.484C359.987 437.489 360.356 438.494 360.737 439.529C362.21 443.577 363.643 447.639 365.07 451.703C365.337 452.461 365.603 453.22 365.877 454.001C366.419 455.543 366.96 457.086 367.502 458.629C368.807 462.346 370.115 466.062 371.426 469.777C371.771 470.759 371.771 470.759 372.123 471.761C373.34 475.207 374.615 478.618 376 482C391.866 467.412 400.127 441.019 406.344 421.125C409.784 410.216 409.784 410.216 413 407C417.285 406.434 419.336 406.571 423 408.938C425.795 413.217 424.94 416.13 424 421C423.216 423.928 422.21 426.734 421.125 429.562C420.823 430.363 420.522 431.164 420.211 431.989C411.489 454.602 401.086 479.921 384.055 497.574C381.075 504.429 387.161 515.776 389.438 522.438C390.229 524.769 391.02 527.101 391.809 529.434C392.187 530.546 392.566 531.659 392.957 532.805C393.907 535.714 394.731 538.63 395.531 541.582C397.022 546.608 399.171 548.955 403.48 551.906C408.041 553.886 411.517 552.749 416 551C418.959 549.712 421.868 548.379 424.75 546.926C425.864 546.468 425.864 546.468 427 546C427.66 546.33 428.32 546.66 429 547C416.515 553.704 416.515 553.704 410 554C411.1 555.295 412.205 556.586 413.312 557.875C413.927 558.594 414.542 559.314 415.176 560.055C417.041 562.192 417.041 562.192 420 564C420.66 564 421.32 564 422 564C422.675 564.756 422.675 564.756 423.363 565.527C424.878 567.22 424.878 567.22 426.98 567.004C427.709 566.858 428.437 566.713 429.188 566.562C435.13 565.683 439.497 566.775 444.938 569.438C447 571 447 571 448 574C448.134 577.554 448.098 580.6 447.25 584.062C446.904 588.126 448.546 589.876 451 593C450.67 593.66 450.34 594.32 450 595C448.831 593.189 447.665 591.376 446.5 589.562C445.85 588.553 445.201 587.544 444.531 586.504C443 584 443 584 443 583C428.514 583.533 416.715 585.694 403.836 592.574C401 594 401 594 399 594C399.021 595.08 399.042 596.159 399.063 597.272C400.3 667.354 400.3 667.354 389.688 679.688C386.429 681.279 384.579 681.609 381 681C378.625 679.5 378.625 679.5 377 677C376.648 671.164 377.458 666.198 378.875 660.562C383.187 642 383.251 623.957 383 605C373.264 610.107 364.588 615.997 356.02 622.875C353.595 624.815 351.212 626.532 348.512 628.062C345.148 630.157 343.172 631.668 341 635C339.831 640.254 340.051 645.638 340.078 650.992C340.106 665.476 336.097 680.007 332.938 694.062C332.692 695.163 332.447 696.264 332.195 697.397C329.128 710.581 329.128 710.581 324 714C319.694 714.558 317.68 714.439 314 712.062C311.207 707.785 312.012 704.866 313 700C313.936 696.928 315.108 693.976 316.312 691C321.502 677.507 324.541 664.484 325 650C313.573 658.219 302.51 666.634 292 676C291.099 676.79 290.198 677.58 289.27 678.395C283.276 683.7 277.616 689.299 272 695C270.333 696.667 268.667 698.333 267 700C266.056 700.955 265.112 701.911 264.168 702.867C258.621 708.475 253.029 713.907 247 719C246.059 719.83 245.118 720.66 244.148 721.516C229.189 734.623 211.795 746.245 193 753C198.61 754.32 204.22 755.64 210 757C210 757.33 210 757.66 210 758C203.368 758.316 198.098 757.704 192 755C190.646 754.464 190.646 754.464 189.266 753.918C187 752 187 752 186.406 748.289C186.407 746.734 186.44 745.179 186.5 743.625C186.518 742.786 186.537 741.948 186.556 741.084C187.34 717.742 193.176 696.116 202.345 674.761C203.116 673.001 203.116 673.001 203 671C200.794 669.412 198.488 668.042 196.164 666.633C193.826 664.869 192.963 663.74 192 661C192 653.388 195.417 647.574 199 641C199.99 641 200.98 641 202 641C202.206 640.34 202.412 639.68 202.625 639C205.518 632.687 210.082 627.823 215 623C215.883 622.117 216.766 621.234 217.676 620.324C220.117 617.883 222.559 615.441 225 613C224.01 612.67 223.02 612.34 222 612C229.298 603.554 229.298 603.554 233 600C231.886 599.402 230.773 598.804 229.625 598.188C226.712 596.623 225.934 595.901 224 593C223.542 588.955 223.67 586.634 225.562 583C231.753 575.381 238.813 569.018 247.375 564.188C247.965 563.852 248.555 563.517 249.163 563.171C252.535 561.28 255.947 559.518 259.434 557.848C260.163 557.496 260.893 557.145 261.645 556.782C263.068 556.105 264.497 555.44 265.933 554.79C269.729 553.096 269.729 553.096 271.949 549.766C271.974 548.892 271.974 548.892 272 548C273.918 548.34 273.918 548.34 275.875 548.688C281.392 549.337 285.86 547.899 291 546C290.711 545.359 290.423 544.719 290.125 544.059C285.953 534.339 285.953 534.339 287 529C291.358 524.33 295.717 522.283 302.181 521.725C305.913 521.697 309.643 521.672 313.375 521.688C314.05 521.689 314.724 521.69 315.419 521.692C325.619 521.733 335.095 522.389 345 525C346.825 525.418 346.825 525.418 348.688 525.844C358.567 528.231 367.703 531.949 377 536C373.332 522.269 368.417 509.133 363 496C362.401 494.219 362.401 494.219 361.791 492.402C359.632 488.3 357.386 487.102 353.262 485.457C352.258 485.021 352.258 485.021 351.235 484.577C349.803 483.957 348.366 483.347 346.926 482.747C343.145 481.169 339.398 479.511 335.648 477.859C334.902 477.533 334.156 477.206 333.388 476.87C324.363 472.891 315.778 468.169 307.225 463.271C305.185 462.106 303.136 460.964 301.078 459.832C294.862 456.39 288.823 452.697 282.875 448.812C282.247 448.408 281.618 448.004 280.971 447.587C276.782 444.798 272.736 441.957 271.469 436.867C271.519 433.681 271.609 431.516 273.562 428.938C277.138 427.562 279.273 428.108 283 429C285.885 430.687 288.444 432.743 291.062 434.812C307.927 447.505 332.983 463.65 354 468C352.282 462.916 350.558 457.834 348.83 452.753C348.246 451.034 347.663 449.314 347.082 447.593C343.665 437.482 340.117 427.458 336.136 417.552C334 412.2 334 412.2 334 410C333.131 409.724 332.262 409.448 331.366 409.164C310.033 401.789 278.288 386.995 266 367C265.5 363.5 265.5 363.5 266 360C268.062 357.5 268.062 357.5 271 356C276.894 356.179 279.416 357.733 283.5 361.875C295.553 373.545 309.004 381.598 324 389C320.713 373.376 315.412 359.25 309.19 344.588C306.394 337.981 303.665 331.349 301 324.688C300.602 323.715 300.204 322.742 299.794 321.74C296.264 312.836 296.264 312.836 297 308C299.507 304.535 300.711 303.053 305.062 302.875ZM276 592C275.497 596.94 275.497 596.94 277.625 601.242C280.793 603.587 282.446 603.271 286.312 602.812C287.946 602.637 287.946 602.637 289.613 602.457C291.829 602.158 294.041 601.834 296.249 601.482C302.107 600.729 307.962 600.814 313.858 600.815C316.033 600.813 318.207 600.794 320.381 600.775C329.452 600.739 338.04 601.465 347 603C355.437 604.378 360.448 600.822 367.254 596.164C368.16 595.45 369.066 594.736 370 594C370 593.34 370 592.68 370 592C367.857 591.386 365.71 590.784 363.562 590.188C362.368 589.851 361.173 589.515 359.941 589.168C346.367 585.819 333.454 584.535 319.487 584.664C316.739 584.688 313.991 584.684 311.242 584.678C292.23 583.931 292.23 583.931 276 592ZM242.062 656.938C240.799 658.984 240.799 658.984 241.062 661.5C242.229 664.612 243.272 666.083 246 668C251.208 667.534 256.151 665.848 261.125 664.312C266.533 662.645 271.934 660.998 277.406 659.551C289.757 656.222 297.965 652.348 306 642C286.476 641.028 256.846 642.154 242.062 656.938Z" fill="#76A162"/>
<path d="M568.002 406C572.033 407.612 574.761 410.462 577.752 413.5C578.259 413.999 578.765 414.498 579.287 415.012C583.002 418.747 583.002 418.747 583.002 421C583.662 421 584.322 421 585.002 421C586.236 422.258 586.236 422.258 587.752 424.125C591.825 428.933 596.263 433.32 600.763 437.723C603.761 440.679 606.632 443.681 609.377 446.875C613.356 451.485 617.661 455.732 622.002 460C627.004 464.918 631.845 469.874 636.416 475.196C639.434 478.629 642.769 481.73 646.061 484.898C648.002 487 648.002 487 648.002 489C648.6 489.227 649.198 489.454 649.814 489.688C652.612 491.366 653.321 493.199 655.002 496C656.74 497.848 658.542 499.604 660.381 501.352C662.002 503 662.002 503 664.002 506C664.662 505.67 665.322 505.34 666.002 505C668.002 507 668.002 507 669.322 509.312C671.204 512.324 673.334 514.526 675.877 517C677.141 518.237 677.141 518.237 678.432 519.5C679.704 520.737 679.704 520.737 681.002 522C683.763 524.704 686.434 527.453 689.01 530.332C689.521 530.902 690.033 531.473 690.561 532.061C691.618 533.243 692.67 534.431 693.717 535.623C695.085 537.139 696.538 538.576 698.002 540C698.992 540 699.982 540 701.002 540C702.045 541.64 703.034 543.315 704.002 545C705.901 547.422 707.956 549.702 710.002 552C710.628 552.719 711.255 553.439 711.9 554.18C716.584 559.49 721.462 564.591 726.439 569.625C727.363 570.568 727.363 570.568 728.305 571.53C728.884 572.11 729.464 572.691 730.061 573.289C730.579 573.812 731.098 574.335 731.633 574.874C732.964 576.212 732.964 576.212 735.002 576C735.476 576.969 735.951 577.939 736.439 578.938C739.341 584.03 743.466 588.317 748.002 592C748.992 592 749.982 592 751.002 592C751.185 592.677 751.368 593.354 751.557 594.051C753.618 598.258 756.753 600.991 760.127 604.188C761.426 605.426 762.72 606.67 764.01 607.918C764.87 608.734 764.87 608.734 765.749 609.567C767.002 611 767.002 611 767.002 613C767.662 613 768.322 613 769.002 613C770.324 614.346 770.324 614.346 771.908 616.281C774.948 619.856 778.14 623.228 781.471 626.531C781.958 627.016 782.446 627.5 782.949 627.999C784.464 629.502 785.983 631.001 787.502 632.5C793.36 638.279 799.169 644.034 804.518 650.297C807.397 653.6 810.611 656.571 813.768 659.605C816.959 663.025 818.985 666.81 821.002 671C791.503 704.874 748.774 725.456 704.002 729C650.861 731.72 604.298 713.149 565.002 678C529.687 645.127 507.709 597.305 505.893 549.098C504.636 500.282 520.218 454.578 553.514 418.552C557.957 413.874 562.796 409.812 568.002 406ZM556.158 455.742C555.258 457.11 554.373 458.488 553.502 459.875C553.032 460.614 552.562 461.353 552.078 462.114C541.871 478.576 531.464 501.375 535.432 521.141C536.826 525.099 539.181 527.773 542.692 529.925C552.728 534.594 566.553 533.721 577.502 534.438C581.242 534.689 584.981 534.946 588.721 535.203C589.662 535.268 590.604 535.332 591.573 535.398C597.836 535.833 604.091 536.324 610.346 536.859C611.578 536.964 611.578 536.964 612.835 537.071C615.967 537.338 619.099 537.606 622.229 537.889C630.441 538.634 638.629 539.153 646.877 539.27C648.029 539.3 648.029 539.3 649.204 539.331C653.398 539.385 653.398 539.385 657.01 537.483C657.337 536.994 657.665 536.504 658.002 536C656.493 530.789 653.171 527.617 649.502 523.812C648.874 523.15 648.246 522.488 647.599 521.806C643.201 517.188 638.705 512.678 634.17 508.195C630.95 504.934 627.976 501.484 625.002 498C623.571 496.328 622.133 494.661 620.689 493C620.033 492.237 619.377 491.474 618.701 490.688C617.165 488.765 617.165 488.765 615.002 489C614.734 488.405 614.466 487.811 614.19 487.198C612.992 484.982 611.799 483.579 609.998 481.836C609.422 481.271 608.847 480.707 608.254 480.125C607.356 479.259 607.356 479.259 606.439 478.375C605.248 477.218 604.06 476.06 602.873 474.898C602.346 474.39 601.82 473.881 601.277 473.357C600.002 472 600.002 472 599.002 470C598.342 470 597.682 470 597.002 470C596.76 469.433 596.519 468.866 596.269 468.282C594.752 465.55 592.936 463.692 590.721 461.488C589.879 460.648 589.037 459.809 588.17 458.943C587.289 458.075 586.409 457.207 585.502 456.312C584.621 455.433 583.741 454.553 582.834 453.646C577.489 447.884 577.489 447.884 570.314 445.562C563.772 445.662 559.749 450.708 556.158 455.742ZM538.127 559.375C534.47 564.278 535.225 570.232 536.002 576C539.783 599.255 550.208 626.84 569.158 642C573.369 644.284 577.536 643.693 582.002 642.438C587.503 640.13 591.281 636.016 595.314 631.73C597.323 629.69 599.297 627.865 601.469 626.02C606.955 621.242 612.07 616.096 617.213 610.957C618.273 609.9 619.333 608.844 620.393 607.787C622.598 605.588 624.801 603.386 627.003 601.184C629.823 598.364 632.649 595.552 635.477 592.741C637.661 590.568 639.841 588.391 642.019 586.212C643.06 585.172 644.102 584.134 645.146 583.098C646.6 581.653 648.049 580.202 649.496 578.749C650.32 577.927 651.144 577.104 651.993 576.256C653.825 574.199 654.878 572.483 656.002 570C656.559 569.381 657.116 568.762 657.689 568.125C659.328 565.951 659.328 565.951 658.689 562.75C658.463 561.842 658.236 560.935 658.002 560C652.193 557.529 646.5 557.591 640.291 557.438C639.142 557.401 637.993 557.365 636.81 557.328C634.354 557.251 631.897 557.178 629.441 557.108C623.066 556.927 616.692 556.718 610.318 556.508C609.068 556.467 607.819 556.426 606.531 556.384C596.861 556.056 587.216 555.544 577.564 554.875C565.73 554.068 565.73 554.068 553.877 553.688C552.657 553.671 551.438 553.654 550.182 553.637C545.202 554.206 541.943 556.223 538.127 559.375ZM668.205 585.245C667.37 586.081 667.37 586.081 666.518 586.935C664.679 588.782 662.858 590.647 661.037 592.512C659.759 593.801 658.481 595.09 657.201 596.377C653.83 599.772 650.474 603.182 647.122 606.595C642.407 611.391 637.672 616.167 632.939 620.945C630.42 623.488 627.906 626.037 625.396 628.59C624.24 629.763 623.084 630.936 621.928 632.108C621.159 632.895 621.159 632.895 620.374 633.697C617.079 637.031 613.626 640.028 610.002 643C607.521 645.547 605.276 648.268 603.002 651C602.415 651.641 601.829 652.281 601.225 652.941C597.4 657.396 596.131 660.775 596.564 666.684C597.621 672.277 600.883 675.102 605.252 678.375C612.129 682.96 619.532 686.502 627.002 690C627.978 690.464 628.954 690.928 629.959 691.406C636.359 694.263 642.98 696.323 649.689 698.312C650.569 698.579 651.448 698.846 652.354 699.122C658.755 700.95 665.394 702.476 671.752 699.875C676.256 696.121 679.198 692.858 680.002 687C680.114 684.82 680.178 682.637 680.207 680.454C680.227 679.143 680.247 677.832 680.268 676.481C680.285 675.046 680.302 673.611 680.318 672.176C680.339 670.673 680.36 669.169 680.381 667.666C680.425 664.496 680.466 661.326 680.505 658.156C680.553 654.204 680.607 650.253 680.663 646.302C680.794 636.994 680.897 627.686 680.98 618.377C681.002 615.944 681.027 613.51 681.052 611.076C681.092 607.074 681.121 603.071 681.141 599.069C681.15 597.561 681.162 596.053 681.178 594.546C681.199 592.471 681.207 590.396 681.213 588.321C681.224 586.556 681.224 586.556 681.236 584.756C681.288 581.856 681.288 581.856 679.002 580C673.885 578.976 671.519 581.806 668.205 585.245ZM700.002 582C699.803 585.03 699.729 587.969 699.743 591.001C699.74 591.935 699.736 592.868 699.733 593.83C699.724 596.934 699.73 600.037 699.736 603.141C699.735 605.301 699.733 607.462 699.73 609.623C699.728 614.166 699.732 618.709 699.741 623.252C699.752 629.042 699.746 634.831 699.734 640.621C699.727 645.093 699.729 649.564 699.734 654.036C699.736 656.168 699.734 658.3 699.729 660.432C698.532 679.995 698.532 679.995 704.377 697.75C710.27 702.801 716.181 702.814 723.674 702.281C743.243 699.917 767.997 689.837 781.877 675.375C784.436 671.311 784.976 669.707 784.002 665C780.92 658.722 776.211 653.987 771.225 649.184C769.201 647.196 767.342 645.156 765.502 643C762.955 640.029 760.288 637.249 757.502 634.5C754.757 631.792 752.129 629.058 749.627 626.125C746.74 622.754 743.659 619.615 740.502 616.5C737.428 613.467 734.422 610.421 731.627 607.125C727.92 602.774 723.846 598.815 719.782 594.802C716.126 591.175 712.653 587.461 709.369 583.488C707.876 581.744 707.876 581.744 705.002 580C701.884 579.646 701.884 579.646 700.002 582Z" fill="#F6ECB3"/>
<path d="M443 582C443.282 582.577 443.565 583.155 443.855 583.75C446.83 589.597 449.692 594.019 455 598C457.329 604.988 459.317 612.049 461.125 619.188C461.296 619.852 461.466 620.517 461.642 621.202C468.875 650.168 461.836 683.348 446.797 708.836C436.081 726.257 436.081 726.257 429 729C424.067 728.922 421.991 728.797 418.125 725.688C416.377 723.477 415.057 721.595 414 719C413.34 719 412.68 719 412 719C411.724 719.592 411.448 720.184 411.164 720.795C403.886 734.588 388.668 746.736 376.18 755.441C373.932 756.958 373.932 756.958 372 759C370.678 759.375 369.342 759.702 368 760C366.811 760.425 366.811 760.425 365.598 760.859C358.806 763.245 358.806 763.245 355.125 762.125C353.182 760.182 352.252 758.76 351 756.375C349.379 752.82 349.379 752.82 346.375 752.062C341.562 751.936 338.84 753.728 334.75 756.125C318.741 765.298 299.909 774.23 281 772C277.945 770.336 276.55 768.101 275 765C274.774 763.296 274.591 761.587 274.438 759.875C274.312 758.51 274.312 758.51 274.184 757.117C274.123 756.419 274.062 755.72 274 755C273.053 755.29 273.053 755.29 272.086 755.586C259.372 759.287 247.008 760.317 233.857 760.206C231.606 760.187 229.356 760.185 227.105 760.186C208.685 760.124 208.685 760.124 204 757C201.152 756.165 198.284 755.478 195.398 754.781C194.607 754.523 193.815 754.266 193 754C192.67 753.34 192.34 752.68 192 752C193.129 751.615 193.129 751.615 194.281 751.223C218.408 742.526 237.883 726.502 256.438 709.25C257.1 708.636 257.762 708.022 258.445 707.39C262.115 703.938 265.47 700.369 268.702 696.505C270.231 694.732 271.876 693.232 273.688 691.75C277.083 688.871 280.2 685.809 283.312 682.625C288.551 677.309 294.147 672.622 300 668C301.25 666.996 302.498 665.991 303.746 664.984C322.344 650 322.344 650 325 650C326.224 666.423 321.322 681.648 315.236 696.733C313.562 700.968 312.472 704.359 313 709C314.437 711.52 314.437 711.52 317 713C320.5 713.667 320.5 713.667 324 713C327.384 710.273 328.606 708.04 329.562 703.844C329.8 702.83 330.038 701.817 330.282 700.773C330.638 699.153 330.638 699.153 331 697.5C331.254 696.39 331.508 695.281 331.77 694.137C334.037 684.134 336.18 674.095 338 664C338.206 662.882 338.412 661.765 338.625 660.613C338.938 657.596 338.96 654.938 338.824 651.926C338.282 636.364 338.282 636.364 342.547 631.352C345.396 628.676 348.555 626.515 351.842 624.413C354.148 622.903 356.323 621.279 358.512 619.605C366.673 613.43 374.726 608.399 384 604C384.419 625.32 383.258 645.237 378.574 666.102C377.258 672.712 377.258 672.712 379.125 679C381.91 680.485 383.893 680.381 387 680C389.554 678.508 390.777 677.509 391.972 674.78C393.801 667.361 395.127 659.95 396.125 652.375C396.297 651.074 396.469 649.774 396.646 648.433C398.874 630.389 398.843 612.157 399 594C401.539 592.702 404.081 591.41 406.625 590.121C407.338 589.756 408.051 589.39 408.785 589.014C419.874 583.416 430.784 582.45 443 582Z" fill="#96BA80"/>
<path d="M553.998 390C557.977 391.086 559.507 393.926 561.693 397.192C563.116 399.272 563.116 399.272 565.81 401.75C567.998 404 567.998 404 567.998 407C566.014 408.805 566.014 408.805 563.248 410.875C531.877 435.859 512.664 477.645 507.998 517.001C504.186 552.29 509.53 586.618 523.998 619.001C524.31 619.702 524.621 620.404 524.942 621.127C544.68 664.79 583.007 699.271 627.214 716.972C640.255 721.791 654.132 725.646 667.998 727C669.282 727.163 669.282 727.163 670.592 727.329C716.196 732.308 763.003 719.431 799.123 691.063C806.669 684.876 813.851 678.603 819.998 671C819.709 670.423 819.42 669.845 819.123 669.25C818.081 667.167 817.04 665.084 815.998 663C821.62 667.666 827.158 672.513 831.998 678C831.998 678.66 831.998 679.32 831.998 680C832.658 680 833.318 680 833.998 680C836.051 684.106 836.46 686.614 834.998 691C823.454 707.906 803.408 720.009 785.998 730C785.364 730.377 784.729 730.754 784.076 731.142C779.219 734 779.219 734 776.998 734C776.668 734.66 776.338 735.32 775.998 736C774.018 736.725 772.012 737.378 769.998 738C768.555 738.464 767.118 738.943 765.685 739.438C765.009 739.664 764.332 739.889 763.635 740.122C761.632 740.956 761.632 740.956 760.998 744C760.02 743.952 759.041 743.903 758.033 743.852C753.567 743.854 749.665 745.037 745.435 746.375C744.706 746.597 743.977 746.819 743.226 747.047C739.129 748.301 735.058 749.628 730.998 751C730.998 751.33 730.998 751.66 730.998 752C730.172 751.966 730.172 751.966 729.33 751.93C722.73 751.787 716.302 752.319 709.748 753C672.612 756.727 633.234 750.429 599.998 733C598.82 732.409 597.642 731.817 596.428 731.208C586.17 725.978 576.162 720.001 567.205 712.735C565.16 710.874 565.16 710.874 562.81 710.5C562.212 710.335 561.614 710.17 560.998 710C560.703 709.396 560.408 708.791 560.103 708.168C558.861 705.732 557.594 704.553 555.498 702.813C554.432 701.908 554.432 701.908 553.346 700.985C552.571 700.33 551.796 699.675 550.998 699C543.551 692.541 536.865 685.934 530.998 678C530.008 678.33 529.018 678.66 527.998 679C527.977 678.196 527.957 677.392 527.935 676.563C526.601 671.491 523.727 667.667 519.998 664C517.875 663.195 517.875 663.195 515.998 663C516.328 662.01 516.658 661.02 516.998 660C516.668 659.34 516.338 658.68 515.998 658C515.008 658 514.018 658 512.998 658C512.998 657.01 512.998 656.02 512.998 655C512.136 652.915 512.136 652.915 510.998 650.813C510.627 650.098 510.255 649.382 509.873 648.645C509.584 648.102 509.295 647.56 508.998 647C508.008 647.33 507.018 647.66 505.998 648C505.401 645.238 504.998 642.84 504.998 640.001C504.026 637.775 503.01 635.613 501.935 633.438C497.78 624.819 494.37 615.949 490.998 607.001C490.338 607.001 489.678 607.001 488.998 607.001C487.998 600.001 487.998 600.001 487.56 596.626C486.899 592.366 485.978 588.196 484.998 584.001C484.338 584.001 483.678 584.001 482.998 584.001C480.712 575.572 480.712 575.572 480.998 571.001C481.328 571.001 481.658 571.001 481.998 571.001C482.328 569.351 482.658 567.701 482.998 566.001C482.008 566.331 481.018 566.661 479.998 567.001C480.163 566.506 480.328 566.011 480.498 565.501C481.344 561.271 481.432 556.952 480.496 552.742C479.958 549.781 479.885 547.052 479.9 544.043C479.903 542.932 479.907 541.82 479.91 540.674C479.918 539.524 479.927 538.373 479.935 537.188C479.94 536.018 479.944 534.848 479.949 533.643C479.961 530.762 479.977 527.881 479.998 525.001C480.658 525.001 481.318 525.001 481.998 525.001C481.963 523.498 481.963 523.498 481.928 521.965C481.909 520.623 481.891 519.28 481.873 517.938C481.85 516.627 481.827 515.316 481.803 513.965C482.001 509.946 482.792 506.826 483.998 503.001C484.758 499.991 485.441 496.966 486.123 493.938C486.305 493.161 486.486 492.385 486.674 491.584C487.638 487.304 488.21 483.42 487.998 479.001C488.988 478.506 488.988 478.506 489.998 478.001C490.832 476.262 490.832 476.262 491.521 474.118C491.814 473.291 492.106 472.465 492.408 471.614C492.726 470.71 493.045 469.807 493.373 468.876C499.641 451.81 507.977 435.5 518.998 421C518.503 420.01 518.503 420.01 517.998 419C518.782 418.939 519.565 418.877 520.373 418.813C521.239 418.545 522.105 418.277 522.998 418C524.245 415.591 524.245 415.591 524.998 413C525.658 412.34 526.318 411.68 526.998 411C527.266 410.382 527.534 409.763 527.81 409.125C529.376 406.323 531.485 405.011 533.998 403C535.141 401.704 536.265 400.39 537.373 399.063C541.947 393.755 546.427 388.823 553.998 390Z" fill="#D8D977"/>
<path d="M728 424C749.756 423.408 766.706 423.706 785.25 436.188C794.465 445.612 798.019 456.319 800 469C799.34 469 798.68 469 798 469C798.103 470.031 798.206 471.063 798.312 472.125C798.215 485.901 789.579 497.22 780.562 506.813C777.086 510.151 773.16 512.785 769.137 515.422C766.762 516.989 766.762 516.989 765 520C764.01 520 763.02 520 762 520C759.346 520.911 756.739 521.863 754.125 522.875C753.417 523.145 752.71 523.414 751.98 523.692C747.769 525.298 747.769 525.298 743.63 527.082C740.609 528.137 738.237 528.228 735.043 528.196C733.931 528.189 732.819 528.183 731.674 528.176C729.948 528.151 729.948 528.151 728.188 528.125C727.018 528.116 725.848 528.107 724.643 528.098C721.762 528.074 718.881 528.042 716 528C716 527.34 716 526.68 716 526C714.848 525.913 713.695 525.825 712.508 525.735C707.779 525.139 704.064 523.445 699.875 521.25C699.198 520.915 698.521 520.58 697.824 520.235C687.405 514.914 680.709 507.127 677 496C674.968 495.031 674.968 495.031 673 495C673.144 494.216 673.289 493.433 673.438 492.625C673.87 489.839 674.126 487.189 674.32 484.387C674.856 478.938 676.433 474.255 678.438 469.188C678.75 468.369 679.063 467.549 679.385 466.705C680.885 462.789 682.43 458.89 684 455C684.66 455 685.32 455 686 455C686.227 453.907 686.454 452.814 686.688 451.688C688.246 447.31 689.101 447.171 693 445C694.781 443.617 696.551 442.22 698.312 440.813C707.36 433.949 717.58 429.395 728 425C728 424.67 728 424.34 728 424Z" fill="#8BAF7E"/>
<path d="M664.117 309.477C666.807 311.071 666.807 311.071 669.258 311.461C671 312 671 312 672.012 313.829C672.338 314.545 672.664 315.262 673 316C674.229 317.292 675.504 318.54 676.812 319.75C680.651 323.47 683.42 327.337 686 332C686.99 331.505 686.99 331.505 688 331C688.083 331.784 688.165 332.568 688.25 333.375C689.245 338.186 691.104 342.485 693 347C693.339 347.849 693.678 348.697 694.027 349.571C694.866 351.665 695.732 353.742 696.625 355.813C697.079 356.865 697.532 357.917 698 359C696.515 359.495 696.515 359.495 695 360C695.034 360.99 695.067 361.98 695.102 363C695.092 369.433 693.288 375.605 691.606 381.77C691.214 383.215 690.837 384.664 690.479 386.118C688.904 392.326 687.038 397.923 681.512 401.641C668.077 409.335 653.384 410.482 638.5 406.75C630.117 404.243 622.038 401.59 615.594 395.493C610.862 390.921 610.862 390.921 605 389C604.905 388.447 604.809 387.894 604.711 387.325C603.816 384.399 602.378 382.316 600.625 379.813C600.019 378.933 599.413 378.052 598.789 377.145C597.104 374.743 597.104 374.743 594 374C593.875 373.005 593.75 372.01 593.621 370.985C593.05 366.999 592.109 363.135 591.062 359.25C590.893 358.592 590.723 357.933 590.549 357.254C589.695 354.053 588.857 351.787 587 349C587.495 348.505 587.495 348.505 588 348C588.294 346.042 588.584 344.083 588.849 342.121C590.58 329.69 594.319 318.57 604 310C622.563 296.258 644.996 298.557 664.117 309.477Z" fill="#94B77D"/>
<path d="M794.574 295.562C797.081 296.089 797.081 296.089 800 296C800.495 297.485 800.495 297.485 801 299C802.861 300.359 802.861 300.359 805.125 301.625C813.862 307.278 818.398 315.044 821 325C823.54 336.953 820.715 349.528 814.242 359.785C803.554 375.021 788.64 386.712 770.102 390.609C755.17 392.49 741.433 390.954 729 382C726.618 380.051 724.317 378.027 722 376C721.34 376 720.68 376 720 376C719.876 375.195 719.752 374.391 719.625 373.562C719.419 372.717 719.213 371.871 719 371C718.34 370.67 717.68 370.34 717 370C716.67 369.01 716.34 368.02 716 367C715.01 366.34 714.02 365.68 713 365C714.98 364.505 714.98 364.505 717 364C716.969 363.357 716.937 362.713 716.905 362.051C716.306 347.871 717.034 336.89 723 324C723.684 321.732 723.684 321.732 724 320C724.66 320 725.32 320 726 320C727.005 318.895 727.954 317.738 728.875 316.562C745.5 297.155 770.115 290.796 794.574 295.562Z" fill="#8AAE7D"/>
<path d="M581.486 555.147C591.09 555.79 600.694 556.193 610.315 556.508C612.198 556.57 612.198 556.57 614.119 556.633C620.472 556.84 626.826 557.034 633.18 557.214C635.55 557.288 637.919 557.363 640.288 557.437C641.926 557.478 641.926 557.478 643.598 557.519C648.751 557.689 653.18 557.95 657.999 560C658.936 562.5 658.936 562.5 658.999 566C657.849 567.711 657.849 567.711 656.17 569.542C655.526 570.246 654.882 570.949 654.219 571.673C649.979 576.116 645.663 580.479 641.315 584.816C640.29 585.842 639.266 586.867 638.241 587.893C636.106 590.03 633.968 592.165 631.829 594.299C629.109 597.015 626.392 599.734 623.677 602.455C621.566 604.57 619.452 606.683 617.338 608.795C616.336 609.796 615.335 610.797 614.335 611.8C609.258 616.886 604.161 621.877 598.684 626.531C595.365 629.423 592.357 632.637 589.313 635.812C585.311 639.904 581.615 643.386 575.686 643.625C570.861 643.417 568.392 641.635 565.026 638.289C548.09 619.166 534.59 591.812 535.479 565.719C536.315 561.346 538.387 558.546 541.999 556C552.769 550.522 569.87 554.341 581.486 555.147Z" fill="#D8DB7A"/>
<path d="M571.849 445.524C576.288 446.508 578.907 449.847 581.997 453C583.276 454.247 584.556 455.492 585.837 456.735C587.225 458.093 588.612 459.452 589.997 460.813C591.023 461.818 591.023 461.818 592.07 462.844C593.024 463.797 593.024 463.797 593.997 464.77C594.575 465.343 595.152 465.916 595.747 466.507C596.997 468 596.997 468 596.997 470C597.657 470 598.317 470 598.997 470C600.408 471.434 600.408 471.434 602.06 473.438C605.568 477.59 609.352 481.358 613.275 485.117C614.997 487 614.997 487 614.997 489C616.482 489.495 616.482 489.495 617.997 490C619.547 491.553 619.547 491.553 621.197 493.539C624.938 497.948 628.841 502.171 632.81 506.375C633.509 507.118 634.208 507.861 634.929 508.627C638.738 512.66 642.595 516.621 646.56 520.5C650.814 524.69 654.481 529.18 657.997 534C656.122 537.875 656.122 537.875 654.997 539C652.32 539.112 649.676 539.156 646.997 539.145C646.186 539.142 645.374 539.14 644.538 539.138C636.315 539.067 628.182 538.43 619.997 537.688C616.779 537.407 613.56 537.133 610.341 536.86C609.512 536.788 608.682 536.717 607.827 536.644C601.461 536.106 595.091 535.64 588.716 535.203C587.309 535.106 587.309 535.106 585.873 535.008C582.188 534.755 578.502 534.503 574.815 534.262C543.494 532.211 543.494 532.211 536.997 525C531.98 516.22 535.151 503.8 537.615 494.563C541.612 480.788 553.912 444.811 571.849 445.524Z" fill="#D8DB7A"/>
<path d="M704.003 195C704.498 195.99 704.498 195.99 705.003 197C705.972 196.938 706.942 196.876 707.94 196.812C717.317 196.869 727.229 201.937 734.233 207.898C744.544 218.628 749.4 232.154 749.374 246.791C749.068 257.752 745.185 267.048 739.003 276C738.489 276.752 737.974 277.503 737.444 278.277C736.969 278.846 736.493 279.414 736.003 280C735.343 280 734.683 280 734.003 280C733.508 281.485 733.508 281.485 733.003 283C730.869 284.356 728.806 285.54 726.565 286.688C725.967 287.008 725.368 287.328 724.751 287.658C720.292 290 720.292 290 718.003 290C717.735 289.051 717.467 288.103 717.19 287.125C716.253 283.747 716.253 283.747 713.003 282C709.119 281.669 706.212 281.676 703.003 284C701.962 285.641 700.958 287.307 700.003 289C699.013 289.495 699.013 289.495 698.003 290C690.019 287.102 682.794 281.941 676.933 275.848C675.045 273.776 675.045 273.776 672.003 273C664.244 263.131 660.628 250.432 661.003 238C662.672 225.21 667.038 213.791 677.069 205.238C685.347 199.359 693.856 196.335 704.003 197C704.003 196.34 704.003 195.68 704.003 195Z" fill="#8BAE7D"/>
<path d="M676.699 579.584C678.998 580 678.998 580 680.998 582C681.231 584.758 681.231 584.758 681.207 588.326C681.205 588.976 681.203 589.626 681.201 590.296C681.193 592.465 681.17 594.633 681.146 596.801C681.137 598.333 681.129 599.865 681.121 601.397C681.097 605.45 681.061 609.502 681.021 613.555C680.991 616.713 680.969 619.871 680.946 623.029C680.883 631.525 680.79 640.02 680.681 648.515C680.64 651.679 680.606 654.842 680.576 658.006C680.539 661.922 680.493 665.839 680.44 669.755C680.422 671.22 680.406 672.685 680.395 674.151C680.378 676.176 680.348 678.202 680.317 680.228C680.304 681.371 680.29 682.514 680.277 683.692C679.839 688.895 679.01 693.737 675.061 697.375C674.557 697.857 674.053 698.34 673.533 698.836C669.566 701.845 664.715 701.36 659.998 701C656.594 700.364 653.312 699.437 649.998 698.438C649.085 698.168 648.171 697.897 647.23 697.619C606.388 685.206 606.388 685.206 597.865 671.129C596.231 667.118 596.296 663.236 596.998 659C598.495 655.861 600.647 653.541 602.998 651C603.845 650.037 604.692 649.075 605.564 648.082C609.343 643.835 613.086 639.732 617.435 636.065C622.661 631.517 627.475 626.573 632.321 621.63C634.595 619.313 636.879 617.006 639.163 614.699C643.398 610.418 647.629 606.133 651.844 601.833C654.792 598.825 657.753 595.829 660.722 592.841C661.847 591.704 662.968 590.563 664.084 589.417C665.639 587.82 667.209 586.24 668.784 584.663C669.672 583.76 670.561 582.857 671.476 581.927C673.998 580 673.998 580 676.699 579.584Z" fill="#D7DA79"/>
<path d="M704.186 579.938C709.761 582.044 713.324 587.196 717.123 591.625C720.403 595.439 723.923 598.966 727.498 602.5C731.574 606.53 735.484 610.602 739.193 614.977C741.975 618.096 744.973 620.996 747.947 623.93C751.219 627.174 754.268 630.536 757.256 634.039C759.252 636.286 761.358 638.389 763.498 640.5C766.925 643.886 770.166 647.361 773.299 651.02C774.488 652.406 775.696 653.777 776.916 655.137C777.541 655.834 778.166 656.531 778.811 657.25C779.374 657.874 779.937 658.498 780.518 659.141C782.888 662.118 783.91 664.492 784.561 668.25C783.665 674.222 779.645 678.038 774.867 681.58C772.594 683.012 770.292 684.336 767.936 685.625C767.098 686.094 766.26 686.562 765.397 687.045C749.608 695.745 729.553 705.249 710.998 702C707.09 699.843 704.37 697.771 701.998 694C698.806 682.251 699.706 669.322 699.732 657.266C699.731 655.093 699.729 652.921 699.727 650.748C699.724 646.227 699.728 641.705 699.737 637.184C699.749 631.38 699.742 625.576 699.73 619.772C699.723 615.301 699.725 610.83 699.73 606.358C699.732 604.217 699.73 602.075 699.726 599.933C699.72 596.955 699.728 593.978 699.739 591.001C699.733 589.67 699.733 589.67 699.727 588.313C699.785 580.063 699.785 580.063 704.186 579.938Z" fill="#D8DB7A"/>
<path d="M673.998 273C674.906 273.825 675.813 274.65 676.748 275.5C683.399 281.19 690.529 286.534 698.998 289C699.576 288.051 700.153 287.103 700.748 286.125C703.75 281.955 703.75 281.955 706.998 281C710.822 280.512 712.522 280.72 715.873 282.688C717.998 285 717.998 285 718.131 287.645C718.087 288.422 718.043 289.199 717.998 290C718.613 289.627 719.228 289.255 719.861 288.871C720.67 288.398 721.478 287.925 722.311 287.438C723.111 286.962 723.912 286.486 724.736 285.996C726.998 285 726.998 285 729.998 286C727.728 288.27 725.987 288.888 722.998 290C722.07 290.371 721.142 290.743 720.186 291.125C719.464 291.414 718.742 291.702 717.998 292C718.493 292.99 718.493 292.99 718.998 294C719.155 296.624 719.256 299.225 719.314 301.852C719.335 302.626 719.356 303.4 719.377 304.197C719.443 306.673 719.502 309.149 719.561 311.625C719.604 313.302 719.647 314.979 719.691 316.656C719.799 320.771 719.9 324.885 719.998 329C720.658 328.67 721.318 328.34 721.998 328C720.665 332 719.331 336 717.998 340C717.849 341.845 717.75 343.694 717.682 345.543C717.64 346.616 717.598 347.689 717.555 348.795C717.515 349.914 717.476 351.034 717.436 352.188C717.371 353.884 717.371 353.884 717.305 355.615C717.199 358.41 717.096 361.205 716.998 364C715.513 364.495 715.513 364.495 713.998 365C713.067 366.958 713.067 366.958 712.494 369.383C712.245 370.293 711.996 371.204 711.74 372.142C711.495 373.085 711.25 374.028 710.998 375C710.531 376.727 710.064 378.453 709.596 380.18C709.351 381.091 709.106 382.003 708.854 382.942C705.557 395.125 701.754 407.098 697.748 419.062C697.486 419.846 697.224 420.629 696.954 421.437C696.195 423.7 695.434 425.961 694.67 428.223C694.445 428.89 694.22 429.556 693.989 430.243C692.84 433.623 691.628 436.961 690.331 440.287C688.819 443.842 688.818 443.842 688.998 447.188C688.998 450.64 688.074 452.285 685.998 455C685.338 455 684.678 455 683.998 455C683.901 455.641 683.805 456.281 683.705 456.941C682.745 461.095 681.207 464.961 679.686 468.938C677.091 475.82 674.898 482.654 672.975 489.754C671.394 495.007 669.234 499.997 666.998 505C666.338 505 665.678 505 664.998 505C664.503 505.99 664.503 505.99 663.998 507C662.824 505.718 662.824 505.718 661.627 504.41C660.605 503.294 659.583 502.178 658.561 501.062C658.044 500.499 657.528 499.935 656.996 499.354C654.536 496.64 654.536 496.64 651.998 494C651.722 489.745 652.244 486.646 653.834 482.711C654.234 481.7 654.635 480.689 655.047 479.647C655.485 478.567 655.922 477.487 656.373 476.375C657.287 474.06 658.199 471.743 659.107 469.426C659.581 468.219 660.055 467.012 660.543 465.768C663.015 459.407 665.321 452.986 667.623 446.562C668.06 445.354 668.498 444.146 668.949 442.902C669.349 441.781 669.75 440.659 670.162 439.504C670.517 438.512 670.873 437.52 671.239 436.498C672.143 433.957 672.143 433.957 671.998 431C672.658 431 673.318 431 673.998 431C674.239 429.779 674.48 428.559 674.728 427.301C676.109 421.1 678.208 415.175 680.311 409.188C680.689 408.089 681.067 406.99 681.457 405.857C683.358 400.4 685.37 395.039 687.646 389.727C689.676 384.937 691.197 380.263 692.311 375.188C692.479 374.489 692.647 373.791 692.82 373.072C693.619 369.58 693.992 366.738 693.916 363.113C693.943 362.086 693.97 361.059 693.998 360C694.988 359.34 695.978 358.68 696.998 358C696.792 357.154 696.586 356.309 696.373 355.438C696.006 352.069 696.505 350.233 697.468 347.068C698.497 343.051 698.769 338.935 699.123 334.812C699.249 333.384 699.249 333.384 699.378 331.927C699.925 325.219 700.179 318.542 700.186 311.812C700.186 310.97 700.187 310.127 700.188 309.259C700.157 305.93 700.057 303.178 698.998 300C698.907 298.967 698.907 298.967 698.814 297.914C698.525 295.309 698.133 293.374 696.998 291C693.547 288.434 689.396 286 684.998 286C684.338 286 683.678 286 682.998 286C682.998 285.34 682.998 284.68 682.998 284C682.338 283.67 681.678 283.34 680.998 283C679.942 281.908 678.925 280.778 677.936 279.625C677.408 279.019 676.881 278.413 676.338 277.789C674.998 276 674.998 276 673.998 273Z" fill="#76A062"/>
<path d="M551 221C555.249 221.49 558.288 223.838 561 227C564.799 233.651 565.741 240.452 566 248C566.06 249.189 566.06 249.189 566.121 250.402C566.187 252.562 566.187 252.562 566 256C565.34 256.66 564.68 257.32 564 258C563.121 259.822 562.271 261.657 561.437 263.5C558.699 269.118 555.408 273.298 551.051 277.746C548.977 280.025 547.576 282.366 546 285C544.337 286.006 542.67 287.006 541 288C537.346 291.449 537.346 291.449 536 296C535.01 296.495 535.01 296.495 534 297C530.817 304.719 530.676 313.447 533.687 321.25C535.849 325.976 538.362 330.524 541 335C540.34 335.99 539.68 336.98 539 338C539.66 338.33 540.32 338.66 541 339C539.515 339.495 539.515 339.495 538 340C537.67 340.66 537.34 341.32 537 342C533.294 343.235 530.902 343.455 527 343C519.604 339.019 516.352 331.475 514.027 323.781C510.232 308.672 512.044 296.476 520 283C522.15 279.84 524.32 276.735 527 274C527.66 274 528.32 274 529 274C529 273.34 529 272.68 529 272C530.285 270.773 530.285 270.773 532.062 269.375C539.186 263.451 545.833 256.569 547 247C547.286 241.855 546.43 237.916 545 233C544.875 229.562 544.875 229.562 545 227C545.66 227 546.32 227 547 227C547.66 225.68 548.32 224.36 549 223C549.66 223 550.32 223 551 223C551 222.34 551 221.68 551 221Z" fill="#DFE3CA"/>
<path d="M505.999 189C512.259 195.09 512.962 203.465 513.249 211.812C513.117 220.582 510.128 227.399 505.402 234.676C503.911 236.996 503.911 236.996 502.941 239.73C501.999 242 501.999 242 499.999 243C499.009 242.505 499.009 242.505 497.999 242C497.999 242.66 497.999 243.32 497.999 244C497.339 244 496.679 244 495.999 244C495.999 244.66 495.999 245.32 495.999 246C494.46 247.48 494.46 247.48 492.374 249.187C484.941 255.568 479.966 261.235 478.718 271.258C478.398 278.909 480.849 285.178 484.687 291.687C486.749 295.286 487.98 297.783 486.999 302C484.199 305.326 482.435 305.937 478.124 306.562C473.534 306.336 470.169 304.261 466.999 301C466.669 300.01 466.339 299.02 465.999 298C465.355 296.478 464.709 294.958 464.062 293.437C459.232 281.337 459.046 270.627 462.245 258.078C462.984 255.064 463.527 252.066 463.999 249C464.659 249.33 465.319 249.66 465.999 250C466.779 248.878 466.779 248.878 467.574 247.734C468.271 246.749 468.968 245.764 469.687 244.75C470.714 243.288 470.714 243.288 471.761 241.797C473.958 239.051 476.265 237.179 478.999 235C479.329 234.01 479.659 233.02 479.999 232C481.154 231.313 481.154 231.313 482.331 230.613C487.658 227.392 490.88 221.433 493.437 215.875C494.553 210.168 494.155 205.409 492.874 199.812C492.23 196.792 491.974 195.134 492.562 192.062C496.407 186.545 500.027 186.394 505.999 189Z" fill="#E0E3CB"/>
<path d="M304.763 584.727C305.618 584.714 306.474 584.702 307.356 584.689C310.133 584.657 312.911 584.638 315.688 584.625C316.63 584.62 317.573 584.615 318.543 584.61C336.188 584.572 353.247 585.984 370.001 592C370.001 592.66 370.001 593.32 370.001 594C367.7 595.656 367.7 595.656 364.688 597.5C363.209 598.413 363.209 598.413 361.7 599.344C360.809 599.89 359.919 600.437 359.001 601C358.011 601.66 357.021 602.32 356.001 603C350.705 603.347 345.935 602.865 340.708 602C333.303 600.919 326.08 600.694 318.615 600.739C316.502 600.75 314.391 600.739 312.278 600.727C304.396 600.72 296.866 601.249 289.069 602.571C281.052 603.691 281.052 603.691 277.626 601.437C275.362 598.041 275.358 595.999 276.001 592C279.861 587.239 285.277 586.903 291.001 586C291.697 585.832 292.393 585.665 293.11 585.492C297.001 584.83 300.821 584.779 304.763 584.727Z" fill="#98BC82"/>
<path d="M306 642.001C299.538 650.274 293.074 655.285 282.875 657.938C281.12 658.425 279.366 658.915 277.613 659.407C276.703 659.66 275.792 659.912 274.854 660.173C271.871 661.038 268.928 661.989 265.98 662.969C264.499 663.461 264.499 663.461 262.987 663.962C261.071 664.601 259.158 665.249 257.248 665.905C256.373 666.193 255.499 666.481 254.598 666.778C253.829 667.038 253.061 667.299 252.27 667.567C249.546 668.087 247.655 667.749 245 667.001C242.79 665.422 242.079 664.184 241 661.688C241 658.401 242.015 656.788 244.246 654.411C250.988 648.99 260.833 647.47 269.066 645.471C270.912 645.022 272.753 644.553 274.594 644.083C285.107 641.649 295.261 641.706 306 642.001Z" fill="#98BD82"/>
<path d="M652 573C652.99 573.495 652.99 573.495 654 574C647.1 580.923 640.198 587.843 633.292 594.759C630.085 597.972 626.879 601.185 623.675 604.401C620.578 607.509 617.478 610.614 614.377 613.718C613.199 614.898 612.022 616.078 610.846 617.259C605.245 622.885 599.665 628.488 593.6 633.621C591.271 635.628 589.14 637.793 587 640C586.34 639.67 585.68 639.34 585 639C587.829 636.142 590.664 633.289 593.5 630.438C594.291 629.638 595.083 628.838 595.898 628.014C596.685 627.224 597.471 626.435 598.281 625.621C599.35 624.545 599.35 624.545 600.439 623.447C602.48 621.497 604.547 619.653 606.686 617.814C611.596 613.546 616.165 608.961 620.75 604.348C621.649 603.448 622.547 602.547 623.473 601.62C625.836 599.253 628.196 596.884 630.555 594.513C632.974 592.084 635.395 589.659 637.816 587.232C642.547 582.491 647.275 577.747 652 573Z" fill="#FCF2C2"/>
<path d="M225 329C224.67 341.54 224.34 354.08 224 367C222 366 222 366 221.384 364.211C220.995 361.968 220.871 359.897 220.868 357.621C220.865 356.37 220.865 356.37 220.861 355.093C220.866 354.217 220.871 353.34 220.875 352.438C220.879 351.543 220.882 350.649 220.886 349.727C221.047 329 221.047 329 225 329Z" fill="#9CBF83"/>
<path d="M225 611C225 614 225 614 223.172 616.086C222.373 616.841 221.573 617.597 220.75 618.375C217.57 621.446 214.716 624.508 212 628C211.196 628.763 210.391 629.526 209.562 630.312C206.449 633.578 204.264 637.118 202 641C201.34 640.67 200.68 640.34 200 640C204.184 633.346 208.59 627.03 213.625 621C214.068 620.461 214.51 619.922 214.966 619.366C218.005 615.797 221.043 613.414 225 611Z" fill="#70975A"/>
</svg>
