<svg width="1431" height="1362" viewBox="0 0 1431 1362" fill="none" xmlns="http://www.w3.org/2000/svg">
<path d="M623.353 419.556C630.614 420.349 637.801 420.46 645.101 420.47C646.776 420.479 646.776 420.479 648.485 420.488C653.703 420.476 658.472 420.262 663.644 419.457C670.957 418.499 677.726 420.157 684.841 421.717C686.967 422.173 686.967 422.173 689.136 422.637C700.856 425.258 711.566 428.781 722.485 433.605C723.908 434.203 725.331 434.801 726.797 435.418C738.64 440.669 754.216 448.315 761.614 458.876C756.457 457.137 752.72 455.038 748.513 451.727C743.311 447.755 738.148 444.563 732.267 441.585C734.67 446.16 737.571 449.35 741.438 452.808C772.924 482.228 791.23 527.287 791.659 568.857C791.344 596.875 782.802 618.541 761.614 638.437C760.022 639.972 760.022 639.972 758.399 641.539C732.522 665.2 698.361 672.279 663.562 671.886C630.016 671.122 600.157 659.665 570.162 646.417C522.484 625.134 522.484 625.134 470.942 618.486C470.25 621.119 470.25 621.119 469.544 623.806C470.467 624.245 471.389 624.684 472.339 625.136C468.65 625.136 464.961 625.136 461.16 625.136C449.812 591.295 457.769 553.88 473 522.465C497.465 477.906 539.923 442.176 589.726 425.624C597.093 423.479 604.554 421.842 612.086 420.304C613.094 420.03 614.103 419.755 615.142 419.473C618.122 418.886 620.344 419.135 623.353 419.556ZM528.238 488.138C524.529 492.384 521.321 496.642 518.456 501.439C517.96 502.251 517.465 503.064 516.954 503.901C513.746 509.953 513.127 516.108 514.263 522.72C516.592 527.234 518.393 529.801 522.823 532.529C529.884 533.99 537.013 535.153 543.714 531.994C546.661 529.94 549.318 527.747 551.995 525.38C569.918 509.668 588.118 498.405 609.858 488.134C628.445 479.611 628.445 479.611 640.035 464.197C640.625 458.061 639.472 454.544 635.406 449.732C604.187 426.238 549.428 466.35 528.238 488.138Z" fill="#F7EAD2"/>
<path d="M862.234 778.096C870.475 784.865 878.332 792.017 885.991 799.377C885.53 800.255 885.069 801.132 884.594 802.037C880.443 798.087 876.293 794.136 872.017 790.066C873.227 791.493 874.438 792.919 875.685 794.389C891.442 814.656 897.464 839.608 894.376 864.551C890.075 887.343 876.656 907.527 856.765 920.879C850.45 924.747 843.861 927.995 837.08 931.055C834.605 932.178 834.605 932.178 832.08 933.325C770.822 958.689 687.496 953.724 626.291 930.972C619.635 928.225 613.644 924.629 607.896 920.414C610.13 926.066 614.622 929.488 619.251 933.382C620.038 934.056 620.825 934.73 621.636 935.424C623.571 937.078 625.515 938.723 627.461 940.365C620.779 940.365 617.611 936.081 612.886 931.886C598.139 917.551 593.005 902.973 593.166 883.237C594.572 844.735 623.717 809.77 651.66 784.024C657.814 778.661 664.171 773.627 670.782 768.785C671.85 767.996 672.919 767.208 674.019 766.395C735.56 723.184 805.523 733.655 862.234 778.096ZM679.68 792.409C677.449 794.417 675.153 796.36 672.802 798.239C661.884 807.004 650.368 818.614 648.423 832.629C648.204 837.846 648.126 842.561 651.644 846.792C656.822 851.035 662.294 853.414 669.199 853.276C678.807 851.032 686.778 842.608 694.112 836.566C706.188 826.635 718.901 818.505 733.013 811.42C734.374 810.733 735.735 810.047 737.137 809.339C739.822 807.996 742.519 806.675 745.229 805.378C753.772 801.131 760.542 796.565 765.81 788.736C767.712 782.12 766.96 776.128 763.539 770.115C755.664 763.804 749.08 762.577 738.919 762.841C716.016 765.56 696.135 777.544 679.68 792.409Z" fill="#F7EBD2"/>
<path d="M503.087 669.029C504.614 669.723 506.142 670.418 507.716 671.133C526.232 680.01 542.644 692.694 557.588 706.271C558.492 707.048 559.396 707.825 560.328 708.625C574.057 720.865 584.716 735.92 593.485 751.66C594.075 752.715 594.664 753.77 595.272 754.857C598.241 760.39 600.287 765.167 600.909 771.445C596.828 766.758 594.222 761.516 591.476 756.066C583.373 739.925 583.373 739.925 571.562 726.222C572.24 728.061 572.24 728.061 572.932 729.937C574.968 736.752 574.818 743.542 574.794 750.579C574.816 751.885 574.839 753.191 574.862 754.536C574.877 776.11 564.78 792.247 549.203 807.357C548.075 808.463 546.948 809.569 545.786 810.708C507.93 845.691 452.407 852.041 402.158 851.535C388.953 851.333 376.224 850.008 363.341 847.259C362.323 847.045 361.306 846.831 360.258 846.611C344.077 843.034 330.177 836.484 315.827 828.638C329.111 847.263 347.803 859.078 368.93 868.541C364.738 869.871 364.738 869.871 360.944 868.385C334.376 854.592 310.086 836.037 300.368 807.773C291.2 777.473 297.747 745.323 312.948 718.093C330.19 688.87 359.077 666.548 392.531 656.501C429.75 646.758 469.082 652.909 503.087 669.029ZM338.983 722.778C332.397 733.116 327.518 743.25 328.404 755.484C330.938 762.317 334.144 765.592 340.981 768.785C348.045 769.745 350.746 769.506 357.052 766.291C362.253 762.315 366.141 757.402 370.197 752.398C382.093 737.907 395.753 726.088 411.471 715.478C417.041 711.496 423.064 706.972 426.226 700.951C426.597 695.571 426.762 691.713 424.829 686.653C419.653 681.111 413.035 678.134 405.264 677.425C377.466 678.796 353.503 702.434 338.983 722.778Z" fill="#F7EBD3"/>
<path d="M986.607 605.185C985.685 606.063 984.763 606.94 983.812 607.845C984.764 608.695 985.715 609.546 986.695 610.422C1007.09 630.051 1018.99 654.465 1019.01 682.08C1019.03 683.212 1019.05 684.345 1019.06 685.512C1019.1 702.843 1012.98 720.756 1000.17 733.522C982.07 748.78 961.55 754.686 937.784 754.569C936.254 754.565 934.725 754.56 933.149 754.555C916.037 754.34 899.345 752.303 883.119 746.906C879.975 745.932 879.975 745.932 874.811 746.173C876.012 747.125 877.214 748.076 878.452 749.057C890.437 758.642 901.639 768.737 912.542 779.425C912.081 780.303 911.62 781.181 911.145 782.085C910.527 781.477 909.91 780.868 909.274 780.242C875.069 746.688 838.478 724.339 790.963 711.591C796.94 686.018 810.714 662.122 828.694 642.427C829.669 641.338 830.643 640.249 831.648 639.128C848.383 620.879 867.617 605.893 891.58 597.204C892.924 596.683 894.268 596.162 895.652 595.625C925.829 585.562 958.946 591.66 986.607 605.185ZM850.617 652.984C840.945 664.964 840.945 664.964 838.477 679.42C839.44 684.191 840.702 687.885 844.066 691.64C849.748 695.125 854.126 696.757 860.836 695.63C870.044 690.808 877.502 684.31 884.942 677.342C893.379 669.603 901.954 662.497 911.379 655.878C921.612 649.305 921.612 649.305 927.084 639.408C927.42 632.644 927.42 632.644 924.786 626.528C919.564 621.447 915.081 619.618 907.564 619.4C884.949 619.712 864.353 637.364 850.617 652.984Z" fill="#F7EBD3"/>
<path d="M732.27 441.586C737.559 443.396 741.773 445.7 746.331 448.818C748.085 450.009 748.085 450.009 749.874 451.224C751.955 452.669 754.01 454.15 756.021 455.682C758.761 457.686 758.761 457.686 762.124 458.643C767.198 460.797 770.635 464.206 774.455 467.938C775.25 468.709 776.045 469.48 776.864 470.275C790.841 484.072 801.31 499.095 810.527 516.07C811.2 517.299 811.2 517.299 811.887 518.553C823.131 539.382 830.365 561.917 832.887 585.234C833.078 586.61 833.078 586.61 833.273 588.013C833.74 593.563 833.116 595.611 829.355 599.938C827.791 601.216 826.2 602.465 824.589 603.689C822.9 605.076 821.215 606.466 819.534 607.861C818.706 608.537 817.878 609.214 817.025 609.91C789.597 632.823 771.807 666.873 761.616 699.621C760.696 702.285 759.769 704.946 758.821 707.602C757.333 707.747 755.845 707.893 754.312 708.043C712.115 712.346 676.075 726.103 643.116 751.806C639.432 754.616 635.641 757.077 631.652 759.475C631.278 758.442 630.903 757.41 630.517 756.347C620.777 730.794 604.572 709.071 584.798 689.676C582.841 687.749 580.918 685.791 578.996 683.832C550.301 655.264 508.924 633.856 468.149 626.467C468.611 623.394 469.072 620.322 469.547 617.156C477.635 616.939 484.884 617.599 492.78 619.234C494.488 619.586 494.488 619.586 496.23 619.945C524.614 626.053 551.298 636.24 577.373 648.39C620.475 668.41 670.2 678.585 716.897 663.709C744.867 654.057 767.417 637.2 781.181 611.836C796.283 579.784 791.024 542.743 778.369 510.777C768.532 487.389 753.731 464.435 734 447.447C732.27 445.576 732.27 445.576 732.27 441.586Z" fill="#EEDBB8"/>
<path d="M870.618 788.736C872.902 790.586 875.182 792.441 877.447 794.311C879.372 795.879 881.326 797.416 883.31 798.915C906.706 817.251 925.977 850.15 930.36 878.782C932.333 903.58 931.172 924.216 914.447 944.465C901.464 958.054 883.14 965.703 865.028 970.957C864.019 971.265 863.009 971.573 861.968 971.891C853.867 974.31 845.915 976.042 837.51 977.166C836.254 977.334 834.998 977.502 833.704 977.675C820.381 979.311 807.134 979.495 793.717 979.385C789.659 979.353 785.602 979.357 781.544 979.366C757.52 979.334 733.243 978.325 709.735 973.285C708.351 972.996 706.966 972.708 705.539 972.411C640.041 958.387 640.041 958.387 621.87 936.375C620.032 934.796 618.166 933.247 616.28 931.72C612.009 928.253 608.419 924.756 605.101 920.414C605.792 919.097 605.792 919.097 606.498 917.754C607.199 918.318 607.9 918.882 608.622 919.463C633.056 937.49 668.705 942.681 698.73 945.686C700.204 945.833 701.678 945.98 703.196 946.132C757.259 950.469 821.197 947.698 864.985 913.151C882.229 897.775 892.698 878.067 893.632 855.39C893.96 831.52 887.799 809.306 870.618 791.396C870.618 790.519 870.618 789.641 870.618 788.736Z" fill="#EDDBB7"/>
<path d="M568.767 722.232C582.63 734.227 590.801 750.711 598.965 766.478C600.893 770.262 600.893 770.262 603.703 774.105C606.118 779.669 607.012 782.982 605.101 788.736C602.853 791.872 600.572 794.821 598.113 797.797C586.019 813.025 577.137 829.052 569.674 846.752C563.784 860.719 557.4 865.722 542.963 871.965C530.921 876.84 518.651 880.421 505.881 883.172C503.238 883.771 503.238 883.771 500.542 884.382C458.593 892.955 406.323 888.832 367.532 871.201C366.106 869.899 364.707 868.569 363.34 867.211C361.101 866.019 358.825 864.889 356.527 863.803C340.4 855.609 325.21 844.086 314.429 829.969C315.12 828.652 315.12 828.652 315.826 827.309C317.266 828.096 318.705 828.883 320.188 829.693C334.177 837.159 347.67 842.631 363.34 845.93C364.352 846.146 365.363 846.361 366.406 846.584C419.746 857.346 483.346 850.309 529.638 821.988C550.525 808.523 567.524 790.258 572.959 766.125C573.306 761.197 573.282 756.266 573.308 751.328C573.337 750.004 573.366 748.681 573.396 747.317C573.445 738.295 572.023 730.705 568.767 722.232Z" fill="#EDDAB7"/>
<path d="M982.415 606.516C989.141 605.781 992.123 607.867 997.35 611.753C998.079 612.294 998.807 612.835 999.557 613.393C1031.64 637.51 1051.19 668.881 1056.48 707.602C1058.33 729.72 1054.54 751.585 1040.05 769.367C1023.55 787.312 1000.75 795.057 976.825 799.377C975.769 799.603 974.712 799.83 973.624 800.062C966.291 801.312 958.848 801.376 951.416 801.538C949.438 801.594 947.461 801.675 945.485 801.784C929.034 802.669 929.034 802.669 922.753 797.775C919.956 794.434 917.617 791.079 915.337 787.407C914.415 786.529 913.492 785.651 912.542 784.746C912.223 783.793 911.904 782.84 911.576 781.858C908.883 776.319 904.609 772.676 900.052 768.453C899.12 767.576 898.187 766.699 897.227 765.795C890.477 759.519 883.491 753.735 876.039 748.221C874.739 747.208 874.739 747.208 873.413 746.174C873.413 745.735 873.413 745.296 873.413 744.844C882.057 745.893 890.424 747.662 898.903 749.551C928.207 755.935 961.151 756.486 987.595 741.503C1001.52 732.898 1010.56 719.817 1015.95 704.942C1021.68 676.392 1015.41 650.221 999.01 626.088C994.403 619.917 989.603 614.354 983.812 609.176C983.121 607.859 983.121 607.859 982.415 606.516Z" fill="#EDDAB6"/>
<path d="M631.828 446.407C636.353 449.964 638.282 452.219 640.038 457.546C640.038 463.849 638.486 468.756 634.356 473.767C626.27 480.95 615.216 485.279 605.446 490.066C587.756 498.751 572.582 508.46 557.633 520.992C541.524 534.442 541.524 534.442 530.152 533.834C523.909 532.941 519.998 531.031 515.839 526.544C512.992 519.62 513.091 514.045 515.61 506.988C528.429 480.046 558.166 460.418 586.377 449.858C599.8 445.07 618.179 439.732 631.828 446.407Z" fill="#FDF5E5"/>
<path d="M757.597 765.792C762.287 769.285 765.29 771.808 766.56 777.451C766.6 778.651 766.64 779.852 766.681 781.088C766.756 782.275 766.832 783.461 766.91 784.683C764.822 792.357 759.255 797.372 752.392 801.632C748.266 803.812 744.09 805.851 739.867 807.856C721.821 816.801 706.53 826.894 691.118 839.481C675.642 852.077 675.642 852.077 667.024 853.328C660.023 852.196 654.409 849.833 649.818 844.599C647.582 837.772 648.022 831.366 651.019 824.872C656.696 814.601 663.066 805.776 672.177 798.047C673.42 796.951 673.42 796.951 674.688 795.833C693.555 779.583 730.284 752.001 757.597 765.792Z" fill="#FDF5E5"/>
<path d="M416.968 680.585C421.688 683.153 424.319 685.317 426.227 690.311C427.166 695.767 427.55 698.872 424.523 703.627C418.172 710.884 410.314 716.522 402.47 722.233C388.446 732.53 376.592 743.387 366.109 756.984C361.586 762.71 356.791 767.684 349.192 769.492C342.18 769.381 338.022 768.029 332.597 763.465C328.475 757.58 327.561 753.171 328.404 746.174C335.305 722.056 353.761 700.727 375.918 687.651C380.941 685.143 386.014 682.976 391.29 681C392.465 680.515 393.639 680.03 394.849 679.53C402.381 676.916 409.705 677.44 416.968 680.585Z" fill="#FDF6E6"/>
<path d="M917.958 621.48C918.938 622.248 919.918 623.016 920.928 623.807C921.994 624.493 923.061 625.179 924.159 625.886C927.368 630.296 927.192 633.797 927.26 639.056C925.508 647.012 918.125 651.439 911.669 656.062C901.663 663.389 892.329 671.242 883.147 679.489C882.049 680.466 882.049 680.466 880.929 681.463C878.862 683.305 876.806 685.158 874.751 687.012C869.25 691.404 863.862 695.152 856.644 696.297C851.072 695.413 846.988 693.811 842.67 690.311C838.705 684.297 837.65 679.174 838.827 672.277C845.606 651.274 867.434 635.04 886.635 624.597C896.295 619.812 907.58 617.185 917.958 621.48Z" fill="#FDF6E5"/>
<path d="M1083.03 678.34C1085.98 682.546 1086.3 684.334 1086.7 689.23C1086.8 690.428 1086.91 691.627 1087.02 692.862C1087.09 693.775 1087.15 694.689 1087.22 695.631C1088.61 696.07 1089.99 696.509 1091.42 696.961C1090.49 696.961 1089.57 696.961 1088.62 696.961C1088.82 698.901 1089.02 700.841 1089.23 702.78C1089.35 703.86 1089.46 704.94 1089.58 706.053C1089.87 708.988 1089.87 708.988 1091.42 711.592C1091.29 714.994 1091.09 718.344 1090.81 721.734C1090.73 722.673 1090.66 723.613 1090.58 724.581C1090.4 726.902 1090.21 729.223 1090.02 731.543C1089.1 731.543 1088.17 731.543 1087.22 731.543C1087.15 730.618 1087.07 729.693 1086.99 728.739C1086.64 724.52 1086.27 720.3 1085.91 716.081C1085.79 714.625 1085.67 713.169 1085.55 711.67C1085.36 709.548 1085.36 709.548 1085.18 707.383C1085.07 706.088 1084.96 704.792 1084.84 703.457C1084.41 699.481 1083.73 695.582 1083.03 691.641C1082.94 689.259 1082.91 686.874 1082.94 684.491C1082.96 683.329 1082.97 682.167 1082.98 680.969C1083 680.101 1083.02 679.234 1083.03 678.34Z" fill="#807056"/>
<path d="M424.828 555.973C425.289 555.973 425.75 555.973 426.226 555.973C426.687 559.484 427.148 562.995 427.623 566.613C427.162 566.613 426.701 566.613 426.226 566.613C424.637 572.626 424.649 578.522 424.692 584.678C424.695 586.303 424.695 586.303 424.698 587.96C424.705 591.402 424.723 594.844 424.741 598.286C424.748 600.626 424.754 602.967 424.76 605.308C424.774 611.031 424.801 616.753 424.828 622.477C413.068 623.135 413.068 623.135 401.071 623.807C401.071 623.368 401.071 622.929 401.071 622.477C408.563 620.975 415.819 621.018 423.431 621.146C422.971 619.797 422.511 618.448 422.037 617.059C420.581 612.185 420.385 607.844 420.57 602.759C420.63 601.061 420.689 599.363 420.75 597.613C420.867 594.983 420.867 594.983 420.985 592.3C421.041 590.573 421.097 588.846 421.154 587.066C421.566 576.511 422.683 566.337 424.828 555.973Z" fill="#C1B18E"/>
<path d="M647.024 383.063C647.947 383.502 648.869 383.941 649.819 384.393C652.252 384.656 654.692 384.851 657.134 385.011C659.334 385.167 659.334 385.167 661.578 385.325C664.663 385.533 667.75 385.738 670.836 385.938C680.561 386.634 688.66 387.928 697.333 392.373C696.872 392.812 696.411 393.251 695.936 393.703C696.858 394.142 697.78 394.581 698.73 395.033C698.73 394.156 698.73 393.278 698.73 392.373C707.611 394.032 716.455 395.796 725.282 397.694C725.282 398.571 725.282 399.449 725.282 400.354C726.053 400.576 726.824 400.799 727.619 401.028C735.405 403.371 742.477 406.299 749.65 409.997C750.687 410.528 751.723 411.059 752.791 411.605C784.487 428.088 808.158 452.33 828.694 480.158C829.3 480.954 829.905 481.75 830.529 482.57C834.355 487.727 834.355 487.727 833.673 491.713C833.413 492.728 833.154 493.743 832.887 494.789C833.47 495.345 834.054 495.9 834.655 496.473C837.899 499.56 839.512 502.934 841.534 506.843C842.274 508.258 843.014 509.672 843.777 511.129C845.464 514.74 845.464 514.74 845.464 517.401C846.847 517.401 848.231 517.401 849.656 517.401C850.579 520.473 851.501 523.546 852.451 526.711C851.529 527.15 850.607 527.589 849.656 528.041C851.04 528.041 852.423 528.041 853.849 528.041C854.55 530.451 855.248 532.862 855.945 535.273C856.528 537.287 856.528 537.287 857.124 539.342C858.041 542.672 858.041 542.672 858.041 544.002C858.963 545.319 859.886 546.636 860.836 547.992C860.312 552.232 860.312 552.232 859.438 555.973C860.361 555.534 861.283 555.095 862.233 554.643C863.606 560.033 863.745 565.069 863.631 570.604C864.553 571.043 865.476 571.482 866.426 571.934C866.887 572.373 867.348 572.812 867.823 573.264C867.823 571.947 867.823 570.63 867.823 569.274C866.901 569.274 865.979 569.274 865.028 569.274C865.489 567.518 865.951 565.762 866.426 563.953C867.829 564 869.232 564.046 870.678 564.094C883.461 564.382 894.521 563.057 906.952 559.963C928.743 556.342 951.63 558.938 972.633 565.283C973.094 565.722 973.555 566.161 974.03 566.613C975.151 566.723 976.271 566.833 977.426 566.946C984.462 568.353 990.248 571.393 996.564 574.594C997.872 575.253 999.179 575.912 1000.53 576.591C1010.65 581.799 1019.73 587.447 1028.53 594.545C1029.73 595.483 1030.92 596.421 1032.15 597.387C1054.54 615.674 1076.48 644.916 1083.03 673.02C1082.81 673.843 1082.58 674.666 1082.34 675.514C1081.28 679.736 1082.48 683.1 1083.47 687.318C1085.56 696.94 1086.66 706.54 1087.49 716.33C1087.66 718.37 1087.66 718.37 1087.84 720.452C1089.35 739.172 1089.35 739.172 1087.22 747.504C1086.3 747.065 1085.38 746.626 1084.43 746.174C1084.72 747.189 1085.01 748.204 1085.3 749.25C1085.83 752.824 1085.83 752.824 1083.03 756.815C1083.03 758.131 1083.03 759.448 1083.03 760.805C1078.57 771.456 1072.22 780.341 1064.8 789.277C1062.04 792.504 1062.04 792.504 1060.65 795.678C1058.85 798.778 1057.04 799.257 1053.69 800.707C1051.56 802.304 1049.46 803.943 1047.4 805.612C1038.08 812.813 1027.99 820.062 1015.95 821.988C1015.49 822.427 1015.03 822.866 1014.56 823.319C1011.16 824.459 1007.77 825.534 1004.34 826.561C1003.33 826.863 1002.33 827.165 1001.3 827.477C993.833 829.656 986.488 831.055 978.719 831.891C974.932 832.74 973.843 833.988 971.235 836.619C969.852 836.619 968.468 836.619 967.043 836.619C967.043 835.741 967.043 834.864 967.043 833.959C965.876 834.576 965.876 834.576 964.685 835.206C961.237 836.714 958.223 837.479 954.466 837.949C953.543 837.51 952.621 837.072 951.671 836.619C952.132 837.497 952.593 838.375 953.068 839.279C955.898 840.147 955.898 840.147 958.658 840.61C957.275 841.048 955.891 841.487 954.466 841.94C954.896 843.908 955.334 845.875 955.776 847.842C956.019 848.937 956.262 850.033 956.513 851.162C956.992 853.879 956.992 853.879 958.658 855.24C961.941 863.314 963.159 869.246 961.453 877.852C961.817 880.968 962.256 884.079 962.851 887.162C962.851 883.651 962.851 880.139 962.851 876.522C963.312 876.522 963.773 876.522 964.248 876.522C964.45 878.003 964.652 879.484 964.859 881.011C965.343 885.595 965.343 885.595 967.043 888.492C967.439 917.862 958.021 942.767 939.094 965.637C939.555 966.515 940.016 967.393 940.491 968.297C937.696 970.957 937.696 970.957 932.106 970.957C928.465 973.485 928.465 973.485 924.944 976.776C923.73 977.856 922.516 978.937 921.265 980.05C919.273 981.88 917.295 983.725 915.337 985.588C913.027 986.519 910.693 987.396 908.35 988.248C905.872 989.316 903.395 990.383 900.92 991.456C886.428 997.682 871.64 1002.73 856.032 1005.79C854.389 1006.15 852.746 1006.5 851.054 1006.87C850.593 1007.75 850.131 1008.63 849.656 1009.53C846.075 1010.36 846.075 1010.36 842.669 1010.86C842.669 1009.98 842.669 1009.1 842.669 1008.2C837.136 1008.83 831.605 1009.47 826.074 1010.11C824.498 1010.29 822.922 1010.47 821.298 1010.65C819.041 1010.92 819.041 1010.92 816.739 1011.19C815.349 1011.35 813.959 1011.51 812.526 1011.67C809.128 1012.02 809.128 1012.02 806.335 1013.52C803.696 1013.54 801.056 1013.47 798.42 1013.36C796.852 1013.29 795.285 1013.23 793.67 1013.16C792.028 1013.09 790.385 1013.01 788.692 1012.94C787.038 1012.87 785.385 1012.8 783.681 1012.73C779.586 1012.55 775.492 1012.38 771.398 1012.19C771.398 1013.07 771.398 1013.95 771.398 1014.85C770.433 1014.43 769.467 1014.01 768.473 1013.57C755.697 1009.22 740.092 1010.67 726.68 1010.86C727.141 1009.98 727.602 1009.1 728.077 1008.2C726.437 1007.91 726.437 1007.91 724.764 1007.61C719.841 1006.73 714.919 1005.84 709.997 1004.96C708.276 1004.65 706.555 1004.35 704.782 1004.03C702.329 1003.59 702.329 1003.59 699.828 1003.13C698.313 1002.86 696.798 1002.59 695.237 1002.31C691.743 1001.55 691.743 1001.55 690.346 1000.22C683.296 999.101 676.329 998.236 669.384 1000.22C668.461 998.902 667.539 997.585 666.589 996.229C666.128 997.545 665.667 998.862 665.191 1000.22C663.347 1000.22 661.502 1000.22 659.602 1000.22C658.029 997.143 658.029 997.143 656.807 993.569C657.729 992.252 658.651 990.935 659.602 989.578C658.795 989.853 657.987 990.127 657.156 990.41C654.012 990.908 654.012 990.908 651.435 989.578C647.776 987.963 645.737 988.194 641.784 988.747C640.667 988.894 639.55 989.042 638.399 989.194C637.135 989.384 637.135 989.384 635.845 989.578C635.758 988.056 635.758 988.056 635.67 986.503C634.756 982.662 634.756 982.662 631.041 980.517C625.407 978.73 620.995 978.727 615.123 979.057C612.088 978.938 612.088 978.938 609.293 976.278C609.817 973.451 609.817 973.451 610.69 970.957C608.516 969.229 606.33 967.513 604.14 965.803C602.924 964.846 601.708 963.89 600.455 962.904C595.34 959.365 590.267 957.622 584.139 956.326C584.139 955.01 584.139 953.693 584.139 952.336C583.216 951.897 582.294 951.458 581.344 951.006C581.805 950.567 582.266 950.128 582.741 949.676C581.059 946.359 579.311 943.449 577.151 940.365C577.151 939.927 577.151 939.488 577.151 939.035C576.69 939.913 576.229 940.791 575.754 941.696C574.37 941.696 572.987 941.696 571.562 941.696C574.29 944.292 576.497 945.484 579.946 947.016C576.718 947.016 573.49 947.016 570.164 947.016C570.164 944.821 570.164 942.627 570.164 940.365C571.086 940.365 572.009 940.365 572.959 940.365C572.217 934.362 570.045 930.366 565.972 925.735C562.346 925.436 562.346 925.436 558.984 925.735C559.017 924.325 559.049 922.916 559.083 921.464C559.109 919.618 559.134 917.771 559.159 915.925C559.194 914.531 559.194 914.531 559.23 913.109C559.255 910.666 559.128 908.223 558.984 905.783C558.062 904.906 557.14 904.028 556.189 903.123C549.302 903.83 542.867 906.536 536.401 908.786C532.428 909.775 530.619 909.805 526.843 908.444C526.843 909.321 526.843 910.199 526.843 911.104C517.235 912.434 517.235 912.434 515.663 912.434C515.663 912.873 515.663 913.312 515.663 913.764C513.466 914.126 513.466 914.126 511.225 914.496C509.298 914.833 507.371 915.171 505.444 915.51C504.479 915.666 503.515 915.823 502.521 915.985C497.341 916.914 493.713 917.574 490.509 921.744C489.125 920.866 487.742 919.989 486.316 919.084C483.513 919.478 480.719 919.931 477.932 920.414C473.957 920.378 470.049 920.267 466.086 920.056C464.959 920.001 463.832 919.947 462.671 919.89C460.291 919.773 457.911 919.65 455.532 919.524C451.945 919.336 448.357 919.166 444.769 918.998C433.497 918.44 422.541 917.608 411.426 915.631C407.174 914.953 403.101 914.917 398.8 915.094C394.641 915.26 394.641 915.26 391.289 915.094C390.367 914.216 389.444 913.338 388.494 912.434C388.955 911.995 389.416 911.556 389.892 911.104C388.508 911.104 387.125 911.104 385.699 911.104C386.16 911.982 386.622 912.859 387.097 913.764C384.791 914.203 382.485 914.642 380.109 915.094C378.537 910.106 378.537 910.106 380.109 907.113C379.331 906.952 378.553 906.791 377.751 906.625C372.334 905.493 366.951 904.32 361.593 902.957C357.235 901.989 353.792 901.53 349.365 901.793C350.288 900.037 351.21 898.282 352.16 896.473C351.238 896.473 350.316 896.473 349.365 896.473C345.035 895.282 341.439 894.1 337.661 891.734C332.675 889.136 328.46 888.948 322.813 888.492C323.736 887.176 324.658 885.859 325.608 884.502C324.283 884.31 322.957 884.118 321.591 883.92C317.224 883.172 317.224 883.172 314.429 881.842C314.89 880.525 315.351 879.208 315.826 877.852C313.982 876.974 312.137 876.096 310.236 875.192C310.236 874.314 310.236 873.436 310.236 872.531C307.469 872.531 304.702 872.531 301.852 872.531C302.313 871.215 302.774 869.898 303.249 868.541C301.943 867.262 300.632 865.989 299.319 864.717C298.589 864.007 297.86 863.298 297.108 862.566C294.679 860.284 294.679 860.284 290.672 857.901C290.672 857.023 290.672 856.145 290.672 855.24C287.087 851.828 284.416 851.861 279.492 851.25C278.619 848.091 278.619 848.091 278.095 844.6C279.017 843.722 279.939 842.844 280.89 841.94C280.429 837.554 280.019 835.791 276.697 832.629C274.399 828.838 273.255 825.265 272.33 820.991C272.096 819.928 271.862 818.865 271.621 817.77C271.367 816.566 271.367 816.566 271.107 815.338C270.185 815.777 269.263 816.216 268.312 816.668C267.39 814.035 266.468 811.401 265.518 808.688C264.595 808.688 263.673 808.688 262.723 808.688C262.739 807.525 262.755 806.363 262.772 805.165C262.848 795.317 262.661 785.521 262.111 775.685C262.029 774.124 262.029 774.124 261.945 772.532C261.721 767.159 261.721 767.159 259.928 762.135C261.311 762.574 262.695 763.013 264.12 763.465C265.081 766.208 265.081 766.208 265.518 768.785C265.518 766.591 265.518 764.396 265.518 762.135C265.056 762.135 264.595 762.135 264.12 762.135C263.953 751.155 266.684 741.707 270.321 731.377C270.758 730.131 271.195 728.885 271.645 727.601C274.915 718.609 274.915 718.609 278.095 715.582C278.566 713.81 279.031 712.036 279.492 710.262C286.659 695.204 296.824 681.608 309.194 670.011C312.392 666.976 318.621 662.379 318.621 662.379C319.543 663.696 318.621 665.039 318.621 665.039C318.621 664.161 318.621 663.283 318.621 662.379C319.688 661.995 320.754 661.611 321.853 661.215C325.818 659.769 325.818 659.769 329.801 657.059C330.723 657.498 331.645 657.937 332.596 658.389C333.172 657.127 333.749 655.865 334.343 654.565C336.794 650.399 337.778 649.258 342.378 647.748C341.917 646.431 341.456 645.115 340.98 643.758C340.058 645.075 339.136 646.392 338.186 647.748C338.186 645.993 338.186 644.237 338.186 642.428C337.263 641.989 336.341 641.55 335.391 641.098C336.313 641.098 337.235 641.098 338.186 641.098C338.186 640.22 338.186 639.342 338.186 638.438C340.491 638.438 342.797 638.438 345.173 638.438C345.173 639.754 345.173 641.071 345.173 642.428C346.25 641.852 347.327 641.276 348.437 640.682C349.839 639.942 351.24 639.201 352.684 638.438C354.078 637.697 355.473 636.956 356.909 636.193C360.545 634.447 360.545 634.447 363.34 634.447C363.801 633.57 364.961 634.687 365.436 633.782C366.358 634.66 366.582 633.543 367.532 634.447C367.532 633.57 367.532 632.692 367.532 631.787C388.281 624.174 388.281 624.174 399.674 623.807C400.135 624.246 413.872 622.024 414.347 622.476C418.354 622.355 422.317 622.16 426.313 621.894C427.44 621.825 424.366 623.878 425.527 623.806C428.319 623.633 422.036 623.99 424.828 623.807C424.601 622.466 424.374 621.125 424.14 619.744C423.097 611.772 423.222 603.776 423.248 595.754C423.256 593.046 423.249 590.338 423.24 587.63C423.241 585.903 423.243 584.177 423.245 582.398C423.247 580.836 423.248 579.273 423.25 577.664C423.466 572.411 423.73 567.373 426.226 562.623C426.268 559.639 426.133 556.679 426.002 553.697C426.253 550.281 427.408 548.354 429.021 545.332C429.021 543.577 429.021 541.821 429.021 540.012C430.256 536.364 431.568 532.849 433.038 529.288C433.679 527.725 433.679 527.725 434.334 526.13C440.293 512.04 447.921 498.664 455.993 485.577C458.593 481.879 458.593 481.879 458.367 478.828C459.751 479.267 461.134 479.706 462.56 480.158C462.56 481.036 462.56 481.914 462.56 482.819C465.742 479.074 465.742 479.074 465.354 474.838C467.486 471.869 469.647 469.082 471.992 466.276C472.612 465.514 473.232 464.751 473.87 463.966C477.316 459.775 480.873 455.913 484.919 452.227C485.816 451.351 486.713 450.474 487.637 449.572C492.645 444.924 498.148 440.848 503.597 436.683C505.161 435.487 506.721 434.287 508.279 433.085C517.458 426.01 526.316 419.306 536.914 414.205C539.78 412.431 539.78 412.431 540.484 408.781C540.594 407.756 540.704 406.73 540.817 405.674C543.123 405.235 545.429 404.796 547.805 404.344C548.266 405.222 548.727 406.1 549.202 407.004C550.678 406.329 552.153 405.653 553.673 404.957C573.924 395.912 596.359 387.154 619.075 387.053C619.075 387.492 619.075 387.931 619.075 388.383C621.381 388.383 623.687 388.383 626.062 388.383C624.679 387.505 623.296 386.627 621.87 385.723C623.335 385.602 623.335 385.602 624.829 385.479C626.101 385.367 627.372 385.256 628.683 385.141C630.58 384.979 630.58 384.979 632.515 384.814C646.525 383.043 646.525 383.043 647.024 383.063ZM612.088 420.305C610.387 420.615 608.687 420.926 606.935 421.245C573.066 428.362 543.691 444.57 518.458 466.858C517.738 467.484 517.018 468.111 516.277 468.757C484.88 496.337 459.056 535.396 456.769 576.906C456.187 593.462 456.85 609.054 461.162 625.137C462.719 625.428 464.275 625.72 465.879 626.02C524.788 637.475 577.373 672.276 610.832 719.749C618.215 730.792 624.266 742.394 630.255 754.154C631.183 755.93 632.112 757.704 633.05 759.475C634.017 758.669 634.985 757.863 635.981 757.033C672.13 727.568 711.595 712.227 758.821 707.602C759.072 706.795 759.323 705.988 759.581 705.157C768.269 677.707 779.649 651.178 799.348 629.127C800.735 627.541 802.121 625.955 803.507 624.368C821.491 603.963 821.491 603.963 830.004 598.618C833.425 595.967 833.425 595.967 833.203 591.189C832.108 553.382 814.01 511.225 788.168 482.819C786.963 481.49 785.758 480.161 784.516 478.792C752.122 443.843 708.506 421.124 659.088 417.764C643.112 417.245 627.857 417.407 612.088 420.305ZM829.678 640.442C817.377 654.489 807.33 669.952 799.522 686.653C799.139 687.468 798.756 688.283 798.361 689.123C795.104 696.401 793.022 703.939 790.963 711.592C792.151 711.921 792.151 711.921 793.364 712.257C842.255 725.97 897.606 754.185 923.999 798.179C926.386 801.076 926.386 801.076 930.548 801.396C932.172 801.402 933.796 801.408 935.469 801.414C937.275 801.425 939.081 801.436 940.941 801.447C942.887 801.426 944.834 801.401 946.78 801.372C947.76 801.364 948.74 801.357 949.749 801.349C981.349 801.052 1011.5 794.87 1035.52 774.106C1048.6 760.838 1055.47 744.326 1056.48 726.223C1056.57 724.918 1056.66 723.613 1056.75 722.269C1058.02 687.801 1043.03 654.35 1018.75 629.127C994.358 605.302 963.997 591.691 928.962 591.22C888.62 591.362 855.474 611.893 829.678 640.442ZM379.236 661.298C378.238 661.702 377.241 662.105 376.213 662.521C344.795 675.675 319.551 701.767 306.044 731.543C295.129 758.726 292.163 790.837 304.646 817.998C321.205 849.245 353.459 867.31 387.179 878C438.137 893.454 499.311 892.282 547.936 870.001C560.038 864.191 560.038 864.191 567.036 853.723C567.469 852.638 567.902 851.553 568.348 850.435C568.803 849.278 569.258 848.12 569.727 846.927C577.916 826.88 588.146 806.405 604.205 790.867C606.908 786.787 606.837 784.305 605.915 779.614C604.485 774.612 602.415 769.988 600.122 765.294C599.619 764.25 599.116 763.206 598.597 762.13C576.162 716.313 537.077 681.29 487.714 662.379C468.882 655.92 451.539 652.603 431.466 652.653C429.76 652.631 428.054 652.61 426.297 652.588C409.927 652.58 394.316 655.125 379.236 661.298ZM635.845 799.377C617.903 819.534 602.554 841.503 595.318 867.211C595.071 868.045 594.825 868.879 594.57 869.739C590.791 885.995 592.769 904.405 601.716 918.591C625.061 952.17 669.338 965.379 708.822 973.176C734.15 977.811 759.016 979.209 784.752 979.257C788.913 979.27 793.072 979.311 797.232 979.353C837.978 979.569 882.092 973.519 912.749 945.613C928.665 929.789 931.428 911.518 931.047 890.508C929.503 847.587 899.083 810.468 867.649 782.086C792.826 718.987 701.791 729.125 635.845 799.377Z" fill="#6A5236"/>
<path d="M631.21 416.366C631.21 416.366 639.304 416.355 646.625 416.366C648.305 416.375 654.72 416.357 656.434 416.366C661.666 416.354 670.447 418.385 670.447 418.385L685.247 421.16C687.379 421.621 687.379 421.621 689.554 422.091C701.306 424.744 712.046 428.309 722.995 433.191C724.422 433.796 725.849 434.402 727.319 435.026C739.195 440.34 754.814 448.078 762.232 458.766C757.061 457.006 753.314 454.881 749.094 451.531C743.879 447.511 738.701 444.28 732.804 441.267C735.214 445.897 738.123 449.125 742 452.624C773.574 482.398 791.93 527.999 792.36 570.068C792.044 598.422 783.478 620.348 762.232 640.483C760.636 642.037 760.636 642.037 759.008 643.622C733.059 667.568 698.804 674.731 663.909 674.334C630.27 673.561 600.328 661.966 570.25 648.559C522.441 627.02 522.441 627.02 470.756 620.292C470.063 622.957 470.063 622.957 469.355 625.676C470.28 626.121 471.205 626.565 472.158 627.022C468.458 627.022 464.759 627.022 460.947 627.022C449.568 592.775 457.547 554.911 472.82 523.119C497.352 478.024 539.928 441.865 589.869 425.114C597.256 422.944 604.738 421.287 612.29 419.73C613.302 419.453 614.313 419.175 615.355 418.889C618.343 418.295 628.193 415.94 631.21 416.366ZM528.211 488.379C524.492 492.676 521.275 496.985 518.401 501.839C517.905 502.662 517.408 503.484 516.896 504.332C513.679 510.456 513.057 516.685 514.197 523.376C516.532 527.945 518.338 530.542 522.78 533.303C529.861 534.782 537.01 535.959 543.729 532.762C546.685 530.683 549.349 528.464 552.033 526.068C570.006 510.167 588.256 498.769 610.056 488.375C628.695 479.749 628.695 479.749 640.317 464.15C640.909 457.94 639.752 454.381 635.675 449.512C604.37 425.735 549.46 466.329 528.211 488.379Z" fill="#F7EAD2"/>
<path d="M862.234 778.096C870.475 784.865 878.332 792.017 885.991 799.377C885.53 800.255 885.069 801.132 884.594 802.037C880.443 798.087 876.293 794.136 872.017 790.066C873.227 791.493 874.438 792.919 875.685 794.389C891.442 814.656 897.464 839.608 894.376 864.551C890.075 887.343 876.656 907.527 856.765 920.879C850.45 924.747 843.861 927.995 837.08 931.055C834.605 932.178 834.605 932.178 832.08 933.325C770.822 958.689 687.496 953.724 626.291 930.972C619.635 928.225 613.644 924.629 607.896 920.414C610.13 926.066 614.622 929.488 619.251 933.382C620.038 934.056 620.825 934.73 621.636 935.424C623.571 937.078 625.515 938.723 627.461 940.365C620.779 940.365 617.611 936.081 612.886 931.886C598.139 917.551 593.005 902.973 593.166 883.237C594.572 844.735 623.717 809.77 651.66 784.024C657.814 778.661 664.171 773.627 670.782 768.785C671.85 767.996 672.919 767.208 674.019 766.395C735.56 723.184 805.523 733.655 862.234 778.096ZM679.68 792.409C677.449 794.417 675.153 796.36 672.802 798.239C661.884 807.004 650.368 818.614 648.423 832.629C648.204 837.846 648.126 842.561 651.644 846.792C656.822 851.035 662.294 853.414 669.199 853.276C678.807 851.032 686.778 842.608 694.112 836.566C706.188 826.635 718.901 818.505 733.013 811.42C734.374 810.733 735.735 810.047 737.137 809.339C739.822 807.996 742.519 806.675 745.229 805.378C753.772 801.131 760.542 796.565 765.81 788.736C767.712 782.12 766.96 776.128 763.539 770.115C755.664 763.804 749.08 762.577 738.919 762.841C716.016 765.56 696.135 777.544 679.68 792.409Z" fill="#F7EBD2"/>
<path d="M503.087 669.029C504.614 669.723 506.142 670.418 507.716 671.133C526.232 680.01 542.644 692.694 557.588 706.271C558.492 707.048 559.396 707.825 560.328 708.625C574.057 720.865 584.716 735.92 593.485 751.66C594.075 752.715 594.664 753.77 595.272 754.857C598.241 760.39 600.287 765.167 600.909 771.445C596.828 766.758 594.222 761.516 591.476 756.066C583.373 739.925 583.373 739.925 571.562 726.222C572.24 728.061 572.24 728.061 572.932 729.937C574.968 736.752 574.818 743.542 574.794 750.579C574.816 751.885 574.839 753.191 574.862 754.536C574.877 776.11 564.78 792.247 549.203 807.357C548.075 808.463 546.948 809.569 545.786 810.708C507.93 845.691 452.407 852.041 402.158 851.535C388.953 851.333 376.224 850.008 363.341 847.259C362.323 847.045 361.306 846.831 360.258 846.611C344.077 843.034 330.177 836.484 315.827 828.638C329.111 847.263 347.803 859.078 368.93 868.541C364.738 869.871 364.738 869.871 360.944 868.385C334.376 854.592 310.086 836.037 300.368 807.773C291.2 777.473 297.747 745.323 312.948 718.093C330.19 688.87 359.077 666.548 392.531 656.501C429.75 646.758 469.082 652.909 503.087 669.029ZM338.983 722.778C332.397 733.116 327.518 743.25 328.404 755.484C330.938 762.317 334.144 765.592 340.981 768.785C348.045 769.745 350.746 769.506 357.052 766.291C362.253 762.315 366.141 757.402 370.197 752.398C382.093 737.907 395.753 726.088 411.471 715.478C417.041 711.496 423.064 706.972 426.226 700.951C426.597 695.571 426.762 691.713 424.829 686.653C419.653 681.111 413.035 678.134 405.264 677.425C377.466 678.796 353.503 702.434 338.983 722.778Z" fill="#F7EBD3"/>
<path d="M986.607 605.185C985.685 606.063 984.763 606.94 983.812 607.845C984.764 608.695 985.715 609.546 986.695 610.422C1007.09 630.051 1018.99 654.465 1019.01 682.08C1019.03 683.212 1019.05 684.345 1019.06 685.512C1019.1 702.843 1012.98 720.756 1000.17 733.522C982.07 748.78 961.55 754.686 937.784 754.569C936.254 754.565 934.725 754.56 933.149 754.555C916.037 754.34 899.345 752.303 883.119 746.906C879.975 745.932 879.975 745.932 874.811 746.173C876.012 747.125 877.214 748.076 878.452 749.057C890.437 758.642 901.639 768.737 912.542 779.425C912.081 780.303 911.62 781.181 911.145 782.085C910.527 781.477 909.91 780.868 909.274 780.242C875.069 746.688 838.478 724.339 790.963 711.591C796.94 686.018 810.714 662.122 828.694 642.427C829.669 641.338 830.643 640.249 831.648 639.128C848.383 620.879 867.617 605.893 891.58 597.204C892.924 596.683 894.268 596.162 895.652 595.625C925.829 585.562 958.946 591.66 986.607 605.185ZM850.617 652.984C840.945 664.964 840.945 664.964 838.477 679.42C839.44 684.191 840.702 687.885 844.066 691.64C849.748 695.125 854.126 696.757 860.836 695.63C870.044 690.808 877.502 684.31 884.942 677.342C893.379 669.603 901.954 662.497 911.379 655.878C921.612 649.305 921.612 649.305 927.084 639.408C927.42 632.644 927.42 632.644 924.786 626.528C919.564 621.447 915.081 619.618 907.564 619.4C884.949 619.712 864.353 637.364 850.617 652.984Z" fill="#F7EBD3"/>
<path d="M733.914 441.586C739.236 443.396 743.477 445.7 748.064 448.818C749.829 450.009 749.829 450.009 751.629 451.224C753.722 452.669 755.79 454.15 757.814 455.682C760.571 457.686 760.571 457.686 763.955 458.643C769.06 460.797 772.518 464.206 776.363 467.938C777.163 468.709 777.963 469.48 778.787 470.275C792.851 484.072 803.385 499.095 812.66 516.07C813.337 517.299 813.337 517.299 814.027 518.553C825.342 539.382 832.621 561.917 835.158 585.234C835.35 586.61 835.35 586.61 835.547 588.013C836.017 593.563 835.389 595.611 831.604 599.938C830.03 601.216 828.43 602.465 826.809 603.689C825.11 605.076 823.414 606.466 821.723 607.861C820.889 608.537 820.056 609.214 819.197 609.91C791.599 632.823 773.698 666.873 763.444 699.621C762.518 702.285 761.585 704.946 760.632 707.602C759.134 707.747 757.637 707.893 756.094 708.043C713.634 712.346 677.37 726.103 644.206 751.806C640.498 754.616 636.684 757.077 632.671 759.475C632.294 758.442 631.917 757.41 631.528 756.347C621.728 730.794 605.422 709.071 585.524 689.676C583.555 687.749 581.62 685.791 579.687 683.832C550.813 655.264 509.178 633.856 468.149 626.467C468.613 623.394 469.077 620.322 469.556 617.156C477.694 616.939 484.988 617.599 492.933 619.234C494.652 619.586 494.652 619.586 496.405 619.945C524.965 626.053 551.816 636.24 578.053 648.39C621.424 668.41 671.458 678.585 718.447 663.709C746.591 654.057 769.281 637.2 783.13 611.836C798.326 579.784 793.035 542.743 780.301 510.777C770.403 487.389 755.509 464.435 735.656 447.447C733.914 445.576 733.914 445.576 733.914 441.586Z" fill="#EEDBB8"/>
<path d="M870.618 788.736C872.902 790.586 875.182 792.441 877.447 794.311C879.372 795.879 881.326 797.416 883.31 798.915C906.706 817.251 925.977 850.15 930.36 878.782C932.333 903.58 931.172 924.216 914.447 944.465C901.464 958.054 883.14 965.703 865.028 970.957C864.019 971.265 863.009 971.573 861.968 971.891C853.867 974.31 845.915 976.042 837.51 977.166C836.254 977.334 834.998 977.502 833.704 977.675C820.381 979.311 807.134 979.495 793.717 979.385C789.659 979.353 785.602 979.357 781.544 979.366C757.52 979.334 733.243 978.325 709.735 973.285C708.351 972.996 706.966 972.708 705.539 972.411C640.041 958.387 640.041 958.387 621.87 936.375C620.032 934.796 618.166 933.247 616.28 931.72C612.009 928.253 608.419 924.756 605.101 920.414C605.792 919.097 605.792 919.097 606.498 917.754C607.199 918.318 607.9 918.882 608.622 919.463C633.056 937.49 668.705 942.681 698.73 945.686C700.204 945.833 701.678 945.98 703.196 946.132C757.259 950.469 821.197 947.698 864.985 913.151C882.229 897.775 892.698 878.067 893.632 855.39C893.96 831.52 887.799 809.306 870.618 791.396C870.618 790.519 870.618 789.641 870.618 788.736Z" fill="#EDDBB7"/>
<path d="M568.767 722.232C582.63 734.227 590.801 750.711 598.965 766.478C600.893 770.262 600.893 770.262 603.703 774.105C606.118 779.669 607.012 782.982 605.101 788.736C602.853 791.872 600.572 794.821 598.113 797.797C586.019 813.025 577.137 829.052 569.674 846.752C563.784 860.719 557.4 865.722 542.963 871.965C530.921 876.84 518.651 880.421 505.881 883.172C503.238 883.771 503.238 883.771 500.542 884.382C458.593 892.955 406.323 888.832 367.532 871.201C366.106 869.899 364.707 868.569 363.34 867.211C361.101 866.019 358.825 864.889 356.527 863.803C340.4 855.609 325.21 844.086 314.429 829.969C315.12 828.652 315.12 828.652 315.826 827.309C317.266 828.096 318.705 828.883 320.188 829.693C334.177 837.159 347.67 842.631 363.34 845.93C364.352 846.146 365.363 846.361 366.406 846.584C419.746 857.346 483.346 850.309 529.638 821.988C550.525 808.523 567.524 790.258 572.959 766.125C573.306 761.197 573.282 756.266 573.308 751.328C573.337 750.004 573.366 748.681 573.396 747.317C573.445 738.295 572.023 730.705 568.767 722.232Z" fill="#EDDAB7"/>
<path d="M982.415 606.516C989.141 605.781 992.123 607.867 997.35 611.753C998.079 612.294 998.807 612.835 999.557 613.393C1031.64 637.51 1051.19 668.881 1056.48 707.602C1058.33 729.72 1054.54 751.585 1040.05 769.367C1023.55 787.312 1000.75 795.057 976.825 799.377C975.769 799.603 974.712 799.83 973.624 800.062C966.291 801.312 958.848 801.376 951.416 801.538C949.438 801.594 947.461 801.675 945.485 801.784C929.034 802.669 929.034 802.669 922.753 797.775C919.956 794.434 917.617 791.079 915.337 787.407C914.415 786.529 913.492 785.651 912.542 784.746C912.223 783.793 911.904 782.84 911.576 781.858C908.883 776.319 904.609 772.676 900.052 768.453C899.12 767.576 898.187 766.699 897.227 765.795C890.477 759.519 883.491 753.735 876.039 748.221C874.739 747.208 874.739 747.208 873.413 746.174C873.413 745.735 873.413 745.296 873.413 744.844C882.057 745.893 890.424 747.662 898.903 749.551C928.207 755.935 961.151 756.486 987.595 741.503C1001.52 732.898 1010.56 719.817 1015.95 704.942C1021.68 676.392 1015.41 650.221 999.01 626.088C994.403 619.917 989.603 614.354 983.812 609.176C983.121 607.859 983.121 607.859 982.415 606.516Z" fill="#EDDAB6"/>
<path d="M654.838 431.092C660.543 435.784 662.977 438.757 665.191 445.785C665.191 454.097 663.234 460.569 658.025 467.179C647.828 476.653 633.888 482.362 621.567 488.677C599.258 500.132 580.122 512.938 561.27 529.467C540.954 547.208 540.954 547.208 526.614 546.405C518.741 545.228 513.809 542.708 508.563 536.791C504.973 527.658 505.097 520.304 508.274 510.996C524.441 475.461 561.942 449.572 597.519 435.644C614.447 429.329 637.625 422.287 654.838 431.092Z" fill="#FDF5E5"/>
<path d="M757.212 765.897C762.245 769.409 765.468 771.946 766.831 777.62C766.874 778.826 766.916 780.033 766.96 781.276C767.041 782.469 767.122 783.662 767.206 784.891C764.966 792.606 758.991 797.649 751.626 801.932C747.198 804.125 742.718 806.174 738.185 808.19C718.819 817.184 702.41 827.332 685.87 839.988C669.263 852.652 669.263 852.652 660.015 853.91C652.502 852.773 646.477 850.396 641.55 845.134C639.151 838.269 639.623 831.828 642.839 825.299C648.931 814.972 655.767 806.099 665.545 798.327C666.879 797.226 666.879 797.226 668.239 796.102C688.486 779.763 727.902 752.03 757.212 765.897Z" fill="#FDF5E5"/>
<path d="M416.849 679.973C421.735 682.764 424.459 685.116 426.434 690.542C427.407 696.47 428.843 699.873 425.71 705.04C424.578 713.017 409.96 719.022 401.839 725.228C387.32 736.417 375.047 748.215 364.194 762.989C359.512 769.211 354.547 774.615 346.68 776.58C339.421 776.459 335.317 778.748 329.5 770.031C325.232 763.637 323.562 757.446 324.436 749.843C331.579 723.636 351.41 700.414 374.349 686.206C379.549 683.481 384.476 680.425 390.264 680.425C391.48 679.898 392.696 679.371 393.949 678.827C401.747 675.987 409.329 676.556 416.849 679.973Z" fill="#FDF6E6"/>
<path d="M917.958 621.48C918.938 622.248 919.918 623.016 920.928 623.807C921.994 624.493 923.061 625.179 924.159 625.886C927.368 630.296 927.192 633.797 927.26 639.056C925.508 647.012 918.125 651.439 911.669 656.062C901.663 663.389 892.329 671.242 883.147 679.489C882.049 680.466 882.049 680.466 880.929 681.463C878.862 683.305 876.806 685.158 874.751 687.012C869.25 691.404 863.862 695.152 856.644 696.297C851.072 695.413 846.988 693.811 842.67 690.311C838.705 684.297 837.65 679.174 838.827 672.277C845.606 651.274 867.434 635.04 886.635 624.597C896.295 619.812 907.58 617.185 917.958 621.48Z" fill="#FDF6E5"/>
<path d="M1083.03 678.34C1085.98 682.546 1086.3 684.334 1086.7 689.23C1086.8 690.428 1086.91 691.627 1087.02 692.862C1087.09 693.775 1087.15 694.689 1087.22 695.631C1088.61 696.07 1089.99 696.509 1091.42 696.961C1090.49 696.961 1089.57 696.961 1088.62 696.961C1088.82 698.901 1089.02 700.841 1089.23 702.78C1089.35 703.86 1089.46 704.94 1089.58 706.053C1089.87 708.988 1089.87 708.988 1091.42 711.592C1091.29 714.994 1091.09 718.344 1090.81 721.734C1090.73 722.673 1090.66 723.613 1090.58 724.581C1090.4 726.902 1090.21 729.223 1090.02 731.543C1089.1 731.543 1088.17 731.543 1087.22 731.543C1087.15 730.618 1087.07 729.693 1086.99 728.739C1086.64 724.52 1086.27 720.3 1085.91 716.081C1085.79 714.625 1085.67 713.169 1085.55 711.67C1085.36 709.548 1085.36 709.548 1085.18 707.383C1085.07 706.088 1084.96 704.792 1084.84 703.457C1084.41 699.481 1083.73 695.582 1083.03 691.641C1082.94 689.259 1082.91 686.874 1082.94 684.491C1082.96 683.329 1082.97 682.167 1082.98 680.969C1083 680.101 1083.02 679.234 1083.03 678.34Z" fill="#807056"/>
<path d="M424.828 555.973C425.289 555.973 425.75 555.973 426.226 555.973C426.687 559.484 427.148 562.995 427.623 566.613C427.162 566.613 426.701 566.613 426.226 566.613C424.637 572.626 424.649 578.522 424.692 584.678C424.695 586.303 424.695 586.303 424.698 587.96C424.705 591.402 424.723 594.844 424.741 598.286C424.748 600.626 424.754 602.967 424.76 605.308C424.774 611.031 424.801 616.753 424.828 622.477C413.068 623.135 413.068 623.135 401.071 623.807C401.071 623.368 401.071 622.929 401.071 622.477C408.563 620.975 415.819 621.018 423.431 621.146C422.971 619.797 422.511 618.448 422.037 617.059C420.581 612.185 420.385 607.844 420.57 602.759C420.63 601.061 420.689 599.363 420.75 597.613C420.867 594.983 420.867 594.983 420.985 592.3C421.041 590.573 421.097 588.846 421.154 587.066C421.566 576.511 422.683 566.337 424.828 555.973Z" fill="#6A5236"/>
</svg>
