<?xml version="1.0" standalone="no"?>
<!DOCTYPE svg PUBLIC "-//W3C//DTD SVG 20010904//EN"
 "http://www.w3.org/TR/2001/REC-SVG-20010904/DTD/svg10.dtd">
<svg version="1.0" xmlns="http://www.w3.org/2000/svg"
 width="1024.000000pt" height="1024.000000pt" viewBox="0 0 1024.000000 1024.000000"
 preserveAspectRatio="xMidYMid meet">

<g transform="translate(0.000000,1024.000000) scale(0.100000,-0.100000)"
fill="#000000" stroke="none">
<path d="M5405 9049 c-32 -5 -91 -24 -130 -42 -103 -49 -620 -347 -990 -570
-240 -145 -536 -351 -810 -563 -361 -280 -676 -610 -895 -939 -29 -44 -54 -82
-56 -84 -2 -2 -54 45 -116 103 -127 119 -243 210 -303 237 -51 24 -129 24
-180 0 -90 -40 -141 -134 -228 -416 -105 -342 -105 -342 48 -640 115 -224 142
-290 250 -602 42 -120 85 -242 97 -271 l21 -54 -43 -89 c-24 -49 -46 -89 -48
-89 -3 0 -57 46 -121 103 -147 131 -357 299 -441 354 -120 78 -214 79 -288 5
-43 -43 -62 -96 -62 -175 0 -82 23 -178 95 -396 35 -108 98 -317 140 -466 114
-401 200 -621 304 -777 94 -140 341 -348 633 -534 l97 -61 -64 -6 c-67 -6
-304 -63 -408 -98 -291 -97 -400 -249 -275 -385 51 -56 138 -98 323 -158 212
-69 836 -210 1240 -281 461 -81 412 -67 590 -160 208 -108 277 -136 622 -251
313 -105 488 -172 628 -242 122 -61 247 -108 349 -132 46 -11 138 -36 203 -55
168 -52 221 -39 327 75 125 136 238 334 238 419 0 84 -72 210 -193 336 l-39
41 102 17 c57 9 166 28 243 41 126 22 442 66 799 111 295 38 454 104 609 254
81 78 168 190 342 441 168 242 303 422 494 658 342 424 446 566 540 743 65
121 131 320 131 393 0 216 -192 244 -730 106 -63 -16 -116 -27 -118 -26 -1 2
21 21 50 41 341 244 690 652 788 923 48 132 37 202 -43 266 -33 26 -46 30
-120 34 -125 6 -438 -45 -716 -119 -62 -16 -117 -29 -121 -27 -4 2 10 43 31
91 140 316 389 1228 406 1482 11 162 -59 222 -213 180 -123 -33 -307 -153
-864 -562 -377 -276 -484 -353 -486 -350 -2 2 1 32 6 67 5 36 13 118 16 183
l7 119 71 96 c171 235 236 367 357 721 74 215 112 374 106 438 -10 98 -62 139
-165 131 -50 -3 -75 -13 -167 -67 -182 -106 -1095 -691 -1485 -951 -353 -236
-355 -236 -346 -214 8 21 106 409 256 1012 108 435 116 489 80 548 -23 37 -85
65 -185 83 -66 12 -104 12 -190 0z m-50 -211 c-33 -17 -141 -76 -240 -132 -99
-56 -231 -131 -293 -166 -70 -38 -109 -66 -102 -70 9 -5 9 -9 1 -14 -6 -4 -11
-2 -11 4 0 7 -6 10 -12 7 -7 -2 -12 -10 -10 -16 1 -7 -2 -10 -7 -7 -5 3 -17 3
-26 0 -13 -6 -14 -9 -3 -16 10 -8 9 -9 -4 -5 -10 4 -51 -15 -100 -45 -46 -28
-98 -59 -115 -70 -18 -11 -33 -22 -33 -24 0 -5 54 19 60 27 11 14 143 90 147
85 3 -3 14 -1 25 5 11 6 26 8 35 5 11 -5 3 -16 -33 -46 -27 -22 -53 -40 -59
-40 -6 0 -16 -9 -23 -21 -8 -12 18 2 65 35 64 45 77 59 75 78 -2 13 -1 20 3
16 4 -4 26 5 49 19 24 15 35 19 27 10 -26 -32 4 -16 89 48 191 142 497 335
532 335 7 0 -53 -37 -132 -83 -80 -45 -192 -117 -250 -159 -58 -43 -170 -123
-250 -179 -456 -321 -774 -561 -1225 -924 -120 -96 -435 -395 -549 -520 -222
-244 -249 -272 -205 -215 24 30 67 83 97 117 29 34 53 65 53 70 -1 4 3 8 8 8
5 0 13 4 18 9 5 5 3 6 -4 2 -17 -9 -16 -1 3 36 9 16 11 27 4 23 -7 -5 -9 1 -4
19 7 29 -7 34 -26 11 -10 -12 -10 -15 1 -15 9 -1 8 -5 -5 -15 -17 -13 -18 -15
-3 -15 9 0 17 -7 17 -15 0 -18 -12 -19 -27 -4 -6 6 -17 9 -25 6 -9 -4 -5 -8 9
-12 28 -9 28 -13 2 -45 -20 -24 -20 -24 -9 -2 10 19 8 27 -6 43 -16 18 -18 18
-36 3 -20 -19 -25 -39 -5 -28 7 4 9 3 4 -2 -5 -5 -12 -9 -17 -9 -9 0 -57 -61
-118 -151 l-41 -61 24 -23 c13 -12 28 -19 34 -16 7 4 8 1 5 -8 -8 -22 -11 -21
-47 15 -36 36 -42 20 77 188 238 335 532 635 867 887 348 262 584 420 969 649
268 160 678 391 752 425 67 31 70 22 3 -12z m-564 -338 c-13 -11 -28 -20 -34
-20 -13 0 -4 9 25 26 33 18 36 16 9 -6z m278 -37 c-13 -14 -39 -40 -56 -56
-18 -16 -31 -33 -28 -37 3 -4 -2 -13 -10 -20 -8 -7 -15 -9 -15 -5 0 21 -366
-328 -509 -486 -175 -193 -411 -489 -558 -701 -41 -60 -77 -108 -79 -108 -10
0 150 227 264 375 261 338 398 488 787 856 209 198 259 243 204 182z m2342
-70 c-8 -14 -9 -11 -5 15 4 17 4 32 1 32 -6 0 -196 -120 -385 -243 -85 -55
-92 -62 -76 -74 10 -7 13 -13 7 -13 -7 0 -15 5 -18 10 -3 6 -11 10 -16 10 -6
0 -7 -5 -4 -10 4 -6 3 -10 -2 -9 -28 5 -36 -2 -17 -16 13 -11 14 -14 4 -13 -8
2 -18 7 -21 12 -9 12 -31 -3 -23 -16 4 -7 2 -8 -4 -4 -11 7 -147 -72 -138 -81
2 -3 33 14 67 38 35 23 64 38 66 32 2 -6 13 -8 25 -5 18 4 20 2 16 -16 -4 -12
-3 -20 0 -18 68 36 185 109 296 184 77 51 133 86 126 78 -21 -26 -234 -166
-440 -291 -384 -231 -604 -372 -733 -469 -482 -361 -836 -591 -1107 -720 -169
-80 -453 -206 -457 -203 -3 4 317 156 369 176 41 15 172 81 178 89 3 4 16 13
30 20 l25 11 -28 -5 c-28 -6 -28 -6 -23 35 2 22 1 41 -2 41 -10 -1 -148 -80
-139 -80 4 0 30 11 57 25 28 14 50 23 50 20 0 -2 -18 -14 -40 -25 -22 -11 -40
-25 -40 -31 0 -6 -6 -6 -18 0 -22 12 -107 -28 -437 -204 -264 -141 -415 -239
-622 -404 -37 -30 -57 -42 -43 -26 31 33 212 170 338 254 100 67 292 173 652
361 287 150 383 208 835 507 490 324 1330 864 1665 1071 l35 21 3 -24 c2 -13
-1 -32 -7 -42z m-2501 -118 c-24 -25 -46 -45 -49 -45 -3 0 15 20 39 45 24 25
46 45 49 45 3 0 -15 -20 -39 -45z m-70 -78 c0 -1 -24 -25 -52 -52 l-53 -50 50
53 c46 48 55 57 55 49z m2134 -102 c-10 -8 -23 -14 -29 -14 -5 0 -1 6 9 14 11
8 24 15 30 15 5 0 1 -7 -10 -15z m-2263 -32 c-5 -10 -33 -40 -62 -68 l-53 -50
60 67 c64 72 70 77 55 51z m-216 -243 c-53 -60 -99 -110 -103 -110 -6 0 -4 2
112 133 43 48 80 87 83 87 2 0 -39 -49 -92 -110z m-115 -134 c0 -2 -8 -10 -17
-17 -16 -13 -17 -12 -4 4 13 16 21 21 21 13z m-30 -39 c0 -2 -12 -14 -27 -28
l-28 -24 24 28 c23 25 31 32 31 24z m4077 -79 c-3 -7 -5 -2 -5 12 0 14 2 19 5
13 2 -7 2 -19 0 -25z m-82 14 c-6 -5 -53 -37 -105 -72 -100 -67 -262 -181
-395 -278 -44 -32 -149 -108 -233 -169 -84 -61 -149 -113 -145 -115 5 -3 3 -4
-3 -2 -5 1 -21 -7 -35 -18 -21 -17 -21 -18 -2 -9 27 14 33 14 33 1 0 -5 -8
-10 -18 -10 -10 0 -24 -6 -31 -12 -11 -11 -12 -10 -6 1 5 9 3 12 -6 9 -8 -3
-13 -15 -13 -26 1 -12 -3 -22 -8 -22 -6 0 -7 7 -4 16 4 10 1 14 -6 11 -7 -2
-12 -13 -10 -23 2 -15 1 -16 -7 -5 -8 12 -12 12 -25 2 -21 -17 -10 -34 16 -25
26 8 14 -14 -12 -24 -16 -6 -16 -10 -6 -24 12 -16 15 -16 32 -2 19 15 19 16
-1 10 -19 -6 -19 -5 1 11 12 10 24 25 27 33 4 10 6 7 6 -7 1 -13 -4 -23 -11
-23 -6 0 -9 -3 -6 -6 9 -9 56 25 54 39 -1 7 -5 18 -9 25 -5 7 -2 12 7 13 25 2
30 4 51 16 11 7 16 13 12 13 -4 0 4 12 18 26 14 14 28 24 31 21 2 -2 -2 -10
-10 -16 -16 -13 -11 -45 5 -35 5 3 7 10 4 15 -3 5 0 6 8 3 8 -3 20 3 28 12 12
16 12 17 -4 11 -11 -4 -16 -3 -12 4 4 6 13 8 21 5 19 -7 116 62 107 76 -3 6
-1 8 5 5 13 -9 379 235 457 304 76 69 210 175 180 142 -18 -18 -158 -137 -230
-194 -38 -31 -151 -111 -250 -178 -99 -66 -245 -169 -325 -227 -310 -226 -512
-355 -740 -472 -80 -41 -189 -101 -243 -133 -54 -32 -95 -54 -92 -50 7 13 184
115 365 211 170 90 470 283 470 301 0 7 3 9 6 6 10 -10 45 13 38 24 -3 6 -15
9 -25 6 -18 -5 -18 -4 1 23 25 35 10 49 -27 25 -21 -14 -23 -19 -12 -27 11 -8
10 -9 -4 -4 -20 6 -70 -21 -62 -34 8 -13 -22 -31 -40 -23 -14 5 -16 3 -10 -7
5 -8 4 -11 -2 -7 -13 8 -546 -312 -693 -416 -60 -43 -246 -201 -412 -352 -467
-421 -470 -424 -358 -314 100 100 300 282 535 489 200 176 265 221 688 476
222 133 486 312 811 547 288 208 619 437 633 437 4 0 3 -4 -2 -8z m-4128 -95
c-117 -149 -189 -237 -195 -237 -3 0 2 8 10 18 16 19 103 128 191 240 32 39
60 72 62 72 3 0 -28 -42 -68 -93z m-297 -390 c0 -2 -10 -12 -22 -23 l-23 -19
19 23 c18 21 26 27 26 19z m-56 -72 c-9 -14 -18 -25 -21 -25 -5 0 5 18 20 38
17 22 18 13 1 -13z m-84 -30 c-17 -25 -33 -45 -36 -45 -3 0 9 20 26 45 17 25
33 45 36 45 3 0 -9 -20 -26 -45z m-1681 -11 c225 -169 699 -644 1228 -1230
127 -140 181 -207 178 -220 -2 -13 11 -32 43 -59 l47 -39 -42 45 c-47 49 -59
77 -17 38 22 -20 272 -305 699 -799 229 -265 376 -454 445 -574 52 -91 100
-196 100 -218 -1 -7 -12 14 -25 47 -55 134 -123 241 -260 413 -54 68 -101 119
-104 113 -4 -6 -12 -2 -20 10 -7 12 -8 18 -2 14 23 -14 9 9 -40 66 -29 32 -56
56 -61 53 -14 -9 -40 4 -33 16 5 8 12 7 23 -2 13 -11 14 -11 5 7 -14 25 -53
61 -53 49 0 -6 5 -15 12 -22 9 -9 8 -12 -4 -12 -8 0 -22 8 -29 17 -8 9 -9 14
-3 10 7 -4 15 1 18 10 8 19 -32 66 -47 56 -6 -3 -7 -2 -4 4 7 11 -52 87 -61
78 -3 -3 5 -17 19 -32 19 -21 20 -25 6 -20 -10 4 -23 7 -29 7 -6 0 -8 13 -6
30 3 17 1 33 -4 36 -4 3 -8 -3 -9 -13 0 -14 -2 -14 -9 5 -5 12 -12 22 -16 22
-3 0 -4 -7 -1 -14 8 -21 -21 -8 -33 15 -16 28 -12 34 10 14 11 -10 20 -15 20
-10 0 4 7 2 15 -5 27 -22 16 5 -13 33 -23 22 -31 25 -42 14 -12 -10 -12 -9 -2
4 10 13 8 21 -9 43 -12 15 -24 25 -27 22 -8 -9 -32 15 -26 26 4 5 -11 29 -33
51 -22 23 -92 103 -155 177 -64 74 -126 144 -139 155 -13 11 22 -32 77 -95
153 -177 184 -217 176 -225 -4 -5 -2 -5 5 -2 6 4 22 -7 37 -25 l26 -33 -29
-12 c-16 -7 -32 -17 -36 -23 -4 -6 23 -44 60 -85 54 -61 70 -73 84 -66 11 6
23 6 32 0 12 -8 12 -10 -1 -8 -29 3 -41 -1 -35 -11 4 -6 10 -8 14 -6 4 3 13 1
21 -5 12 -7 12 -9 2 -9 -8 0 25 -42 73 -94 48 -52 92 -93 98 -92 7 2 8 1 4 -2
-15 -7 24 -41 41 -35 14 4 14 3 3 -5 -11 -8 5 -32 80 -119 179 -204 290 -355
353 -480 38 -76 24 -65 -20 15 -107 193 -307 437 -655 798 -75 78 -246 274
-381 435 -135 162 -262 310 -282 328 -37 36 -52 68 -16 36 11 -10 20 -13 20
-8 0 11 -29 27 -42 25 -3 -1 -66 64 -140 145 -249 274 -400 433 -410 433 -6 0
-3 -11 5 -24 9 -13 29 -59 46 -102 43 -111 175 -370 252 -493 68 -110 196
-275 313 -405 39 -44 62 -73 51 -66 -11 7 -54 50 -94 96 -41 46 -77 81 -80 79
-2 -3 3 -13 12 -23 10 -10 17 -25 17 -33 0 -8 -6 -3 -13 10 -12 24 -29 30 -35
13 -2 -6 59 -72 135 -149 76 -76 106 -110 68 -76 -122 107 -253 250 -406 443
-156 197 -270 385 -425 707 -147 304 -199 376 -468 653 -89 90 -142 149 -119
130 80 -68 325 -328 399 -426 41 -54 91 -131 111 -171 21 -39 40 -70 44 -67 4
2 6 -2 5 -9 0 -6 10 -38 24 -69 18 -42 29 -56 41 -53 16 5 18 0 22 -52 1 -16
8 -43 16 -61 11 -25 16 -30 23 -20 7 10 8 8 4 -4 -9 -28 3 -46 26 -40 14 3 19
1 14 -6 -4 -7 -3 -12 3 -12 5 0 13 5 16 10 7 11 25 4 25 -9 0 -9 -42 -8 -57 2
-18 11 -16 3 5 -33 10 -16 22 -27 26 -23 4 4 4 0 0 -10 -5 -13 -2 -16 12 -11
14 4 16 3 5 -4 -16 -11 -7 -32 14 -32 8 0 17 -4 20 -10 3 -6 -1 -7 -9 -4 -24
9 -21 2 35 -86 47 -73 69 -100 56 -67 -2 6 6 20 19 30 13 10 24 13 24 7 0 -6
-6 -13 -14 -16 -22 -8 -15 -65 12 -99 12 -17 19 -22 16 -12 -9 24 3 21 17 -4
8 -17 8 -20 -1 -14 -8 5 -11 3 -8 -6 3 -8 11 -13 17 -11 6 1 10 -3 9 -10 -2
-7 2 -12 9 -13 6 0 15 -4 20 -9 5 -5 3 -6 -4 -2 -23 13 -14 -3 39 -72 91 -118
171 -203 181 -193 10 10 0 34 -12 27 -4 -3 -8 1 -8 9 0 8 4 15 9 15 4 0 8 -5
8 -12 0 -6 3 -9 6 -6 7 7 -106 154 -116 151 -4 -1 -7 4 -7 10 0 19 -34 67 -43
62 -5 -3 -12 0 -16 6 -4 8 -3 9 4 5 17 -10 14 6 -5 29 -10 13 -14 15 -10 4 3
-9 1 -22 -4 -30 -6 -10 -9 -6 -9 14 0 19 -4 26 -12 21 -7 -4 -8 -3 -4 5 4 6
12 8 18 5 6 -4 9 -1 6 7 -3 8 -15 14 -27 14 -12 0 -27 8 -32 18 -8 13 -6 17 7
17 9 0 14 -6 11 -13 -3 -8 1 -14 9 -14 8 0 14 2 14 3 0 2 -29 56 -64 121 -35
65 -78 151 -97 190 -23 51 -36 69 -42 60 -6 -8 -7 -7 -4 4 6 19 -34 136 -59
175 -22 33 -5 56 28 35 18 -11 20 -11 15 3 -9 22 -4 20 24 -11 13 -15 16 -21
6 -14 -38 30 -22 3 36 -61 34 -36 97 -105 141 -152 43 -47 82 -83 86 -81 4 3
14 -3 21 -13 13 -15 12 -16 -3 -3 -10 7 -18 9 -18 3 0 -15 26 -33 35 -24 5 4
5 2 2 -4 -9 -15 29 -49 38 -35 3 6 11 11 18 11 6 0 3 -6 -7 -13 -16 -12 -16
-14 2 -31 28 -24 41 6 19 42 -5 6 -5 17 -1 23 4 7 20 -2 43 -23 34 -32 35 -32
11 -3 -63 77 -82 93 -102 87 -15 -3 -19 -1 -14 7 4 6 13 8 19 4 7 -3 4 3 -6
15 -12 13 -25 18 -35 14 -14 -5 -15 -3 -5 9 11 13 7 21 -19 45 -22 20 -29 24
-25 11 4 -11 3 -16 -4 -12 -6 4 -8 13 -5 20 6 17 -142 177 -156 168 -7 -3 -8
-1 -4 6 9 14 -312 343 -327 334 -6 -3 -7 -1 -3 5 15 25 -508 502 -550 502 -7
0 -19 -7 -28 -15 -22 -22 -32 -18 -11 5 27 29 46 25 114 -26z m1632 -61 c-5
-10 -17 -27 -26 -38 -16 -19 -17 -19 -3 5 26 46 29 50 34 50 3 0 0 -8 -5 -17z
m1624 -113 c-15 -16 -33 -28 -39 -27 -6 1 -10 -3 -9 -10 2 -7 -3 -10 -10 -7
-11 4 -55 -27 -292 -205 -131 -99 -363 -253 -500 -331 -60 -35 -139 -81 -175
-103 -36 -22 -76 -46 -90 -55 l-25 -14 24 20 c14 11 96 62 183 113 222 132
465 294 655 436 153 116 291 213 302 213 2 0 -8 -13 -24 -30z m-1725 -50 c-6
-11 -13 -20 -16 -20 -2 0 0 9 6 20 6 11 13 20 16 20 2 0 0 -9 -6 -20z m-50
-80 c-6 -11 -13 -20 -16 -20 -2 0 0 9 6 20 6 11 13 20 16 20 2 0 0 -9 -6 -20z
m1660 17 c0 -2 -10 -12 -22 -23 l-23 -19 19 23 c18 21 26 27 26 19z m440 -53
c-39 -45 -293 -221 -530 -366 -144 -88 -480 -267 -435 -232 11 8 61 36 110 61
151 77 439 247 570 338 81 56 195 139 240 174 55 44 64 49 45 25z m-2135 -24
c-9 -16 -18 -30 -21 -30 -2 0 2 14 11 30 9 17 18 30 21 30 2 0 -2 -13 -11 -30z
m1629 19 c-15 -25 -534 -387 -616 -430 -43 -22 -14 -2 202 143 119 80 261 179
315 221 105 80 110 84 99 66z m-644 -59 c-19 -11 -39 -19 -45 -19 -5 0 6 8 25
19 19 11 40 19 45 19 6 0 -6 -8 -25 -19z m-1051 -80 c-18 -32 -35 -58 -37 -56
-4 5 58 116 65 116 2 0 -10 -27 -28 -60z m951 35 c-25 -13 -49 -24 -55 -24 -5
0 10 11 35 24 25 13 50 24 55 24 6 0 -10 -11 -35 -24z m1090 -38 c0 -2 -12
-14 -27 -28 l-28 -24 24 28 c23 25 31 32 31 24z m-1200 -11 c0 -2 -7 -7 -16
-10 -8 -3 -12 -2 -9 4 6 10 25 14 25 6z m1135 -46 c-5 -9 -144 -108 -175 -125
-30 -16 -1 7 86 70 96 68 98 70 89 55z m-2805 -140 c0 -5 -4 -10 -10 -10 -5 0
-10 5 -10 10 0 6 5 10 10 10 6 0 10 -4 10 -10z m2595 -6 c-26 -20 -55 -36 -55
-30 0 5 63 46 70 46 3 -1 -4 -8 -15 -16z m-2603 -38 c7 5 8 2 3 -6 -6 -9 -4
-12 7 -8 10 4 14 0 12 -15 -4 -32 -5 -34 -13 -14 -4 10 -9 17 -12 15 -10 -6
-39 30 -39 49 0 15 2 14 16 -5 8 -12 20 -19 26 -16z m88 -16 c12 -23 12 -24
-3 -11 -10 7 -17 20 -17 29 0 18 3 16 20 -18z m2450 16 c0 -4 -103 -67 -140
-86 -45 -23 -14 0 61 45 76 46 79 47 79 41z m-2385 -26 c3 -5 -1 -10 -10 -10
-9 0 -13 5 -10 10 3 6 8 10 10 10 2 0 7 -4 10 -10z m3630 -20 c-3 -5 -20 -19
-38 -30 -32 -22 -32 -22 3 9 37 32 45 37 35 21z m-3778 -20 c11 -16 10 -18 -1
-14 -15 6 -30 34 -18 34 4 0 13 -9 19 -20z m41 -15 c-3 -3 -9 2 -12 12 -6 14
-5 15 5 6 7 -7 10 -15 7 -18z m2307 -29 c-31 -21 -181 -100 -173 -91 10 11
171 103 183 104 5 1 1 -5 -10 -13z m1355 10 c0 -4 -256 -234 -295 -264 -39
-31 22 26 170 161 115 103 125 111 125 103z m-3630 -27 c0 -4 -7 -9 -15 -13
-9 -3 -15 0 -15 8 0 7 7 13 15 13 8 0 15 -4 15 -8z m0 -74 c0 -12 -19 -12 -23
0 -4 9 -1 12 9 8 7 -3 14 -7 14 -8z m30 1 c0 -3 -4 -8 -10 -11 -5 -3 -10 -1
-10 4 0 6 5 11 10 11 6 0 10 -2 10 -4z m1460 0 c0 -3 -15 -14 -32 -26 l-33
-22 30 26 c31 27 35 29 35 22z m599 -10 c-10 -9 -69 -36 -69 -32 0 7 52 35 64
36 5 0 7 -2 5 -4z m-2054 -46 c3 -5 1 -10 -4 -10 -6 0 -11 5 -11 10 0 6 2 10
4 10 3 0 8 -4 11 -10z m1364 -13 c-168 -142 -294 -242 -269 -215 15 17 284
238 289 238 3 0 -6 -11 -20 -23z m611 18 c0 -2 -18 -14 -40 -25 -22 -11 -40
-18 -40 -15 0 2 17 13 38 24 42 23 42 23 42 16z m4160 -2 c-152 -9 -500 -83
-835 -178 -196 -56 -388 -93 -600 -115 -110 -12 -227 -25 -260 -30 l-60 -8 70
0 c93 0 97 0 90 -12 -3 -5 -1 -10 4 -10 6 0 11 6 11 13 0 8 4 7 10 -3 8 -13
13 -13 31 -2 11 8 18 9 15 3 -3 -5 2 -12 11 -14 16 -4 -7 -8 -77 -11 -26 -1
-75 -25 -52 -26 18 0 224 31 242 36 8 3 46 7 85 9 107 6 275 40 430 86 292 86
339 99 347 97 8 -3 -171 -60 -404 -128 -103 -31 -218 -50 -578 -101 -278 -38
-594 -97 -805 -149 -185 -46 -650 -184 -775 -231 -47 -17 -206 -73 -355 -124
-148 -51 -282 -98 -297 -104 -45 -17 -300 -83 -304 -78 -3 2 17 10 43 16 125
31 664 208 680 225 2 2 -20 2 -49 0 -29 -2 -46 -1 -38 2 8 4 23 11 34 16 13 7
16 7 12 -1 -9 -14 7 -14 21 0 9 9 29 15 56 18 4 1 7 6 7 12 0 5 -4 7 -10 4 -6
-3 -7 1 -4 9 4 10 -1 18 -11 23 -17 6 -17 7 1 21 11 9 13 12 4 9 -63 -24 -468
-184 -560 -222 -144 -59 -522 -197 -527 -191 -2 2 31 16 74 31 142 51 424 161
718 280 478 193 735 280 1095 370 345 86 753 154 1115 185 165 14 366 55 624
125 380 104 631 154 756 152 62 -1 64 -1 15 -4z m128 -18 c-3 -3 -9 2 -12 12
-6 14 -5 15 5 6 7 -7 10 -15 7 -18z m-5872 -67 c4 -7 4 -10 -1 -6 -4 4 -13 0
-20 -9 -9 -13 -14 -13 -20 -3 -5 8 -4 11 2 7 6 -4 13 0 17 8 7 18 13 19 22 3z
m5617 5 c-7 -2 -21 -2 -30 0 -10 3 -4 5 12 5 17 0 24 -2 18 -5z m-60 -10 c-7
-2 -19 -2 -25 0 -7 3 -2 5 12 5 14 0 19 -2 13 -5z m-56 -9 c-3 -3 -12 -4 -19
-1 -8 3 -5 6 6 6 11 1 17 -2 13 -5z m-57 -14 c-14 -4 -34 -8 -45 -8 -16 0 -15
2 5 8 14 4 34 8 45 8 16 0 15 -2 -5 -8z m-5380 -39 c0 -13 -30 -35 -37 -27 -3
3 0 6 7 6 10 0 9 5 -3 18 -10 10 -14 21 -11 25 8 8 44 -10 44 -22z m5303 22
c-7 -2 -19 -2 -25 0 -7 3 -2 5 12 5 14 0 19 -2 13 -5z m-58 -12 c-11 -5 -36
-11 -55 -14 -35 -6 -34 -6 5 8 43 14 84 19 50 6z m-5600 -11 c3 -5 1 -10 -4
-10 -6 0 -11 5 -11 10 0 6 2 10 4 10 3 0 8 -4 11 -10z m351 -69 c0 -16 -3 -17
-14 -9 -12 10 -7 19 13 28 1 0 1 -9 1 -19z m-301 -51 c-3 -5 -12 -10 -18 -10
-7 0 -6 4 3 10 19 12 23 12 15 0z m4650 -30 c-28 -12 -37 -12 -30 0 3 6 16 10
28 9 21 0 21 -1 2 -9z m-50 -10 c-4 -6 -14 -8 -23 -6 -10 3 -47 2 -84 -2 -37
-5 -73 -5 -80 -1 -13 8 36 14 135 17 38 1 56 -2 52 -8z m138 -17 c-7 -2 -19
-2 -25 0 -7 3 -2 5 12 5 14 0 19 -2 13 -5z m-2093 -163 c0 -5 -10 -15 -22 -21
-23 -12 -23 -12 -4 10 21 23 26 26 26 11z m-2470 -20 c0 -5 -2 -10 -4 -10 -3
0 -8 5 -11 10 -3 6 -1 10 4 10 6 0 11 -4 11 -10z m23 -35 c-3 -9 -8 -14 -10
-11 -3 3 -2 9 2 15 9 16 15 13 8 -4z m-1698 -156 c122 -78 437 -334 823 -669
227 -196 280 -238 405 -321 67 -44 145 -100 172 -123 28 -24 91 -77 140 -118
50 -42 122 -106 160 -143 l70 -67 -84 73 c-186 164 -346 291 -469 373 -149 99
-155 103 -378 297 -175 150 -542 459 -674 565 -127 102 -242 175 -257 162 -11
-8 -12 -7 -7 6 3 9 9 16 13 16 3 0 42 -23 86 -51z m5355 -28 c-8 -5 -94 -37
-190 -71 -461 -164 -727 -286 -1017 -468 -124 -79 -236 -142 -249 -142 -5 0
50 34 121 76 72 42 164 98 205 124 203 128 514 269 895 406 216 78 271 95 235
75z m-145 -91 c-22 -10 -44 -18 -50 -18 -5 0 8 8 30 19 22 10 45 18 50 18 6 0
-8 -9 -30 -19z m-5105 -45 c13 -14 21 -25 18 -25 -2 0 -15 11 -28 25 -13 14
-21 25 -18 25 2 0 15 -11 28 -25z m5030 15 c-8 -5 -19 -10 -25 -10 -5 0 -3 5
5 10 8 5 20 10 25 10 6 0 3 -5 -5 -10z m-41 -14 c-2 -2 -44 -21 -94 -41 -122
-50 -121 -49 -113 -41 7 9 188 85 202 86 5 0 7 -2 5 -4z m-4754 -195 c55 -43
132 -105 171 -137 170 -141 315 -263 389 -329 44 -38 153 -124 243 -189 90
-66 166 -124 169 -129 3 -5 -20 10 -52 33 -33 24 -102 74 -154 112 -96 70
-142 107 -346 280 -192 162 -337 282 -425 351 -47 36 -112 92 -145 123 l-60
56 55 -46 c30 -25 100 -82 155 -125z m4456 68 c-46 -21 -87 -39 -90 -38 -9 1
153 78 164 78 6 0 -28 -18 -74 -40z m-3235 -50 c19 -40 72 -131 116 -203 91
-149 98 -161 69 -126 -47 58 -241 400 -226 400 2 0 21 -32 41 -71z m959 32
c-3 -6 -11 -8 -17 -5 -7 4 -8 2 -4 -5 4 -6 11 -9 16 -6 4 3 11 -1 13 -7 4 -8
6 -7 6 4 1 9 7 15 14 14 23 -3 36 -17 31 -31 -4 -8 -10 -12 -15 -9 -5 3 -9 0
-9 -6 0 -6 -4 -8 -10 -5 -6 3 -7 -1 -3 -10 4 -13 8 -14 14 -4 4 8 12 10 16 5
4 -5 2 -11 -5 -13 -6 -3 -9 -10 -6 -16 4 -7 -7 1 -24 17 -17 16 -28 34 -25 40
3 6 2 8 -2 3 -9 -8 -45 20 -45 35 0 13 44 27 54 18 4 -5 5 -13 1 -19z m2175
-26 c0 -5 -49 -31 -85 -45 -41 -16 -29 -2 23 24 47 25 62 30 62 21z m-121 -59
c-10 -9 -89 -46 -89 -41 0 6 72 44 84 45 5 0 7 -2 5 -4z m-1292 -22 c-3 -3
-12 -4 -19 -1 -8 3 -5 6 6 6 11 1 17 -2 13 -5z m1193 -28 c0 -2 -7 -7 -16 -10
-8 -3 -12 -2 -9 4 6 10 25 14 25 6z m2919 -10 c-2 -2 -65 -18 -139 -36 -523
-125 -1030 -275 -1890 -560 -268 -89 -319 -108 -669 -254 -140 -59 -256 -105
-258 -103 -8 9 579 250 756 311 424 147 1231 401 1556 490 103 28 494 125 600
149 28 6 49 8 44 3z m-236 -83 c-7 -2 -19 -2 -25 0 -7 3 -2 5 12 5 14 0 19 -2
13 -5z m-4382 -28 c5 4 9 1 9 -4 0 -6 -7 -11 -15 -11 -9 0 -15 9 -14 23 1 17
2 18 6 4 2 -9 9 -15 14 -12z m4336 19 c-3 -3 -12 -4 -19 -1 -8 3 -5 6 6 6 11
1 17 -2 13 -5z m-76 -20 c-25 -8 -47 -12 -49 -9 -5 5 56 23 78 23 8 0 -5 -6
-29 -14z m-81 -24 c-34 -11 -60 -11 -35 0 11 5 29 8 40 8 16 0 15 -2 -5 -8z
m-75 -20 c-11 -5 -27 -9 -35 -9 -9 0 -8 4 5 9 11 5 27 9 35 9 9 0 8 -4 -5 -9z
m-4095 -25 c13 -14 21 -25 18 -25 -2 0 -15 11 -28 25 -13 14 -21 25 -18 25 2
0 15 -11 28 -25z m4037 9 c-3 -3 -12 -4 -19 -1 -8 3 -5 6 6 6 11 1 17 -2 13
-5z m-122 -35 c-49 -16 -94 -28 -100 -28 -14 0 83 38 125 48 74 19 61 8 -25
-20z m-4808 -204 c48 -66 112 -151 142 -190 30 -38 47 -64 38 -56 -17 14 -57
66 -223 291 -70 95 -104 148 -65 100 11 -14 60 -79 108 -145z m4608 140 c-16
-8 -37 -14 -45 -14 -8 0 1 7 20 14 46 18 64 17 25 0z m-80 -25 c-27 -12 -43
-12 -25 0 8 5 22 9 30 9 10 0 8 -3 -5 -9z m-175 -59 c-8 -5 -26 -11 -40 -15
-21 -5 -20 -3 5 9 32 15 60 20 35 6z m-90 -36 c-14 -8 -29 -14 -35 -14 -5 0 1
6 15 14 14 8 30 14 35 14 6 0 -1 -6 -15 -14z m-65 -25 c-27 -12 -43 -12 -25 0
8 5 22 9 30 9 10 0 8 -3 -5 -9z m-46 -15 c-9 -8 -360 -127 -365 -123 -4 4 341
126 360 127 5 1 7 -1 5 -4z m-4129 -95 c6 -11 8 -20 6 -20 -3 0 -10 9 -16 20
-6 11 -8 20 -6 20 3 0 10 -9 16 -20z m3735 -40 c-27 -12 -43 -12 -25 0 8 5 22
9 30 9 10 0 8 -3 -5 -9z m-60 -20 c-27 -12 -43 -12 -25 0 8 5 22 9 30 9 10 0
8 -3 -5 -9z m-60 -20 c-27 -12 -43 -12 -25 0 8 5 22 9 30 9 10 0 8 -3 -5 -9z
m-2855 -20 c6 -11 8 -20 6 -20 -3 0 -10 9 -16 20 -6 11 -8 20 -6 20 3 0 10 -9
16 -20z m2761 -11 c-30 -10 -56 -17 -58 -15 -5 5 77 34 97 34 8 1 -9 -8 -39
-19z m504 12 c-43 -41 -845 -474 -845 -456 0 3 59 34 131 70 123 62 488 262
644 354 71 41 87 49 70 32z m-624 -52 c-30 -10 -56 -17 -58 -15 -5 5 77 34 97
34 8 1 -9 -8 -39 -19z m-3206 -19 c10 -11 16 -20 13 -20 -3 0 -13 9 -23 20
-10 11 -16 20 -13 20 3 0 13 -9 23 -20z m648 -67 c24 -43 77 -139 117 -213 84
-155 274 -476 333 -565 137 -205 342 -442 467 -539 19 -15 26 -23 15 -18 -45
23 -160 128 -235 215 -184 212 -401 548 -640 992 -56 105 -104 193 -107 198
-2 4 -2 7 0 7 3 0 25 -35 50 -77z m-1412 50 c13 -16 12 -17 -3 -4 -17 13 -22
21 -14 21 2 0 10 -8 17 -17z m3869 3 c0 -6 -93 -37 -97 -32 -2 2 15 11 39 19
47 17 58 19 58 13z m-3829 -33 c13 -16 12 -17 -3 -4 -17 13 -22 21 -14 21 2 0
10 -8 17 -17z m760 0 c13 -16 12 -17 -3 -4 -17 13 -22 21 -14 21 2 0 10 -8 17
-17z m-720 -30 c13 -16 12 -17 -3 -4 -17 13 -22 21 -14 21 2 0 10 -8 17 -17z
m3618 3 c-9 -8 -203 -76 -206 -72 -5 4 176 73 196 75 8 1 12 -1 10 -3z m-2215
-238 c150 -307 251 -484 355 -623 69 -92 224 -275 271 -320 23 -22 56 -58 73
-80 38 -50 25 -38 -107 104 -268 285 -441 557 -670 1054 -83 179 -37 100 78
-135z m-1363 205 c13 -16 12 -17 -3 -4 -17 13 -22 21 -14 21 2 0 10 -8 17 -17z
m4699 -67 c0 -3 -15 -14 -32 -26 l-33 -22 30 26 c31 27 35 29 35 22z m-70 -50
c0 -5 -251 -165 -291 -186 -49 -26 -8 3 137 95 155 98 154 98 154 91z m-2692
-91 c0 -5 -6 4 -13 20 -8 17 -14 37 -14 45 0 8 7 -1 14 -20 7 -19 13 -39 13
-45z m962 26 c-8 -5 -26 -11 -40 -15 -21 -5 -20 -3 5 9 32 15 60 20 35 6z
m-2540 -46 c19 -19 32 -35 29 -35 -3 0 -20 16 -39 35 -19 19 -32 35 -29 35 3
0 20 -16 39 -35z m1587 -17 c-3 -8 -6 -5 -6 6 -1 11 2 17 5 13 3 -3 4 -12 1
-19z m10 -50 c-3 -7 -5 -2 -5 12 0 14 2 19 5 13 2 -7 2 -19 0 -25z m-1457 -65
c0 -8 -9 0 -50 45 l-45 47 48 -45 c26 -24 47 -45 47 -47z m1497 -98 c-4 -11
-37 118 -36 137 0 7 9 -18 20 -57 10 -38 17 -74 16 -80z m2312 141 c-3 -3
-164 -101 -359 -219 -195 -117 -434 -262 -530 -322 -193 -119 -280 -169 -280
-161 0 3 19 15 42 27 23 12 65 36 92 54 171 111 1022 625 1035 625 2 0 2 -2 0
-4z m-2291 -231 c0 -16 -2 -15 -8 5 -4 14 -8 34 -8 45 0 16 2 15 8 -5 4 -14 8
-34 8 -45z m-1347 38 c13 -16 12 -17 -3 -4 -17 13 -22 21 -14 21 2 0 10 -8 17
-17z m1356 -85 c-3 -8 -6 -5 -6 6 -1 11 2 17 5 13 3 -3 4 -12 1 -19z m-144
-77 c27 -46 14 -38 -18 12 -16 23 -22 37 -14 30 8 -6 22 -25 32 -42z m1997 44
c0 -2 -10 -9 -22 -15 -22 -11 -22 -10 -4 4 21 17 26 19 26 11z m-1821 -75 c0
-9 -4 -8 -9 5 -5 11 -9 27 -9 35 0 9 4 8 9 -5 5 -11 9 -27 9 -35z m-1119 -67
c0 -8 -9 0 -50 45 l-45 47 48 -45 c26 -24 47 -45 47 -47z m1127 25 c-3 -8 -6
-5 -6 6 -1 11 2 17 5 13 3 -3 4 -12 1 -19z m1583 -13 c0 -2 -10 -9 -22 -15
-22 -11 -22 -10 -4 4 21 17 26 19 26 11z m-1517 -160 c19 -49 37 -99 41 -110
6 -16 6 -17 -3 -5 -13 17 -77 183 -85 220 -5 22 -5 22 4 5 5 -11 24 -60 43
-110z m-1068 25 c49 -49 87 -90 85 -90 -3 0 -46 41 -95 90 -49 50 -87 90 -85
90 3 0 46 -40 95 -90z m920 60 c9 -16 13 -30 11 -30 -3 0 -12 14 -21 30 -9 17
-13 30 -11 30 3 0 12 -13 21 -30z m1100 -220 c-3 -5 -12 -10 -18 -10 -7 0 -6
4 3 10 19 12 23 12 15 0z m-877 -139 c29 -51 22 -54 -9 -3 -13 20 -28 44 -33
52 -8 12 -7 13 5 3 8 -6 25 -30 37 -52z m87 -61 c130 -210 252 -358 482 -589
96 -95 163 -165 149 -155 -51 39 -195 169 -195 178 -1 5 -40 50 -88 100 -151
158 -307 364 -393 521 -47 84 -25 57 45 -55z m-596 -127 c40 -49 52 -66 27
-40 -51 54 -110 127 -103 127 3 0 37 -39 76 -87z m506 17 c27 -27 47 -50 44
-50 -3 0 -27 23 -54 50 -27 28 -47 50 -44 50 3 0 27 -22 54 -50z m218 -199
c-2 -3 -16 8 -31 24 l-27 28 31 -24 c17 -13 30 -26 27 -28z m124 -104 c4 -7
-19 10 -50 37 -31 27 -57 51 -57 53 0 7 98 -76 107 -90z m48 -37 c10 -11 16
-20 13 -20 -3 0 -13 9 -23 20 -10 11 -16 20 -13 20 3 0 13 -9 23 -20z m70 -60
c21 -22 37 -40 34 -40 -3 0 -23 18 -44 40 -21 22 -37 40 -34 40 3 0 23 -18 44
-40z m-4 -557 c13 -16 12 -17 -3 -4 -10 7 -18 15 -18 17 0 8 8 3 21 -13z m69
-58 c13 -14 21 -25 18 -25 -2 0 -15 11 -28 25 -13 14 -21 25 -18 25 2 0 15
-11 28 -25z"/>
<path d="M4719 8420 c-31 -25 -12 -26 21 0 14 11 20 20 14 20 -7 0 -22 -9 -35
-20z"/>
<path d="M4556 8348 c3 -4 12 -8 20 -8 8 0 14 4 14 8 0 4 -9 8 -19 8 -11 0
-17 -4 -15 -8z"/>
<path d="M4500 8312 c-19 -9 -25 -42 -8 -42 7 0 -3 -14 -22 -31 l-35 -30 48
31 c26 17 47 33 47 36 0 3 -4 3 -9 -1 -17 -10 -21 13 -5 29 16 17 10 20 -16 8z"/>
<path d="M4415 8241 c-20 -4 -26 -9 -18 -14 11 -7 53 7 53 18 0 3 -1 4 -2 4
-2 -1 -16 -4 -33 -8z"/>
<path d="M4275 8210 c-16 -11 -25 -20 -20 -20 10 0 64 39 55 40 -3 0 -18 -9
-35 -20z"/>
<path d="M4330 8140 c-8 -5 -12 -12 -9 -15 4 -3 12 1 19 10 14 17 11 19 -10 5z"/>
<path d="M4079 8079 l-24 -20 28 17 c15 9 27 18 27 20 0 8 -8 4 -31 -17z"/>
<path d="M4106 7975 c-11 -8 -15 -15 -9 -15 6 0 16 7 23 15 16 19 11 19 -14 0z"/>
<path d="M4019 7903 c-13 -16 -12 -17 4 -4 16 13 21 21 13 21 -2 0 -10 -8 -17
-17z"/>
<path d="M3719 7823 c-13 -16 -12 -17 4 -4 9 7 17 15 17 17 0 8 -8 3 -21 -13z"/>
<path d="M3884 7798 l-19 -23 23 19 c21 18 27 26 19 26 -2 0 -12 -10 -23 -22z"/>
<path d="M3620 7749 c-22 -18 -22 -19 -3 -10 12 6 25 16 28 21 9 15 3 12 -25
-11z"/>
<path d="M3499 7653 c-13 -16 -12 -17 4 -4 9 7 17 15 17 17 0 8 -8 3 -21 -13z"/>
<path d="M3454 7618 l-19 -23 23 19 c21 18 27 26 19 26 -2 0 -12 -10 -23 -22z"/>
<path d="M3369 7543 c-13 -16 -12 -17 4 -4 9 7 17 15 17 17 0 8 -8 3 -21 -13z"/>
<path d="M3499 7493 c-13 -16 -12 -17 4 -4 9 7 17 15 17 17 0 8 -8 3 -21 -13z"/>
<path d="M3184 7367 c-136 -140 -230 -247 -217 -246 4 0 33 30 63 66 30 37
106 120 169 185 63 65 111 118 109 118 -3 0 -59 -55 -124 -123z"/>
<path d="M3299 7313 l-34 -38 38 34 c20 19 37 36 37 38 0 8 -8 0 -41 -34z"/>
<path d="M3110 7226 c0 -2 7 -9 15 -16 13 -11 14 -10 9 4 -5 14 -24 23 -24 12z"/>
<path d="M3134 7158 l-19 -23 23 19 c12 11 22 21 22 23 0 8 -8 2 -26 -19z"/>
<path d="M2911 7061 c-47 -56 -55 -78 -11 -29 17 18 30 36 30 40 0 5 6 8 13 8
8 0 14 7 14 15 0 8 -1 15 -3 15 -1 0 -21 -22 -43 -49z"/>
<path d="M6825 8000 c-3 -5 -13 -6 -23 -3 -9 3 -14 3 -10 -2 9 -10 -10 -35
-26 -35 -6 0 -3 5 7 11 20 12 14 29 -10 29 -11 0 -14 -7 -10 -26 3 -17 1 -24
-7 -21 -7 3 -18 -4 -25 -14 -6 -11 -16 -17 -21 -14 -4 3 -15 -1 -23 -9 -8 -8
-17 -12 -21 -9 -3 4 -6 1 -6 -5 0 -7 -7 -12 -15 -12 -8 0 -15 6 -15 14 0 20
-17 29 -26 15 -4 -8 -3 -9 4 -5 7 4 12 1 12 -7 0 -8 6 -19 13 -25 9 -8 37 3
107 44 98 57 134 84 113 84 -7 0 -14 -4 -18 -10z"/>
<path d="M6670 7969 c-20 -16 -21 -18 -4 -10 12 6 23 8 26 6 3 -3 5 2 5 10 0
8 -1 15 -1 15 -1 0 -12 -10 -26 -21z"/>
<path d="M6543 7889 c-35 -22 -46 -37 -15 -20 22 13 58 40 52 41 -3 0 -20 -10
-37 -21z"/>
<path d="M6410 7804 c-47 -30 -89 -60 -95 -66 -5 -6 2 -3 17 7 15 9 34 18 42
19 9 1 22 9 28 18 18 21 74 58 80 52 3 -3 8 2 11 11 4 8 5 15 4 15 -1 0 -40
-25 -87 -56z"/>
<path d="M6564 7834 c-18 -14 -18 -15 4 -4 12 6 22 13 22 15 0 8 -5 6 -26 -11z"/>
<path d="M6410 7739 c-17 -13 -18 -17 -5 -10 33 17 51 31 40 31 -5 0 -21 -10
-35 -21z"/>
<path d="M6263 7709 c-18 -12 -33 -23 -33 -25 0 -7 58 25 65 36 9 14 5 13 -32
-11z"/>
<path d="M6136 7625 c-16 -12 -17 -15 -4 -15 9 0 18 7 22 15 7 18 6 18 -18 0z"/>
<path d="M6045 7569 c-58 -39 -98 -72 -65 -54 8 5 27 17 42 27 16 11 33 16 38
13 6 -4 9 -2 8 3 -2 5 8 19 22 30 38 32 22 25 -45 -19z"/>
<path d="M6189 7593 c-13 -16 -12 -17 4 -4 9 7 17 15 17 17 0 8 -8 3 -21 -13z"/>
<path d="M6114 7545 c-10 -8 -14 -15 -8 -15 6 0 17 7 24 15 16 19 9 19 -16 0z"/>
<path d="M6073 7526 c3 -7 0 -20 -6 -27 -10 -11 -9 -11 5 0 15 11 15 41 1 41
-3 0 -3 -6 0 -14z"/>
<path d="M6020 7505 c-7 -9 -8 -15 -2 -15 5 0 12 7 16 15 3 8 4 15 2 15 -2 0
-9 -7 -16 -15z"/>
<path d="M5840 7434 c-103 -69 -104 -70 -81 -70 11 0 18 3 15 7 -5 8 35 24 49
21 5 -1 6 2 3 7 -3 5 5 16 18 24 21 14 25 14 45 -6 11 -12 21 -19 21 -15 0 4
-8 14 -17 24 -16 16 -15 18 12 40 50 40 25 27 -65 -32z"/>
<path d="M6029 7473 c-13 -16 -12 -17 4 -4 9 7 17 15 17 17 0 8 -8 3 -21 -13z"/>
<path d="M5979 7433 c-13 -16 -12 -17 4 -4 9 7 17 15 17 17 0 8 -8 3 -21 -13z"/>
<path d="M5936 7408 c3 -5 10 -6 15 -3 13 9 11 12 -6 12 -8 0 -12 -4 -9 -9z"/>
<path d="M5870 7391 c0 -6 6 -11 13 -11 6 -1 1 -10 -12 -20 -13 -11 -19 -20
-15 -20 5 1 23 12 39 26 17 15 24 23 17 19 -7 -4 -19 -1 -27 5 -11 9 -15 9
-15 1z"/>
<path d="M5677 7325 c-64 -43 -73 -55 -17 -21 25 15 52 31 60 36 8 4 13 11 10
13 -3 3 -27 -10 -53 -28z"/>
<path d="M5732 7294 c10 -10 20 -15 24 -12 3 4 -5 12 -18 18 -22 12 -22 12 -6
-6z"/>
<path d="M5784 7295 c-10 -8 -14 -15 -8 -15 6 0 17 7 24 15 16 19 9 19 -16 0z"/>
<path d="M5568 7254 c-21 -13 -38 -27 -38 -30 0 -7 59 28 72 44 14 17 9 15
-34 -14z"/>
<path d="M5680 7269 c0 -5 -5 -7 -12 -3 -8 5 -9 2 -5 -10 4 -10 7 -20 7 -22 0
-2 10 -3 23 -3 16 1 18 2 5 6 -19 5 -25 23 -8 23 6 0 10 5 10 10 0 6 -4 10
-10 10 -5 0 -10 -5 -10 -11z"/>
<path d="M5616 7262 c-3 -6 1 -13 10 -16 23 -9 28 -2 10 13 -8 7 -17 8 -20 3z"/>
<path d="M5711 7263 c-1 -17 16 -25 25 -12 4 7 3 9 -4 5 -5 -3 -13 0 -15 6 -4
9 -6 10 -6 1z"/>
<path d="M5428 7162 c-93 -62 -127 -89 -64 -53 32 18 37 19 32 5 -5 -14 -4
-15 9 -4 13 11 13 15 3 22 -8 6 -5 7 11 3 15 -5 21 -3 17 3 -4 6 14 25 39 42
25 17 45 33 45 35 0 7 3 9 -92 -53z"/>
<path d="M5616 7193 c2 -7 -2 -14 -9 -14 -39 -4 -64 -17 -72 -37 -4 -11 2 -9
19 7 13 13 29 20 35 17 10 -7 65 17 75 32 2 4 -4 9 -15 9 -11 1 -17 -2 -14 -8
4 -5 2 -9 -4 -9 -5 0 -11 3 -14 8 -2 4 -2 1 -1 -5z"/>
<path d="M5502 7150 c-7 -12 -18 -17 -29 -13 -11 4 -14 3 -9 -5 4 -7 1 -13 -8
-13 -29 -3 -34 -4 -41 -11 -4 -4 0 -14 9 -23 9 -9 13 -21 10 -27 -8 -12 38 13
76 42 17 13 20 19 10 25 -9 5 -11 4 -6 -3 4 -7 3 -12 -2 -12 -20 0 -21 15 0
37 12 13 17 23 12 23 -5 0 -15 -9 -22 -20z m-2 -47 c0 -1 -13 -9 -30 -18 -26
-13 -30 -13 -30 -1 0 8 6 16 13 19 12 5 47 5 47 0z"/>
<path d="M5222 7033 c-51 -31 -90 -58 -87 -61 2 -3 11 1 19 7 8 7 21 9 28 5 7
-4 10 -3 5 1 -7 9 40 45 58 45 6 -1 -3 -8 -18 -16 -19 -10 -27 -21 -23 -31 3
-8 6 -17 6 -19 0 -2 7 -4 16 -4 11 0 14 6 9 20 -4 14 -2 20 9 20 36 0 16 -41
-40 -78 -10 -7 9 2 44 20 48 25 58 34 45 40 -17 6 -17 7 0 7 10 1 15 6 12 11
-3 6 -2 10 4 10 5 0 11 -5 13 -12 3 -8 18 -4 46 12 38 21 47 40 20 40 -6 0 -8
-3 -5 -7 4 -3 -2 -12 -12 -20 -14 -9 -27 -10 -45 -3 -14 5 -26 12 -26 15 0 4
5 3 10 0 6 -3 13 1 16 9 3 9 10 13 15 10 5 -3 7 -10 4 -15 -4 -5 -2 -9 3 -9
16 0 22 13 11 26 -7 8 -6 14 2 20 8 4 9 3 5 -4 -9 -14 13 -15 34 -2 17 11 18
11 -40 15 -40 3 -56 -4 -138 -52z m78 23 c0 -3 -4 -8 -10 -11 -5 -3 -10 -1
-10 4 0 6 5 11 10 11 6 0 10 -2 10 -4z m-10 -36 c0 -5 -8 -10 -17 -10 -15 0
-16 2 -3 10 19 12 20 12 20 0z"/>
<path d="M5141 6950 c10 -7 10 -11 -1 -24 -7 -9 -10 -19 -7 -23 4 -3 12 6 18
20 7 15 16 24 20 21 5 -3 9 -1 9 4 0 5 -12 10 -26 10 -17 0 -22 -3 -13 -8z"/>
<path d="M7485 6884 c-11 -8 -26 -12 -34 -9 -9 3 -12 3 -8 -1 4 -4 1 -14 -6
-22 -8 -11 -2 -10 21 4 19 10 38 25 44 32 14 16 8 15 -17 -4z"/>
<path d="M7165 6750 c-3 -5 -2 -10 4 -10 5 0 13 5 16 10 3 6 2 10 -4 10 -5 0
-13 -4 -16 -10z"/>
<path d="M2650 6122 c6 -13 14 -21 18 -18 3 4 -2 14 -12 24 -18 16 -18 16 -6
-6z"/>
<path d="M3226 5741 c-3 -5 2 -15 12 -22 15 -12 16 -12 5 2 -7 9 -10 19 -6 22
3 4 4 7 0 7 -3 0 -8 -4 -11 -9z"/>
<path d="M3260 5729 c0 -5 5 -7 10 -4 6 3 10 8 10 11 0 2 -4 4 -10 4 -5 0 -10
-5 -10 -11z"/>
<path d="M3381 5661 c61 -72 109 -123 109 -113 -1 4 -37 45 -82 92 -66 70 -71
73 -27 21z"/>
<path d="M3260 5686 c0 -2 7 -9 15 -16 9 -7 15 -8 15 -2 0 5 -7 12 -15 16 -8
3 -15 4 -15 2z"/>
<path d="M3415 5520 c10 -11 20 -20 23 -20 3 0 -3 9 -13 20 -10 11 -20 20 -23
20 -3 0 3 -9 13 -20z"/>
<path d="M3496 5475 c4 -8 11 -15 16 -15 6 0 5 6 -2 15 -7 8 -14 15 -16 15 -2
0 -1 -7 2 -15z"/>
<path d="M3465 5460 c10 -11 20 -20 23 -20 3 0 -3 9 -13 20 -10 11 -20 20 -23
20 -3 0 3 -9 13 -20z"/>
<path d="M3550 5363 c0 -5 12 -20 28 -34 l27 -24 -25 30 c-14 17 -26 32 -27
34 -2 2 -3 0 -3 -6z"/>
<path d="M3640 5255 c13 -14 26 -25 28 -25 3 0 -5 11 -18 25 -13 14 -26 25
-28 25 -3 0 5 -11 18 -25z"/>
<path d="M3741 5204 c0 -11 3 -14 6 -6 3 7 2 16 -1 19 -3 4 -6 -2 -5 -13z"/>
<path d="M3774 5093 c16 -20 36 -23 36 -6 0 4 -3 3 -7 0 -3 -4 -16 1 -27 10
-21 18 -21 18 -2 -4z"/>
<path d="M3820 5034 c25 -26 40 -31 40 -13 0 5 -4 7 -10 4 -5 -3 -10 2 -10 12
0 12 -8 19 -21 20 -21 2 -21 2 1 -23z"/>
<path d="M7045 5660 c-42 -11 -1 -11 50 -1 34 7 35 9 10 9 -16 0 -43 -4 -60
-8z"/>
<path d="M7250 5655 c-10 -12 -16 -13 -29 -3 -14 12 -14 11 -2 -4 18 -23 33
-23 49 2 14 23 0 27 -18 5z"/>
<path d="M6963 5643 c9 -2 25 -2 35 0 9 3 1 5 -18 5 -19 0 -27 -2 -17 -5z"/>
<path d="M7168 5645 c-5 -5 -55 -15 -89 -18 -10 -1 -14 -8 -12 -18 4 -12 -4
-19 -27 -24 -56 -12 -26 -15 44 -3 42 7 62 14 54 19 -14 9 -5 12 24 10 20 -2
34 17 21 30 -5 5 -12 7 -15 4z m-75 -40 c-3 -9 -8 -14 -10 -11 -3 3 -2 9 2 15
9 16 15 13 8 -4z"/>
<path d="M6903 5633 c9 -2 23 -2 30 0 6 3 -1 5 -18 5 -16 0 -22 -2 -12 -5z"/>
<path d="M6838 5623 c6 -2 18 -2 25 0 6 3 1 5 -13 5 -14 0 -19 -2 -12 -5z"/>
<path d="M6788 5613 c7 -3 16 -2 19 1 4 3 -2 6 -13 5 -11 0 -14 -3 -6 -6z"/>
<path d="M6690 5600 c-34 -7 -34 -7 -5 -8 17 0 41 4 55 8 33 11 0 11 -50 0z"/>
<path d="M6590 5580 c-20 -6 -21 -8 -5 -8 11 0 31 4 45 8 20 6 21 8 5 8 -11 0
-31 -4 -45 -8z"/>
<path d="M6538 5563 c7 -3 16 -2 19 1 4 3 -2 6 -13 5 -11 0 -14 -3 -6 -6z"/>
<path d="M6663 5563 c-7 -3 -13 -11 -13 -20 0 -12 2 -12 16 2 18 17 16 25 -3
18z"/>
<path d="M6875 5554 c-22 -7 -31 -12 -20 -12 35 1 80 13 70 19 -5 3 -28 0 -50
-7z"/>
<path d="M6948 5563 c6 -2 18 -2 25 0 6 3 1 5 -13 5 -14 0 -19 -2 -12 -5z"/>
<path d="M6465 5550 c-25 -11 1 -11 35 0 20 6 21 8 5 8 -11 0 -29 -3 -40 -8z"/>
<path d="M6700 5556 c0 -2 7 -7 16 -10 8 -3 12 -2 9 4 -6 10 -25 14 -25 6z"/>
<path d="M6385 5530 c-13 -5 -14 -9 -5 -9 8 0 24 4 35 9 13 5 14 9 5 9 -8 0
-24 -4 -35 -9z"/>
<path d="M6690 5526 c0 -9 7 -16 16 -16 9 0 14 5 12 12 -6 18 -28 21 -28 4z"/>
<path d="M6738 5523 c6 -2 18 -2 25 0 6 3 1 5 -13 5 -14 0 -19 -2 -12 -5z"/>
<path d="M6310 5510 c-21 -7 -21 -8 -5 -9 11 0 27 4 35 9 18 11 5 11 -30 0z"/>
<path d="M6648 5503 c6 -2 18 -2 25 0 6 3 1 5 -13 5 -14 0 -19 -2 -12 -5z"/>
<path d="M6258 5493 c7 -3 16 -2 19 1 4 3 -2 6 -13 5 -11 0 -14 -3 -6 -6z"/>
<path d="M6218 5483 c7 -3 16 -2 19 1 4 3 -2 6 -13 5 -11 0 -14 -3 -6 -6z"/>
<path d="M6148 5463 c7 -3 16 -2 19 1 4 3 -2 6 -13 5 -11 0 -14 -3 -6 -6z"/>
<path d="M6055 5440 c-13 -5 -14 -9 -5 -9 8 0 24 4 35 9 13 5 14 9 5 9 -8 0
-24 -4 -35 -9z"/>
<path d="M5893 5389 c-77 -26 -120 -45 -116 -52 4 -7 0 -8 -12 -3 -19 7 -165
-41 -165 -54 0 -4 32 5 71 21 77 31 94 35 83 18 -4 -8 -1 -8 12 -1 11 5 26 7
34 4 13 -5 13 -3 1 11 -12 15 -10 17 19 17 20 0 38 -7 46 -17 7 -10 14 -13 14
-7 0 6 -7 17 -15 24 -14 11 -6 17 52 36 82 28 83 28 83 7 0 -15 2 -16 9 -3 6
8 7 18 5 22 -3 4 -1 8 5 8 5 0 12 -5 14 -10 3 -6 4 -5 3 2 -4 21 -18 18 -143
-23z"/>
<path d="M6248 5393 c7 -3 16 -2 19 1 4 3 -2 6 -13 5 -11 0 -14 -3 -6 -6z"/>
<path d="M6050 5359 c0 -5 5 -7 10 -4 6 3 10 8 10 11 0 2 -4 4 -10 4 -5 0 -10
-5 -10 -11z"/>
<path d="M5985 5350 c3 -5 12 -7 20 -3 21 7 19 13 -6 13 -11 0 -18 -4 -14 -10z"/>
<path d="M5980 5319 c-35 -12 -43 -16 -20 -12 40 7 112 32 90 31 -8 0 -40 -8
-70 -19z"/>
<path d="M5855 5280 c-3 -5 -1 -10 4 -10 6 0 11 5 11 10 0 6 -2 10 -4 10 -3 0
-8 -4 -11 -10z"/>
<path d="M5635 5260 c-16 -17 -16 -20 -3 -15 9 4 19 13 22 21 7 19 2 18 -19
-6z"/>
<path d="M5696 5270 c-11 -3 -15 -9 -10 -13 10 -6 42 9 34 16 -3 3 -14 1 -24
-3z"/>
<path d="M5806 5264 c-6 -16 2 -18 22 -5 11 7 11 9 -1 14 -9 3 -18 -1 -21 -9z"/>
<path d="M5725 5230 c-13 -6 -15 -9 -5 -9 8 0 22 4 30 9 18 12 2 12 -25 0z"/>
<path d="M5640 5200 c-8 -5 -10 -10 -5 -10 6 0 17 5 25 10 8 5 11 10 5 10 -5
0 -17 -5 -25 -10z"/>
<path d="M3960 4970 c0 -5 5 -10 11 -10 5 0 7 5 4 10 -3 6 -8 10 -11 10 -2 0
-4 -4 -4 -10z"/>
<path d="M1550 3245 c19 -19 36 -35 39 -35 3 0 -10 16 -29 35 -19 19 -36 35
-39 35 -3 0 10 -16 29 -35z"/>
<path d="M5583 1153 c15 -2 39 -2 55 0 15 2 2 4 -28 4 -30 0 -43 -2 -27 -4z"/>
</g>
</svg>
