<svg width="1024" height="1024" viewBox="0 0 1024 1024" fill="none" xmlns="http://www.w3.org/2000/svg">
<path d="M515.999 138C535.872 151.65 549.267 178.159 557.999 200C558.423 201.04 558.423 201.04 558.855 202.101C559.131 202.798 559.406 203.496 559.69 204.215C559.941 204.844 560.192 205.473 560.45 206.121C560.999 208 560.999 208 560.999 212C561.659 212.99 562.319 213.98 562.999 215C563.778 217.791 564.481 220.553 565.124 223.375C565.306 224.13 565.488 224.886 565.675 225.664C566.57 229.515 567.23 233.018 566.999 237C566.999 237.33 566.999 237.66 566.999 238C567.329 238 567.659 238 567.999 238C568.659 245.92 569.319 253.84 569.999 262C571.381 260.7 572.763 259.401 574.187 258.062C584.217 249.071 606.584 230 620.999 230C622.338 229.007 623.67 228.005 624.999 227C636.462 221.551 648.738 218.13 660.999 215C661.712 214.817 662.425 214.635 663.16 214.447C674.76 211.6 686.13 211.662 697.999 212C700.247 216.062 701.404 219.241 701.687 223.875C701.752 224.842 701.818 225.808 701.886 226.804C701.923 227.529 701.961 228.253 701.999 229C702.329 229 702.659 229 702.999 229C702.22 247.82 702.22 247.82 699.999 257C699.339 256.34 698.679 255.68 697.999 255C698.308 256.508 698.308 256.508 698.624 258.047C699.042 262.45 698.397 265.074 696.999 269.25C696.77 269.936 696.54 270.622 696.304 271.329C695.807 272.8 695.302 274.269 694.789 275.735C694.002 277.992 693.246 280.259 692.491 282.527C684.991 304.481 673.395 325.579 657.999 343C663.133 344.365 668.213 345.401 673.457 346.241C707.698 351.841 750.146 369.068 772.507 396.875C775.076 400.899 775.779 404.319 774.999 409C772.999 411.437 772.999 411.437 769.999 414C768.873 415.207 767.748 416.415 766.624 417.625C738.319 445.824 696.871 460.254 657.999 464C658.527 464.67 658.527 464.67 659.065 465.354C683.74 496.813 697.109 530.727 703.874 570C704.054 571.029 704.054 571.029 704.238 572.08C705.242 578.382 706.14 584.585 703.374 590.437C700.009 594.068 697.529 594.769 692.647 595.215C664.992 596.188 636.107 586.212 612.292 572.843C610.318 571.738 608.325 570.664 606.3 569.656C593.401 563.177 581.68 553.632 570.999 544C569.996 547.008 569.696 549.538 569.437 552.687C569.311 554.178 569.311 554.178 569.183 555.699C569.122 556.458 569.061 557.217 568.999 558C568.339 556.68 567.679 555.36 566.999 554C566.919 554.584 566.838 555.167 566.755 555.769C566.381 558.471 566.003 561.173 565.624 563.875C565.498 564.793 565.371 565.71 565.241 566.656C564.469 572.136 563.524 577.516 562.282 582.91C561.817 585.189 561.817 585.189 562.999 588C562.476 590.445 562.476 590.445 561.624 593.125C561.348 594.014 561.072 594.904 560.788 595.82C559.999 598 559.999 598 558.999 599C558.563 600.442 558.157 601.893 557.765 603.347C556.004 609.342 553.48 614.829 550.749 620.437C550.257 621.454 549.764 622.471 549.257 623.519C545.917 630.33 542.402 636.81 537.999 643C537.221 644.135 536.444 645.27 535.667 646.406C520.861 667.849 520.861 667.849 512.183 669.91C506.924 670.126 503.693 667.525 499.921 664.129C487.476 651.214 478.98 634.884 471.045 618.982C469.926 616.779 469.926 616.779 467.999 614C467.155 611.468 466.38 608.934 465.624 606.375C464.387 602.205 463.022 598.1 461.55 594.008C460.999 592 460.999 592 460.999 588C460.361 586.653 459.692 585.319 458.999 584C458.613 582.562 458.282 581.109 457.999 579.648C457.835 578.805 457.671 577.961 457.502 577.092C457.336 576.195 457.17 575.299 456.999 574.375C456.738 572.992 456.738 572.992 456.473 571.581C454.863 562.764 453.827 553.92 452.999 545C452.269 545.655 451.54 546.309 450.788 546.984C438.292 557.996 424.716 566.79 409.999 574.562C409.056 575.063 408.113 575.564 407.142 576.08C401.832 578.812 396.672 580.898 390.897 582.437C389.006 582.833 389.006 582.833 387.999 584C371.627 590.304 343.482 600.498 326.062 593.75C321.913 591.379 320.491 589.476 318.999 585C318.545 565.028 324.134 543.62 330.999 525C331.302 524.174 331.605 523.348 331.917 522.497C340.221 500.196 351.741 481.265 366.999 463C366.22 463.046 365.442 463.093 364.64 463.14C350.199 463.606 336.373 460.308 322.722 455.816C319.134 454.74 315.726 454.292 311.999 454C311.999 453.34 311.999 452.68 311.999 452C311.452 451.754 310.905 451.509 310.341 451.256C298.189 445.761 286.792 439.809 275.803 432.241C274.122 431.084 272.424 429.951 270.726 428.82C265.665 425.404 265.665 425.404 263.999 424C263.999 423.34 263.999 422.68 263.999 422C263.413 421.744 262.826 421.489 262.222 421.226C259.1 419.503 257.073 417.069 254.683 414.461C252.993 412.672 252.993 412.672 249.999 413C249.835 410.836 249.72 408.668 249.624 406.5C249.554 405.293 249.485 404.087 249.413 402.843C250.437 396.125 254.587 391.935 259.784 387.797C261.199 386.765 262.625 385.75 264.062 384.75C265.226 383.926 265.226 383.926 266.415 383.085C280.695 373.177 296.059 364.902 311.999 358C312.629 357.725 313.258 357.45 313.907 357.167C324.443 352.63 324.443 352.63 329.999 354C330.659 353.67 331.319 353.34 331.999 353C331.009 352.67 330.019 352.34 328.999 352C339.25 348.799 349.413 346.691 359.999 345C359.999 344.67 359.999 344.34 359.999 344C362.309 344.33 364.619 344.66 366.999 345C366.631 344.521 366.264 344.043 365.885 343.55C364.193 341.347 362.502 339.142 360.812 336.937C360.233 336.185 359.655 335.433 359.06 334.658C356.359 331.133 353.711 327.603 351.198 323.941C350.473 322.97 349.747 322 348.999 321C348.339 321 347.679 321 346.999 321C343.999 315.375 343.999 315.375 343.999 312C342.917 309.965 341.761 307.968 340.562 306C337.093 300.282 337.093 300.282 335.999 297C335.446 295.531 334.888 294.063 334.327 292.597C312.727 235.427 312.727 235.427 320.312 215.562C321.999 213 321.999 213 324.999 211C356.655 206.766 393.701 222.371 420.999 237C421.599 237.319 422.199 237.638 422.817 237.967C433.564 243.739 443.26 250.689 452.999 258C453.507 254.001 454.004 250 454.499 246C454.642 244.874 454.785 243.749 454.933 242.59C455.804 235.502 455.804 235.502 455.968 228.375C455.999 225 455.999 225 457.999 222C458.457 220.67 458.861 219.322 459.226 217.965C459.449 217.164 459.672 216.363 459.902 215.538C460.14 214.68 460.378 213.821 460.624 212.937C464.365 199.955 469.929 188.031 475.999 176C476.989 176 477.979 176 478.999 176C480.428 174.143 480.428 174.143 481.687 171.687C486.751 162.821 492.954 154.884 499.53 147.093C501.286 145.017 501.286 145.017 500.999 142C505.52 137.725 509.987 135.853 515.999 138ZM510.999 166C484.385 195.428 476.63 233.181 478.103 271.72C479.175 292.789 485.733 311.76 493.999 331C494.263 331.615 494.527 332.23 494.8 332.863C496.936 337.831 499.088 342.792 501.249 347.75C501.705 348.796 501.705 348.796 502.171 349.864C505.285 356.993 508.419 364.088 511.999 371C515.166 367.295 516.862 363.107 518.765 358.676C519.299 357.446 519.299 357.446 519.845 356.192C520.6 354.452 521.353 352.711 522.104 350.969C523.227 348.364 524.356 345.763 525.487 343.162C527.677 338.116 529.843 333.06 531.999 328C532.504 326.819 532.504 326.819 533.019 325.614C536.476 317.503 539.832 309.496 541.812 300.875C542.002 300.123 542.192 299.372 542.388 298.597C545.443 285.935 546.383 273.18 546.312 260.187C546.31 259.49 546.308 258.794 546.306 258.076C546.258 247.149 545.667 236.631 542.999 226C542.75 224.965 542.75 224.965 542.495 223.909C538.02 205.815 530.171 190.126 519.4 174.975C518.45 173.636 517.515 172.286 516.594 170.927C515.445 169.25 514.228 167.619 512.999 166C512.339 166 511.679 166 510.999 166ZM343.999 234C343.878 238.673 344.208 242.778 345.284 247.324C345.564 248.507 345.843 249.691 346.131 250.91C346.438 252.157 346.745 253.403 347.062 254.687C347.219 255.33 347.377 255.974 347.54 256.636C353.187 279.531 360.922 301.479 375.999 320C376.424 320.539 376.849 321.078 377.286 321.634C384.524 330.794 392.302 338.432 401.999 345C402.885 345.602 403.77 346.204 404.683 346.824C413.825 352.751 423.461 356.797 433.562 360.812C435.286 361.508 437.01 362.204 438.734 362.901C443.815 364.951 448.906 366.978 453.999 369C455.469 369.584 456.938 370.169 458.408 370.754C468.905 374.924 479.412 379.063 489.999 383C488.051 376.954 485.897 371.034 483.522 365.144C483.196 364.328 482.869 363.512 482.533 362.672C481.483 360.051 480.429 357.431 479.374 354.812C478.645 353 477.917 351.188 477.188 349.376C476.109 346.692 475.029 344.009 473.947 341.326C472.035 336.583 470.138 331.835 468.261 327.078C461.943 311.154 454.988 296.274 443.999 283C442.955 281.71 442.955 281.71 441.89 280.394C432.516 269.361 420.761 261.613 407.999 255C407.311 254.64 406.624 254.281 405.915 253.91C387.938 244.636 364.623 234 343.999 234ZM585.437 278.187C571.334 292.693 562.955 310.537 555.71 329.14C552.916 336.285 549.915 343.332 546.874 350.375C546.37 351.543 545.866 352.711 545.347 353.915C544.363 356.195 543.379 358.475 542.395 360.755C540.321 365.576 538.281 370.411 536.249 375.25C535.914 376.048 535.578 376.847 535.233 377.669C534.487 379.446 533.743 381.223 532.999 383C539.406 380.944 545.668 378.623 551.913 376.121C552.838 375.752 553.762 375.384 554.715 375.004C557.686 373.819 560.655 372.629 563.624 371.437C564.634 371.032 565.644 370.627 566.684 370.21C601.297 357.129 601.297 357.129 631.999 337C633.233 335.985 633.233 335.985 634.491 334.949C661.964 311.541 675.439 272.604 680.999 238C680.999 236.68 680.999 235.36 680.999 234C647.687 234 608.851 256.042 585.437 278.187ZM274.999 404C293.995 424.833 332.076 439.725 359.786 441.142C383.367 441.883 400.636 437.578 422.252 428.549C426.414 426.819 430.598 425.148 434.784 423.48C435.926 423.025 435.926 423.025 437.09 422.562C438.634 421.947 440.177 421.333 441.72 420.719C445.335 419.28 448.949 417.839 452.562 416.394C453.249 416.119 453.937 415.845 454.645 415.562C458.34 414.081 462.026 412.579 465.702 411.052C466.474 410.732 467.245 410.412 468.04 410.082C469.517 409.467 470.993 408.85 472.468 408.23C475.621 406.917 478.674 405.771 481.999 405C481.999 404.34 481.999 403.68 481.999 403C480.869 402.55 479.738 402.1 478.573 401.636C468.844 397.758 459.132 393.837 449.437 389.875C439.166 385.685 428.888 381.516 418.595 377.381C417.044 376.757 415.493 376.132 413.942 375.505C411.759 374.624 409.575 373.747 407.39 372.871C406.746 372.61 406.102 372.349 405.439 372.08C360.901 354.306 310.826 377.625 274.999 404ZM621.124 371.375C620.154 371.754 620.154 371.754 619.164 372.141C616.77 373.081 614.385 374.041 611.999 375C609.868 375.845 607.736 376.69 605.604 377.535C599.906 379.799 594.215 382.08 588.527 384.372C583.849 386.257 579.168 388.134 574.486 390.008C571.075 391.374 567.666 392.744 564.258 394.116C562.589 394.787 560.92 395.456 559.25 396.123C556.909 397.059 554.571 398.001 552.233 398.945C551.53 399.225 550.826 399.504 550.101 399.793C547.267 400.943 545.185 401.814 542.999 404C550.689 408.054 558.712 411.276 566.749 414.562C567.493 414.868 568.237 415.173 569.004 415.488C582.573 421.056 596.193 426.489 609.869 431.786C612.08 432.643 614.288 433.506 616.494 434.373C618.213 435.045 618.213 435.045 619.968 435.73C621 436.135 622.032 436.54 623.095 436.957C651.948 447.312 684.338 440.365 711.183 428.121C718.909 424.461 726.278 420.174 733.624 415.812C734.466 415.313 735.308 414.814 736.175 414.3C740.792 411.505 744.957 408.578 748.999 405C728.993 383.916 692.298 368.019 663.208 366.892C659.909 366.829 656.612 366.814 653.312 366.812C651.65 366.794 651.65 366.794 649.954 366.775C639.99 366.758 630.454 367.683 621.124 371.375ZM533.999 426C534.269 426.711 534.54 427.422 534.818 428.154C535.646 430.331 536.473 432.509 537.3 434.686C538.279 437.263 539.26 439.839 540.243 442.415C542.907 449.406 545.522 456.411 548.05 463.453C553.199 477.73 558.317 491.418 566.999 504C567.663 505 568.327 506 569.011 507.031C593.915 542.998 634.608 564.292 676.999 572C678.319 572 679.639 572 680.999 572C676.721 533.574 658.989 492.016 628.581 467.011C615.617 457.149 601.533 451.485 586.381 445.88C585.74 445.642 585.098 445.405 584.437 445.16C583.779 444.917 583.122 444.673 582.445 444.423C572.529 440.733 562.713 436.777 552.886 432.857C550.485 431.9 548.084 430.946 545.683 429.992C544.964 429.704 544.246 429.416 543.505 429.119C540.371 427.875 537.308 426.681 533.999 426ZM478.046 429.965C477.242 430.273 476.438 430.582 475.61 430.9C472.988 431.909 470.369 432.923 467.749 433.937C465.956 434.629 464.162 435.321 462.369 436.013C451.307 440.288 440.294 444.658 429.347 449.218C425.537 450.8 421.69 452.222 417.812 453.625C391.031 463.906 370.432 490.487 358.999 516C356.408 522.241 354.158 528.598 351.999 535C351.597 536.19 351.195 537.379 350.78 538.605C347.164 549.852 344.698 561.195 343.999 573C380.353 567.631 411.578 552.507 437.999 527C438.653 526.409 439.306 525.819 439.979 525.211C461.776 505.019 471.053 474.877 480.999 447.875C481.355 446.908 481.355 446.908 481.719 445.921C482.399 444.071 483.074 442.219 483.749 440.367C484.136 439.306 484.522 438.245 484.921 437.152C486.07 433.791 487.051 430.422 487.999 427C484.493 427 481.284 428.71 478.046 429.965ZM511.999 433C505.56 446.322 500.247 460.103 494.847 473.87C494.052 475.891 493.256 477.912 492.46 479.933C492.073 480.916 491.685 481.899 491.286 482.912C489.23 488.077 487.066 493.115 484.601 498.097C472.121 523.77 475.862 557.813 483.312 584.75C483.525 585.532 483.738 586.313 483.957 587.119C489.341 606.246 498.318 624.654 510.999 640C515.574 638.51 517.399 634.776 519.749 630.875C520.402 629.807 520.402 629.807 521.068 628.717C541.329 595.058 553.371 552.497 545.196 513.134C543.103 506.193 540.034 499.75 536.914 493.222C533.096 485.008 530.022 476.452 526.769 468.004C524.844 463.014 522.892 458.034 520.94 453.054C520.602 452.189 520.264 451.323 519.916 450.431C517.639 444.609 515.328 438.801 512.999 433C512.669 433 512.339 433 511.999 433Z" fill="#703B1B"/>
<path d="M718 635C735.726 646.703 749.286 663.889 754.375 684.813C755.598 692.092 755.154 699.647 755 707C754.34 706.01 753.68 705.02 753 704C753.248 705.217 753.495 706.434 753.75 707.688C755.47 723.589 743.51 740.132 734 752C729.673 757.109 725.067 761.952 720.312 766.664C717.919 768.99 717.919 768.99 715.812 771.813C715.214 772.535 714.616 773.257 714 774C713.34 774 712.68 774 712 774C711.67 774.99 711.34 775.98 711 777C709.574 778.438 709.574 778.438 707.688 780C704.628 782.59 701.642 785.234 698.707 787.963C693.562 792.746 688.299 797.302 682.82 801.703C680.345 803.72 677.927 805.789 675.517 807.884C667.095 815.17 658.099 821.593 649 828C648.386 828.436 647.771 828.873 647.138 829.322C639.293 834.892 631.279 840.099 623 845C622.383 845.367 621.765 845.733 621.129 846.11C600.695 858.152 578.542 867.327 555 871C554.246 871.13 553.492 871.261 552.715 871.395C540.408 873.173 527.315 872.219 515 871C515 870.34 515 869.68 515 869C513.763 868.794 512.525 868.588 511.25 868.375C501.255 866.128 492.614 860.702 485 854C484.238 853.344 483.476 852.688 482.691 852.012C476.314 846.129 472.721 839.742 469 832C468.34 832 467.68 832 467 832C466.67 830.68 466.34 829.36 466 828C466.66 828 467.32 828 468 828C467.841 827.481 467.683 826.961 467.52 826.426C466.205 820.288 465.482 811.946 468.375 806.188C473.62 798.877 481.596 793.455 488.683 788.085C499.044 780.211 509.083 771.884 518.668 763.082C521.274 760.756 523.967 758.566 526.688 756.375C530.47 753.315 533.962 750.157 537.344 746.664C539.686 744.312 542.195 742.176 544.707 740.008C547.469 737.59 550.174 735.111 552.875 732.625C556.5 729.289 560.138 725.971 563.812 722.688C568.76 718.25 573.608 713.711 578.457 709.167C582.08 705.776 585.732 702.426 589.438 699.125C593.037 695.913 596.472 692.59 599.82 689.117C601.74 687.253 603.702 685.499 605.723 683.746C610.029 680.005 614.176 676.115 618.312 672.188C624.808 666.048 631.343 659.966 638 654C638.984 653.105 638.984 653.105 639.988 652.192C663.047 631.52 688.544 617.507 718 635ZM670.062 657.125C665.006 663.23 665.358 669.415 665.782 677.062C666.283 681.521 668.129 684.651 671 688C671.733 688.909 671.733 688.909 672.48 689.836C677.647 694.872 683.729 694.688 690.565 694.688C695.241 694.712 698.163 695.014 702 698C705.574 701.943 705.507 706.143 705.344 711.231C703.94 722.542 693.454 731.896 685.75 739.5C685.003 740.242 684.257 740.984 683.488 741.749C678.703 746.455 673.822 750.823 668.539 754.965C665.748 757.202 663.129 759.575 660.5 762C656.108 766.039 651.585 769.845 646.941 773.59C644.223 775.818 641.559 778.093 638.904 780.396C631.804 786.551 624.527 792.377 617 798C616.406 798.448 615.811 798.895 615.199 799.356C595.459 814.192 575.011 827.348 551 834C549.83 834.339 548.659 834.678 547.453 835.028C539.203 837.053 531.153 837.271 522.688 837.313C521.59 837.318 520.492 837.324 519.361 837.33C512.667 837.27 506.508 836.53 500 835C498.334 834.662 496.668 834.327 495 834C498.747 839.621 502.943 842.358 508.875 845.313C509.882 845.818 509.882 845.818 510.91 846.334C531.921 856.393 557.841 851.038 579 843.875C614.35 831.191 645.122 807.639 673.361 783.401C675.009 781.992 676.667 780.597 678.328 779.203C716.679 747.129 716.679 747.129 734.32 701.809C734.852 687.078 729.201 674.956 719.875 663.875C711.132 654.512 701.878 649.087 689.062 648.625C680.374 648.791 675.848 650.709 670.062 657.125ZM641.996 679.942C640.73 681.239 640.73 681.239 639.438 682.563C635.726 686.316 631.938 689.86 627.93 693.289C625.241 695.673 622.745 698.228 620.25 700.813C618.303 702.706 616.316 704.487 614.266 706.266C609.986 709.984 605.861 713.848 601.75 717.75C592.443 726.545 583.029 735.208 573.492 743.754C571.76 745.315 570.037 746.886 568.32 748.465C563.916 752.514 559.489 756.456 554.812 760.188C549.988 764.074 545.492 768.236 541 772.5C535.747 777.483 530.432 782.257 524.762 786.766C522.703 788.431 520.698 790.117 518.707 791.86C512.137 797.609 505.511 802.992 498.266 807.879C496.812 808.874 495.401 809.931 494 811C494 811.66 494 812.32 494 813C511.159 820.349 534.739 819.652 552 813C553.208 812.576 554.416 812.152 555.66 811.715C576.51 804.143 593.876 790.736 611 777C611.658 776.475 612.316 775.95 612.995 775.408C620.693 769.258 628.21 763.017 635.438 756.317C637.993 754.006 640.624 751.841 643.312 749.688C649.053 745.058 654.397 740.057 659.77 735.012C662.258 732.679 664.787 730.41 667.375 728.188C671.431 724.676 675.488 721.063 679 717C679 716.34 679 715.68 679 715C678.394 714.865 677.788 714.73 677.164 714.59C666.733 711.91 658.115 705.923 652 697C648.654 690.914 646.409 684.787 645 678C643.655 677.884 643.655 677.884 641.996 679.942Z" fill="#6F3A1A"/>
<path d="M424 624C440.748 636.617 451.766 654.486 456 675C456.736 680.965 457 686.991 457 693C457.871 693.026 458.743 693.051 459.64 693.078C479.344 694.016 479.344 694.016 486.187 700.625C489.206 704.581 489.416 707.002 489 712C487.544 715.536 486.203 717.402 482.742 719.121C478.808 720.594 474.814 721.767 470.777 722.922C453.836 727.849 442.897 735.859 434 751C431.768 755.228 429.841 759.589 428 764C427.34 763.67 426.68 763.34 426 763C426.186 763.557 426.373 764.114 426.565 764.688C427.091 767.482 426.67 769.239 425.961 771.988C425.713 772.989 425.464 773.989 425.209 775.02C424.934 776.107 424.658 777.193 424.375 778.312C422.068 787.768 420.232 797.209 418.797 806.828C415.54 828.598 411.383 854.432 393.937 869.875C387.558 874.49 381.675 874.647 374 874C368.625 872.308 365.019 868.683 362 864C360.065 859.387 359.615 855.075 359.625 850.125C359.624 848.977 359.624 848.977 359.623 847.806C359.765 839.97 361.051 832.366 362.489 824.676C367.176 799.547 367.996 771.802 355 749C354.01 748.67 353.02 748.34 352 748C351.935 747.284 351.871 746.569 351.804 745.832C350.742 742.093 348.889 740.391 346.125 737.687C344.798 736.363 344.798 736.363 343.445 735.011C341.141 732.682 341.141 732.682 338 733C336 732 336 732 335 729C328.533 724.966 320.897 722.878 313.572 720.963C308.821 719.62 306.1 717.836 303 714C301.206 709.783 301.825 706.476 303.375 702.25C306.899 697.006 312.332 695.558 318.265 694.316C323.56 693.44 328.628 692.903 334 693C333.953 692.175 333.907 691.35 333.859 690.5C333.139 667.439 343.033 648.894 357.84 631.886C376.54 612.042 401.521 608.732 424 624ZM370 653C362.905 662.958 357.9 673.051 357.812 685.437C357.798 686.343 357.784 687.25 357.769 688.183C358.101 692.233 358.457 695.524 361.519 698.453C363.489 699.98 365.506 701.404 367.562 702.812C373.139 706.799 378.106 710.824 382.828 715.82C386.901 719.908 391.478 723.424 396 727C401.133 723.842 405.25 720.064 409.562 715.875C415.563 710.111 421.696 704.998 428.523 700.246C432.374 696.754 432.868 693.545 433.301 688.484C433.325 680.855 432.982 674.121 430 667C429.609 666.046 429.219 665.092 428.816 664.109C423.782 652.986 415.835 643.805 405 638C390.809 633.27 378.664 642.399 370 653Z" fill="#723C1B"/>
<path d="M343.999 234C374.15 236.895 407.819 250.495 430.999 270C431.769 270.608 432.538 271.217 433.331 271.844C454.93 289.698 464.881 317.712 474.695 343.002C477.129 349.273 479.604 355.518 482.183 361.73C482.441 362.355 482.7 362.98 482.966 363.624C484.213 366.635 485.468 369.643 486.735 372.646C487.178 373.714 487.621 374.782 488.077 375.883C488.473 376.825 488.869 377.768 489.277 378.739C489.999 381 489.999 381 488.999 383C488.364 382.74 487.73 382.48 487.076 382.212C475.701 377.558 464.321 372.918 452.905 368.363C452.139 368.058 451.373 367.752 450.584 367.437C446.827 365.938 443.068 364.442 439.308 362.949C412.539 352.301 412.539 352.301 405.499 347.375C404.887 346.955 404.275 346.536 403.645 346.103C392.674 338.417 382.899 329.885 374.999 319C374.603 318.461 374.206 317.921 373.798 317.366C358.872 296.846 351.111 273.376 345.499 248.812C345.339 248.113 345.179 247.414 345.013 246.693C344.106 242.407 343.863 238.374 343.999 234Z" fill="#D08033"/>
<path d="M679 236C679.332 270.932 661.146 307.214 637.719 332.34C621.431 348.277 600.749 356.494 580 365C579.098 365.37 578.196 365.74 577.267 366.122C571.173 368.619 565.073 371.099 558.966 373.564C556.905 374.397 554.845 375.231 552.786 376.068C549.879 377.248 546.967 378.417 544.055 379.582C543.169 379.943 542.284 380.304 541.372 380.676C540.561 380.998 539.75 381.32 538.914 381.652C538.203 381.938 537.493 382.224 536.76 382.518C535 383 535 383 533 382C533.306 381.319 533.612 380.637 533.927 379.934C539.62 367.23 545.263 354.51 550.688 341.688C551.141 340.618 551.594 339.549 552.062 338.447C554.216 333.335 556.324 328.213 558.336 323.043C564.652 306.889 572.35 292.98 584 280C584.672 279.246 585.343 278.492 586.035 277.715C600.98 261.877 621.194 251.382 641.375 243.813C642.117 243.534 642.858 243.254 643.622 242.966C648.036 241.409 652.159 240.666 656.813 240.254C660.255 239.855 663.42 238.902 666.75 237.938C670.972 236.717 674.593 235.74 679 236Z" fill="#CF8033"/>
<path d="M749 404C744.896 408.499 740.343 411.605 735.188 414.813C733.929 415.6 733.929 415.6 732.646 416.403C720.661 423.795 708.052 429.74 695 435C694.261 435.307 693.523 435.614 692.762 435.93C663.685 446.883 631.767 440.814 604.062 429.5C602.766 428.975 601.47 428.451 600.174 427.927C597.48 426.839 594.787 425.748 592.094 424.655C588.026 423.008 583.95 421.38 579.871 419.758C579.208 419.494 578.544 419.23 577.861 418.958C574.7 417.699 571.538 416.441 568.375 415.186C564.911 413.804 561.453 412.408 558 411C557.356 410.738 556.713 410.475 556.049 410.205C554.092 409.403 552.139 408.59 550.188 407.773C549.026 407.291 547.865 406.808 546.668 406.31C544 405 544 405 543 403C562.601 394.831 582.26 386.827 602 379C603.135 378.549 604.269 378.098 605.438 377.633C608.603 376.376 611.77 375.125 614.938 373.875C615.86 373.509 616.783 373.142 617.734 372.765C661.889 355.436 714.297 374.888 749 404Z" fill="#D08033"/>
<path d="M370.062 366.813C371.214 366.8 372.366 366.788 373.553 366.776C386.518 366.754 397.529 368.717 409.5 373.688C411.31 374.418 413.119 375.149 414.929 375.88C416.887 376.674 418.842 377.475 420.797 378.278C425.306 380.129 429.824 381.956 434.344 383.781C440.705 386.353 447.063 388.931 453.418 391.516C462.93 395.383 472.459 399.206 482 403C482 403.66 482 404.32 482 405C481.04 405.356 480.08 405.711 479.091 406.078C469.802 409.532 460.572 413.114 451.376 416.809C449.119 417.715 446.861 418.618 444.603 419.521C437.469 422.377 430.346 425.257 423.254 428.215C405.509 435.6 389.782 441.177 370.375 441.188C369.263 441.2 368.15 441.212 367.004 441.225C355.999 441.244 345.754 439.534 335.25 436.313C334.393 436.051 333.536 435.789 332.653 435.519C313.21 429.403 289.068 419.213 275 404C302.514 383.786 335.306 366.832 370.062 366.813Z" fill="#D08133"/>
<path d="M488 427C486.066 433.692 483.907 440.254 481.488 446.785C481.156 447.685 480.824 448.585 480.482 449.512C479.782 451.406 479.081 453.299 478.377 455.192C477.325 458.028 476.284 460.868 475.244 463.709C459.154 507.286 433.307 540.37 390.425 560.205C376.794 566.318 359.152 573 344 573C346.665 548.908 353.37 526.322 365 505C365.864 503.382 365.864 503.382 366.746 501.73C370.775 494.482 375.546 488.232 381 482C381.846 481.009 382.691 480.017 383.562 478.996C397.058 463.463 413 454.679 432.223 447.754C438.427 445.506 444.551 443.051 450.688 440.625C459.489 437.158 468.293 433.701 477.125 430.312C478.001 429.974 478.877 429.635 479.78 429.286C480.577 428.981 481.374 428.677 482.195 428.363C482.886 428.098 483.578 427.833 484.29 427.56C486 427 486 427 488 427Z" fill="#CF8033"/>
<path d="M534 426C540.941 428.243 547.723 430.781 554.508 433.457C555.592 433.882 556.675 434.308 557.792 434.746C561.237 436.1 564.681 437.456 568.125 438.812C570.414 439.712 572.703 440.611 574.992 441.51C580.393 443.631 585.79 445.759 591.187 447.891C593.691 448.878 596.198 449.86 598.705 450.84C612.009 456.061 623.297 462.391 634 472C634.683 472.601 635.366 473.201 636.07 473.82C661.764 497.85 675.317 535.156 681 569C681 569.99 681 570.98 681 572C652.87 569.544 621.887 556.788 600 539C599.105 538.305 598.211 537.61 597.289 536.895C575.871 519.946 560.495 497.665 551.188 472.074C550.683 470.71 550.683 470.71 550.169 469.318C549.107 466.443 548.053 463.566 547 460.688C545.948 457.828 544.893 454.968 543.839 452.109C543.161 450.27 542.484 448.431 541.807 446.592C539.27 439.702 536.67 432.839 534 426Z" fill="#D08033"/>
<path d="M511.001 166C511.661 166 512.321 166 513.001 166C514.218 167.37 514.218 167.37 515.575 169.297C516.324 170.354 516.324 170.354 517.087 171.433C517.616 172.198 518.144 172.962 518.688 173.75C519.23 174.532 519.773 175.314 520.332 176.12C543.088 209.217 551.32 249.381 544.466 289.06C544.015 291.384 543.518 293.691 543.001 296C542.834 296.781 542.667 297.563 542.495 298.368C539.032 313.964 532.245 328.133 525.523 342.524C522.621 348.76 519.959 355.086 517.398 361.469C515.939 365.045 514.381 367.973 512.001 371C506.669 360.911 502.205 350.469 497.76 339.967C496.513 337.03 495.251 334.099 493.989 331.168C486.923 314.603 480.773 298.022 479.001 280C478.891 279.166 478.781 278.332 478.669 277.473C474.06 238.575 483.858 200.762 508.001 170C508.541 169.229 509.081 168.458 509.637 167.664C510.087 167.115 510.537 166.566 511.001 166Z" fill="#D08033"/>
<path d="M512 433C514.034 435.034 514.597 436.162 515.598 438.79C515.899 439.575 516.201 440.36 516.512 441.169C516.836 442.026 517.159 442.883 517.493 443.766C517.835 444.659 518.177 445.552 518.53 446.473C519.267 448.396 520.001 450.321 520.733 452.246C522.645 457.272 524.573 462.292 526.5 467.312C527.076 468.813 527.076 468.813 527.663 470.344C531.457 480.221 535.373 490.048 539.332 499.86C539.777 500.963 540.222 502.067 540.68 503.203C541.059 504.138 541.438 505.073 541.828 506.036C542.215 507.014 542.602 507.992 543 509C543.263 509.601 543.527 510.201 543.798 510.82C545.958 516.005 546.442 520.496 546.399 526.082C546.402 526.936 546.405 527.789 546.408 528.669C546.41 530.472 546.404 532.274 546.392 534.077C546.376 536.767 546.391 539.456 546.411 542.146C546.43 557.061 545.213 572.161 540.375 586.375C540.124 587.138 539.872 587.902 539.613 588.688C533.33 607.186 525.215 624.654 513 640C508.721 638.486 506.762 635.332 504.375 631.688C503.945 631.033 503.515 630.379 503.072 629.704C485.685 602.415 477.759 571.281 477.3 539.152C477.267 537.485 477.213 535.818 477.136 534.152C476.457 519.223 480.543 507.836 486.557 494.3C488.997 488.72 491.217 483.053 493.465 477.395C494.375 475.133 495.286 472.872 496.198 470.611C497.584 467.174 498.969 463.735 500.351 460.296C501.72 456.89 503.092 453.486 504.465 450.082C504.878 449.054 505.29 448.026 505.715 446.967C507.639 442.206 509.605 437.544 512 433Z" fill="#CF8033"/>
<path d="M644 678C645.589 680.99 646.693 683.974 647.75 687.188C652.219 699.525 659.899 707.343 671.605 713.055C674.063 714.025 676.399 714.566 679 715C677.383 719.081 674.458 721.807 671.375 724.812C670.831 725.349 670.287 725.885 669.726 726.438C665.618 730.459 661.394 734.293 657 738C654.706 739.955 652.415 741.915 650.125 743.875C649.215 744.653 649.215 744.653 648.287 745.446C643.113 749.879 638.049 754.426 633 759C606.155 783.264 576.662 807.036 541 816C540.409 816.175 539.818 816.35 539.209 816.531C525.349 819.476 507.074 818.599 494 813C494 812.34 494 811.68 494 811C495.554 809.747 497.172 808.574 498.812 807.438C514.275 796.452 528.461 783.545 542.449 770.762C546.584 767.003 550.757 763.361 555.125 759.875C561.451 754.76 567.302 749.168 573.207 743.578C576.945 740.041 580.752 736.588 584.59 733.16C589.434 728.818 594.213 724.405 599 720C599.514 719.527 600.029 719.054 600.559 718.566C612.394 707.675 624.139 696.686 635.875 685.688C636.571 685.035 637.268 684.382 637.986 683.71C638.627 683.108 639.269 682.507 639.93 681.887C640.499 681.353 641.069 680.819 641.656 680.268C642.447 679.522 643.231 678.769 644 678Z" fill="#D08133"/>
<path d="M702.008 650.895C717.273 659.365 727.61 670.019 733 687C737.054 703.676 731.226 718.755 723 733C711.61 751.234 694.106 766.791 677.395 780.071C675.082 781.934 672.883 783.876 670.688 785.875C632.097 820.49 581.355 854.146 527.601 851.228C522.017 850.739 517.111 849.338 512 847C511.007 846.553 510.015 846.106 508.992 845.645C502.935 842.632 499.019 839.432 495 834C495.781 834.217 496.562 834.433 497.367 834.656C516.04 839.148 535.636 838.428 554 833C555.829 832.509 555.829 832.509 557.695 832.008C587.762 823.111 613.663 801.6 637.066 781.504C639.804 779.168 642.577 776.889 645.375 774.625C651.059 769.995 656.591 765.2 662.113 760.379C664.635 758.179 667.173 756 669.73 753.84C692.708 736.123 692.708 736.123 705.238 711.512C705.396 705.498 705.282 701.639 701 697C697.701 694.647 694.552 694.812 690.653 694.776C677.404 694.636 677.404 694.636 672.48 689.836C671.748 688.927 671.748 688.927 671 688C670.481 687.394 669.961 686.788 669.426 686.164C666.064 681.356 665.527 676.571 665.438 670.813C665.415 669.797 665.415 669.797 665.393 668.76C665.515 662.83 667.741 659.365 671.746 655.172C672.583 654.468 672.583 654.468 673.438 653.75C673.993 653.271 674.549 652.791 675.121 652.297C682.481 647.217 693.963 647.218 702.008 650.895Z" fill="#D08133"/>
<path d="M404.27 637.82C417.549 644.472 426.05 656.129 431.274 669.711C432.846 674.665 433.161 679.24 433.188 684.438C433.202 685.715 433.216 686.993 433.231 688.309C432.737 696.219 432.737 696.219 429.577 699.459C427.704 701.046 425.778 702.528 423.813 704C417.149 709.175 410.931 714.634 404.874 720.506C404.001 721.344 404.001 721.344 403.109 722.199C402.604 722.693 402.098 723.186 401.577 723.694C399.829 725.142 398.059 726.059 396 727C382.307 715.461 382.307 715.461 377.75 710.688C373.639 706.435 368.896 703.281 364 700C359.171 696.649 359.171 696.649 358.395 693.703C356.428 680.232 359.974 667.779 367.633 656.621C369.352 654.344 371.14 652.163 373 650C373.522 649.371 374.044 648.742 374.582 648.094C381.984 639.882 393.282 633.849 404.27 637.82Z" fill="#AC5A23"/>
<path d="M499 144C499.99 144.33 500.98 144.66 502 145C501.238 145.92 500.476 146.841 499.691 147.789C493.563 155.275 487.971 162.809 482.938 171.074C481.162 173.756 479.362 175.834 477 178C478.801 165.55 491.32 153.57 499 144Z" fill="#633417"/>
<path d="M567 543C567.33 543 567.66 543 568 543C568.409 554.063 568.493 564.814 566.188 575.688C566.022 576.482 565.857 577.276 565.687 578.095C564.783 581.977 563.97 584.356 561 587C561.596 581.848 562.394 576.834 563.438 571.75C565.317 562.242 566.16 552.646 567 543Z" fill="#643417"/>
<path d="M685 211C687.249 210.918 689.5 210.86 691.75 210.812C693.003 210.777 694.256 210.742 695.547 210.707C699.141 211.011 700.447 211.543 703 214C702.67 214.99 702.34 215.98 702 217C702.389 219.142 702.389 219.142 703 221C703.66 220.34 704.32 219.68 705 219C705.27 226.831 704.231 234.272 703 242C702.67 242 702.34 242 702 242C702 238.7 702 235.4 702 232C701.67 232 701.34 232 701 232C700.951 231.058 700.902 230.117 700.852 229.148C700.739 227.28 700.739 227.28 700.625 225.375C700.555 224.145 700.486 222.915 700.414 221.648C700.075 217.533 700.075 217.533 698 212C693.71 212 689.42 212 685 212C685 211.67 685 211.34 685 211Z" fill="#8B572D"/>
<path d="M681 234C680.485 239.853 679.546 245.33 678 251C676.798 247.469 677.205 244.871 677.938 241.25C678.132 240.265 678.327 239.28 678.527 238.266C678.683 237.518 678.839 236.77 679 236C678.289 236.187 677.577 236.374 676.844 236.567C673.628 237.407 670.408 238.235 667.188 239.062C666.068 239.357 664.948 239.652 663.795 239.955C662.185 240.366 662.185 240.366 660.543 240.785C659.058 241.17 659.058 241.17 657.544 241.563C655 242 655 242 652 241C673.775 234 673.775 234 681 234Z" fill="#EB9B3B"/>
</svg>
