<svg width="1024" height="1024" viewBox="0 0 1024 1024" fill="none" xmlns="http://www.w3.org/2000/svg">
<path d="M757.001 488C762.801 490.385 768.229 493.519 773.654 496.648C775.838 497.906 778.037 499.133 780.247 500.348C787.215 504.19 794.06 508.215 800.863 512.342C808.64 517.032 816.576 521.446 824.493 525.894C827.823 527.766 831.144 529.653 834.446 531.574C835.09 531.948 835.734 532.322 836.397 532.707C838.052 533.671 839.704 534.64 841.356 535.609C843.657 536.819 845.514 537.392 848.001 538C851.441 541.44 852.685 544.151 853.001 549C852.671 549.99 852.341 550.98 852.001 552C852.661 552.33 853.321 552.66 854.001 553C848.305 565.405 836.867 571.078 825.555 577.518C820.988 580.167 816.553 583.024 812.114 585.879C808.835 587.96 805.667 589.706 802.001 591C805.094 594.4 808.304 596.509 812.305 598.75C812.907 599.09 813.509 599.43 814.129 599.78C816.041 600.86 817.958 601.93 819.876 603C821.786 604.071 823.694 605.144 825.602 606.22C827.337 607.197 829.075 608.169 830.813 609.14C832.997 610.415 835.134 611.774 837.222 613.2C840.288 615.186 842.435 615.456 846.001 616C853.62 619.931 861.299 625.012 865.001 633C865.188 636.312 865.188 636.312 865.001 639C865.331 639 865.661 639 866.001 639C866.117 647.337 866.206 655.673 866.26 664.01C866.286 667.882 866.321 671.754 866.378 675.625C866.433 679.367 866.462 683.107 866.475 686.849C866.484 688.272 866.502 689.694 866.529 691.116C866.678 699.243 866.742 705.798 861.001 712C858.886 713.852 857.002 715.352 854.688 716.875C854.08 717.292 853.472 717.709 852.845 718.139C847.115 722.028 841.227 725.673 835.333 729.305C830.528 732.275 825.795 735.352 821.063 738.437C820.226 738.981 819.39 739.525 818.527 740.086C814.381 742.785 810.245 745.498 806.126 748.238C805.356 748.746 804.586 749.254 803.794 749.777C802.347 750.732 800.905 751.693 799.468 752.662C795.902 755.007 793.244 756.259 789.001 757C786.469 758.429 786.469 758.429 783.876 760.312C778.497 764.011 773.033 767.534 767.501 771C755.044 778.167 755.044 778.167 743.997 787.094C741.737 789.252 739.905 789.891 737.001 791C734.675 792.424 732.396 793.868 730.126 795.375C726.12 798.016 722.1 800.523 717.916 802.879C713.936 805.209 710.106 807.782 706.251 810.312C700.14 814.312 694.011 818.28 687.845 822.194C682.847 825.367 677.862 828.559 672.876 831.75C671.781 832.45 670.687 833.15 669.559 833.872C663.403 837.813 657.257 841.769 651.126 845.75C645.342 849.505 639.525 853.203 633.688 856.875C624.534 862.636 615.465 868.523 606.406 874.431C600.587 878.226 594.762 882.01 588.914 885.76C587.077 886.951 585.258 888.167 583.442 889.39C576.213 894.125 569.485 897.619 560.63 896.773C557.087 895.731 554.084 893.947 550.938 892.062C546.571 889.45 546.571 889.45 542.087 887.049C539.78 885.889 537.57 884.614 535.345 883.305C533.953 882.489 533.953 882.489 532.534 881.657C531.533 881.069 530.532 880.481 529.501 879.875C522.441 875.729 515.364 871.625 508.223 867.621C506.934 866.895 505.645 866.17 504.356 865.444C502.465 864.379 500.573 863.318 498.675 862.266C496.905 861.286 495.142 860.293 493.38 859.301C492.365 858.735 491.35 858.17 490.304 857.587C488.001 856 488.001 856 487.001 853C484.422 851.379 481.874 849.922 479.188 848.5C477.553 847.616 475.917 846.732 474.282 845.848C473.422 845.386 472.562 844.925 471.677 844.45C468.946 842.97 466.238 841.457 463.532 839.933C462.64 839.433 461.748 838.933 460.828 838.418C459.097 837.447 457.367 836.472 455.64 835.492C454.845 835.05 454.05 834.608 453.231 834.152C452.186 833.564 452.186 833.564 451.119 832.964C448.751 831.886 446.558 831.446 444.001 831C441.663 830.348 439.329 829.685 437.001 829C437.001 828.34 437.001 827.68 437.001 827C431.363 823.563 431.363 823.563 425.001 822C425.001 821.34 425.001 820.68 425.001 820C422.85 818.511 422.85 818.511 420.188 817.062C414.171 813.667 411.045 810.775 409.001 804C408.58 800.508 408.58 797.05 408.602 793.535C408.6 792.543 408.597 791.551 408.594 790.529C408.592 788.438 408.597 786.348 408.61 784.258C408.626 781.076 408.61 777.895 408.591 774.713C408.593 772.674 408.596 770.636 408.602 768.598C408.596 767.655 408.59 766.712 408.584 765.74C408.658 758.679 409.553 752.845 414.313 747.312C415.2 746.549 416.087 745.786 417.001 745C417.489 744.545 417.978 744.09 418.481 743.621C422.365 740.116 422.365 740.116 425.321 739.574C428.711 738.848 430.985 737.468 433.876 735.562C434.863 734.945 435.851 734.327 436.868 733.691C439.273 730.657 439.262 730.32 438.868 726.687C438.731 725.813 438.594 724.94 438.452 724.039C437.639 718.562 437.543 713.023 437.333 707.495C437.278 706.121 437.216 704.747 437.147 703.374C436.697 694.408 436.908 687.186 441.001 679C444.695 674.998 448.192 672.062 453.312 670.126C456.266 668.889 458.818 667.37 461.528 665.664C462.568 665.012 463.607 664.359 464.679 663.687C465.754 663.007 466.83 662.326 467.938 661.625C469.01 660.952 470.082 660.279 471.186 659.586C474.131 657.733 477.066 655.868 480.001 654C481.036 653.357 481.036 653.357 482.091 652.702C483.429 651.854 484.724 650.937 486.001 650C486.001 649.34 486.001 648.68 486.001 648C487.432 647.687 487.432 647.687 488.891 647.367C494.039 645.888 498.275 642.992 502.751 640.125C504.112 639.268 504.112 639.268 505.5 638.393C508.339 636.603 511.17 634.802 514.001 633C516.719 631.28 519.44 629.564 522.16 627.847C523.82 626.799 525.478 625.748 527.135 624.696C527.878 624.224 528.622 623.752 529.388 623.265C530.039 622.851 530.691 622.436 531.363 622.009C533.001 621 533.001 621 535.001 620C534.671 619.34 534.341 618.68 534.001 618C534.666 617.597 535.331 617.194 536.017 616.778C539.054 614.937 542.09 613.093 545.126 611.25C546.173 610.616 547.219 609.981 548.298 609.328C554.456 605.61 554.456 605.61 560.431 601.609C563.001 600 563.001 600 565.356 599.577C568.372 598.919 570.297 597.807 572.895 596.148C573.839 595.552 574.782 594.955 575.754 594.341C576.764 593.692 577.773 593.043 578.813 592.375C580.98 591.001 583.147 589.627 585.313 588.254C586.422 587.548 587.531 586.841 588.673 586.114C593.867 582.815 599.091 579.566 604.313 576.312C613.785 570.396 623.235 564.446 632.671 558.473C635.954 556.397 639.239 554.324 642.524 552.251C652.686 545.844 652.686 545.844 662.821 539.394C664.206 538.508 665.596 537.63 666.993 536.762C668.363 535.893 669.69 534.956 671.001 534C671.001 533.34 671.001 532.68 671.001 532C672.763 530.71 672.763 530.71 675.259 529.234C676.183 528.681 677.107 528.128 678.06 527.558C679.072 526.961 680.083 526.365 681.126 525.75C683.252 524.477 685.377 523.202 687.501 521.926C689.131 520.947 689.131 520.947 690.794 519.948C695.618 517.017 700.375 513.985 705.126 510.937C712.532 506.198 719.964 501.505 727.438 496.875C728.296 496.342 729.154 495.81 730.038 495.261C731.633 494.276 733.23 493.296 734.831 492.322C736.211 491.481 737.584 490.628 738.948 489.76C745.207 485.903 750.011 486.197 757.001 488ZM742.313 516.562C741.175 517.224 740.037 517.885 738.864 518.566C735.879 520.395 733.022 522.369 730.165 524.39C725.25 527.865 720.201 531.054 715.063 534.187C713.213 535.325 711.362 536.463 709.513 537.601C708.59 538.169 707.668 538.736 706.717 539.321C702.586 541.874 698.479 544.465 694.376 547.062C693.601 547.553 692.825 548.044 692.026 548.549C690.465 549.538 688.904 550.527 687.344 551.516C683.399 554.015 679.449 556.507 675.501 559C673.914 560.002 672.326 561.005 670.739 562.008C667.612 563.983 664.484 565.957 661.356 567.93C652.893 573.269 644.441 578.624 636.001 584C619.945 594.222 603.846 604.365 587.649 614.363C585.035 615.979 582.424 617.598 579.813 619.219C570.798 624.814 561.76 630.371 552.688 635.875C542.518 642.047 532.424 648.337 522.345 654.656C518.202 657.252 514.046 659.824 509.876 662.375C503.182 666.476 496.59 670.732 490.001 675C492.514 677.855 495.296 679.387 498.645 681.152C499.786 681.757 500.926 682.363 502.101 682.986C502.706 683.304 503.311 683.622 503.934 683.95C506.485 685.29 509.03 686.643 511.576 687.995C512.87 688.682 514.164 689.368 515.458 690.054C521.039 693.012 526.587 696.026 532.126 699.062C541.364 704.119 550.632 709.121 559.91 714.106C560.934 714.656 561.958 715.206 563.013 715.773C564.506 716.568 564.506 716.568 566.03 717.378C568.055 718.484 570.058 719.632 572.038 720.817C573.002 721.385 573.965 721.954 574.958 722.539C575.81 723.059 576.662 723.58 577.539 724.116C579.99 725.26 579.99 725.26 582.533 724.327C584.93 723.038 587.24 721.709 589.528 720.234C590.391 719.681 591.254 719.128 592.143 718.558C593.066 717.962 593.988 717.365 594.938 716.75C596.927 715.474 598.915 714.198 600.903 712.922C601.917 712.269 602.932 711.616 603.977 710.943C608.641 707.946 613.321 704.973 618.001 702C619.834 700.833 621.668 699.667 623.501 698.5C634.501 691.5 634.501 691.5 637.251 689.75C639.083 688.584 640.915 687.418 642.746 686.252C647.353 683.32 651.961 680.39 656.571 677.465C666.554 671.127 676.511 664.755 686.394 658.261C700.46 649.057 700.46 649.057 706.001 650C711.58 653.158 711.58 653.158 713.001 656C713.274 658.207 713.274 658.207 713.376 660.812C713.425 661.664 713.474 662.516 713.524 663.394C712.419 668.898 707.429 671.469 703.044 674.418C701.096 675.681 699.144 676.937 697.188 678.187C696.153 678.856 695.118 679.524 694.051 680.213C687.849 684.208 681.609 688.139 675.336 692.021C668.972 695.978 662.706 700.081 656.438 704.187C655.882 704.552 655.326 704.916 654.753 705.292C651.935 707.138 649.118 708.986 646.301 710.835C603.742 738.758 603.742 738.758 598.99 740.911C596.65 742.087 594.872 743.161 593.001 745C591.895 748.453 592.065 751.736 592.22 755.332C592.237 756.819 592.237 756.82 592.254 758.337C592.299 761.498 592.399 764.653 592.501 767.812C592.541 769.957 592.577 772.103 592.61 774.248C592.698 779.5 592.832 784.75 593.001 790C596.394 788.725 599.41 787.263 602.485 785.348C603.329 784.824 604.172 784.301 605.042 783.762C605.936 783.201 606.83 782.64 607.751 782.062C608.687 781.479 609.623 780.896 610.587 780.295C616.922 776.334 623.214 772.313 629.474 768.236C635.29 764.449 641.142 760.719 647.001 757C653.582 752.82 660.15 748.622 666.688 744.375C672.433 740.645 678.205 736.962 684.001 733.312C700.75 722.76 717.405 712.065 733.969 701.223C739.892 697.354 745.856 693.564 751.873 689.842C757.746 686.193 763.529 682.412 769.313 678.625C779.475 671.973 789.707 665.444 800.001 659C800.698 658.563 801.394 658.127 802.112 657.677C803.475 656.824 804.837 655.971 806.2 655.118C807.508 654.301 808.815 653.482 810.122 652.662C813.572 650.503 817.035 648.369 820.516 646.262C821.626 645.584 821.626 645.584 822.758 644.893C824.18 644.025 825.607 643.163 827.039 642.31C830.997 639.998 830.997 639.998 833.001 636C832.252 635.573 831.503 635.146 830.732 634.706C805.454 620.283 805.454 620.283 794.063 613.687C792.932 613.032 792.932 613.032 791.777 612.364C791.079 611.959 790.38 611.554 789.661 611.137C789.022 610.771 788.383 610.405 787.724 610.029C786.205 609.122 784.75 608.109 783.309 607.082C781.033 605.695 781.033 605.695 778.652 606.755C776.062 607.971 773.692 609.307 771.27 610.828C769.941 611.657 769.941 611.657 768.585 612.504C767.67 613.08 766.756 613.656 765.813 614.25C762.212 616.505 758.608 618.754 755.001 621C754.092 621.573 753.182 622.145 752.245 622.735C751.369 623.278 750.493 623.82 749.591 624.379C748.419 625.111 748.419 625.111 747.223 625.858C743.439 627.803 741.198 627.769 737.001 627C733.995 625.212 731.591 623.181 730.001 620C729.562 616.801 729.285 614.228 730.963 611.349C735.551 605.847 741.084 602.462 747.188 598.812C749.364 597.483 751.54 596.154 753.716 594.824C754.788 594.174 755.86 593.523 756.965 592.853C761.096 590.331 765.173 587.73 769.251 585.125C777.189 580.086 785.213 575.19 793.251 570.312C793.856 569.945 794.46 569.578 795.083 569.2C800.745 565.763 806.411 562.333 812.126 558.984C812.841 558.564 813.556 558.143 814.293 557.71C816.093 556.655 817.898 555.61 819.704 554.566C820.462 554.049 821.22 553.532 822.001 553C822.001 552.34 822.001 551.68 822.001 551C821.468 550.709 820.936 550.417 820.387 550.117C810.894 544.92 801.421 539.7 792.04 534.305C786.446 531.1 780.814 527.961 775.188 524.812C774.126 524.218 773.063 523.623 771.969 523.01C769.928 521.869 767.886 520.731 765.842 519.596C764.02 518.573 762.21 517.53 760.413 516.462C759.634 516.004 758.855 515.546 758.052 515.074C757.384 514.671 756.717 514.269 756.029 513.854C750.716 511.617 746.91 513.792 742.313 516.562ZM836.216 662.937C835.222 663.577 834.229 664.217 833.206 664.876C831.588 665.927 831.588 665.927 829.938 667C828.814 667.726 827.69 668.451 826.565 669.176C824.22 670.689 821.875 672.204 819.532 673.72C814.035 677.273 808.516 680.79 803.001 684.312C796.092 688.731 789.192 693.161 782.313 697.625C775.147 702.275 767.943 706.865 760.732 711.446C743.465 722.42 726.212 733.422 709.052 744.562C700.958 749.815 692.834 755.015 684.668 760.156C675.707 765.803 666.793 771.523 657.876 777.238C649.207 782.792 640.518 788.315 631.813 793.812C630.998 794.327 630.183 794.842 629.343 795.373C624.237 798.595 619.123 801.804 614.001 805C605.812 810.109 597.652 815.265 589.494 820.424C586.889 822.07 584.283 823.715 581.677 825.359C580.81 825.906 579.944 826.453 579.051 827.016C577.386 828.067 575.72 829.117 574.054 830.167C573.304 830.641 572.555 831.114 571.782 831.601C571.123 832.017 570.463 832.433 569.784 832.862C568.177 833.888 566.587 834.942 565.001 836C564.734 838.766 564.653 841.306 564.708 844.07C564.712 844.866 564.716 845.663 564.721 846.483C564.738 849.031 564.775 851.577 564.813 854.125C564.828 855.85 564.842 857.575 564.854 859.301C564.887 863.534 564.939 867.767 565.001 872C568.06 870.84 570.812 869.625 573.54 867.82C574.192 867.393 574.844 866.965 575.516 866.525C576.213 866.063 576.909 865.601 577.626 865.125C579.159 864.12 580.693 863.116 582.227 862.113C583.413 861.337 583.413 861.337 584.623 860.545C588.392 858.096 592.196 855.704 596.001 853.312C607.709 845.94 619.353 838.467 631.001 831C655.047 815.586 655.047 815.586 665.501 809C682.078 798.552 698.564 787.964 714.958 777.23C720.371 773.692 725.813 770.214 731.313 766.812C736.828 763.402 742.244 759.867 747.626 756.25C756.993 749.957 766.511 743.915 776.044 737.877C781.206 734.6 786.353 731.299 791.501 728C805.815 718.83 805.815 718.83 812.721 714.462C814.56 713.288 816.389 712.098 818.206 710.891C822.429 708.11 826.42 705.728 831.149 703.914C836.189 701.791 840.375 700.019 843.001 695C845.093 683.499 844.029 671.576 843.001 660C840.105 660 838.64 661.368 836.216 662.937ZM465.001 691C459.316 697.186 458.995 703.869 458.809 711.961C459.016 717.179 459.016 717.179 461.287 721.753C465.123 724.987 469.728 726.855 474.31 728.803C478.153 730.513 481.785 732.554 485.46 734.596C488.497 736.283 491.552 737.933 494.614 739.574C495.66 740.135 496.707 740.697 497.785 741.275C498.846 741.844 499.907 742.413 501.001 743C505.377 745.353 509.751 747.707 514.126 750.062C515.21 750.646 516.294 751.229 517.411 751.83C524.45 755.62 531.481 759.424 538.501 763.25C539.39 763.734 540.278 764.217 541.194 764.716C545.568 767.103 549.926 769.514 554.263 771.969C555.094 772.437 555.925 772.906 556.782 773.389C558.344 774.272 559.903 775.161 561.458 776.056C565.474 778.384 565.474 778.384 570.001 779C570.001 768.11 570.001 757.22 570.001 746C566.907 744.391 563.813 742.782 560.626 741.125C553.12 737.205 545.678 733.192 538.295 729.046C531.353 725.163 524.334 721.426 517.313 717.687C508.306 712.891 499.366 707.993 490.501 702.937C478.374 694.903 478.374 694.903 465.001 691ZM453.567 749.082C452.918 749.52 452.269 749.957 451.6 750.408C450.928 750.871 450.256 751.335 449.563 751.812C448.895 752.264 448.227 752.716 447.538 753.181C445.683 754.441 443.84 755.717 442.001 757C441.185 757.561 440.369 758.121 439.528 758.699C439.024 759.128 438.52 759.558 438.001 760C438.001 760.66 438.001 761.32 438.001 762C438.734 762.391 439.467 762.783 440.222 763.186C453.478 770.27 466.727 777.365 479.912 784.581C484.563 787.126 489.22 789.661 493.888 792.176C505.981 798.692 517.994 805.332 529.934 812.125C531.208 812.842 531.208 812.842 532.508 813.574C534.181 814.531 535.839 815.513 537.482 816.519C538.653 817.221 538.653 817.221 539.848 817.937C540.53 818.359 541.212 818.78 541.915 819.215C544.706 820.265 546.174 819.888 549.001 819C551.451 817.802 551.451 817.802 553.864 816.277C554.75 815.739 555.637 815.201 556.55 814.646C557.462 814.082 558.374 813.518 559.313 812.937C560.245 812.37 561.176 811.802 562.136 811.217C564.428 809.818 566.716 808.412 569.001 807C566.577 804.283 564 802.764 560.794 801.066C559.22 800.226 559.22 800.226 557.614 799.37C556.483 798.773 555.353 798.177 554.188 797.562C552.401 796.612 550.615 795.659 548.829 794.706C547.62 794.062 546.41 793.417 545.2 792.774C539.901 789.955 534.636 787.077 529.376 784.187C519.607 778.836 509.771 773.615 499.928 768.402C490.098 763.194 480.299 757.933 470.548 752.578C469.733 752.131 468.918 751.683 468.079 751.223C467.382 750.838 466.685 750.454 465.967 750.059C465.318 749.709 464.669 749.36 464.001 749C463.319 748.624 462.636 748.248 461.933 747.861C458.431 746.3 456.544 747.055 453.567 749.082ZM434.001 787C434.001 790.3 434.001 793.6 434.001 797C434.748 797.411 435.496 797.823 436.266 798.246C483.089 824.021 483.089 824.021 498.389 833.094C504.452 836.689 510.547 840.229 516.651 843.754C518.32 844.718 519.987 845.683 521.655 846.648C528.385 850.532 535.165 854.304 542.001 858C542.001 853.71 542.001 849.42 542.001 845C540.27 844.079 538.538 843.159 536.755 842.211C523.942 835.382 511.181 828.48 498.531 821.354C489.737 816.402 480.904 811.521 472.062 806.655C463.766 802.088 455.49 797.487 447.263 792.797C440.963 788.82 440.963 788.82 434.001 787Z" fill="#6F411E"/>
<path d="M428.463 189.925C431 189.999 431 189.999 434 190.999C437.353 191.307 440.706 191.508 444.066 191.718C447 191.999 447 191.999 449 192.999C450.6 193.203 452.205 193.364 453.812 193.499C457.924 193.878 461.847 194.454 465.852 195.468C468.061 196.014 470.277 196.512 472.5 196.999C474.694 197.48 476.877 197.967 479.051 198.534C481.27 199.103 481.27 199.103 484.688 199.437C486.327 199.715 486.327 199.715 488 199.999C488.33 200.659 488.66 201.319 489 201.999C491.637 202.844 491.637 202.844 494.75 203.499C498.68 204.39 502.284 205.443 506 206.999C506.681 207.164 507.361 207.329 508.062 207.499C510.246 208.063 512.011 208.942 514 209.999C516.829 211.43 519.681 212.808 522.547 214.163C523.391 214.563 524.236 214.963 525.105 215.374C526.415 215.993 526.415 215.993 527.75 216.624C528.638 217.045 529.526 217.465 530.441 217.898C532.627 218.932 534.814 219.966 537 220.999C537 221.659 537 222.319 537 222.999C539.532 224.746 542.072 226.385 544.688 227.999C557.161 235.897 568.309 244.829 579 254.999C579.656 255.603 580.312 256.206 580.988 256.827C585.628 261.222 589.182 266.275 592.789 271.523C595.234 274.261 596.403 274.759 600 274.999C600.086 275.666 600.173 276.332 600.262 277.019C601.225 280.909 602.961 284.151 604.812 287.687C609.234 296.354 613.155 304.198 614 313.999C614.517 316.437 615.229 318.68 616.027 321.049C617.271 325.437 617.226 329.616 617.135 334.147C617.121 335.48 617.121 335.48 617.107 336.84C617.073 339.757 617.025 342.673 616.977 345.589C616.95 347.619 616.925 349.65 616.901 351.68C616.834 357.008 616.755 362.336 616.674 367.664C616.593 373.107 616.523 378.55 616.453 383.993C616.314 394.662 616.161 405.331 616 415.999C616.66 415.999 617.32 415.999 618 415.999C618 416.659 618 417.319 618 417.999C617.34 417.999 616.68 417.999 616 417.999C616.138 421.625 616.287 425.249 616.438 428.874C616.477 429.907 616.516 430.939 616.557 432.003C616.599 432.989 616.64 433.975 616.684 434.991C616.72 435.903 616.757 436.814 616.795 437.753C616.866 440.034 616.866 440.034 618 441.999C617.34 441.999 616.68 441.999 616 441.999C616.488 442.724 616.488 442.724 616.986 443.464C618.447 447.117 618.265 450.688 618.23 454.562C618.23 455.39 618.23 456.218 618.229 457.072C618.226 458.82 618.218 460.568 618.206 462.317C618.188 464.99 618.185 467.662 618.186 470.335C618.181 472.036 618.175 473.736 618.168 475.437C618.166 476.634 618.166 476.634 618.165 477.855C618.115 483.625 618.115 483.625 617.366 486.054C616.706 488.315 616.706 488.315 619 490.999C619.042 493.332 619.042 495.666 619 497.999C619.33 498.989 619.66 499.979 620 500.999C620.144 501.989 620.289 502.979 620.438 503.999C620.829 507.167 620.829 507.167 623 509.999C623.72 511.652 624.405 513.32 625.062 514.999C625.575 516.299 625.575 516.299 626.098 517.624C627.814 522.143 629.013 526.18 628 530.999C623.481 538.386 615.875 542.777 608.75 547.312C606.597 548.701 604.446 550.093 602.297 551.488C600.879 552.393 600.879 552.393 599.433 553.317C597.346 554.76 595.749 556.187 594 557.999C591.014 559.99 588.403 560.941 585 561.999C586.114 558.657 586.488 558.409 589.352 556.695C590.039 556.276 590.726 555.857 591.434 555.425C592.157 554.996 592.88 554.567 593.625 554.124C598.915 550.939 604.016 547.649 609 543.999C608.247 540.674 607.124 538.425 605.25 535.562C599.972 526.887 596.987 517.722 594.75 507.874C594.587 507.159 594.424 506.443 594.255 505.706C591.891 494.607 591.815 483.351 591.684 472.05C591.663 470.541 591.642 469.032 591.621 467.523C591.566 463.59 591.516 459.656 591.468 455.722C591.417 451.692 591.362 447.663 591.307 443.634C591.2 435.756 591.098 427.878 591 419.999C590.206 420.934 589.411 421.868 588.593 422.831C587.524 424.084 586.455 425.336 585.387 426.589C584.866 427.202 584.346 427.815 583.809 428.446C573.538 440.471 561.326 453.836 547 460.999C546.996 461.688 546.993 462.376 546.989 463.085C546.947 470.255 546.878 477.425 546.792 484.595C546.762 487.271 546.743 489.945 546.729 492.621C546.708 496.469 546.661 500.316 546.609 504.163C546.608 505.357 546.607 506.551 546.606 507.781C546.468 515.588 545.572 519.172 540.25 524.874C536.858 526.57 533.663 526.64 530 525.999C525.945 523.896 523.688 522.226 522 517.999C521.759 515.924 521.759 515.924 521.773 513.69C521.773 512.849 521.773 512.009 521.773 511.143C521.784 510.244 521.794 509.346 521.805 508.421C521.809 507.031 521.809 507.031 521.813 505.613C521.824 502.659 521.85 499.704 521.875 496.749C521.885 494.744 521.894 492.739 521.902 490.734C521.924 485.822 521.959 480.911 522 475.999C521.391 476.268 520.783 476.537 520.155 476.814C462.041 502.436 400.124 508.311 338 494.999C337.211 494.832 336.421 494.664 335.608 494.491C327.217 492.667 319.151 490.106 311.023 487.366C310.056 487.042 309.089 486.718 308.093 486.384C305.728 485.591 303.364 484.796 301 483.999C301.009 484.763 301.018 485.526 301.027 486.313C301.107 493.522 301.168 500.73 301.207 507.94C301.228 511.646 301.256 515.352 301.302 519.057C301.345 522.637 301.369 526.215 301.38 529.795C301.387 531.157 301.401 532.52 301.423 533.883C301.626 547.207 301.626 547.207 297 551.999C292.753 554.831 288.987 554.644 284 553.999C279.853 551.666 278.407 549.456 277 544.999C276.816 541.756 276.816 541.756 276.903 538.041C276.929 536.632 276.955 535.222 276.98 533.813C276.997 533.072 277.014 532.33 277.031 531.566C277.112 527.615 277.127 523.664 277.152 519.712C277.188 514.694 277.243 509.679 277.374 504.663C277.478 500.597 277.513 496.536 277.503 492.469C277.511 490.926 277.545 489.383 277.604 487.841C277.785 482.97 277.705 478.641 276 473.999C272.155 470.034 266.99 468.127 262 465.999C260.419 465.034 258.856 464.038 257.336 462.98C256.676 462.521 256.015 462.062 255.335 461.589C254.688 461.127 254.041 460.664 253.375 460.187C252.304 459.424 252.304 459.424 251.212 458.646C245.23 454.307 239.761 449.624 234.48 444.444C232.901 442.903 231.297 441.391 229.691 439.878C228.564 438.795 227.437 437.71 226.312 436.624C225.814 436.156 225.315 435.687 224.802 435.205C221.118 431.576 218.2 427.528 215.294 423.266C214.879 422.663 214.465 422.06 214.038 421.438C213.023 419.96 212.011 418.48 211 416.999C210.991 418.53 210.991 418.53 210.982 420.092C210.925 429.798 210.852 439.505 210.764 449.211C210.72 454.199 210.681 459.187 210.654 464.175C210.627 469.005 210.587 473.836 210.537 478.666C210.52 480.492 210.509 482.317 210.502 484.143C210.36 521.595 200.727 557.266 179 587.999C177.654 589.991 176.326 591.994 175 593.999C182.464 596.383 189.665 596.436 197.438 596.437C198.167 596.439 198.896 596.441 199.647 596.443C214.623 596.435 228.384 593.876 242.82 589.964C248.779 588.359 253.943 587.162 260 588.999C263.583 591.21 265.396 593.156 267 596.999C267.807 603.131 266.599 608.889 264.875 614.749C264.651 615.53 264.426 616.311 264.195 617.115C262.116 624.08 259.345 630.545 256 636.999C255.419 638.135 254.837 639.271 254.238 640.441C251.167 646.298 247.906 651.672 244 656.999C274.84 658.401 301.725 649.1 329.978 637.584C349.808 629.556 372.387 621.857 394 621.999C393.991 620.983 393.982 619.967 393.973 618.92C393.892 609.341 393.832 599.763 393.793 590.184C393.772 585.259 393.744 580.335 393.698 575.411C393.655 570.658 393.631 565.905 393.62 561.153C393.613 559.34 393.599 557.527 393.577 555.714C393.548 553.174 393.544 550.635 393.546 548.094C393.532 547.345 393.517 546.597 393.502 545.825C393.541 540.919 394.529 538.455 398 534.999C401.487 532.474 404.798 532.565 409 532.999C412.704 535.026 414.654 536.48 417 539.999C417.184 542.688 417.252 545.271 417.227 547.959C417.227 548.769 417.228 549.579 417.228 550.413C417.227 553.092 417.211 555.77 417.195 558.448C417.192 560.305 417.189 562.162 417.187 564.018C417.179 568.906 417.159 573.793 417.137 578.681C417.117 583.668 417.108 588.655 417.098 593.642C417.076 603.428 417.042 613.213 417 622.999C418.011 623.125 419.021 623.251 420.063 623.381C421.412 623.554 422.762 623.727 424.112 623.9C424.775 623.982 425.438 624.064 426.122 624.149C432.282 624.947 438.036 626.487 443.938 628.374C445.381 628.811 445.381 628.811 446.854 629.257C461.808 633.912 461.808 633.912 464.215 638.126C464.474 638.744 464.733 639.362 465 639.999C462.605 641.605 460.209 643.209 457.812 644.812C457.139 645.264 456.465 645.715 455.771 646.181C445.569 652.999 445.569 652.999 442 652.999C442 653.659 442 654.319 442 654.999C441.01 654.669 440.02 654.339 439 653.999C438.265 653.762 437.53 653.525 436.773 653.281C435.982 653.023 435.19 652.765 434.375 652.499C433.578 652.241 432.782 651.984 431.961 651.718C430 650.999 430 650.999 429 649.999C426.485 649.715 423.97 649.551 421.445 649.378C419 648.999 419 648.999 416 646.999C413.207 646.69 413.207 646.69 410.047 646.734C408.282 646.73 408.282 646.73 406.48 646.726C405.249 646.734 404.018 646.741 402.75 646.749C401.534 646.742 400.319 646.734 399.066 646.726C393.011 646.739 387.699 646.875 382 648.999C382 649.329 382 649.659 382 649.999C378.459 650.815 374.917 651.626 371.375 652.437C369.876 652.782 369.876 652.782 368.348 653.134C364.394 654.037 360.488 654.925 356.477 655.534C353.759 655.877 353.759 655.877 351 657.999C348.342 659.061 345.687 660.079 343 661.062C342.276 661.331 341.551 661.599 340.805 661.876C337.882 662.957 334.957 664.014 332 664.999C330.289 665.626 328.58 666.257 326.871 666.89C284.641 682.425 284.641 682.425 267 681.999C267 682.329 267 682.659 267 682.999C241.871 684.935 241.871 684.935 236 681.999C234.845 681.917 233.69 681.834 232.5 681.749C225.319 680.925 218.158 676.996 213 671.999C211.688 669.749 211.688 669.749 211 667.999C211.33 667.669 211.66 667.339 212 666.999C212.092 665.655 212.159 664.31 212.215 662.964C212.78 657.384 215.232 653.94 218.562 649.562C219.588 648.17 220.611 646.776 221.629 645.378C222.083 644.776 222.538 644.173 223.006 643.552C224.18 642.026 224.18 642.026 224 639.999C224.866 639.164 224.866 639.164 225.75 638.312C229.799 634.15 233 629.001 233 622.999C233 622.339 233 621.679 233 620.999C232.172 621.073 231.343 621.147 230.49 621.222C219.961 622.051 209.505 622.119 198.948 621.922C197.026 621.89 195.104 621.869 193.182 621.859C180.559 621.79 169.809 620.542 158 615.999C157.01 615.669 156.02 615.339 155 614.999C153.644 613.689 152.314 612.352 151 610.999C150.154 610.401 149.309 609.803 148.438 609.187C144.465 605.622 143.227 601.779 142.562 596.562C143.457 589.274 146.793 585.065 151.688 579.874C161.313 569.612 169.538 556.386 174 542.999C174.66 542.009 175.32 541.019 176 539.999C176.167 536.874 176.167 536.874 176 533.999C176.66 533.999 177.32 533.999 178 533.999C178.186 532.391 178.186 532.391 178.375 530.749C178.914 527.514 179.588 525.824 181 522.999C181.039 521.333 181.045 519.665 181 517.999C181.33 517.669 181.66 517.339 182 516.999C181.34 515.349 180.68 513.699 180 511.999C180.99 511.999 181.98 511.999 183 511.999C183.33 503.089 183.66 494.179 184 484.999C184.33 484.999 184.66 484.999 185 484.999C185.33 491.929 185.66 498.859 186 505.999C187.26 488.669 187.097 471.365 187 453.999C186.67 453.999 186.34 453.999 186 453.999C186 451.359 186 448.719 186 445.999V445.5V445C185.67 429.49 185.34 413.979 185 397.999C184.67 397.999 184.34 397.999 184 397.999C184 394.369 184 390.739 184 386.999C184.66 386.999 185.32 386.999 186 386.999C186 379.409 186 371.819 186 363.999C185.34 363.669 184.68 363.339 184 362.999C184.66 362.999 185.32 362.999 186 362.999C186 362.339 186 361.679 186 360.999C185.34 360.999 184.68 360.999 184 360.999C183.971 357.853 183.953 354.708 183.938 351.562C183.929 350.683 183.921 349.805 183.912 348.9C183.891 343.181 184.267 337.671 185 331.999C185.33 331.999 185.66 331.999 186 331.999C186.495 343.879 186.495 343.879 187 355.999C187.023 351.837 187.043 347.674 187.055 343.511C187.06 342.097 187.067 340.683 187.075 339.269C187.088 337.229 187.093 335.188 187.098 333.148C187.103 331.922 187.108 330.697 187.114 329.434C187.076 325.993 187.076 325.993 186.431 322.615C186.289 321.752 186.147 320.889 186 319.999C186.33 319.669 186.66 319.339 187 318.999C187.352 316.669 187.683 314.335 188 311.999C190.829 298.869 197.991 284.725 206 273.999C208.051 272.874 208.051 272.874 210 271.999C211.667 270.177 211.667 270.177 213.188 267.999C235.582 238.236 270.447 217.754 305.292 205.799C308.836 204.767 308.836 204.767 311 201.999C313.145 201.183 313.145 201.183 315.812 200.437C316.685 200.188 317.558 199.939 318.457 199.683C320.633 199.098 322.813 198.542 325 197.999C325.937 197.75 326.874 197.502 327.84 197.245C328.862 196.979 329.884 196.712 330.938 196.437C331.957 196.167 332.977 195.898 334.027 195.62C337 194.999 337 194.999 339.754 195.097C340.495 195.065 341.236 195.032 342 194.999C342.66 194.009 343.32 193.019 344 191.999C346.31 192.329 348.62 192.659 351 192.999C351 192.669 351 192.339 351 191.999C352.958 191.805 354.916 191.619 356.875 191.437C358.511 191.28 358.511 191.28 360.18 191.12C363 190.999 363 190.999 365 191.999C366.713 191.92 368.423 191.772 370.129 191.597C380.711 190.69 391.323 190.635 401.938 190.437C404.092 190.393 406.246 190.35 408.4 190.306C418.869 190.096 418.869 190.096 422.74 190.035C424.648 190.005 426.556 189.966 428.463 189.925ZM348 218.999C346.93 219.246 345.86 219.493 344.757 219.747C323.604 224.757 303.127 231.61 284 241.999C282.835 242.613 281.669 243.226 280.469 243.859C267.083 251.155 255.014 260.48 244 270.999C243.403 271.545 242.806 272.09 242.191 272.652C224.592 289.276 211.602 313.431 210.664 337.847C210.188 370.426 221.854 395.943 244.185 419.592C256.931 432.605 271.982 442.492 288 450.999C289.019 451.546 289.019 451.546 290.059 452.103C347.015 482.146 419.937 484.192 480.562 465.562C483.05 464.732 485.529 463.877 488 462.999C488.682 462.762 489.364 462.524 490.067 462.279C516.449 452.99 539.292 438.801 559 418.999C559.486 418.516 559.972 418.033 560.472 417.535C581.181 396.708 591.279 369.782 591.317 340.74C591.209 331.528 590.019 323.71 587 314.999C586.679 314.053 586.679 314.053 586.351 313.089C581.133 298.023 572.648 285.695 562 273.999C561.22 273.136 560.44 272.272 559.637 271.382C529.293 239.458 484.202 224.344 442 216.999C440.989 216.805 439.978 216.611 438.937 216.41C426.827 214.328 414.563 214.602 402.312 214.624C401.127 214.625 399.942 214.626 398.722 214.627C381.509 214.669 364.83 215.043 348 218.999Z" fill="#6F401E"/>
<path d="M210 416C212.94 418.877 215.283 421.742 217.625 425.125C232.331 444.887 251.307 458.55 272.245 470.938C273.858 471.914 275.431 472.954 277 474C277.379 476.896 277.379 476.896 277.385 480.649C277.39 481.333 277.396 482.016 277.401 482.72C277.411 484.205 277.414 485.691 277.411 487.177C277.406 489.531 277.42 491.885 277.439 494.239C277.476 499.243 277.49 504.246 277.5 509.25C277.512 515.035 277.534 520.819 277.58 526.604C277.594 528.918 277.589 531.232 277.585 533.546C277.594 534.975 277.604 536.404 277.615 537.833C277.617 539.075 277.619 540.317 277.621 541.596C278.042 545.382 278.997 547.776 281 551C285.226 553.817 289.036 553.8 294 553C296.824 550.81 298.415 549.17 300 546C300.12 544.03 300.177 542.055 300.205 540.082C300.225 538.84 300.245 537.599 300.266 536.321C300.283 534.961 300.3 533.602 300.316 532.242C300.337 530.855 300.358 529.468 300.379 528.081C300.435 524.428 300.484 520.775 300.532 517.122C300.582 513.395 300.638 509.668 300.693 505.941C300.801 498.628 300.902 491.314 301 484C302.926 484.473 304.851 484.948 306.777 485.424C307.849 485.689 308.921 485.953 310.026 486.225C313.331 487.086 316.489 488.179 319.688 489.375C342.344 497.302 368.057 500.361 392 501C392.879 501.027 393.757 501.054 394.663 501.083C421.99 501.825 448.538 498.797 475 492C475.93 491.769 476.859 491.539 477.817 491.301C491.762 487.812 504.767 482.63 517.903 476.823C520 476 520 476 522 476C522.022 477.869 522.022 477.869 522.044 479.776C522.102 484.408 522.179 489.039 522.262 493.67C522.296 495.673 522.324 497.675 522.346 499.678C522.38 502.561 522.432 505.442 522.488 508.324C522.498 509.664 522.498 509.664 522.508 511.03C522.621 515.828 522.895 519.098 526 523C529.01 525.341 532.28 525.418 536.035 525.32C539.203 524.804 540.84 523.288 543 521C545.03 517.758 545.204 515.385 545.065 511.596C545.017 509.973 545.017 509.973 544.969 508.317C544.93 507.15 544.891 505.983 544.852 504.781C544.813 502.297 544.78 499.813 544.75 497.328C544.699 493.419 544.626 489.518 544.476 485.611C543.708 464.462 543.708 464.462 547.532 458.686C551.191 454.938 555.355 452.48 559.997 450.13C563.244 448.298 565.832 445.827 568.5 443.25C569.455 442.346 570.41 441.443 571.395 440.512C572.254 439.683 573.114 438.854 574 438C574.726 437.326 575.451 436.652 576.199 435.957C581.197 431.195 585.188 425.925 589.215 420.344C589.804 419.57 590.393 418.797 591 418C591.33 418 591.66 418 592 418C592.008 418.841 592.016 419.683 592.025 420.55C592.103 428.551 592.191 436.551 592.288 444.552C592.337 448.663 592.383 452.774 592.422 456.886C592.459 460.867 592.506 464.848 592.558 468.829C592.576 470.334 592.592 471.839 592.603 473.345C592.713 486.87 593.598 500.377 597.125 513.5C597.332 514.28 597.538 515.061 597.751 515.865C600.128 524.267 603.725 534.725 610 541C609.794 543.521 609.372 544.656 607.504 546.381C606.863 546.793 606.223 547.205 605.562 547.629C604.841 548.101 604.12 548.573 603.377 549.059C602.2 549.803 602.2 549.803 601 550.562C600.191 551.088 599.381 551.613 598.547 552.154C596.038 553.78 593.519 555.39 591 557C589.539 557.946 588.08 558.894 586.621 559.844C583.119 562.122 579.609 564.388 576.096 566.65C572.623 568.887 569.155 571.131 565.688 573.375C564.994 573.824 564.3 574.272 563.586 574.735C558.052 578.315 552.525 581.907 547 585.5C536.669 592.219 526.324 598.915 515.973 605.602C514.607 606.484 513.241 607.367 511.875 608.25C511.19 608.692 510.506 609.134 509.801 609.59C504.644 612.925 499.507 616.29 494.374 619.662C491.418 621.597 488.45 623.515 485.48 625.43C482.119 627.599 478.813 629.818 475.551 632.133C474.263 633.006 472.976 633.878 471.688 634.75C470.619 635.508 469.55 636.266 468.449 637.047C464.426 638.158 463.847 637.771 460.281 635.93C458.998 635.2 458.998 635.2 457.688 634.455C453.287 632.073 448.596 630.784 443.812 629.375C442.886 629.089 441.96 628.803 441.006 628.508C435.428 626.833 429.831 625.51 424.116 624.397C423.428 624.261 422.741 624.126 422.032 623.986C420.355 623.655 418.678 623.327 417 623C416.999 621.971 416.997 620.943 416.996 619.883C416.979 610.186 416.936 600.49 416.868 590.793C416.834 585.808 416.809 580.824 416.804 575.839C416.8 571.027 416.772 566.217 416.727 561.405C416.714 559.57 416.709 557.735 416.714 555.9C416.719 553.328 416.693 550.758 416.659 548.187C416.668 547.429 416.677 546.67 416.686 545.889C416.599 541.897 416.148 540.181 413.584 537.051C409.527 533.831 407.203 533.566 402 534C397.76 536.259 397.76 536.259 395 540C394.878 542.593 394.814 545.16 394.795 547.754C394.785 548.554 394.775 549.355 394.765 550.179C394.733 552.83 394.708 555.481 394.684 558.133C394.663 559.968 394.642 561.804 394.621 563.64C394.565 568.476 394.516 573.313 394.468 578.149C394.418 583.083 394.362 588.016 394.307 592.949C394.199 602.633 394.098 612.316 394 622C393.357 622.109 392.713 622.218 392.05 622.33C389.079 622.836 386.108 623.346 383.137 623.855C382.125 624.027 381.113 624.198 380.071 624.375C359.384 627.937 340.134 634.322 320.686 642.113C307.941 647.212 295.319 651.67 282 655C280.128 655.507 280.128 655.507 278.219 656.023C266.618 658.821 254.858 658.287 243 658C243.455 657.32 243.91 656.641 244.379 655.94C252.446 643.794 258.591 630.896 263 617C263.32 616.01 263.639 615.02 263.969 614C265.978 607.303 267.496 600.823 264.875 594.125C262.314 591.223 260.74 590.181 257 589C248.809 588.545 240.918 590.885 233.115 593.096C222.171 596.182 211.801 597.327 200.456 597.261C198.24 597.25 196.025 597.261 193.809 597.273C192.378 597.272 190.947 597.27 189.516 597.266C187.602 597.262 187.602 597.262 185.649 597.259C181.765 596.983 178.687 596.197 175 595C175 590.972 177.022 589.058 179.375 586C198.686 559.835 208.964 525.489 209.205 493.084C209.215 492.244 209.225 491.403 209.235 490.538C209.267 487.795 209.292 485.052 209.316 482.309C209.337 480.393 209.358 478.478 209.379 476.563C209.434 471.547 209.484 466.531 209.532 461.516C209.583 456.387 209.638 451.259 209.693 446.131C209.801 436.087 209.902 426.044 210 416Z" fill="#A1642D"/>
<path d="M756 514C758.988 515.332 758.988 515.332 761.957 517.027C763.061 517.65 764.165 518.272 765.302 518.914C766.472 519.588 767.642 520.263 768.812 520.937C770.024 521.625 771.237 522.312 772.45 522.998C774.86 524.362 777.267 525.731 779.672 527.105C784.032 529.587 788.42 532.015 792.812 534.437C800.246 538.56 807.63 542.765 815 547C817.333 548.334 819.666 549.667 822 551C822 551.66 822 552.32 822 553C820.314 554.214 820.314 554.214 817.926 555.582C817.041 556.095 816.157 556.608 815.246 557.136C814.278 557.69 813.31 558.243 812.312 558.812C810.278 559.994 808.244 561.178 806.211 562.363C804.652 563.271 804.652 563.271 803.062 564.198C798.477 566.896 793.953 569.688 789.438 572.5C788.575 573.037 787.713 573.573 786.825 574.126C785.083 575.212 783.341 576.297 781.6 577.384C779.014 578.991 776.42 580.587 773.824 582.179C764.326 588.009 754.881 593.921 745.5 599.937C744.526 600.552 743.553 601.167 742.549 601.8C737.498 605.066 733.396 607.991 730 613C729.381 616.466 729.19 618.672 731.062 621.742C732.832 623.943 734.455 625.727 737 627C743.088 627.488 746.688 626.659 751.812 623.25C752.748 622.664 752.748 622.664 753.703 622.067C757.512 619.67 761.247 617.166 764.984 614.66C765.828 614.105 766.671 613.549 767.54 612.977C769.199 611.882 770.845 610.769 772.478 609.636C778.168 605.881 778.168 605.881 782.219 606.461C785.02 608.011 787.75 609.571 790.438 611.312C796.691 615.282 803.106 618.935 809.562 622.562C817.415 626.976 825.246 631.414 833 636C831.671 639.141 830.554 640.606 827.578 642.261C826.89 642.653 826.202 643.045 825.493 643.448C824.753 643.857 824.013 644.266 823.25 644.687C821.685 645.58 820.121 646.474 818.559 647.371C817.781 647.815 817.004 648.26 816.203 648.718C812.607 650.81 809.13 653.067 805.643 655.336C804.776 655.9 804.776 655.9 803.891 656.476C802.975 657.072 802.975 657.072 802.041 657.68C798.825 659.76 795.587 661.806 792.352 663.856C783.695 669.344 775.077 674.887 766.5 680.5C752.946 689.367 739.274 698.047 725.572 706.684C724.785 707.18 723.998 707.676 723.188 708.187C722.408 708.679 721.628 709.17 720.824 709.677C715.06 713.316 709.331 717.009 703.613 720.722C693.173 727.494 682.652 734.14 672.147 740.811C662.912 746.677 653.678 752.543 644.5 758.5C635.297 764.472 626.041 770.359 616.776 776.235C613.995 778.003 611.22 779.78 608.445 781.558C606.714 782.664 604.982 783.769 603.25 784.875C602.044 785.652 602.044 785.652 600.813 786.445C599.707 787.149 599.707 787.149 598.578 787.867C597.933 788.281 597.287 788.694 596.622 789.12C595 790 595 790 593 790C592.602 783.775 592.313 777.558 592.121 771.323C592.041 769.207 591.932 767.093 591.793 764.98C590.702 747.973 590.702 747.973 594.444 743.132C598.183 739.886 602.449 737.854 606.97 735.909C609.784 734.649 612.283 733.016 614.848 731.312C615.711 730.764 616.575 730.216 617.465 729.652C625.162 724.756 632.829 719.83 640.401 714.744C656.173 704.159 672.227 693.997 688.232 683.769C691.886 681.433 695.538 679.094 699.188 676.75C700.192 676.105 701.196 675.461 702.23 674.797C703.144 674.204 704.058 673.611 705 673C706.603 671.987 706.603 671.987 708.238 670.953C711.178 669.122 711.178 669.122 713 666C713.546 662.609 713.546 659.391 713 656C710.81 653.176 709.17 651.585 706 650C700.746 649.449 697.982 650.788 693.562 653.562C692.928 653.956 692.294 654.351 691.641 654.757C689.415 656.152 687.206 657.572 685 659C684.146 659.552 683.293 660.104 682.413 660.673C677.589 663.801 672.777 666.948 667.969 670.101C659.616 675.572 651.181 680.912 642.747 686.257C639.028 688.616 635.313 690.983 631.599 693.35C625.403 697.297 619.207 701.242 612.992 705.16C612.192 705.665 611.391 706.17 610.566 706.69C608.999 707.677 607.43 708.66 605.86 709.641C601.932 712.104 598.063 714.624 594.25 717.261C593.483 717.784 592.716 718.306 591.925 718.845C590.473 719.838 589.032 720.847 587.604 721.876C586.955 722.316 586.306 722.757 585.637 723.211C585.077 723.606 584.517 724.001 583.94 724.407C580.083 725.585 576.607 723.295 573.161 721.618C572.185 721.089 571.209 720.56 570.203 720.015C569.093 719.417 567.983 718.819 566.839 718.202C565.642 717.552 564.446 716.901 563.25 716.25C562 715.574 560.75 714.898 559.499 714.223C556.926 712.833 554.353 711.44 551.782 710.046C548.255 708.136 544.721 706.241 541.184 704.351C527.843 697.217 514.623 689.897 501.48 682.406C497.668 680.245 493.836 678.119 490 676C493.387 672.189 497.181 669.972 501.562 667.5C507.88 663.86 514.1 660.103 520.25 656.187C534.171 647.337 548.21 638.683 562.312 630.125C578.246 620.451 594.025 610.531 609.774 600.56C615.171 597.146 620.585 593.76 626.005 590.382C634.667 584.983 643.3 579.549 651.856 573.983C665.15 565.34 678.624 556.978 692.074 548.58C703.884 541.204 715.677 533.802 727.375 526.25C748.66 512.527 748.66 512.527 756 514ZM651.125 606.25C650.015 606.99 648.903 607.728 647.79 608.464C645.558 609.942 643.333 611.429 641.112 612.923C636.895 615.737 632.612 618.438 628.312 621.125C626.802 622.077 625.291 623.03 623.781 623.984C621.248 625.582 618.714 627.18 616.18 628.775C613.222 630.638 610.267 632.506 607.312 634.375C606.403 634.946 605.494 635.517 604.558 636.106C595.075 641.346 595.075 641.346 588 649C587.355 654.206 587.083 657.817 590.375 662.062C593.85 664.627 596.18 665.554 600.578 665.445C605.282 664.58 609.038 661.853 613.006 659.288C615.29 657.812 617.59 656.361 619.891 654.91C624.625 651.917 629.345 648.901 634.062 645.88C638.829 642.829 643.602 639.789 648.375 636.75C649.284 636.17 650.193 635.59 651.13 634.992C655.335 632.313 659.549 629.651 663.797 627.039C664.532 626.585 665.268 626.132 666.026 625.665C667.374 624.836 668.725 624.012 670.08 623.194C676.822 619.056 676.822 619.056 679.938 612.125C680.252 608.009 679.394 605.431 677 602C673.552 598.957 670.196 598.444 665.64 598.513C660.104 599.534 655.688 603.116 651.125 606.25Z" fill="#A1662E"/>
<path d="M400.939 214.499C402.1 214.501 403.262 214.502 404.459 214.504C422.823 214.56 440.09 215.715 458.001 219.999C459.515 220.336 459.515 220.336 461.06 220.68C489.19 226.963 516.663 237.915 540.001 254.999C540.596 255.434 541.191 255.868 541.804 256.315C566.059 274.223 584.945 298.14 590.622 328.317C594.487 355.645 587.45 382.957 571.001 404.999C539.171 446.256 490.13 467.889 439.295 474.707C438.538 474.803 437.781 474.9 437.001 474.999C435.794 475.154 435.794 475.154 434.562 475.311C408.088 478.531 382.268 477.339 356.001 472.999C355.065 472.85 354.128 472.7 353.164 472.546C332.007 469.088 311.187 462.567 292.001 452.999C291.335 452.669 290.67 452.339 289.984 451.999C257.614 435.771 227.017 409.339 215.126 374.187C207.472 350.502 209.693 326.444 219.439 303.855C221.008 300.986 222.652 299.237 225.001 296.999C226.346 294.911 227.547 292.779 228.755 290.609C229.166 290.078 229.577 289.547 230.001 288.999C230.991 288.999 231.981 288.999 233.001 288.999C233.228 288.484 233.455 287.968 233.689 287.437C236.626 281.981 240.528 277.272 244.595 272.624C245.791 271.242 246.934 269.812 248.064 268.374C270.171 241.275 310.341 227.916 343.064 220.249C343.852 220.063 344.64 219.876 345.452 219.684C348.293 219.056 351.138 218.515 354.001 217.999C355.047 217.811 355.047 217.811 356.114 217.618C371.066 215.004 385.781 214.439 400.939 214.499ZM289.001 278.999C288.494 279.403 287.987 279.806 287.464 280.222C270.661 293.701 255.797 311.074 252.001 332.999C250.226 355.35 254.334 374.224 268.439 391.937C269.934 393.647 271.455 395.335 273.001 396.999C273.771 397.837 274.54 398.675 275.333 399.538C302.923 428.332 345.987 443.557 385.391 445.092C387.781 445.13 390.169 445.138 392.56 445.132C393.864 445.134 393.864 445.134 395.195 445.135C397.02 445.136 398.844 445.134 400.668 445.13C403.428 445.124 406.188 445.13 408.948 445.136C423.233 445.145 436.29 444.054 450.189 440.562C450.885 440.388 451.582 440.214 452.299 440.035C471.47 435.196 489.546 428.077 506.001 416.999C506.968 416.355 507.935 415.71 508.931 415.046C527.093 402.389 540.698 386.113 548.001 364.999C548.359 363.985 548.718 362.97 549.087 361.925C553.994 344.25 549.232 325.009 540.97 309.308C537.829 304.03 534.154 299.509 530.001 294.999C529.551 294.507 529.101 294.015 528.637 293.507C521.53 285.811 513.95 279.52 505.001 273.999C504.403 273.627 503.806 273.255 503.19 272.871C481.905 259.796 457.558 252.074 433.001 247.999C431.849 247.794 430.696 247.589 429.509 247.378C383.117 240.267 326.514 249.148 289.001 278.999Z" fill="#EAC28B"/>
<path d="M822.999 200C830.743 207.275 832.308 220.669 834.499 230.562C834.648 231.23 834.798 231.898 834.952 232.585C839.209 251.643 842.874 271.189 843.315 290.754C843.336 291.54 843.357 292.327 843.378 293.137C843.443 295.612 843.502 298.087 843.561 300.562C843.605 302.256 843.648 303.949 843.692 305.643C843.798 309.762 843.9 313.881 843.999 318C843.339 318 842.679 318 841.999 318C842.034 318.536 842.068 319.072 842.104 319.625C843.351 355.726 821.857 390.469 798.686 416.262C779.999 435.302 756.391 447.656 732.51 458.814C730.323 459.847 728.156 460.908 725.999 462C725.999 462.66 725.999 463.32 725.999 464C725.339 464 724.679 464 723.999 464C723.999 463.34 723.999 462.68 723.999 462C722.926 462.433 721.854 462.866 720.749 463.312C714.535 465.647 707.673 468 700.999 468C701.556 463.2 702.95 459.706 705.186 455.437C705.914 454.023 706.639 452.608 707.362 451.191C707.774 450.386 708.186 449.58 708.611 448.75C711.119 443.781 713.542 438.77 715.964 433.759C716.571 432.502 717.179 431.246 717.788 429.99C720.937 423.494 724.037 416.986 726.948 410.379C727.394 409.37 727.839 408.362 728.298 407.323C729.116 405.454 729.923 403.58 730.715 401.701C731.078 400.87 731.441 400.039 731.815 399.184C732.119 398.467 732.423 397.751 732.735 397.013C735.528 392.563 740.225 390.161 744.698 387.637C746.371 386.688 746.371 386.688 748.077 385.72C748.665 385.389 749.254 385.058 749.86 384.716C751.713 383.673 753.561 382.622 755.409 381.569C761.143 378.304 766.887 375.057 772.652 371.848C774.458 370.841 776.26 369.827 778.061 368.812C780.308 367.546 782.561 366.291 784.822 365.05C792.282 360.863 792.282 360.863 796.999 354C797.923 350.183 797.544 346.948 795.561 343.5C791.724 341.254 788.348 341.26 783.999 342C780.614 343.609 777.734 345.748 774.749 348C773.09 349.192 771.43 350.382 769.768 351.57C768.962 352.155 768.156 352.739 767.325 353.341C764.101 355.64 760.801 357.788 757.436 359.875C756.424 360.512 755.413 361.149 754.37 361.805C753.587 362.199 752.805 362.594 751.999 363C751.339 362.67 750.679 362.34 749.999 362C769 323.807 769 323.807 775.613 311.411C778.855 305.32 781.971 299.169 785.061 293C785.54 292.048 786.018 291.096 786.511 290.115C787.172 288.79 787.172 288.79 787.846 287.437C788.434 286.26 788.434 286.26 789.034 285.059C791.043 280.772 791.782 276.683 790.999 272C789.014 269.023 787.631 267.372 784.061 266.559C780.434 266.346 778.667 266.544 775.587 268.646C772.652 271.315 771.29 273.681 769.529 277.227C769.219 277.842 768.909 278.458 768.59 279.092C767.573 281.121 766.573 283.158 765.573 285.195C764.86 286.627 764.147 288.058 763.432 289.488C761.935 292.492 760.445 295.5 758.962 298.511C757.087 302.318 755.198 306.117 753.304 309.915C743.286 329.866 743.286 329.866 734.169 350.237C732.196 354.901 732.196 354.901 729.999 356C729.863 354.825 729.727 353.65 729.587 352.439C729.078 348.056 728.555 343.675 728.027 339.295C727.802 337.403 727.58 335.511 727.361 333.618C727.046 330.888 726.717 328.161 726.386 325.434C726.292 324.595 726.198 323.756 726.101 322.892C725.461 317.767 724.381 313.604 721.999 309C718.482 307.242 714.828 307.346 710.999 308C707.509 310.564 706.374 312.062 705.561 316.262C704.755 333.527 710.505 351.872 714.632 368.461C714.857 369.409 715.082 370.357 715.314 371.334C715.944 373.959 715.944 373.959 716.816 376.275C718.86 382.51 717.036 386.498 714.264 392.273C713.39 393.994 713.39 393.994 712.499 395.75C711.9 396.977 711.303 398.205 710.709 399.434C709.461 402.003 708.2 404.564 706.926 407.12C705.042 410.902 703.196 414.702 701.362 418.508C701.067 419.12 700.772 419.733 700.468 420.364C699.876 421.592 699.284 422.82 698.693 424.048C697.816 425.866 696.935 427.682 696.053 429.498C690.843 440.246 685.866 451.093 680.999 462C678.206 458.466 676.796 455.145 675.311 450.875C674.874 449.635 674.437 448.395 673.987 447.117C672.999 444 672.999 444 672.999 442C672.339 442 671.679 442 670.999 442C665.558 424.137 661.521 405.725 660.999 387C660.939 385.314 660.939 385.314 660.878 383.594C660.356 355.37 664.311 315.815 682.8 292.754C685.079 289.899 687.132 286.958 689.186 283.937C702.407 264.723 702.407 264.723 710.721 258.766C715.033 255.614 718.98 252.216 722.874 248.562C727.962 243.832 733.163 239.766 738.999 236C739.963 235.365 739.963 235.365 740.946 234.716C757.339 223.924 774.417 214.948 792.265 206.813C793.528 206.237 794.79 205.659 796.051 205.077C816.565 195.648 816.565 195.648 822.999 200Z" fill="#8D934B"/>
<path d="M408.999 267C410.147 267.021 410.147 267.021 411.317 267.042C446.404 267.811 484.815 280.904 509.999 306C511.061 307.027 511.061 307.027 512.144 308.074C521.909 318.175 527.409 331.308 527.312 345.312C527.306 346.156 527.3 346.999 527.295 347.867C527.175 354.012 526.585 359.358 523.999 365C523.597 365.887 523.195 366.774 522.78 367.687C519.216 374.817 514.525 380.312 508.999 386C508.396 386.677 507.793 387.353 507.171 388.051C485.085 412.009 447.342 421.756 415.999 424C374.508 425.678 331.977 419.041 298.999 392C298.114 391.279 297.228 390.559 296.316 389.816C285.025 380.176 275.721 367.094 273.999 352C272.766 336.214 277.523 323.629 287.183 311.187C311.202 283.421 348.973 270.135 384.768 267.136C392.836 266.644 400.923 266.809 408.999 267ZM353.999 302C352.956 302.452 351.914 302.905 350.839 303.371C337.653 309.523 324.465 319.946 318.812 333.746C316.228 344.092 316.641 355.646 321.999 365C322.556 366.011 323.113 367.021 323.687 368.062C333.989 381.149 347.279 388.888 362.999 394C363.899 394.295 364.799 394.59 365.726 394.895C394.524 403.517 429.796 401.298 456.335 387.07C470.467 379.209 480.782 369.651 485.999 354C486.93 340.07 484.155 329.694 475.218 318.836C456.866 299.355 428.139 293.591 402.496 292.664C386.082 292.372 369.054 295.422 353.999 302Z" fill="#EBC18B"/>
<path d="M521.001 286C536.609 300.332 549.193 317.77 550.348 339.558C550.755 351.707 550.051 361.866 545.001 373C544.617 373.905 544.233 374.809 543.837 375.742C536.455 391.862 523.44 405.063 509.001 415C508.357 415.443 507.713 415.886 507.049 416.343C488.195 429.072 467.603 436.585 445.481 441.437C443.3 441.932 441.157 442.499 439.001 443.093C427.74 445.881 415.71 445.241 404.188 445.25C403.275 445.251 402.361 445.252 401.42 445.253C387.737 445.242 374.446 444.754 361.001 442C360.278 441.86 359.554 441.721 358.809 441.578C323.223 434.614 285.764 417.661 264.802 386.757C262.793 383.542 260.874 380.295 259.001 377C258.578 376.291 258.155 375.582 257.72 374.851C250.062 361.102 249.398 341.203 253.49 326.246C262.885 296.758 286.622 278.387 312.942 264.441C375.779 233.566 467.189 238.149 521.001 286ZM346.001 275C344.886 275.357 343.771 275.714 342.622 276.082C317.319 284.535 291.537 299.753 279.126 324.187C273.237 336.171 272.197 348.115 275.911 361.004C284.363 384.238 304.524 398.737 326.08 408.988C342.71 416.587 359.926 420.66 378.001 423C378.686 423.095 379.372 423.191 380.078 423.29C420 428.405 466.667 420.214 499.126 395.25C500.772 393.858 502.396 392.439 504.001 391C504.483 390.572 504.965 390.144 505.462 389.704C516.988 379.341 526.372 366.53 527.309 350.582C527.912 334.113 523.633 321.383 512.688 308.875C504.633 300.297 496.271 293.777 486.001 288C484.865 287.351 483.73 286.703 482.559 286.035C459.858 273.634 434.674 267.746 409.001 267C408.191 266.967 407.381 266.935 406.546 266.901C386.211 266.132 365.304 268.317 346.001 275Z" fill="#CB8D45"/>
<path d="M388.999 701C391.775 704.318 392.976 706.127 393.028 710.433C392.418 717.02 391.109 722.945 388.936 729.188C388.625 730.094 388.314 731 387.994 731.934C379.021 757.331 362.896 779.991 341.999 797C341.339 797.66 340.679 798.32 339.999 799C337.081 801.124 334.032 803.046 330.999 805C329.957 805.697 328.916 806.395 327.843 807.113C302.701 823.469 272.041 828.035 242.561 828.25C241.679 828.259 240.797 828.269 239.888 828.278C238.645 828.272 238.645 828.272 237.378 828.266C236.651 828.263 235.925 828.261 235.177 828.259C232.547 827.946 230.452 826.983 227.999 826C225.481 825.57 225.481 825.57 222.874 825.402C221.92 825.323 220.966 825.244 219.983 825.162C218.998 825.088 218.013 825.014 216.999 824.938C215.04 824.782 213.082 824.625 211.124 824.465C210.26 824.399 209.396 824.333 208.507 824.265C205.958 823.996 203.502 823.541 200.999 823C204.565 819.983 208.144 817.702 212.276 815.531C212.875 815.215 213.473 814.898 214.09 814.572C216.036 813.543 217.986 812.522 219.936 811.5C222.68 810.053 225.421 808.603 228.163 807.152C228.843 806.793 229.523 806.434 230.223 806.065C235.786 803.124 241.303 800.105 246.811 797.063C259.506 790.08 272.427 783.532 285.318 776.921C291.329 773.836 297.314 770.703 303.287 767.543C310.448 763.756 317.633 760.016 324.823 756.284C329.585 753.807 334.333 751.305 339.061 748.766C339.96 748.284 340.858 747.802 341.784 747.306C344.102 746.064 344.102 746.064 345.999 744C346.877 739.296 346.623 735.926 343.936 731.938C340.133 729.429 338.506 729.335 333.999 730C323.797 732.844 314.272 739.019 304.999 744C302.841 745.154 300.684 746.308 298.526 747.461C293.181 750.32 287.839 753.184 282.498 756.05C278.274 758.317 274.049 760.579 269.823 762.84C250.344 773.26 230.894 783.733 211.54 794.383C210.284 795.074 209.029 795.764 207.772 796.454C203.836 798.616 199.914 800.8 195.999 803C195.008 803.549 194.018 804.099 192.998 804.665C192.098 805.179 191.199 805.693 190.272 806.223C189.099 806.886 189.099 806.886 187.903 807.563C185.765 809.176 184.986 810.539 183.999 813C183.432 806.486 185.412 801.909 187.999 796C188.734 794.19 189.464 792.378 190.186 790.563C190.51 789.759 190.833 788.956 191.167 788.129C191.828 786.438 192.425 784.722 192.999 783C194.329 781.664 195.663 780.331 196.999 779C198.409 777.025 199.781 775.022 201.124 773C205.091 767.105 209.465 761.721 214.128 756.363C216.206 754.241 216.206 754.241 215.999 752C216.898 751.76 217.798 751.52 218.725 751.273C222.343 749.866 223.806 748.489 226.374 745.625C235.085 736.574 245.406 729.371 256.124 722.875C257.028 722.326 257.028 722.326 257.951 721.765C261.526 719.667 265.025 718.172 268.999 717C268.999 715.35 268.999 713.7 268.999 712C269.864 711.875 270.728 711.751 271.619 711.623C274.922 711.014 277.897 710.132 281.069 709.039C282.214 708.65 283.358 708.26 284.538 707.859C286.905 707.045 289.272 706.229 291.639 705.414C311.528 698.651 311.528 698.651 319.799 699.024C322.626 698.993 325.288 698.512 328.077 698.047C336.187 696.852 344.235 696.545 352.424 696.367C354.892 696.312 357.359 696.242 359.827 696.17C361.423 696.129 363.02 696.09 364.616 696.051C365.702 696.02 365.702 696.02 366.81 695.988C374.727 695.832 382.381 696.223 388.999 701Z" fill="#8C934A"/>
<path d="M842.999 660C845.665 690.022 845.665 690.022 841.637 697.544C837.958 701.333 833.332 703.148 828.458 704.986C824.311 706.696 820.724 709.217 816.999 711.688C815.4 712.7 813.798 713.709 812.194 714.715C803.168 720.413 794.19 726.188 785.203 731.949C782.093 733.94 778.98 735.926 775.866 737.91C764.007 745.472 752.21 753.12 740.457 760.844C730.667 767.277 720.817 773.607 710.921 779.875C706.428 782.722 701.959 785.603 697.499 788.5C684.133 797.175 670.667 805.692 657.187 814.188C650.631 818.32 644.111 822.502 637.612 826.722C627.172 833.494 616.651 840.14 606.146 846.812C604.257 848.011 602.368 849.212 600.479 850.412C598.634 851.586 596.787 852.758 594.94 853.929C590.587 856.696 586.249 859.483 581.944 862.324C580.767 863.098 580.767 863.098 579.567 863.888C578.103 864.853 576.643 865.824 575.187 866.802C570.331 870 570.331 870 566.999 870C566.309 861.142 565.874 852.293 566.085 843.406C566.08 842.29 566.08 842.29 566.074 841.151C566.237 836.908 566.968 834.55 569.891 831.4C572.225 829.28 574.286 827.771 577.327 826.82C582.856 824.801 587.51 821.679 592.437 818.5C594.242 817.382 596.051 816.269 597.862 815.16C624.202 798.971 650.229 782.269 676.261 765.593C681.09 762.5 685.921 759.412 690.761 756.336C695.063 753.6 699.349 750.84 703.624 748.062C719.84 737.551 736.144 727.174 752.452 716.804C760.942 711.404 769.413 705.976 777.854 700.5C786.623 694.813 795.42 689.175 804.24 683.571C811.731 678.81 819.211 674.034 826.687 669.25C827.768 668.558 828.85 667.866 829.964 667.154C830.969 666.51 831.975 665.866 833.011 665.203C833.902 664.632 834.794 664.062 835.713 663.474C841.102 660 841.102 660 842.999 660Z" fill="#A2662E"/>
<path d="M467.563 311.937C477.363 320.487 485.108 329.789 486.274 343.129C486.611 354.522 484.176 362.727 476.626 371.375C475.105 372.937 473.566 374.482 472.001 376C471.458 376.552 470.915 377.103 470.356 377.672C449.477 397.335 419.221 399.787 392.098 399.132C367.082 398.067 344.025 389.419 326.419 371.379C318.567 362.625 317.359 352.958 317.602 341.625C318.232 330.665 325.25 322.237 333.001 315C367.746 285.785 431.231 284.092 467.563 311.937ZM346.044 332.898C342.021 337.381 339.734 341.084 340.001 347.25C341.078 354.615 345.443 359.97 351.001 364.687C369.664 378.206 395.586 380.5 417.831 377.179C435.023 374.186 450.245 368.213 461.001 354C463.095 349.812 462.42 344.561 462.001 340C460.59 336.593 460.59 336.593 458.001 334C457.492 333.427 456.982 332.855 456.458 332.265C444.037 318.964 425.19 314.531 407.556 313.871C385.588 313.527 362.374 317.057 346.044 332.898Z" fill="#CB8C45"/>
<path d="M786 266C788.81 267.794 790.509 269.019 792 272C792.786 279.388 790.445 284.243 787.125 290.75C786.378 292.26 786.378 292.26 785.615 293.8C784.587 295.872 783.552 297.942 782.509 300.008C781.122 302.758 779.754 305.517 778.395 308.281C773.994 317.201 769.434 326.029 764.772 334.815C760.02 343.795 755.506 352.894 751 362C755.776 359.704 760.297 357.3 764.688 354.312C766.219 353.286 766.219 353.286 767.781 352.238C770.011 350.687 772.183 349.12 774.344 347.48C784.836 339.619 784.836 339.619 791.121 340.383C794.587 341.521 796.038 342.963 798 346C798.74 351.177 798.576 354.05 795.462 358.44C792.361 361.749 788.297 363.744 784.375 365.937C782.942 366.761 782.942 366.761 781.479 367.602C779.417 368.786 777.351 369.964 775.282 371.137C771.885 373.065 768.499 375.013 765.117 376.969C761.75 378.916 758.382 380.861 755.009 382.798C752.967 383.971 750.929 385.15 748.893 386.334C746.993 387.428 745.077 388.498 743.148 389.541C737.733 392.549 734.751 394.771 732.188 400.625C731.885 401.287 731.583 401.95 731.272 402.632C730.572 404.17 729.885 405.714 729.209 407.262C726.985 412.299 724.629 417.277 722.302 422.268C721.439 424.122 720.58 425.978 719.723 427.834C715.467 437.045 711.063 446.15 706.355 455.141C703.604 460.469 701.425 465.505 699.84 471.281C698.775 474.729 697.454 478.049 696.062 481.375C695.579 482.538 695.096 483.7 694.598 484.898C693.017 487.966 691.702 489.873 689 492C684.363 492.589 682.185 492.669 678.125 490.375C675.718 487.685 674.869 485.476 674 482C673.34 482 672.68 482 672 482C672 481.34 672 480.68 672 480C672.66 480 673.32 480 674 480C674.121 479.287 674.242 478.574 674.367 477.84C674.535 476.882 674.702 475.924 674.875 474.937C675.037 473.998 675.2 473.058 675.367 472.09C676 469 676 469 677.254 465.676C678.254 460.748 676.951 457.787 675.062 453.25C671.883 445.351 671.883 445.351 673 442C675.31 447.94 677.62 453.88 680 460C686.059 448.91 691.557 437.671 696.822 426.184C699.78 419.74 702.79 413.328 705.91 406.961C706.232 406.302 706.554 405.643 706.886 404.964C708.446 401.777 710.014 398.594 711.594 395.417C712.156 394.271 712.718 393.126 713.297 391.945C713.795 390.94 714.294 389.935 714.808 388.899C717.071 383.395 717.279 379.774 715.293 374.176C712.919 366.986 711.294 359.763 709.762 352.359C709.309 350.171 708.846 347.985 708.381 345.799C702.765 319.076 702.765 319.076 706.023 311.676C708.097 308.851 709.808 307.318 713.227 306.406C717.282 306.135 719.485 306.671 722.938 308.875C728.412 317.17 727.99 329.401 729.125 339.125C729.308 340.669 729.492 342.213 729.676 343.758C730.121 347.505 730.562 351.252 731 355C731.318 354.306 731.636 353.612 731.964 352.897C739.931 335.551 748.11 318.326 756.614 301.236C758.165 298.118 759.698 294.992 761.229 291.864C762.722 288.821 764.236 285.788 765.746 282.754C766.287 281.642 766.828 280.531 767.385 279.386C771.75 270.704 775.517 264.502 786 266Z" fill="#6C7332"/>
<path d="M453.375 329.437C458.9 334.737 462.17 338.117 462.5 346C462.316 351.139 461.528 354.09 458 358C457.278 358.825 456.556 359.65 455.812 360.5C437.87 376.448 413.078 379.132 390 378C374.466 376.686 356.949 371.79 346.129 359.953C342.315 355.087 339.73 351.011 340 344.687C341.066 337.383 345.729 332.844 351.25 328.312C378.378 308.33 427.506 306.93 453.375 329.437Z" fill="#EAC18B"/>
<path d="M341 729C343.753 730.796 345.526 732.053 347 735C347.611 738.148 347.647 740.855 347 744C341.877 749.812 333.513 752.953 326.688 756.25C324.351 757.398 322.015 758.548 319.68 759.699C318.539 760.26 317.397 760.822 316.222 761.4C311.883 763.555 307.591 765.791 303.312 768.062C302.56 768.462 301.808 768.861 301.034 769.272C299.493 770.089 297.953 770.907 296.412 771.726C292.923 773.569 289.42 775.386 285.917 777.204C272.733 784.054 259.632 791.055 246.547 798.093C243.012 799.995 239.473 801.89 235.934 803.785C224.872 809.715 213.832 815.658 203 822C212.643 823.552 222.305 824.83 232 826C232 826.33 232 826.66 232 827C223.995 827.465 216.247 826.689 208.312 825.687C207.339 825.57 206.366 825.452 205.363 825.331C188.858 823.14 188.858 823.14 184.438 817.75C182.588 815.265 181.981 813.914 181.312 810.812C182.505 804.198 184.736 796.507 190 792C189.097 796.099 187.469 799.805 185.84 803.66C184.831 806.056 184.831 806.056 185 809C185.99 808.36 185.99 808.36 187 807.707C197.357 801.166 208.136 795.442 218.926 789.654C223.588 787.146 228.231 784.604 232.875 782.062C244.086 775.938 255.332 769.879 266.586 763.834C270.057 761.969 273.527 760.102 276.996 758.234C332.686 728.283 332.686 728.283 341 729Z" fill="#6D7332"/>
<path d="M465 691C469.364 691.463 472.879 693.302 476.679 695.359C477.32 695.7 477.961 696.041 478.621 696.391C480.709 697.504 482.792 698.627 484.875 699.75C486.327 700.527 487.779 701.304 489.232 702.081C498.497 707.048 507.676 712.154 516.799 717.38C524.464 721.753 532.255 725.856 540.115 729.868C556.256 738.149 556.256 738.149 559.345 741.427C561.643 743.737 561.643 743.737 568 747C568 756.9 568 766.8 568 777C565 778 565 778 562.989 777.202C562.223 776.771 561.457 776.339 560.668 775.895C559.798 775.412 558.929 774.929 558.033 774.432C557.094 773.897 556.155 773.363 555.187 772.813C553.181 771.694 551.174 770.575 549.168 769.457C547.627 768.592 547.627 768.592 546.056 767.709C541.392 765.101 536.695 762.551 532 760C530.163 758.999 528.328 757.998 526.492 756.996C525.584 756.501 524.676 756.006 523.741 755.496C521.017 754.009 518.293 752.522 515.57 751.035C514.672 750.545 513.774 750.055 512.849 749.55C511.035 748.559 509.22 747.568 507.406 746.577C501.508 743.358 495.596 740.165 489.673 736.992C486.625 735.346 483.596 733.668 480.566 731.988C477.149 730.107 473.751 728.419 470.152 726.918C465.933 725.046 463.055 723.545 460 720C457.943 712.88 457.971 703.69 460.939 696.829C462.112 694.734 463.29 692.709 465 691Z" fill="#A1662E"/>
<path d="M462 748C464.33 749.025 464.33 749.025 466.746 750.301C467.654 750.777 468.562 751.254 469.498 751.744C470.468 752.262 471.438 752.78 472.438 753.313C473.965 754.119 473.965 754.119 475.524 754.942C485.129 760.029 494.668 765.239 504.198 770.466C509 773.095 513.812 775.705 518.625 778.313C519.602 778.843 520.579 779.373 521.586 779.918C527.178 782.946 532.779 785.954 538.391 788.946C539.015 789.279 539.639 789.612 540.281 789.955C543.314 791.573 546.349 793.189 549.385 794.8C556.043 798.35 562.577 802.04 569 806C565.55 809.673 561.436 812.095 557.188 814.75C556.393 815.27 555.598 815.789 554.779 816.325C548.984 819.939 548.984 819.939 545.066 820.184C540.347 818.362 536.102 815.877 531.75 813.313C529.68 812.118 527.608 810.925 525.535 809.735C524.46 809.117 523.385 808.499 522.278 807.862C516.961 804.842 511.578 801.949 506.188 799.063C504.567 798.194 504.567 798.194 502.914 797.307C499.61 795.536 496.305 793.768 493 792C479.042 784.538 465.125 777.028 451.382 769.174C446.973 766.658 442.574 764.204 438 762C439.592 757.223 443.675 755.467 447.75 752.75C448.562 752.183 449.374 751.616 450.211 751.032C451.002 750.501 451.794 749.969 452.609 749.422C453.331 748.933 454.052 748.445 454.796 747.941C457.671 746.714 459.045 747.069 462 748Z" fill="#A2662E"/>
<path d="M672.001 599C675.517 600.376 676.718 601.594 678.876 604.687C680.31 608.91 680.524 611.798 679.001 616C674.56 621.067 668.338 624.447 662.626 627.875C660.755 629.015 658.885 630.157 657.017 631.301C656.038 631.9 655.059 632.498 654.05 633.116C648.786 636.369 643.582 639.717 638.376 643.062C636.276 644.41 634.176 645.758 632.075 647.105C631.06 647.757 630.045 648.408 628.999 649.079C624.403 652.024 619.799 654.954 615.188 657.875C614.412 658.369 613.636 658.862 612.836 659.371C612.121 659.824 611.406 660.276 610.669 660.742C610.053 661.132 609.437 661.523 608.802 661.925C604.166 664.691 600.468 665.717 595.001 665C591.415 663.363 590.208 662.31 588.001 659C587.63 656.695 587.63 656.695 587.563 654.125C587.524 653.282 587.484 652.439 587.442 651.57C588.701 645.78 594.611 642.678 599.313 639.625C599.946 639.208 600.578 638.792 601.23 638.363C608.417 633.666 615.719 629.148 623.01 624.613C629.082 620.834 635.126 617.018 641.126 613.125C641.802 612.689 642.478 612.254 643.174 611.805C646.436 609.698 649.658 607.553 652.837 605.324C664.779 597.06 664.779 597.06 672.001 599Z" fill="#6E401E"/>
<path d="M434 787C440.481 788.456 445.666 791.421 451.375 794.75C453.442 795.937 455.51 797.123 457.578 798.309C458.641 798.921 459.704 799.533 460.799 800.164C465.887 803.083 471.005 805.949 476.125 808.812C477.151 809.387 478.178 809.962 479.236 810.553C500.068 822.199 520.993 833.672 542 845C542 849.29 542 853.58 542 858C534.739 854.055 527.506 850.067 520.312 846C519.326 845.442 518.339 844.885 517.322 844.31C510.221 840.287 503.165 836.191 496.125 832.062C484.917 825.494 473.602 819.129 462.251 812.812C456.474 809.593 450.706 806.358 444.938 803.125C442.822 801.94 440.706 800.755 438.59 799.57C437.06 798.714 435.53 797.857 434 797C434 793.7 434 790.4 434 787Z" fill="#A5682E"/>
<path d="M676 829C676 829.99 676 830.98 676 832C673.883 833.535 673.883 833.535 671.125 835.062C667.305 837.188 667.305 837.188 664 840C662.329 841.007 660.638 841.981 658.938 842.938C651.484 847.231 644.311 851.924 637.112 856.629C635.087 857.944 633.052 859.241 631.012 860.531C630.074 861.126 630.074 861.126 629.117 861.733C627.43 862.801 625.74 863.865 624.051 864.93C621.832 866.435 619.921 867.888 617.918 869.633C615.169 871.863 613.245 872.762 610 874C607.389 875.522 604.885 877.193 602.375 878.875C601.707 879.309 601.04 879.744 600.352 880.191C596.451 882.789 596.451 882.789 593.352 886.258C591.484 888.665 589.964 888.459 587 889C584.547 890.302 582.184 891.628 579.812 893.062C573.25 897 573.25 897 571 897C571 896.34 571 895.68 571 895C571.597 894.72 572.194 894.439 572.81 894.15C579.479 890.929 585.595 887.17 591.75 883.062C593.778 881.724 595.807 880.387 597.836 879.051C598.859 878.376 599.882 877.701 600.937 877.006C605.72 873.874 610.545 870.81 615.375 867.75C621.705 863.735 628.025 859.706 634.312 855.625C641.545 850.931 648.801 846.274 656.062 841.625C657.122 840.946 658.181 840.268 659.273 839.569C664.829 836.014 670.398 832.483 676 829Z" fill="#502911"/>
<path d="M536 222C538.868 222.604 541.051 223.463 543.539 225.004C544.197 225.411 544.855 225.817 545.532 226.237C546.223 226.674 546.914 227.112 547.625 227.562C548.341 228.014 549.056 228.465 549.794 228.929C555.523 232.592 560.807 236.61 566 241C567.937 242.563 569.874 244.126 571.812 245.688C577.665 250.416 582.702 255.658 587.562 261.375C588.031 261.914 588.5 262.453 588.982 263.008C592.196 266.783 594.651 270.633 597 275C596.01 275.495 596.01 275.495 595 276C594.527 275.322 594.054 274.644 593.566 273.945C588.778 267.206 583.67 261.012 578 255C577.461 254.408 576.922 253.817 576.367 253.207C566.661 242.94 554.52 235.168 542.757 227.508C541.881 226.935 541.005 226.363 540.102 225.773C539.311 225.262 538.52 224.751 537.706 224.224C537.143 223.82 536.58 223.416 536 223C536 222.67 536 222.34 536 222Z" fill="#512D16"/>
<path d="M583 561C583 564 583 564 582 567C580.904 567.165 580.904 567.165 579.785 567.333C576.839 568.039 574.972 569.03 572.438 570.668C571.568 571.225 570.698 571.782 569.802 572.356C568.877 572.961 567.953 573.565 567 574.188C566.043 574.807 565.085 575.426 564.099 576.064C562.086 577.369 560.076 578.679 558.069 579.992C555.025 581.984 551.972 583.961 548.918 585.938C547.007 587.186 545.097 588.436 543.188 589.688C542.281 590.275 541.374 590.862 540.439 591.468C539.607 592.018 538.775 592.569 537.918 593.137C537.183 593.618 536.449 594.1 535.692 594.596C533.71 595.989 533.71 595.989 533 599C532.313 599.08 531.626 599.16 530.918 599.242C526.598 600.364 523.225 602.855 519.553 605.293C518.069 606.25 516.537 607.132 515 608C514.34 607.67 513.68 607.34 513 607C520.032 601.984 527.205 597.248 534.5 592.625C543.704 586.764 552.871 580.851 562 574.875C563.067 574.177 564.133 573.479 565.232 572.76C571.173 568.868 577.098 564.951 583 561Z" fill="#6D3E1B"/>
<path d="M740 788C740.99 788.495 740.99 788.495 742 789C727.402 798.796 712.658 808.343 697.777 817.704C691.445 821.696 685.195 825.796 679 830C678.34 829.67 677.68 829.34 677 829C680.237 826.348 683.517 823.921 687.027 821.645C688.452 820.718 688.452 820.718 689.906 819.772C690.906 819.126 691.907 818.479 692.938 817.812C693.972 817.141 695.007 816.47 696.073 815.778C698.128 814.446 700.183 813.115 702.239 811.786C704.493 810.328 706.743 808.867 708.992 807.402C717.637 801.799 726.417 796.429 735.229 791.094C736.842 790.098 738.423 789.051 740 788Z" fill="#4E2A12"/>
<path d="M313 203C310.307 204.795 308.119 205.805 305.117 206.926C293.632 211.308 282.476 216.013 271.562 221.688C270.552 222.209 269.542 222.731 268.501 223.269C262.67 226.36 257.282 229.763 251.976 233.691C250 235 250 235 248 235C248 234.34 248 233.68 248 233C250.442 230.938 253.235 229.324 255.938 227.625C256.777 227.097 257.617 226.569 258.482 226.025C297.711 201.966 297.711 201.966 313 203Z" fill="#502E15"/>
<path d="M395.023 188.794C397.956 188.812 400.889 188.814 403.822 188.814C405.703 188.819 407.584 188.825 409.465 188.832C410.768 188.833 410.768 188.833 412.098 188.835C416.508 188.869 420.658 189.115 425 189.999C425 190.329 425 190.659 425 190.999C424.453 191.01 423.907 191.02 423.344 191.031C417.55 191.141 411.757 191.255 405.963 191.372C403.813 191.415 401.664 191.456 399.514 191.497C385.991 191.753 372.502 192.183 359 192.999C369.371 187.2 383.536 188.719 395.023 188.794Z" fill="#572F15"/>
<path d="M622 566C607.741 575.123 593.416 584.128 579 593C577.599 593.863 576.198 594.726 574.797 595.59C571.866 597.395 568.933 599.198 566 601C566 600.01 566 599.02 566 598C567.547 596.704 567.547 596.704 569.75 595.391C570.575 594.89 571.4 594.39 572.249 593.875C573.157 593.339 574.065 592.802 575 592.25C576.921 591.089 578.842 589.928 580.762 588.766C581.777 588.155 582.792 587.545 583.837 586.916C589.198 583.668 594.503 580.331 599.812 577C602.687 575.202 605.561 573.403 608.44 571.613C610.096 570.569 611.74 569.505 613.369 568.418C614.076 567.95 614.783 567.482 615.512 567C616.118 566.587 616.725 566.175 617.35 565.75C619 565 619 565 622 566Z" fill="#532E14"/>
<path d="M673 534C666.264 538.31 659.504 542.579 652.706 546.79C648.507 549.4 644.354 552.071 640.223 554.789C638.739 555.757 638.739 555.757 637.226 556.744C635.265 558.025 633.31 559.316 631.362 560.617C630.464 561.201 629.566 561.785 628.641 562.387C627.842 562.915 627.043 563.443 626.22 563.987C624 565 624 565 621.71 564.663C620.864 564.335 620.864 564.335 620 564C621.079 563.345 622.158 562.69 623.27 562.015C631.493 557.013 639.682 551.963 647.812 546.812C648.602 546.314 649.392 545.815 650.206 545.301C653.808 543.026 657.403 540.742 660.98 538.429C662.153 537.682 663.327 536.934 664.5 536.187C665.5 535.541 666.501 534.896 667.531 534.23C670 533 670 533 673 534Z" fill="#532E14"/>
<path d="M794 507C801.424 510.574 808.536 514.556 815.625 518.75C825.025 524.275 834.47 529.703 844 535C844 535.99 844 536.98 844 538C836.762 534.154 829.687 530.077 822.638 525.898C816.926 522.522 811.162 519.249 805.353 516.044C801.435 513.867 797.616 511.655 794 509C794 508.34 794 507.68 794 507Z" fill="#563016"/>
<path d="M188 453C188.413 495.227 188.413 495.227 186 513C185.67 513 185.34 513 185 513C184.808 503.305 185.404 493.671 186 484C185.34 483.67 184.68 483.34 184 483C184.66 483 185.32 483 186 483C186 479.37 186 475.74 186 472C185.34 471.67 184.68 471.34 184 471C184.66 471 185.32 471 186 471C186 470.01 186 469.02 186 468C185.34 467.67 184.68 467.34 184 467C184.66 467 185.32 467 186 467C185.988 466.073 185.977 465.146 185.965 464.191C185.956 462.994 185.947 461.796 185.938 460.562C185.926 459.368 185.914 458.173 185.902 456.941C186.033 453 186.033 453 188 453Z" fill="#7A4922"/>
<path d="M247 234C247 234.99 247 235.98 247 237C244.874 238.875 242.77 240.566 240.5 242.25C239.206 243.239 237.913 244.23 236.621 245.223C235.994 245.701 235.368 246.179 234.722 246.672C228.409 251.539 223.091 256.885 218 263C217.113 264.059 216.227 265.117 215.34 266.176C212.885 269.111 210.441 272.054 208 275C208 268.54 214.457 262.589 218.758 258.16C220.518 256.452 222.296 254.762 224.094 253.094C226.337 251.102 226.337 251.102 226 248C226.591 247.885 227.182 247.77 227.791 247.652C230.154 246.955 231.445 246.108 233.348 244.566C233.953 244.082 234.558 243.598 235.182 243.1C235.802 242.592 236.423 242.085 237.062 241.562C238.303 240.563 239.544 239.564 240.785 238.566C241.331 238.122 241.876 237.678 242.438 237.221C243.905 236.075 245.451 235.033 247 234Z" fill="#522F16"/>
<path d="M817 197C817.495 197.99 817.495 197.99 818 199C816.057 199.259 816.057 199.259 814.074 199.523C806.624 201.02 799.958 204.345 793.116 207.547C790.84 208.612 788.556 209.661 786.271 210.707C778.221 214.418 770.315 218.292 762.603 222.669C761.099 223.504 759.553 224.26 758 225C757.34 224.67 756.68 224.34 756 224C761.996 220.195 768.159 216.812 774.5 213.625C775.206 213.267 775.913 212.91 776.641 212.541C781.752 210 781.752 210 784 210C784.33 209.34 784.66 208.68 785 208C786.991 207.307 788.994 206.649 791 206C792.675 205.295 794.342 204.572 796.004 203.836C796.909 203.436 797.815 203.037 798.748 202.625C800.631 201.789 802.511 200.948 804.389 200.102C805.293 199.704 806.197 199.307 807.129 198.898C807.944 198.534 808.76 198.17 809.6 197.794C812.202 196.933 814.278 196.853 817 197Z" fill="#757635"/>
<path d="M269 715C269 715.66 269 716.32 269 717C268.189 717.424 267.378 717.848 266.543 718.285C249.471 727.328 234.605 738.208 221 752C220.34 751.67 219.68 751.34 219 751C222.098 746.309 224.142 743.864 229 741C230.944 739.356 232.851 737.693 234.75 736C239.949 731.477 245.4 727.55 251.188 723.812C252.302 723.09 252.302 723.09 253.438 722.354C258.729 719 258.729 719 261 719C261.33 718.34 261.66 717.68 262 717C266.333 715 266.333 715 269 715Z" fill="#7D7B39"/>
<path d="M353.332 694.815C355.392 694.813 357.452 694.794 359.512 694.776C360.815 694.774 362.118 694.772 363.461 694.77C365.237 694.764 365.237 694.764 367.048 694.757C370 695 370 695 373 697C371.952 697.02 370.905 697.04 369.826 697.06C365.871 697.137 361.916 697.226 357.961 697.318C356.262 697.355 354.563 697.39 352.864 697.422C343.401 697.601 334.218 698.007 324.87 699.585C322.196 699.972 319.696 700.077 317 700C318.18 698.012 318.18 698.012 320 696C322.383 695.645 322.383 695.645 325.125 695.813C328.507 695.994 331.529 695.936 334.906 695.524C341.034 694.785 347.167 694.814 353.332 694.815Z" fill="#847E3A"/>
<path d="M850 558C850.66 558.33 851.32 558.66 852 559C845.294 571.498 827.403 578.679 815.504 585.637C814.458 586.252 814.458 586.252 813.391 586.879C812.071 587.654 810.747 588.422 809.419 589.183C807.913 590.067 806.451 591.027 805 592C805 592.66 805 593.32 805 594C804.01 593.67 803.02 593.34 802 593C802 592.34 802 591.68 802 591C803.534 589.862 803.534 589.862 805.707 588.602C806.512 588.128 807.318 587.655 808.147 587.167C809.027 586.658 809.906 586.149 810.812 585.625C812.648 584.542 814.483 583.457 816.316 582.371C817.259 581.814 818.201 581.257 819.172 580.683C823.564 578.069 827.915 575.395 832.25 572.688C833.01 572.221 833.771 571.755 834.554 571.274C843.512 565.865 843.512 565.865 850 558Z" fill="#532B13"/>
<path d="M511 608C511.66 608.33 512.32 608.66 513 609C512.495 609.338 511.989 609.675 511.469 610.023C510.819 610.469 510.169 610.915 509.5 611.375C508.85 611.816 508.201 612.257 507.531 612.711C507.026 613.136 506.521 613.562 506 614C506 614.66 506 615.32 506 616C504.948 616.124 504.948 616.124 503.875 616.25C500.286 617.186 497.9 618.707 495 621C495 621.99 495 622.98 495 624C494.272 623.941 493.543 623.881 492.793 623.82C489.458 624.035 488.015 624.957 485.312 626.875C484.546 627.409 483.779 627.942 482.988 628.492C480.918 629.991 480.918 629.991 479 632C476.788 633.83 475.02 634.992 472.312 636C471.549 636.33 470.786 636.66 470 637C469.67 637.99 469.34 638.98 469 640C467.68 639.34 466.36 638.68 465 638C471.409 633.348 478.006 629.082 484.738 624.92C490.251 621.499 495.663 617.943 501.04 614.311C508.301 609.414 508.301 609.414 511 608Z" fill="#753E1B"/>
<path d="M791 755C791.66 755.33 792.32 755.66 793 756C786.965 760.344 780.807 764.466 774.562 768.5C773.832 768.973 773.101 769.446 772.348 769.933C769.083 772.039 765.811 774.128 762.496 776.156C761.507 776.765 760.519 777.373 759.5 778C758.644 778.516 757.788 779.031 756.906 779.562C754.705 780.94 754.705 780.94 754 784C753.257 784.124 752.515 784.248 751.75 784.375C749.199 784.955 747.273 785.737 745 787C746.402 783.595 747.841 782.139 750.965 780.23C752.157 779.491 752.157 779.491 753.372 778.738C754.219 778.226 755.065 777.715 755.938 777.188C757.68 776.112 759.422 775.037 761.164 773.961C762.004 773.448 762.843 772.934 763.708 772.405C766.429 770.737 769.124 769.032 771.812 767.312C772.632 766.793 773.452 766.274 774.297 765.738C776.445 764.357 778.576 762.957 780.703 761.543C781.343 761.122 781.982 760.7 782.641 760.266C783.901 759.436 785.157 758.599 786.407 757.755C787.9 756.775 789.446 755.879 791 755Z" fill="#502E12"/>
<path d="M437 694C437.33 694 437.66 694 438 694C438.025 694.766 438.05 695.531 438.076 696.32C438.193 699.838 438.315 703.357 438.437 706.875C438.477 708.079 438.516 709.283 438.557 710.523C438.619 712.302 438.619 712.302 438.684 714.117C438.725 715.286 438.766 716.455 438.808 717.659C438.983 720.696 439.351 723.629 439.789 726.637C440.227 730.672 440.227 730.672 438.34 733.402C437.547 733.909 436.754 734.416 435.937 734.938C435.112 735.484 434.287 736.031 433.437 736.594C430.657 738.198 427.944 739.717 425 741C426.316 737.051 428.054 736.45 431.562 734.312C432.574 733.69 433.586 733.067 434.629 732.426C435.411 731.955 436.194 731.485 437 731C436.34 729.68 435.68 728.36 435 727C435.66 727 436.32 727 437 727C436.838 726.076 436.675 725.151 436.508 724.199C435.779 719.082 435.854 713.971 435.875 708.812C435.871 707.828 435.867 706.844 435.863 705.83C435.865 704.882 435.866 703.934 435.867 702.957C435.868 702.101 435.869 701.245 435.871 700.363C435.994 698.109 436.371 696.162 437 694Z" fill="#5C3217"/>
<path d="M447 831C452.559 832.58 457.303 835.194 462.312 838C463.181 838.482 464.05 838.964 464.944 839.46C473.38 844.164 481.708 849.048 490 854C487 855 487 855 484.125 853.625C483.094 853.089 482.062 852.553 481 852C478.264 851.301 478.264 851.301 476 851C476 850.34 476 849.68 476 849C473.03 847.35 470.06 845.7 467 844C466.67 844.99 466.34 845.98 466 847C465.913 846.392 465.826 845.783 465.736 845.157C464.786 842.372 463.767 841.893 461.219 840.492C460.459 840.063 459.7 839.634 458.918 839.191C458.12 838.757 457.322 838.323 456.5 837.875C454.925 837.002 453.351 836.125 451.781 835.242C451.081 834.859 450.38 834.476 449.658 834.082C448 833 448 833 447 831Z" fill="#542F13"/>
<path d="M533 619C533.99 619.33 534.98 619.66 536 620C534.438 620.977 532.875 621.953 531.312 622.93C530.311 623.556 529.309 624.182 528.277 624.827C526.084 626.198 523.891 627.568 521.698 628.938C516.804 631.997 511.911 635.055 507.02 638.117C506.298 638.569 505.577 639.02 504.834 639.485C503.526 640.303 502.219 641.122 500.912 641.941C499.277 642.964 497.639 643.982 496 645C495.076 645.603 494.151 646.207 493.199 646.828C492.473 647.215 491.748 647.602 491 648C490.34 647.67 489.68 647.34 489 647C495.751 642.03 502.773 637.614 509.947 633.287C513.87 630.919 517.766 628.524 521.613 626.035C522.341 625.567 523.07 625.099 523.82 624.616C525.206 623.722 526.587 622.82 527.961 621.909C529.593 620.861 531.293 619.92 533 619Z" fill="#542E15"/>
<path d="M755 224C755 224.99 755 225.98 755 227C752.648 228.691 752.648 228.691 749.375 230.562C738.769 236.826 729.031 243.749 720.073 252.221C716.573 255.527 713.015 258.354 709 261C715.365 244.996 741.083 232.533 755 224Z" fill="#757635"/>
<path d="M748 486.001C758.759 485.065 768.097 491.46 777.18 496.546C779.02 497.574 780.867 498.588 782.715 499.6C783.894 500.255 785.072 500.911 786.25 501.567C787.307 502.154 788.364 502.742 789.453 503.347C792 505.001 792 505.001 794 508.001C789.916 506.747 786.361 505.236 782.664 503.102C781.682 502.54 780.7 501.978 779.688 501.399C778.172 500.521 778.172 500.521 776.625 499.626C764.761 491.975 764.761 491.975 751.5 488.251C750.644 488.194 749.788 488.137 748.906 488.079C748.277 488.053 747.648 488.027 747 488.001C747.33 487.341 747.66 486.681 748 486.001Z" fill="#563016"/>
<path d="M558 741C562.338 742.343 565.864 743.932 570 746C570 756.89 570 767.78 570 779C569.01 779 568.02 779 567 779C567 768.44 567 757.88 567 747C564.03 745.35 561.06 743.7 558 742C558 741.67 558 741.34 558 741Z" fill="#AB6C30"/>
<path d="M249 266C249.66 266.33 250.32 266.66 251 267C250.301 267.675 249.603 268.351 248.883 269.047C247.973 269.939 247.063 270.831 246.125 271.75C245.22 272.632 244.315 273.513 243.383 274.422C241.301 276.674 240.221 278.26 239 281C238.056 282.441 237.076 283.858 236.062 285.25C235.558 285.956 235.054 286.663 234.535 287.391C234.029 287.922 233.522 288.453 233 289C232.01 289 231.02 289 230 289C229.752 289.701 229.505 290.402 229.25 291.125C227.839 294.37 226.021 297.103 224 300C223.67 299.34 223.34 298.68 223 298C228.904 285.905 239.321 275.179 249 266Z" fill="#F5E0AA"/>
<path d="M178 620C197.8 620.495 197.8 620.495 218 621C218 621.33 218 621.66 218 622C213.891 622.989 210.056 623.115 205.836 623.098C205.162 623.096 204.488 623.095 203.794 623.093C201.654 623.088 199.515 623.075 197.375 623.062C195.93 623.057 194.484 623.053 193.039 623.049C189.359 623.037 185.68 623.019 182 623C181.01 623 180.02 623 179 623C178.67 622.01 178.34 621.02 178 620Z" fill="#593216"/>
<path d="M805 593C817.853 599.092 829.977 606.423 842 614C841.34 614.66 840.68 615.32 840 616C839.149 615.49 838.298 614.979 837.422 614.453C836.847 614.108 836.272 613.764 835.68 613.408C834.376 612.626 833.074 611.843 831.771 611.058C827.711 608.616 823.638 606.197 819.551 603.801C818.64 603.264 817.73 602.726 816.792 602.173C814.982 601.105 813.169 600.043 811.353 598.987C810.526 598.498 809.699 598.008 808.848 597.504C808.105 597.069 807.363 596.634 806.598 596.186C806.071 595.794 805.543 595.403 805 595C805 594.34 805 593.68 805 593Z" fill="#532D15"/>
<path d="M565 836C565.66 836 566.32 836 567 836C567.33 847.55 567.66 859.1 568 871C566.515 871.495 566.515 871.495 565 872C565 860.12 565 848.24 565 836Z" fill="#AB6D30"/>
<path d="M485 649C485.99 649.33 486.98 649.66 488 650C487.331 650.418 486.661 650.835 485.971 651.266C482.876 653.198 479.782 655.13 476.688 657.062C475.635 657.719 474.582 658.376 473.498 659.053C472.451 659.707 471.403 660.361 470.324 661.035C469.277 661.689 468.229 662.343 467.15 663.016C463.124 665.551 459.136 668.143 455.156 670.748C453 672 453 672 451 672C451 671.34 451 670.68 451 670C453.26 668.384 453.26 668.384 456.406 666.48C456.964 666.14 457.522 665.8 458.098 665.449C459.894 664.355 461.697 663.271 463.5 662.188C465.269 661.115 467.036 660.04 468.804 658.966C470.504 657.934 472.209 656.909 473.914 655.884C476.535 654.284 479.096 652.621 481.656 650.926C482.76 650.29 483.863 649.655 485 649Z" fill="#512E14"/>
<path d="M403.125 645.875C404.989 645.888 404.989 645.888 406.891 645.902C409.927 645.925 412.964 645.958 416 646C416 646.66 416 647.32 416 648C403.79 648.33 391.58 648.66 379 649C379 648.67 379 648.34 379 648C387.082 645.929 394.816 645.759 403.125 645.875Z" fill="#5C3617"/>
<path d="M185 325C185.99 325.33 186.98 325.66 188 326C188 336.89 188 347.78 188 359C185.799 355.698 185.723 354.524 185.621 350.668C185.587 349.622 185.553 348.576 185.518 347.498C185.491 346.406 185.465 345.313 185.438 344.188C185.377 342.035 185.313 339.883 185.246 337.73C185.222 336.776 185.198 335.821 185.174 334.837C185.048 331.91 185.048 331.91 184.422 328.704C184.283 327.812 184.144 326.919 184 326C184.33 325.67 184.66 325.34 185 325Z" fill="#774823"/>
</svg>
